<?xml version="1.0" encoding="UTF-8" standalone="no"?>
<!DOCTYPE svg PUBLIC "-//W3C//DTD SVG 1.1//EN"
 "http://www.w3.org/Graphics/SVG/1.1/DTD/svg11.dtd">
<!-- Generated by graphviz version 2.43.0 (0)
 -->
<!-- Title: G Pages: 1 -->
<svg width="1701pt" height="898pt"
 viewBox="0.00 0.00 1701.20 898.12" xmlns="http://www.w3.org/2000/svg" xmlns:xlink="http://www.w3.org/1999/xlink">
<g id="graph0" class="graph" transform="scale(1 1) rotate(0) translate(21.6 876.52)">
<title>G</title>
<polygon fill="#111111" stroke="transparent" points="-21.6,21.6 -21.6,-876.52 1679.6,-876.52 1679.6,21.6 -21.6,21.6"/>
<!-- ../api/middleware/sessionTracking.ts -->
<g id="node1" class="node">
<title>../api/middleware/sessionTracking.ts</title>
<path fill="none" stroke="#c6c5fe" d="M492.83,-457.28C492.83,-457.28 273.17,-457.28 273.17,-457.28 269.33,-457.28 265.5,-453.45 265.5,-449.62 265.5,-449.62 265.5,-441.95 265.5,-441.95 265.5,-438.12 269.33,-434.28 273.17,-434.28 273.17,-434.28 492.83,-434.28 492.83,-434.28 496.67,-434.28 500.5,-438.12 500.5,-441.95 500.5,-441.95 500.5,-449.62 500.5,-449.62 500.5,-453.45 496.67,-457.28 492.83,-457.28"/>
<text text-anchor="middle" x="383" y="-442.08" font-family="Arial" font-size="14.00" fill="#c6c5fe">../api/middleware/sessionTracking.ts</text>
</g>
<!-- ../services/sessionTracker.ts -->
<g id="node2" class="node">
<title>../services/sessionTracker.ts</title>
<path fill="none" stroke="#ff6c60" d="M994.33,-628.28C994.33,-628.28 823.67,-628.28 823.67,-628.28 819.83,-628.28 816,-624.45 816,-620.62 816,-620.62 816,-612.95 816,-612.95 816,-609.12 819.83,-605.28 823.67,-605.28 823.67,-605.28 994.33,-605.28 994.33,-605.28 998.17,-605.28 1002,-609.12 1002,-612.95 1002,-612.95 1002,-620.62 1002,-620.62 1002,-624.45 998.17,-628.28 994.33,-628.28"/>
<text text-anchor="middle" x="909" y="-613.08" font-family="Arial" font-size="14.00" fill="#ff6c60">../services/sessionTracker.ts</text>
</g>
<!-- ../api/middleware/sessionTracking.ts&#45;&gt;../services/sessionTracker.ts -->
<g id="edge1" class="edge">
<title>../api/middleware/sessionTracking.ts&#45;&gt;../services/sessionTracker.ts</title>
<path fill="none" stroke="#757575" d="M395.56,-457.61C419.72,-481.54 478.37,-535.54 539,-560.78 563.33,-570.91 705.72,-590.78 806.32,-603.92"/>
<polygon fill="#757575" stroke="#757575" points="806.16,-607.43 816.53,-605.25 807.06,-600.48 806.16,-607.43"/>
</g>
<!-- ../utils/logger.ts -->
<g id="node3" class="node">
<title>../utils/logger.ts</title>
<path fill="none" stroke="#cfffac" d="M1176.83,-669.28C1176.83,-669.28 1085.17,-669.28 1085.17,-669.28 1081.33,-669.28 1077.5,-665.45 1077.5,-661.62 1077.5,-661.62 1077.5,-653.95 1077.5,-653.95 1077.5,-650.12 1081.33,-646.28 1085.17,-646.28 1085.17,-646.28 1176.83,-646.28 1176.83,-646.28 1180.67,-646.28 1184.5,-650.12 1184.5,-653.95 1184.5,-653.95 1184.5,-661.62 1184.5,-661.62 1184.5,-665.45 1180.67,-669.28 1176.83,-669.28"/>
<text text-anchor="middle" x="1131" y="-654.08" font-family="Arial" font-size="14.00" fill="#cfffac">../utils/logger.ts</text>
</g>
<!-- ../api/middleware/sessionTracking.ts&#45;&gt;../utils/logger.ts -->
<g id="edge2" class="edge">
<title>../api/middleware/sessionTracking.ts&#45;&gt;../utils/logger.ts</title>
<path fill="none" stroke="#757575" d="M400.36,-457.54C425.92,-476.74 475.25,-517.26 503,-562.78 531.1,-608.88 495.54,-646.76 539,-678.78 710.99,-805.49 993.82,-712.35 1093.7,-673.04"/>
<polygon fill="#757575" stroke="#757575" points="1095.07,-676.26 1103.05,-669.3 1092.47,-669.76 1095.07,-676.26"/>
</g>
<!-- ../services/sessionTracker.ts&#45;&gt;../utils/logger.ts -->
<g id="edge43" class="edge">
<title>../services/sessionTracker.ts&#45;&gt;../utils/logger.ts</title>
<path fill="none" stroke="#757575" d="M971.87,-628.31C1001.67,-633.87 1037.34,-640.51 1067.26,-646.09"/>
<polygon fill="#757575" stroke="#757575" points="1066.69,-649.54 1077.17,-647.94 1067.98,-642.66 1066.69,-649.54"/>
</g>
<!-- ../config/database.ts -->
<g id="node4" class="node">
<title>../config/database.ts</title>
<path fill="none" stroke="#cfffac" d="M1650.33,-471.28C1650.33,-471.28 1528.67,-471.28 1528.67,-471.28 1524.83,-471.28 1521,-467.45 1521,-463.62 1521,-463.62 1521,-455.95 1521,-455.95 1521,-452.12 1524.83,-448.28 1528.67,-448.28 1528.67,-448.28 1650.33,-448.28 1650.33,-448.28 1654.17,-448.28 1658,-452.12 1658,-455.95 1658,-455.95 1658,-463.62 1658,-463.62 1658,-467.45 1654.17,-471.28 1650.33,-471.28"/>
<text text-anchor="middle" x="1589.5" y="-456.08" font-family="Arial" font-size="14.00" fill="#cfffac">../config/database.ts</text>
</g>
<!-- ../services/sessionTracker.ts&#45;&gt;../config/database.ts -->
<g id="edge40" class="edge">
<title>../services/sessionTracker.ts&#45;&gt;../config/database.ts</title>
<path fill="none" stroke="#757575" d="M970.05,-605.16C981.76,-601.53 993.61,-596.84 1004,-590.78 1023.55,-579.39 1019.54,-564.44 1040,-554.78 1219.7,-469.99 1294.09,-566.88 1485,-511.78 1512.65,-503.8 1541.72,-488.5 1561.99,-476.55"/>
<polygon fill="#757575" stroke="#757575" points="1563.89,-479.49 1570.65,-471.34 1560.28,-473.5 1563.89,-479.49"/>
</g>
<!-- ../handlers/project.ts -->
<g id="node7" class="node">
<title>../handlers/project.ts</title>
<path fill="none" stroke="#ff6c60" d="M1192.33,-436.28C1192.33,-436.28 1069.67,-436.28 1069.67,-436.28 1065.83,-436.28 1062,-432.45 1062,-428.62 1062,-428.62 1062,-420.95 1062,-420.95 1062,-417.12 1065.83,-413.28 1069.67,-413.28 1069.67,-413.28 1192.33,-413.28 1192.33,-413.28 1196.17,-413.28 1200,-417.12 1200,-420.95 1200,-420.95 1200,-428.62 1200,-428.62 1200,-432.45 1196.17,-436.28 1192.33,-436.28"/>
<text text-anchor="middle" x="1131" y="-421.08" font-family="Arial" font-size="14.00" fill="#ff6c60">../handlers/project.ts</text>
</g>
<!-- ../services/sessionTracker.ts&#45;&gt;../handlers/project.ts -->
<g id="edge41" class="edge">
<title>../services/sessionTracker.ts&#45;&gt;../handlers/project.ts</title>
<path fill="none" stroke="#757575" d="M929.51,-605.07C949.09,-592.96 979.75,-573.02 1004,-552.78 1046.12,-517.62 1089.87,-470.33 1113.1,-444.19"/>
<polygon fill="#757575" stroke="#757575" points="1115.91,-446.3 1119.9,-436.49 1110.66,-441.67 1115.91,-446.3"/>
</g>
<!-- ../utils/agentDetection.ts -->
<g id="node20" class="node">
<title>../utils/agentDetection.ts</title>
<path fill="none" stroke="#cfffac" d="M1203.83,-628.28C1203.83,-628.28 1058.17,-628.28 1058.17,-628.28 1054.33,-628.28 1050.5,-624.45 1050.5,-620.62 1050.5,-620.62 1050.5,-612.95 1050.5,-612.95 1050.5,-609.12 1054.33,-605.28 1058.17,-605.28 1058.17,-605.28 1203.83,-605.28 1203.83,-605.28 1207.67,-605.28 1211.5,-609.12 1211.5,-612.95 1211.5,-612.95 1211.5,-620.62 1211.5,-620.62 1211.5,-624.45 1207.67,-628.28 1203.83,-628.28"/>
<text text-anchor="middle" x="1131" y="-613.08" font-family="Arial" font-size="14.00" fill="#cfffac">../utils/agentDetection.ts</text>
</g>
<!-- ../services/sessionTracker.ts&#45;&gt;../utils/agentDetection.ts -->
<g id="edge42" class="edge">
<title>../services/sessionTracker.ts&#45;&gt;../utils/agentDetection.ts</title>
<path fill="none" stroke="#757575" d="M1002.03,-616.78C1014.66,-616.78 1027.62,-616.78 1040.22,-616.78"/>
<polygon fill="#757575" stroke="#757575" points="1040.23,-620.28 1050.22,-616.78 1040.22,-613.28 1040.23,-620.28"/>
</g>
<!-- ../utils/sessionFormatters.ts -->
<g id="node21" class="node">
<title>../utils/sessionFormatters.ts</title>
<path fill="none" stroke="#ff6c60" d="M1214.33,-587.28C1214.33,-587.28 1047.67,-587.28 1047.67,-587.28 1043.83,-587.28 1040,-583.45 1040,-579.62 1040,-579.62 1040,-571.95 1040,-571.95 1040,-568.12 1043.83,-564.28 1047.67,-564.28 1047.67,-564.28 1214.33,-564.28 1214.33,-564.28 1218.17,-564.28 1222,-568.12 1222,-571.95 1222,-571.95 1222,-579.62 1222,-579.62 1222,-583.45 1218.17,-587.28 1214.33,-587.28"/>
<text text-anchor="middle" x="1131" y="-572.08" font-family="Arial" font-size="14.00" fill="#ff6c60">../utils/sessionFormatters.ts</text>
</g>
<!-- ../services/sessionTracker.ts&#45;&gt;../utils/sessionFormatters.ts -->
<g id="edge44" class="edge">
<title>../services/sessionTracker.ts&#45;&gt;../utils/sessionFormatters.ts</title>
<path fill="none" stroke="#757575" d="M944.86,-605.2C967.93,-599.66 999.44,-593.24 1029.93,-587.71"/>
<polygon fill="#757575" stroke="#757575" points="1030.55,-591.15 1039.78,-585.94 1029.32,-584.26 1030.55,-591.15"/>
</g>
<!-- ../handlers/codeAnalysis.ts -->
<g id="node5" class="node">
<title>../handlers/codeAnalysis.ts</title>
<path fill="none" stroke="#c6c5fe" d="M1452.33,-50.28C1452.33,-50.28 1290.67,-50.28 1290.67,-50.28 1286.83,-50.28 1283,-46.45 1283,-42.62 1283,-42.62 1283,-34.95 1283,-34.95 1283,-31.12 1286.83,-27.28 1290.67,-27.28 1290.67,-27.28 1452.33,-27.28 1452.33,-27.28 1456.17,-27.28 1460,-31.12 1460,-34.95 1460,-34.95 1460,-42.62 1460,-42.62 1460,-46.45 1456.17,-50.28 1452.33,-50.28"/>
<text text-anchor="middle" x="1371.5" y="-35.08" font-family="Arial" font-size="14.00" fill="#c6c5fe">../handlers/codeAnalysis.ts</text>
</g>
<!-- ../handlers/codeAnalysis.ts&#45;&gt;../config/database.ts -->
<g id="edge3" class="edge">
<title>../handlers/codeAnalysis.ts&#45;&gt;../config/database.ts</title>
<path fill="none" stroke="#757575" d="M1460.11,-48.75C1469.31,-52.66 1477.88,-57.87 1485,-64.78 1540.02,-118.22 1575.98,-363.55 1585.79,-438.18"/>
<polygon fill="#757575" stroke="#757575" points="1582.34,-438.81 1587.09,-448.27 1589.28,-437.91 1582.34,-438.81"/>
</g>
<!-- ../handlers/context.ts -->
<g id="node6" class="node">
<title>../handlers/context.ts</title>
<path fill="none" stroke="#c6c5fe" d="M721.33,-341.28C721.33,-341.28 595.67,-341.28 595.67,-341.28 591.83,-341.28 588,-337.45 588,-333.62 588,-333.62 588,-325.95 588,-325.95 588,-322.12 591.83,-318.28 595.67,-318.28 595.67,-318.28 721.33,-318.28 721.33,-318.28 725.17,-318.28 729,-322.12 729,-325.95 729,-325.95 729,-333.62 729,-333.62 729,-337.45 725.17,-341.28 721.33,-341.28"/>
<text text-anchor="middle" x="658.5" y="-326.08" font-family="Arial" font-size="14.00" fill="#c6c5fe">../handlers/context.ts</text>
</g>
<!-- ../handlers/context.ts&#45;&gt;../services/sessionTracker.ts -->
<g id="edge8" class="edge">
<title>../handlers/context.ts&#45;&gt;../services/sessionTracker.ts</title>
<path fill="none" stroke="#757575" d="M725.91,-341.29C744.28,-346.94 763.21,-355.33 778,-367.78 852.57,-430.59 889.96,-547.16 902.75,-595.22"/>
<polygon fill="#757575" stroke="#757575" points="899.43,-596.33 905.3,-605.14 906.21,-594.59 899.43,-596.33"/>
</g>
<!-- ../handlers/context.ts&#45;&gt;../config/database.ts -->
<g id="edge4" class="edge">
<title>../handlers/context.ts&#45;&gt;../config/database.ts</title>
<path fill="none" stroke="#757575" d="M692.13,-318.19C723.05,-307.86 771.02,-293.52 814,-287.78 897.7,-276.61 919.77,-281.77 1004,-287.78 1219.42,-303.16 1291.75,-260.38 1485,-356.78 1523.82,-376.15 1556.99,-415.65 1574.72,-439.72"/>
<polygon fill="#757575" stroke="#757575" points="1572.06,-442.02 1580.73,-448.11 1577.75,-437.94 1572.06,-442.02"/>
</g>
<!-- ../handlers/context.ts&#45;&gt;../handlers/project.ts -->
<g id="edge5" class="edge">
<title>../handlers/context.ts&#45;&gt;../handlers/project.ts</title>
<path fill="none" stroke="#757575" d="M716.72,-341.34C804.03,-358.97 970.13,-392.5 1062.96,-411.25"/>
<polygon fill="#757575" stroke="#757575" points="1062.31,-414.69 1072.81,-413.24 1063.7,-407.83 1062.31,-414.69"/>
</g>
<!-- ../middleware/eventLogger.ts -->
<g id="node8" class="node">
<title>../middleware/eventLogger.ts</title>
<path fill="none" stroke="#c6c5fe" d="M996.33,-669.28C996.33,-669.28 821.67,-669.28 821.67,-669.28 817.83,-669.28 814,-665.45 814,-661.62 814,-661.62 814,-653.95 814,-653.95 814,-650.12 817.83,-646.28 821.67,-646.28 821.67,-646.28 996.33,-646.28 996.33,-646.28 1000.17,-646.28 1004,-650.12 1004,-653.95 1004,-653.95 1004,-661.62 1004,-661.62 1004,-665.45 1000.17,-669.28 996.33,-669.28"/>
<text text-anchor="middle" x="909" y="-654.08" font-family="Arial" font-size="14.00" fill="#c6c5fe">../middleware/eventLogger.ts</text>
</g>
<!-- ../handlers/context.ts&#45;&gt;../middleware/eventLogger.ts -->
<g id="edge6" class="edge">
<title>../handlers/context.ts&#45;&gt;../middleware/eventLogger.ts</title>
<path fill="none" stroke="#757575" d="M729.24,-338.37C747.58,-343.95 765.66,-353.04 778,-367.78 855.41,-460.29 732.49,-547.87 814,-636.78 815.06,-637.94 816.17,-639.04 817.32,-640.08"/>
<polygon fill="#757575" stroke="#757575" points="815.4,-643.02 825.5,-646.23 819.6,-637.42 815.4,-643.02"/>
</g>
<!-- ../services/embedding.ts -->
<g id="node9" class="node">
<title>../services/embedding.ts</title>
<path fill="none" stroke="#cfffac" d="M982.83,-320.28C982.83,-320.28 835.17,-320.28 835.17,-320.28 831.33,-320.28 827.5,-316.45 827.5,-312.62 827.5,-312.62 827.5,-304.95 827.5,-304.95 827.5,-301.12 831.33,-297.28 835.17,-297.28 835.17,-297.28 982.83,-297.28 982.83,-297.28 986.67,-297.28 990.5,-301.12 990.5,-304.95 990.5,-304.95 990.5,-312.62 990.5,-312.62 990.5,-316.45 986.67,-320.28 982.83,-320.28"/>
<text text-anchor="middle" x="909" y="-305.08" font-family="Arial" font-size="14.00" fill="#cfffac">../services/embedding.ts</text>
</g>
<!-- ../handlers/context.ts&#45;&gt;../services/embedding.ts -->
<g id="edge7" class="edge">
<title>../handlers/context.ts&#45;&gt;../services/embedding.ts</title>
<path fill="none" stroke="#757575" d="M729.05,-323.91C756.41,-321.59 788.19,-318.91 817.31,-316.45"/>
<polygon fill="#757575" stroke="#757575" points="817.82,-319.92 827.48,-315.59 817.23,-312.94 817.82,-319.92"/>
</g>
<!-- ../handlers/project.ts&#45;&gt;../config/database.ts -->
<g id="edge20" class="edge">
<title>../handlers/project.ts&#45;&gt;../config/database.ts</title>
<path fill="none" stroke="#757575" d="M1200.26,-433.64C1218.96,-435.87 1239.24,-438.1 1258,-439.78 1344.32,-447.53 1443.59,-453.09 1510.62,-456.35"/>
<polygon fill="#757575" stroke="#757575" points="1510.53,-459.85 1520.69,-456.83 1510.87,-452.86 1510.53,-459.85"/>
</g>
<!-- ../services/projectSwitchValidator.ts -->
<g id="node16" class="node">
<title>../services/projectSwitchValidator.ts</title>
<path fill="none" stroke="#ff6c60" d="M1477.33,-431.28C1477.33,-431.28 1265.67,-431.28 1265.67,-431.28 1261.83,-431.28 1258,-427.45 1258,-423.62 1258,-423.62 1258,-415.95 1258,-415.95 1258,-412.12 1261.83,-408.28 1265.67,-408.28 1265.67,-408.28 1477.33,-408.28 1477.33,-408.28 1481.17,-408.28 1485,-412.12 1485,-415.95 1485,-415.95 1485,-423.62 1485,-423.62 1485,-427.45 1481.17,-431.28 1477.33,-431.28"/>
<text text-anchor="middle" x="1371.5" y="-416.08" font-family="Arial" font-size="14.00" fill="#ff6c60">../services/projectSwitchValidator.ts</text>
</g>
<!-- ../handlers/project.ts&#45;&gt;../services/projectSwitchValidator.ts -->
<g id="edge21" class="edge">
<title>../handlers/project.ts&#45;&gt;../services/projectSwitchValidator.ts</title>
<path fill="none" stroke="#757575" d="M1200.03,-417.19C1214.96,-416.52 1231.22,-415.98 1247.57,-415.61"/>
<polygon fill="#757575" stroke="#757575" points="1247.83,-419.11 1257.76,-415.41 1247.69,-412.11 1247.83,-419.11"/>
</g>
<!-- ../middleware/eventLogger.ts&#45;&gt;../config/database.ts -->
<g id="edge33" class="edge">
<title>../middleware/eventLogger.ts&#45;&gt;../config/database.ts</title>
<path fill="none" stroke="#757575" d="M955.49,-669.34C1016.97,-683.01 1129.51,-701.16 1222,-677.78 1368.82,-640.68 1515.01,-523.68 1567.84,-478.16"/>
<polygon fill="#757575" stroke="#757575" points="1570.25,-480.7 1575.5,-471.49 1565.66,-475.42 1570.25,-480.7"/>
</g>
<!-- ../middleware/eventLogger.ts&#45;&gt;../handlers/project.ts -->
<g id="edge34" class="edge">
<title>../middleware/eventLogger.ts&#45;&gt;../handlers/project.ts</title>
<path fill="none" stroke="#757575" d="M989.1,-646.17C994.44,-643.6 999.48,-640.5 1004,-636.78 1034.74,-611.49 1020.58,-589.53 1040,-554.78 1062.9,-513.81 1095.36,-469.57 1114.4,-444.71"/>
<polygon fill="#757575" stroke="#757575" points="1117.42,-446.52 1120.76,-436.47 1111.88,-442.25 1117.42,-446.52"/>
</g>
<!-- ../handlers/decisions.ts -->
<g id="node10" class="node">
<title>../handlers/decisions.ts</title>
<path fill="none" stroke="#c6c5fe" d="M727.83,-400.28C727.83,-400.28 589.17,-400.28 589.17,-400.28 585.33,-400.28 581.5,-396.45 581.5,-392.62 581.5,-392.62 581.5,-384.95 581.5,-384.95 581.5,-381.12 585.33,-377.28 589.17,-377.28 589.17,-377.28 727.83,-377.28 727.83,-377.28 731.67,-377.28 735.5,-381.12 735.5,-384.95 735.5,-384.95 735.5,-392.62 735.5,-392.62 735.5,-396.45 731.67,-400.28 727.83,-400.28"/>
<text text-anchor="middle" x="658.5" y="-385.08" font-family="Arial" font-size="14.00" fill="#c6c5fe">../handlers/decisions.ts</text>
</g>
<!-- ../handlers/decisions.ts&#45;&gt;../services/sessionTracker.ts -->
<g id="edge12" class="edge">
<title>../handlers/decisions.ts&#45;&gt;../services/sessionTracker.ts</title>
<path fill="none" stroke="#757575" d="M672.16,-400.4C712.54,-437.45 838.48,-553 887.85,-598.3"/>
<polygon fill="#757575" stroke="#757575" points="885.63,-601 895.36,-605.19 890.36,-595.85 885.63,-601"/>
</g>
<!-- ../handlers/decisions.ts&#45;&gt;../config/database.ts -->
<g id="edge9" class="edge">
<title>../handlers/decisions.ts&#45;&gt;../config/database.ts</title>
<path fill="none" stroke="#757575" d="M733.05,-377.25C879.48,-356.98 1216.5,-323.8 1485,-398.78 1515.62,-407.34 1546.48,-427.33 1566.43,-442.11"/>
<polygon fill="#757575" stroke="#757575" points="1564.45,-445.01 1574.53,-448.28 1568.69,-439.44 1564.45,-445.01"/>
</g>
<!-- ../handlers/decisions.ts&#45;&gt;../handlers/project.ts -->
<g id="edge10" class="edge">
<title>../handlers/decisions.ts&#45;&gt;../handlers/project.ts</title>
<path fill="none" stroke="#757575" d="M735.72,-394.73C760.67,-396.67 788.52,-398.83 814,-400.78 895.1,-407.01 987.92,-414.05 1051.87,-418.89"/>
<polygon fill="#757575" stroke="#757575" points="1051.65,-422.38 1061.88,-419.64 1052.18,-415.4 1051.65,-422.38"/>
</g>
<!-- ../handlers/decisions.ts&#45;&gt;../middleware/eventLogger.ts -->
<g id="edge11" class="edge">
<title>../handlers/decisions.ts&#45;&gt;../middleware/eventLogger.ts</title>
<path fill="none" stroke="#757575" d="M673.33,-400.31C697.88,-421.5 749.2,-469.13 778,-519.78 804.89,-567.08 774.05,-599.86 814,-636.78 815.52,-638.19 817.11,-639.51 818.77,-640.74"/>
<polygon fill="#757575" stroke="#757575" points="817.19,-643.88 827.51,-646.27 820.92,-637.96 817.19,-643.88"/>
</g>
<!-- ../handlers/naming.ts -->
<g id="node11" class="node">
<title>../handlers/naming.ts</title>
<path fill="none" stroke="#c6c5fe" d="M972.83,-164.28C972.83,-164.28 845.17,-164.28 845.17,-164.28 841.33,-164.28 837.5,-160.45 837.5,-156.62 837.5,-156.62 837.5,-148.95 837.5,-148.95 837.5,-145.12 841.33,-141.28 845.17,-141.28 845.17,-141.28 972.83,-141.28 972.83,-141.28 976.67,-141.28 980.5,-145.12 980.5,-148.95 980.5,-148.95 980.5,-156.62 980.5,-156.62 980.5,-160.45 976.67,-164.28 972.83,-164.28"/>
<text text-anchor="middle" x="909" y="-149.08" font-family="Arial" font-size="14.00" fill="#c6c5fe">../handlers/naming.ts</text>
</g>
<!-- ../handlers/naming.ts&#45;&gt;../config/database.ts -->
<g id="edge13" class="edge">
<title>../handlers/naming.ts&#45;&gt;../config/database.ts</title>
<path fill="none" stroke="#757575" d="M980.58,-146.31C1097.44,-139.38 1333.27,-141.95 1485,-254.78 1547.39,-301.18 1574.79,-395.86 1584.3,-438.33"/>
<polygon fill="#757575" stroke="#757575" points="1580.89,-439.11 1586.39,-448.17 1587.74,-437.66 1580.89,-439.11"/>
</g>
<!-- ../handlers/naming.ts&#45;&gt;../handlers/project.ts -->
<g id="edge14" class="edge">
<title>../handlers/naming.ts&#45;&gt;../handlers/project.ts</title>
<path fill="none" stroke="#757575" d="M978.53,-164.44C987.71,-168.02 996.52,-172.69 1004,-178.78 1078.38,-239.38 1113.43,-355.36 1125.22,-403.27"/>
<polygon fill="#757575" stroke="#757575" points="1121.85,-404.24 1127.56,-413.16 1128.66,-402.63 1121.85,-404.24"/>
</g>
<!-- ../handlers/navigation.ts -->
<g id="node12" class="node">
<title>../handlers/navigation.ts</title>
<path fill="none" stroke="#cfffac" d="M454.83,-85.28C454.83,-85.28 311.17,-85.28 311.17,-85.28 307.33,-85.28 303.5,-81.45 303.5,-77.62 303.5,-77.62 303.5,-69.95 303.5,-69.95 303.5,-66.12 307.33,-62.28 311.17,-62.28 311.17,-62.28 454.83,-62.28 454.83,-62.28 458.67,-62.28 462.5,-66.12 462.5,-69.95 462.5,-69.95 462.5,-77.62 462.5,-77.62 462.5,-81.45 458.67,-85.28 454.83,-85.28"/>
<text text-anchor="middle" x="383" y="-70.08" font-family="Arial" font-size="14.00" fill="#cfffac">../handlers/navigation.ts</text>
</g>
<!-- ../handlers/patterns/patternAnalyze.ts -->
<g id="node13" class="node">
<title>../handlers/patterns/patternAnalyze.ts</title>
<path fill="none" stroke="#c6c5fe" d="M495.33,-595.28C495.33,-595.28 270.67,-595.28 270.67,-595.28 266.83,-595.28 263,-591.45 263,-587.62 263,-587.62 263,-579.95 263,-579.95 263,-576.12 266.83,-572.28 270.67,-572.28 270.67,-572.28 495.33,-572.28 495.33,-572.28 499.17,-572.28 503,-576.12 503,-579.95 503,-579.95 503,-587.62 503,-587.62 503,-591.45 499.17,-595.28 495.33,-595.28"/>
<text text-anchor="middle" x="383" y="-580.08" font-family="Arial" font-size="14.00" fill="#c6c5fe">../handlers/patterns/patternAnalyze.ts</text>
</g>
<!-- ../handlers/patterns/patternAnalyze.ts&#45;&gt;../handlers/project.ts -->
<g id="edge15" class="edge">
<title>../handlers/patterns/patternAnalyze.ts&#45;&gt;../handlers/project.ts</title>
<path fill="none" stroke="#757575" d="M405.88,-572.28C435.27,-557.41 489.53,-531.99 539,-519.78 740.51,-470.07 802.49,-526.48 1004,-476.78 1037.41,-468.54 1073.52,-452.88 1098.48,-440.89"/>
<polygon fill="#757575" stroke="#757575" points="1100.03,-444.04 1107.48,-436.5 1096.96,-437.75 1100.03,-444.04"/>
</g>
<!-- ../handlers/patterns/patternAnalyze.ts&#45;&gt;../middleware/eventLogger.ts -->
<g id="edge16" class="edge">
<title>../handlers/patterns/patternAnalyze.ts&#45;&gt;../middleware/eventLogger.ts</title>
<path fill="none" stroke="#757575" d="M471.3,-595.33C551.18,-605.99 672.61,-622.45 778,-637.78 793.01,-639.97 808.99,-642.36 824.42,-644.72"/>
<polygon fill="#757575" stroke="#757575" points="824.05,-648.2 834.47,-646.25 825.11,-641.28 824.05,-648.2"/>
</g>
<!-- ../services/patternDetector.ts -->
<g id="node14" class="node">
<title>../services/patternDetector.ts</title>
<path fill="none" stroke="#c6c5fe" d="M744.83,-670.28C744.83,-670.28 572.17,-670.28 572.17,-670.28 568.33,-670.28 564.5,-666.45 564.5,-662.62 564.5,-662.62 564.5,-654.95 564.5,-654.95 564.5,-651.12 568.33,-647.28 572.17,-647.28 572.17,-647.28 744.83,-647.28 744.83,-647.28 748.67,-647.28 752.5,-651.12 752.5,-654.95 752.5,-654.95 752.5,-662.62 752.5,-662.62 752.5,-666.45 748.67,-670.28 744.83,-670.28"/>
<text text-anchor="middle" x="658.5" y="-655.08" font-family="Arial" font-size="14.00" fill="#c6c5fe">../services/patternDetector.ts</text>
</g>
<!-- ../handlers/patterns/patternAnalyze.ts&#45;&gt;../services/patternDetector.ts -->
<g id="edge17" class="edge">
<title>../handlers/patterns/patternAnalyze.ts&#45;&gt;../services/patternDetector.ts</title>
<path fill="none" stroke="#757575" d="M417.61,-595.37C448.83,-605.91 496.74,-621.49 539,-632.78 555.35,-637.15 573.1,-641.34 589.77,-645.03"/>
<polygon fill="#757575" stroke="#757575" points="589.47,-648.54 599.99,-647.26 590.96,-641.7 589.47,-648.54"/>
</g>
<!-- ../services/patternDetector.ts&#45;&gt;../services/sessionTracker.ts -->
<g id="edge37" class="edge">
<title>../services/patternDetector.ts&#45;&gt;../services/sessionTracker.ts</title>
<path fill="none" stroke="#757575" d="M727.73,-647.25C759.37,-641.9 797.15,-635.52 829.92,-629.98"/>
<polygon fill="#757575" stroke="#757575" points="830.64,-633.41 839.92,-628.29 829.48,-626.5 830.64,-633.41"/>
</g>
<!-- ../services/patternDetector.ts&#45;&gt;../config/database.ts -->
<g id="edge35" class="edge">
<title>../services/patternDetector.ts&#45;&gt;../config/database.ts</title>
<path fill="none" stroke="#757575" d="M714.87,-670.33C816.06,-689.73 1037.41,-724.25 1222,-697.78 1342.56,-680.5 1387.46,-693.73 1485,-620.78 1534.44,-583.81 1566.63,-515.71 1580.57,-481.13"/>
<polygon fill="#757575" stroke="#757575" points="1583.93,-482.14 1584.31,-471.55 1577.41,-479.59 1583.93,-482.14"/>
</g>
<!-- ../services/patternDetector.ts&#45;&gt;../middleware/eventLogger.ts -->
<g id="edge36" class="edge">
<title>../services/patternDetector.ts&#45;&gt;../middleware/eventLogger.ts</title>
<path fill="none" stroke="#757575" d="M752.74,-658.41C769.28,-658.34 786.6,-658.27 803.42,-658.2"/>
<polygon fill="#757575" stroke="#757575" points="803.84,-661.7 813.82,-658.16 803.81,-654.7 803.84,-661.7"/>
</g>
<!-- ../handlers/patterns/patternInsights.ts -->
<g id="node15" class="node">
<title>../handlers/patterns/patternInsights.ts</title>
<path fill="none" stroke="#c6c5fe" d="M770.33,-823.28C770.33,-823.28 546.67,-823.28 546.67,-823.28 542.83,-823.28 539,-819.45 539,-815.62 539,-815.62 539,-807.95 539,-807.95 539,-804.12 542.83,-800.28 546.67,-800.28 546.67,-800.28 770.33,-800.28 770.33,-800.28 774.17,-800.28 778,-804.12 778,-807.95 778,-807.95 778,-815.62 778,-815.62 778,-819.45 774.17,-823.28 770.33,-823.28"/>
<text text-anchor="middle" x="658.5" y="-808.08" font-family="Arial" font-size="14.00" fill="#c6c5fe">../handlers/patterns/patternInsights.ts</text>
</g>
<!-- ../handlers/patterns/patternInsights.ts&#45;&gt;../config/database.ts -->
<g id="edge18" class="edge">
<title>../handlers/patterns/patternInsights.ts&#45;&gt;../config/database.ts</title>
<path fill="none" stroke="#757575" d="M710.95,-823.29C852.54,-851.72 1252.81,-909.95 1485,-719.78 1560.83,-657.68 1581.42,-531.99 1586.74,-481.5"/>
<polygon fill="#757575" stroke="#757575" points="1590.24,-481.68 1587.7,-471.4 1583.27,-481.02 1590.24,-481.68"/>
</g>
<!-- ../handlers/patterns/patternInsights.ts&#45;&gt;../middleware/eventLogger.ts -->
<g id="edge19" class="edge">
<title>../handlers/patterns/patternInsights.ts&#45;&gt;../middleware/eventLogger.ts</title>
<path fill="none" stroke="#757575" d="M755.36,-800.2C763.23,-797.64 770.89,-794.54 778,-790.78 830,-763.31 873.82,-707.59 894.77,-677.74"/>
<polygon fill="#757575" stroke="#757575" points="897.75,-679.59 900.52,-669.36 891.98,-675.63 897.75,-679.59"/>
</g>
<!-- ../services/projectSwitchValidator.ts&#45;&gt;../config/database.ts -->
<g id="edge38" class="edge">
<title>../services/projectSwitchValidator.ts&#45;&gt;../config/database.ts</title>
<path fill="none" stroke="#757575" d="M1434.69,-431.3C1460.21,-436.03 1489.93,-441.53 1516.41,-446.43"/>
<polygon fill="#757575" stroke="#757575" points="1515.91,-449.9 1526.38,-448.28 1517.18,-443.02 1515.91,-449.9"/>
</g>
<!-- ../services/projectSwitchValidator.ts&#45;&gt;../handlers/project.ts -->
<g id="edge39" class="edge">
<title>../services/projectSwitchValidator.ts&#45;&gt;../handlers/project.ts</title>
<path fill="none" stroke="#757575" d="M1257.76,-428.89C1241.73,-429.27 1225.54,-429.49 1210.36,-429.52"/>
<polygon fill="#757575" stroke="#757575" points="1210.03,-426.02 1200.03,-429.52 1210.02,-433.02 1210.03,-426.02"/>
</g>
<!-- ../handlers/sessionAnalytics.ts -->
<g id="node17" class="node">
<title>../handlers/sessionAnalytics.ts</title>
<path fill="none" stroke="#c6c5fe" d="M749.33,-552.28C749.33,-552.28 567.67,-552.28 567.67,-552.28 563.83,-552.28 560,-548.45 560,-544.62 560,-544.62 560,-536.95 560,-536.95 560,-533.12 563.83,-529.28 567.67,-529.28 567.67,-529.28 749.33,-529.28 749.33,-529.28 753.17,-529.28 757,-533.12 757,-536.95 757,-536.95 757,-544.62 757,-544.62 757,-548.45 753.17,-552.28 749.33,-552.28"/>
<text text-anchor="middle" x="658.5" y="-537.08" font-family="Arial" font-size="14.00" fill="#c6c5fe">../handlers/sessionAnalytics.ts</text>
</g>
<!-- ../handlers/sessionAnalytics.ts&#45;&gt;../services/sessionTracker.ts -->
<g id="edge25" class="edge">
<title>../handlers/sessionAnalytics.ts&#45;&gt;../services/sessionTracker.ts</title>
<path fill="none" stroke="#757575" d="M732.58,-552.35C747.92,-556 763.75,-560.73 778,-566.78 795.7,-574.31 796.51,-582.79 814,-590.78 823.79,-595.26 834.5,-599.11 845.09,-602.38"/>
<polygon fill="#757575" stroke="#757575" points="844.16,-605.76 854.75,-605.22 846.14,-599.04 844.16,-605.76"/>
</g>
<!-- ../handlers/sessionAnalytics.ts&#45;&gt;../config/database.ts -->
<g id="edge22" class="edge">
<title>../handlers/sessionAnalytics.ts&#45;&gt;../config/database.ts</title>
<path fill="none" stroke="#757575" d="M757.15,-545.15C776.01,-545.83 795.62,-546.43 814,-546.78 898.43,-548.42 925.07,-576.79 1004,-546.78 1024.01,-539.18 1020.4,-523.38 1040,-514.78 1122.35,-478.67 1379.33,-465.94 1510.21,-461.72"/>
<polygon fill="#757575" stroke="#757575" points="1510.68,-465.21 1520.56,-461.4 1510.46,-458.21 1510.68,-465.21"/>
</g>
<!-- ../handlers/sessionAnalytics.ts&#45;&gt;../handlers/project.ts -->
<g id="edge23" class="edge">
<title>../handlers/sessionAnalytics.ts&#45;&gt;../handlers/project.ts</title>
<path fill="none" stroke="#757575" d="M757.18,-549.33C828.28,-551.82 925.47,-547.35 1004,-514.78 1023.5,-506.69 1023.13,-496.49 1040,-483.78 1060.08,-468.66 1083.91,-453.13 1102.01,-441.81"/>
<polygon fill="#757575" stroke="#757575" points="1104.24,-444.54 1110.9,-436.29 1100.55,-438.59 1104.24,-444.54"/>
</g>
<!-- ../handlers/sessionAnalytics.ts&#45;&gt;../middleware/eventLogger.ts -->
<g id="edge24" class="edge">
<title>../handlers/sessionAnalytics.ts&#45;&gt;../middleware/eventLogger.ts</title>
<path fill="none" stroke="#757575" d="M685,-552.42C709.69,-564.18 747.74,-583.59 778,-604.78 795.54,-617.06 794.95,-627.03 814,-636.78 818.54,-639.1 823.32,-641.17 828.24,-643.01"/>
<polygon fill="#757575" stroke="#757575" points="827.22,-646.36 837.81,-646.28 829.48,-639.74 827.22,-646.36"/>
</g>
<!-- ../handlers/smartSearch.ts -->
<g id="node18" class="node">
<title>../handlers/smartSearch.ts</title>
<path fill="none" stroke="#c6c5fe" d="M462.83,-126.28C462.83,-126.28 303.17,-126.28 303.17,-126.28 299.33,-126.28 295.5,-122.45 295.5,-118.62 295.5,-118.62 295.5,-110.95 295.5,-110.95 295.5,-107.12 299.33,-103.28 303.17,-103.28 303.17,-103.28 462.83,-103.28 462.83,-103.28 466.67,-103.28 470.5,-107.12 470.5,-110.95 470.5,-110.95 470.5,-118.62 470.5,-118.62 470.5,-122.45 466.67,-126.28 462.83,-126.28"/>
<text text-anchor="middle" x="383" y="-111.08" font-family="Arial" font-size="14.00" fill="#c6c5fe">../handlers/smartSearch.ts</text>
</g>
<!-- ../handlers/smartSearch.ts&#45;&gt;../config/database.ts -->
<g id="edge26" class="edge">
<title>../handlers/smartSearch.ts&#45;&gt;../config/database.ts</title>
<path fill="none" stroke="#757575" d="M470.57,-105.18C574.36,-94.52 753.67,-78.78 908,-78.78 908,-78.78 908,-78.78 1132,-78.78 1293.07,-78.78 1365.29,-53.03 1485,-160.78 1568.84,-236.25 1584.77,-383.04 1587.79,-438.17"/>
<polygon fill="#757575" stroke="#757575" points="1584.3,-438.37 1588.25,-448.2 1591.29,-438.05 1584.3,-438.37"/>
</g>
<!-- ../handlers/smartSearch.ts&#45;&gt;../handlers/codeAnalysis.ts -->
<g id="edge27" class="edge">
<title>../handlers/smartSearch.ts&#45;&gt;../handlers/codeAnalysis.ts</title>
<path fill="none" stroke="#757575" d="M470.71,-104.79C481.84,-101.98 492.88,-98.38 503,-93.78 521.71,-85.29 519.73,-71.92 539,-64.78 802.63,32.85 1146.08,-2.96 1295.55,-25.73"/>
<polygon fill="#757575" stroke="#757575" points="1295.13,-29.2 1305.55,-27.27 1296.2,-22.28 1295.13,-29.2"/>
</g>
<!-- ../handlers/smartSearch.ts&#45;&gt;../handlers/context.ts -->
<g id="edge28" class="edge">
<title>../handlers/smartSearch.ts&#45;&gt;../handlers/context.ts</title>
<path fill="none" stroke="#757575" d="M398.7,-126.34C443.78,-161.78 580.27,-269.07 634.71,-311.87"/>
<polygon fill="#757575" stroke="#757575" points="632.7,-314.74 642.72,-318.17 637.02,-309.23 632.7,-314.74"/>
</g>
<!-- ../handlers/smartSearch.ts&#45;&gt;../handlers/decisions.ts -->
<g id="edge29" class="edge">
<title>../handlers/smartSearch.ts&#45;&gt;../handlers/decisions.ts</title>
<path fill="none" stroke="#757575" d="M394.61,-126.44C416.81,-151.24 468.89,-211.62 503,-268.78 523.19,-302.61 509.78,-323.36 539,-349.78 550.91,-360.55 565.85,-368.35 581.08,-374"/>
<polygon fill="#757575" stroke="#757575" points="579.97,-377.33 590.57,-377.25 582.24,-370.7 579.97,-377.33"/>
</g>
<!-- ../handlers/smartSearch.ts&#45;&gt;../handlers/naming.ts -->
<g id="edge30" class="edge">
<title>../handlers/smartSearch.ts&#45;&gt;../handlers/naming.ts</title>
<path fill="none" stroke="#757575" d="M470.52,-119.84C550.38,-124.66 672.25,-132.41 778,-140.78 793.9,-142.04 810.89,-143.52 827.16,-144.99"/>
<polygon fill="#757575" stroke="#757575" points="826.91,-148.48 837.19,-145.91 827.55,-141.51 826.91,-148.48"/>
</g>
<!-- ../handlers/tasks.ts -->
<g id="node19" class="node">
<title>../handlers/tasks.ts</title>
<path fill="none" stroke="#c6c5fe" d="M715.33,-782.28C715.33,-782.28 601.67,-782.28 601.67,-782.28 597.83,-782.28 594,-778.45 594,-774.62 594,-774.62 594,-766.95 594,-766.95 594,-763.12 597.83,-759.28 601.67,-759.28 601.67,-759.28 715.33,-759.28 715.33,-759.28 719.17,-759.28 723,-763.12 723,-766.95 723,-766.95 723,-774.62 723,-774.62 723,-778.45 719.17,-782.28 715.33,-782.28"/>
<text text-anchor="middle" x="658.5" y="-767.08" font-family="Arial" font-size="14.00" fill="#c6c5fe">../handlers/tasks.ts</text>
</g>
<!-- ../handlers/tasks.ts&#45;&gt;../services/sessionTracker.ts -->
<g id="edge32" class="edge">
<title>../handlers/tasks.ts&#45;&gt;../services/sessionTracker.ts</title>
<path fill="none" stroke="#757575" d="M676.45,-759.27C700.26,-742.75 744.43,-710.76 778,-678.78 795.8,-661.82 792.86,-649.34 814,-636.78 816.71,-635.17 819.53,-633.69 822.43,-632.33"/>
<polygon fill="#757575" stroke="#757575" points="824.06,-635.45 831.94,-628.37 821.36,-628.98 824.06,-635.45"/>
</g>
<!-- ../handlers/tasks.ts&#45;&gt;../config/database.ts -->
<g id="edge31" class="edge">
<title>../handlers/tasks.ts&#45;&gt;../config/database.ts</title>
<path fill="none" stroke="#757575" d="M723.01,-771.14C894.99,-770.89 1364.87,-761.8 1485,-671.78 1549.22,-623.66 1575.77,-525.01 1584.69,-481.37"/>
<polygon fill="#757575" stroke="#757575" points="1588.17,-481.77 1586.63,-471.29 1581.3,-480.45 1588.17,-481.77"/>
</g>
<!-- ../utils/sessionFormatters.ts&#45;&gt;../services/sessionTracker.ts -->
<g id="edge45" class="edge">
<title>../utils/sessionFormatters.ts&#45;&gt;../services/sessionTracker.ts</title>
<path fill="none" stroke="#757575" d="M1095.29,-587.33C1072.73,-592.76 1042.04,-599.03 1012.13,-604.48"/>
<polygon fill="#757575" stroke="#757575" points="1011.25,-601.09 1002.03,-606.3 1012.49,-607.98 1011.25,-601.09"/>
</g>
<!-- ../utils/mcpFormatter.ts -->
<g id="node22" class="node">
<title>../utils/mcpFormatter.ts</title>
<path fill="none" stroke="#cfffac" d="M452.83,-301.28C452.83,-301.28 313.17,-301.28 313.17,-301.28 309.33,-301.28 305.5,-297.45 305.5,-293.62 305.5,-293.62 305.5,-285.95 305.5,-285.95 305.5,-282.12 309.33,-278.28 313.17,-278.28 313.17,-278.28 452.83,-278.28 452.83,-278.28 456.67,-278.28 460.5,-282.12 460.5,-285.95 460.5,-285.95 460.5,-293.62 460.5,-293.62 460.5,-297.45 456.67,-301.28 452.83,-301.28"/>
<text text-anchor="middle" x="383" y="-286.08" font-family="Arial" font-size="14.00" fill="#cfffac">../utils/mcpFormatter.ts</text>
</g>
<!-- context.routes.ts -->
<g id="node23" class="node">
<title>context.routes.ts</title>
<path fill="none" stroke="#c6c5fe" d="M213.33,-384.28C213.33,-384.28 112.67,-384.28 112.67,-384.28 108.83,-384.28 105,-380.45 105,-376.62 105,-376.62 105,-368.95 105,-368.95 105,-365.12 108.83,-361.28 112.67,-361.28 112.67,-361.28 213.33,-361.28 213.33,-361.28 217.17,-361.28 221,-365.12 221,-368.95 221,-368.95 221,-376.62 221,-376.62 221,-380.45 217.17,-384.28 213.33,-384.28"/>
<text text-anchor="middle" x="163" y="-369.08" font-family="Arial" font-size="14.00" fill="#c6c5fe">context.routes.ts</text>
</g>
<!-- context.routes.ts&#45;&gt;../api/middleware/sessionTracking.ts -->
<g id="edge46" class="edge">
<title>context.routes.ts&#45;&gt;../api/middleware/sessionTracking.ts</title>
<path fill="none" stroke="#757575" d="M207.14,-384.34C213.94,-386.77 220.78,-389.58 227,-392.78 244.78,-401.94 244.81,-411.46 263,-419.78 273.34,-424.51 284.58,-428.41 295.89,-431.6"/>
<polygon fill="#757575" stroke="#757575" points="295.26,-435.05 305.83,-434.23 297.06,-428.29 295.26,-435.05"/>
</g>
<!-- context.routes.ts&#45;&gt;../handlers/context.ts -->
<g id="edge47" class="edge">
<title>context.routes.ts&#45;&gt;../handlers/context.ts</title>
<path fill="none" stroke="#757575" d="M221.09,-367.81C309.03,-360.15 477.9,-345.43 577.82,-336.73"/>
<polygon fill="#757575" stroke="#757575" points="578.21,-340.2 587.87,-335.85 577.6,-333.23 578.21,-340.2"/>
</g>
<!-- context.routes.ts&#45;&gt;../utils/mcpFormatter.ts -->
<g id="edge48" class="edge">
<title>context.routes.ts&#45;&gt;../utils/mcpFormatter.ts</title>
<path fill="none" stroke="#757575" d="M207.56,-361.23C214.31,-358.61 221.02,-355.48 227,-351.78 246.25,-339.89 243.15,-326.64 263,-315.78 273.05,-310.29 284.17,-305.96 295.45,-302.54"/>
<polygon fill="#757575" stroke="#757575" points="296.71,-305.83 305.4,-299.77 294.82,-299.09 296.71,-305.83"/>
</g>
<!-- decisions.routes.ts -->
<g id="node24" class="node">
<title>decisions.routes.ts</title>
<path fill="none" stroke="#c6c5fe" d="M219.33,-425.28C219.33,-425.28 106.67,-425.28 106.67,-425.28 102.83,-425.28 99,-421.45 99,-417.62 99,-417.62 99,-409.95 99,-409.95 99,-406.12 102.83,-402.28 106.67,-402.28 106.67,-402.28 219.33,-402.28 219.33,-402.28 223.17,-402.28 227,-406.12 227,-409.95 227,-409.95 227,-417.62 227,-417.62 227,-421.45 223.17,-425.28 219.33,-425.28"/>
<text text-anchor="middle" x="163" y="-410.08" font-family="Arial" font-size="14.00" fill="#c6c5fe">decisions.routes.ts</text>
</g>
<!-- decisions.routes.ts&#45;&gt;../api/middleware/sessionTracking.ts -->
<g id="edge49" class="edge">
<title>decisions.routes.ts&#45;&gt;../api/middleware/sessionTracking.ts</title>
<path fill="none" stroke="#757575" d="M227.05,-423.04C247.77,-426.08 271.2,-429.52 293.45,-432.79"/>
<polygon fill="#757575" stroke="#757575" points="293.18,-436.28 303.58,-434.27 294.2,-429.36 293.18,-436.28"/>
</g>
<!-- decisions.routes.ts&#45;&gt;../handlers/decisions.ts -->
<g id="edge50" class="edge">
<title>decisions.routes.ts&#45;&gt;../handlers/decisions.ts</title>
<path fill="none" stroke="#757575" d="M227,-410.59C314.34,-406.17 472.53,-398.15 570.91,-393.17"/>
<polygon fill="#757575" stroke="#757575" points="571.31,-396.65 581.12,-392.65 570.96,-389.66 571.31,-396.65"/>
</g>
<!-- decisions.routes.ts&#45;&gt;../utils/mcpFormatter.ts -->
<g id="edge51" class="edge">
<title>decisions.routes.ts&#45;&gt;../utils/mcpFormatter.ts</title>
<path fill="none" stroke="#757575" d="M208.35,-402.17C214.86,-399.58 221.29,-396.47 227,-392.78 246.81,-379.98 244.36,-368.23 263,-353.78 288.37,-334.12 320.62,-317.19 345.14,-305.69"/>
<polygon fill="#757575" stroke="#757575" points="346.84,-308.76 354.47,-301.41 343.92,-302.4 346.84,-308.76"/>
</g>
<!-- index.ts -->
<g id="node25" class="node">
<title>index.ts</title>
<path fill="none" stroke="#c6c5fe" d="M55.33,-322.28C55.33,-322.28 7.67,-322.28 7.67,-322.28 3.83,-322.28 0,-318.45 0,-314.62 0,-314.62 0,-306.95 0,-306.95 0,-303.12 3.83,-299.28 7.67,-299.28 7.67,-299.28 55.33,-299.28 55.33,-299.28 59.17,-299.28 63,-303.12 63,-306.95 63,-306.95 63,-314.62 63,-314.62 63,-318.45 59.17,-322.28 55.33,-322.28"/>
<text text-anchor="middle" x="31.5" y="-307.08" font-family="Arial" font-size="14.00" fill="#c6c5fe">index.ts</text>
</g>
<!-- index.ts&#45;&gt;../utils/mcpFormatter.ts -->
<g id="edge52" class="edge">
<title>index.ts&#45;&gt;../utils/mcpFormatter.ts</title>
<path fill="none" stroke="#757575" d="M46.19,-299.16C58.92,-289.16 78.9,-275.48 99,-269.78 177.68,-247.48 273.34,-262.52 330.86,-275.84"/>
<polygon fill="#757575" stroke="#757575" points="330.26,-279.3 340.8,-278.22 331.88,-272.49 330.26,-279.3"/>
</g>
<!-- index.ts&#45;&gt;context.routes.ts -->
<g id="edge53" class="edge">
<title>index.ts&#45;&gt;context.routes.ts</title>
<path fill="none" stroke="#757575" d="M48.85,-322.34C61.95,-331.24 81.06,-343.4 99,-351.78 103.58,-353.92 108.45,-355.95 113.36,-357.83"/>
<polygon fill="#757575" stroke="#757575" points="112.21,-361.14 122.8,-361.28 114.61,-354.56 112.21,-361.14"/>
</g>
<!-- index.ts&#45;&gt;decisions.routes.ts -->
<g id="edge54" class="edge">
<title>index.ts&#45;&gt;decisions.routes.ts</title>
<path fill="none" stroke="#757575" d="M38.91,-322.33C49.29,-339.99 71.42,-373.69 99,-392.78 101.7,-394.65 104.58,-396.37 107.57,-397.94"/>
<polygon fill="#757575" stroke="#757575" points="106.23,-401.17 116.77,-402.22 109.19,-394.83 106.23,-401.17"/>
</g>
<!-- naming.routes.ts -->
<g id="node26" class="node">
<title>naming.routes.ts</title>
<path fill="none" stroke="#c6c5fe" d="M213.83,-302.28C213.83,-302.28 112.17,-302.28 112.17,-302.28 108.33,-302.28 104.5,-298.45 104.5,-294.62 104.5,-294.62 104.5,-286.95 104.5,-286.95 104.5,-283.12 108.33,-279.28 112.17,-279.28 112.17,-279.28 213.83,-279.28 213.83,-279.28 217.67,-279.28 221.5,-283.12 221.5,-286.95 221.5,-286.95 221.5,-294.62 221.5,-294.62 221.5,-298.45 217.67,-302.28 213.83,-302.28"/>
<text text-anchor="middle" x="163" y="-287.08" font-family="Arial" font-size="14.00" fill="#c6c5fe">naming.routes.ts</text>
</g>
<!-- index.ts&#45;&gt;naming.routes.ts -->
<g id="edge55" class="edge">
<title>index.ts&#45;&gt;naming.routes.ts</title>
<path fill="none" stroke="#757575" d="M63.19,-306.04C72.64,-304.58 83.44,-302.92 94.35,-301.23"/>
<polygon fill="#757575" stroke="#757575" points="95.02,-304.67 104.37,-299.68 93.95,-297.75 95.02,-304.67"/>
</g>
<!-- patterns.routes.ts -->
<g id="node27" class="node">
<title>patterns.routes.ts</title>
<path fill="none" stroke="#c6c5fe" d="M215.83,-577.28C215.83,-577.28 110.17,-577.28 110.17,-577.28 106.33,-577.28 102.5,-573.45 102.5,-569.62 102.5,-569.62 102.5,-561.95 102.5,-561.95 102.5,-558.12 106.33,-554.28 110.17,-554.28 110.17,-554.28 215.83,-554.28 215.83,-554.28 219.67,-554.28 223.5,-558.12 223.5,-561.95 223.5,-561.95 223.5,-569.62 223.5,-569.62 223.5,-573.45 219.67,-577.28 215.83,-577.28"/>
<text text-anchor="middle" x="163" y="-562.08" font-family="Arial" font-size="14.00" fill="#c6c5fe">patterns.routes.ts</text>
</g>
<!-- index.ts&#45;&gt;patterns.routes.ts -->
<g id="edge56" class="edge">
<title>index.ts&#45;&gt;patterns.routes.ts</title>
<path fill="none" stroke="#757575" d="M36.19,-322.31C45.15,-349.64 69.5,-420.18 99,-474.78 113.05,-500.79 132.96,-528.4 146.62,-546.29"/>
<polygon fill="#757575" stroke="#757575" points="143.88,-548.48 152.77,-554.25 149.42,-544.2 143.88,-548.48"/>
</g>
<!-- project.routes.ts -->
<g id="node28" class="node">
<title>project.routes.ts</title>
<path fill="none" stroke="#c6c5fe" d="M211.83,-222.28C211.83,-222.28 114.17,-222.28 114.17,-222.28 110.33,-222.28 106.5,-218.45 106.5,-214.62 106.5,-214.62 106.5,-206.95 106.5,-206.95 106.5,-203.12 110.33,-199.28 114.17,-199.28 114.17,-199.28 211.83,-199.28 211.83,-199.28 215.67,-199.28 219.5,-203.12 219.5,-206.95 219.5,-206.95 219.5,-214.62 219.5,-214.62 219.5,-218.45 215.67,-222.28 211.83,-222.28"/>
<text text-anchor="middle" x="163" y="-207.08" font-family="Arial" font-size="14.00" fill="#c6c5fe">project.routes.ts</text>
</g>
<!-- index.ts&#45;&gt;project.routes.ts -->
<g id="edge57" class="edge">
<title>index.ts&#45;&gt;project.routes.ts</title>
<path fill="none" stroke="#757575" d="M40.46,-299.03C51.8,-283.05 74.03,-254.42 99,-236.78 104.52,-232.88 110.71,-229.43 117,-226.42"/>
<polygon fill="#757575" stroke="#757575" points="118.5,-229.58 126.22,-222.32 115.66,-223.18 118.5,-229.58"/>
</g>
<!-- search.routes.ts -->
<g id="node29" class="node">
<title>search.routes.ts</title>
<path fill="none" stroke="#c6c5fe" d="M211.83,-181.28C211.83,-181.28 114.17,-181.28 114.17,-181.28 110.33,-181.28 106.5,-177.45 106.5,-173.62 106.5,-173.62 106.5,-165.95 106.5,-165.95 106.5,-162.12 110.33,-158.28 114.17,-158.28 114.17,-158.28 211.83,-158.28 211.83,-158.28 215.67,-158.28 219.5,-162.12 219.5,-165.95 219.5,-165.95 219.5,-173.62 219.5,-173.62 219.5,-177.45 215.67,-181.28 211.83,-181.28"/>
<text text-anchor="middle" x="163" y="-166.08" font-family="Arial" font-size="14.00" fill="#c6c5fe">search.routes.ts</text>
</g>
<!-- index.ts&#45;&gt;search.routes.ts -->
<g id="edge58" class="edge">
<title>index.ts&#45;&gt;search.routes.ts</title>
<path fill="none" stroke="#757575" d="M35.65,-299.24C42.8,-275.25 62.52,-219.76 99,-189.78 100.53,-188.53 102.14,-187.35 103.81,-186.24"/>
<polygon fill="#757575" stroke="#757575" points="105.59,-189.26 112.6,-181.31 102.17,-183.15 105.59,-189.26"/>
</g>
<!-- sessions.routes.ts -->
<g id="node30" class="node">
<title>sessions.routes.ts</title>
<path fill="none" stroke="#c6c5fe" d="M217.83,-343.28C217.83,-343.28 108.17,-343.28 108.17,-343.28 104.33,-343.28 100.5,-339.45 100.5,-335.62 100.5,-335.62 100.5,-327.95 100.5,-327.95 100.5,-324.12 104.33,-320.28 108.17,-320.28 108.17,-320.28 217.83,-320.28 217.83,-320.28 221.67,-320.28 225.5,-324.12 225.5,-327.95 225.5,-327.95 225.5,-335.62 225.5,-335.62 225.5,-339.45 221.67,-343.28 217.83,-343.28"/>
<text text-anchor="middle" x="163" y="-328.08" font-family="Arial" font-size="14.00" fill="#c6c5fe">sessions.routes.ts</text>
</g>
<!-- index.ts&#45;&gt;sessions.routes.ts -->
<g id="edge59" class="edge">
<title>index.ts&#45;&gt;sessions.routes.ts</title>
<path fill="none" stroke="#757575" d="M63.19,-315.76C71.52,-317.11 80.89,-318.63 90.47,-320.18"/>
<polygon fill="#757575" stroke="#757575" points="90.06,-323.66 100.49,-321.81 91.18,-316.75 90.06,-323.66"/>
</g>
<!-- system.routes.ts -->
<g id="node31" class="node">
<title>system.routes.ts</title>
<path fill="none" stroke="#c6c5fe" d="M213.33,-140.28C213.33,-140.28 112.67,-140.28 112.67,-140.28 108.83,-140.28 105,-136.45 105,-132.62 105,-132.62 105,-124.95 105,-124.95 105,-121.12 108.83,-117.28 112.67,-117.28 112.67,-117.28 213.33,-117.28 213.33,-117.28 217.17,-117.28 221,-121.12 221,-124.95 221,-124.95 221,-132.62 221,-132.62 221,-136.45 217.17,-140.28 213.33,-140.28"/>
<text text-anchor="middle" x="163" y="-125.08" font-family="Arial" font-size="14.00" fill="#c6c5fe">system.routes.ts</text>
</g>
<!-- index.ts&#45;&gt;system.routes.ts -->
<g id="edge60" class="edge">
<title>index.ts&#45;&gt;system.routes.ts</title>
<path fill="none" stroke="#757575" d="M33.91,-299.08C38.09,-269.49 53.16,-191.01 99,-148.78 100.13,-147.74 101.32,-146.75 102.56,-145.81"/>
<polygon fill="#757575" stroke="#757575" points="104.67,-148.62 111.27,-140.34 100.94,-142.69 104.67,-148.62"/>
</g>
<!-- tasks.routes.ts -->
<g id="node32" class="node">
<title>tasks.routes.ts</title>
<path fill="none" stroke="#c6c5fe" d="M207.33,-466.28C207.33,-466.28 118.67,-466.28 118.67,-466.28 114.83,-466.28 111,-462.45 111,-458.62 111,-458.62 111,-450.95 111,-450.95 111,-447.12 114.83,-443.28 118.67,-443.28 118.67,-443.28 207.33,-443.28 207.33,-443.28 211.17,-443.28 215,-447.12 215,-450.95 215,-450.95 215,-458.62 215,-458.62 215,-462.45 211.17,-466.28 207.33,-466.28"/>
<text text-anchor="middle" x="163" y="-451.08" font-family="Arial" font-size="14.00" fill="#c6c5fe">tasks.routes.ts</text>
</g>
<!-- index.ts&#45;&gt;tasks.routes.ts -->
<g id="edge61" class="edge">
<title>index.ts&#45;&gt;tasks.routes.ts</title>
<path fill="none" stroke="#757575" d="M35.63,-322.47C42.74,-346.77 62.38,-403.03 99,-433.78 100.97,-435.44 103.08,-436.96 105.28,-438.37"/>
<polygon fill="#757575" stroke="#757575" points="103.71,-441.5 114.17,-443.22 107.07,-435.36 103.71,-441.5"/>
</g>
<!-- naming.routes.ts&#45;&gt;../api/middleware/sessionTracking.ts -->
<g id="edge62" class="edge">
<title>naming.routes.ts&#45;&gt;../api/middleware/sessionTracking.ts</title>
<path fill="none" stroke="#757575" d="M208.35,-302.32C214.79,-304.71 221.2,-307.52 227,-310.78 283.87,-342.74 338.56,-397.9 365.18,-426.83"/>
<polygon fill="#757575" stroke="#757575" points="362.61,-429.2 371.93,-434.25 367.79,-424.49 362.61,-429.2"/>
</g>
<!-- naming.routes.ts&#45;&gt;../handlers/naming.ts -->
<g id="edge63" class="edge">
<title>naming.routes.ts&#45;&gt;../handlers/naming.ts</title>
<path fill="none" stroke="#757575" d="M214.03,-279.25C229.68,-275.75 247.03,-271.99 263,-268.78 466.16,-227.96 706.71,-186.51 828.63,-165.99"/>
<polygon fill="#757575" stroke="#757575" points="829.34,-169.42 838.62,-164.31 828.18,-162.51 829.34,-169.42"/>
</g>
<!-- naming.routes.ts&#45;&gt;../utils/mcpFormatter.ts -->
<g id="edge64" class="edge">
<title>naming.routes.ts&#45;&gt;../utils/mcpFormatter.ts</title>
<path fill="none" stroke="#757575" d="M221.56,-290.52C244.07,-290.42 270.37,-290.29 295.09,-290.18"/>
<polygon fill="#757575" stroke="#757575" points="295.22,-293.68 305.21,-290.14 295.19,-286.68 295.22,-293.68"/>
</g>
<!-- patterns.routes.ts&#45;&gt;../handlers/patterns/patternAnalyze.ts -->
<g id="edge65" class="edge">
<title>patterns.routes.ts&#45;&gt;../handlers/patterns/patternAnalyze.ts</title>
<path fill="none" stroke="#757575" d="M223.57,-570.7C232.84,-571.47 242.71,-572.28 252.82,-573.12"/>
<polygon fill="#757575" stroke="#757575" points="252.74,-576.62 262.99,-573.96 253.32,-569.65 252.74,-576.62"/>
</g>
<!-- patterns.routes.ts&#45;&gt;../handlers/patterns/patternInsights.ts -->
<g id="edge66" class="edge">
<title>patterns.routes.ts&#45;&gt;../handlers/patterns/patternInsights.ts</title>
<path fill="none" stroke="#757575" d="M170,-577.5C183.34,-602.46 217.9,-661.23 263,-693.78 346.83,-754.29 461.85,-784.09 546.06,-798.57"/>
<polygon fill="#757575" stroke="#757575" points="545.73,-802.07 556.17,-800.26 546.89,-795.16 545.73,-802.07"/>
</g>
<!-- patterns.routes.ts&#45;&gt;../utils/mcpFormatter.ts -->
<g id="edge67" class="edge">
<title>patterns.routes.ts&#45;&gt;../utils/mcpFormatter.ts</title>
<path fill="none" stroke="#757575" d="M172.12,-554.06C194.03,-522.45 253.37,-437 263,-424.78 296.85,-381.82 340.05,-334.49 363.98,-308.85"/>
<polygon fill="#757575" stroke="#757575" points="366.76,-311.01 371.04,-301.32 361.65,-306.23 366.76,-311.01"/>
</g>
<!-- project.routes.ts&#45;&gt;../handlers/project.ts -->
<g id="edge68" class="edge">
<title>project.routes.ts&#45;&gt;../handlers/project.ts</title>
<path fill="none" stroke="#757575" d="M219.75,-204.29C385.18,-186.1 870.06,-140.69 1004,-216.78 1076.4,-257.92 1112.03,-359.14 1124.58,-403.44"/>
<polygon fill="#757575" stroke="#757575" points="1121.22,-404.43 1127.22,-413.17 1127.98,-402.6 1121.22,-404.43"/>
</g>
<!-- project.routes.ts&#45;&gt;../utils/mcpFormatter.ts -->
<g id="edge69" class="edge">
<title>project.routes.ts&#45;&gt;../utils/mcpFormatter.ts</title>
<path fill="none" stroke="#757575" d="M196.17,-222.44C234.43,-236.31 298.41,-259.49 340.4,-274.71"/>
<polygon fill="#757575" stroke="#757575" points="339.46,-278.09 350.06,-278.21 341.85,-271.51 339.46,-278.09"/>
</g>
<!-- search.routes.ts&#45;&gt;../handlers/project.ts -->
<g id="edge70" class="edge">
<title>search.routes.ts&#45;&gt;../handlers/project.ts</title>
<path fill="none" stroke="#757575" d="M219.67,-165.21C360.23,-156.18 737.18,-147.73 1004,-287.78 1056.38,-315.28 1098.28,-373.5 1117.9,-404.45"/>
<polygon fill="#757575" stroke="#757575" points="1115.02,-406.45 1123.26,-413.12 1120.98,-402.77 1115.02,-406.45"/>
</g>
<!-- search.routes.ts&#45;&gt;../handlers/smartSearch.ts -->
<g id="edge71" class="edge">
<title>search.routes.ts&#45;&gt;../handlers/smartSearch.ts</title>
<path fill="none" stroke="#757575" d="M201.44,-158.15C219.89,-152.58 242.52,-146.01 263,-140.78 279.87,-136.47 298.2,-132.25 315.3,-128.5"/>
<polygon fill="#757575" stroke="#757575" points="316.18,-131.89 325.21,-126.34 314.7,-125.05 316.18,-131.89"/>
</g>
<!-- search.routes.ts&#45;&gt;../utils/mcpFormatter.ts -->
<g id="edge72" class="edge">
<title>search.routes.ts&#45;&gt;../utils/mcpFormatter.ts</title>
<path fill="none" stroke="#757575" d="M212.5,-181.34C217.66,-183.67 222.61,-186.45 227,-189.78 250.27,-207.45 240.22,-226.49 263,-244.78 279.95,-258.39 301.45,-268.18 321.5,-275.09"/>
<polygon fill="#757575" stroke="#757575" points="320.61,-278.48 331.2,-278.25 322.77,-271.82 320.61,-278.48"/>
</g>
<!-- sessions.routes.ts&#45;&gt;../handlers/sessionAnalytics.ts -->
<g id="edge73" class="edge">
<title>sessions.routes.ts&#45;&gt;../handlers/sessionAnalytics.ts</title>
<path fill="none" stroke="#757575" d="M225.56,-341.48C295.46,-354.09 411.63,-379.98 503,-424.78 556.45,-450.99 610.05,-496.61 637.9,-522.14"/>
<polygon fill="#757575" stroke="#757575" points="635.66,-524.83 645.37,-529.07 640.42,-519.7 635.66,-524.83"/>
</g>
<!-- sessions.routes.ts&#45;&gt;../utils/mcpFormatter.ts -->
<g id="edge74" class="edge">
<title>sessions.routes.ts&#45;&gt;../utils/mcpFormatter.ts</title>
<path fill="none" stroke="#757575" d="M223.86,-320.25C251.26,-314.97 283.9,-308.68 312.39,-303.19"/>
<polygon fill="#757575" stroke="#757575" points="313.12,-306.62 322.28,-301.29 311.79,-299.74 313.12,-306.62"/>
</g>
<!-- system.routes.ts&#45;&gt;../handlers/navigation.ts -->
<g id="edge75" class="edge">
<title>system.routes.ts&#45;&gt;../handlers/navigation.ts</title>
<path fill="none" stroke="#757575" d="M192.61,-117.18C212.17,-109.62 238.82,-100.04 263,-93.78 272.84,-91.24 283.22,-88.94 293.58,-86.89"/>
<polygon fill="#757575" stroke="#757575" points="294.33,-90.31 303.5,-84.99 293.02,-83.43 294.33,-90.31"/>
</g>
<!-- system.routes.ts&#45;&gt;../utils/mcpFormatter.ts -->
<g id="edge76" class="edge">
<title>system.routes.ts&#45;&gt;../utils/mcpFormatter.ts</title>
<path fill="none" stroke="#757575" d="M208.75,-140.33C215.07,-142.71 221.33,-145.52 227,-148.78 284.91,-182.15 339.53,-240.25 365.76,-270.39"/>
<polygon fill="#757575" stroke="#757575" points="363.21,-272.8 372.38,-278.11 368.53,-268.24 363.21,-272.8"/>
</g>
<!-- tasks.routes.ts&#45;&gt;../api/middleware/sessionTracking.ts -->
<g id="edge77" class="edge">
<title>tasks.routes.ts&#45;&gt;../api/middleware/sessionTracking.ts</title>
<path fill="none" stroke="#757575" d="M215.11,-452.67C227.36,-452.17 240.99,-451.6 255.03,-451.02"/>
<polygon fill="#757575" stroke="#757575" points="255.46,-454.51 265.31,-450.6 255.17,-447.52 255.46,-454.51"/>
</g>
<!-- tasks.routes.ts&#45;&gt;../handlers/project.ts -->
<g id="edge78" class="edge">
<title>tasks.routes.ts&#45;&gt;../handlers/project.ts</title>
<path fill="none" stroke="#757575" d="M215.04,-461.55C230.42,-463.29 247.37,-464.92 263,-465.78 553.85,-481.89 899.81,-450.29 1051.81,-433.85"/>
<polygon fill="#757575" stroke="#757575" points="1052.41,-437.31 1061.98,-432.74 1051.66,-430.35 1052.41,-437.31"/>
</g>
<!-- tasks.routes.ts&#45;&gt;../handlers/tasks.ts -->
<g id="edge79" class="edge">
<title>tasks.routes.ts&#45;&gt;../handlers/tasks.ts</title>
<path fill="none" stroke="#757575" d="M172.6,-466.56C184.96,-483.59 208.31,-516.21 227,-544.78 243.82,-570.49 239.33,-584.21 263,-603.78 350.8,-676.37 412.83,-624.17 503,-693.78 524.96,-710.74 515.89,-729.44 539,-744.78 552.37,-753.66 568.28,-759.55 584.03,-763.46"/>
<polygon fill="#757575" stroke="#757575" points="583.27,-766.87 593.79,-765.64 584.79,-760.04 583.27,-766.87"/>
</g>
<!-- tasks.routes.ts&#45;&gt;../utils/mcpFormatter.ts -->
<g id="edge80" class="edge">
<title>tasks.routes.ts&#45;&gt;../utils/mcpFormatter.ts</title>
<path fill="none" stroke="#757575" d="M207.11,-443.16C213.99,-440.54 220.85,-437.43 227,-433.78 285.05,-399.37 339.61,-340.18 365.79,-309.5"/>
<polygon fill="#757575" stroke="#757575" points="368.64,-311.56 372.4,-301.65 363.29,-307.05 368.64,-311.56"/>
</g>
</g>
</svg>
