<?xml version="1.0" encoding="UTF-8" standalone="no"?>
<!DOCTYPE svg PUBLIC "-//W3C//DTD SVG 1.1//EN"
 "http://www.w3.org/Graphics/SVG/1.1/DTD/svg11.dtd">
<!-- Generated by graphviz version 2.43.0 (0)
 -->
<!-- Title: G Pages: 1 -->
<svg width="3202pt" height="597pt"
 viewBox="0.00 0.00 3202.20 597.20" xmlns="http://www.w3.org/2000/svg" xmlns:xlink="http://www.w3.org/1999/xlink">
<g id="graph0" class="graph" transform="scale(1 1) rotate(0) translate(21.6 575.6)">
<title>G</title>
<polygon fill="#111111" stroke="transparent" points="-21.6,21.6 -21.6,-575.6 3180.6,-575.6 3180.6,21.6 -21.6,21.6"/>
<!-- ../../aidis&#45;command/backend/dist/services/gitService.d.ts -->
<g id="node1" class="node">
<title>../../aidis&#45;command/backend/dist/services/gitService.d.ts</title>
<path fill="none" stroke="#c6c5fe" d="M1328.83,-200C1328.83,-200 991.17,-200 991.17,-200 987.33,-200 983.5,-196.17 983.5,-192.33 983.5,-192.33 983.5,-184.67 983.5,-184.67 983.5,-180.83 987.33,-177 991.17,-177 991.17,-177 1328.83,-177 1328.83,-177 1332.67,-177 1336.5,-180.83 1336.5,-184.67 1336.5,-184.67 1336.5,-192.33 1336.5,-192.33 1336.5,-196.17 1332.67,-200 1328.83,-200"/>
<text text-anchor="middle" x="1160" y="-184.8" font-family="Arial" font-size="14.00" fill="#c6c5fe">../../aidis&#45;command/backend/dist/services/gitService.d.ts</text>
</g>
<!-- ../../aidis&#45;command/backend/dist/types/git.d.ts -->
<g id="node2" class="node">
<title>../../aidis&#45;command/backend/dist/types/git.d.ts</title>
<path fill="none" stroke="#ff6c60" d="M1297.83,-141C1297.83,-141 1022.17,-141 1022.17,-141 1018.33,-141 1014.5,-137.17 1014.5,-133.33 1014.5,-133.33 1014.5,-125.67 1014.5,-125.67 1014.5,-121.83 1018.33,-118 1022.17,-118 1022.17,-118 1297.83,-118 1297.83,-118 1301.67,-118 1305.5,-121.83 1305.5,-125.67 1305.5,-125.67 1305.5,-133.33 1305.5,-133.33 1305.5,-137.17 1301.67,-141 1297.83,-141"/>
<text text-anchor="middle" x="1160" y="-125.8" font-family="Arial" font-size="14.00" fill="#ff6c60">../../aidis&#45;command/backend/dist/types/git.d.ts</text>
</g>
<!-- ../../aidis&#45;command/backend/dist/services/gitService.d.ts&#45;&gt;../../aidis&#45;command/backend/dist/types/git.d.ts -->
<g id="edge1" class="edge">
<title>../../aidis&#45;command/backend/dist/services/gitService.d.ts&#45;&gt;../../aidis&#45;command/backend/dist/types/git.d.ts</title>
<path fill="none" stroke="#757575" d="M1160,-176.78C1160,-169.61 1160,-159.95 1160,-151.31"/>
<polygon fill="#757575" stroke="#757575" points="1163.5,-151.17 1160,-141.17 1156.5,-151.17 1163.5,-151.17"/>
</g>
<!-- ../../aidis&#45;command/backend/dist/types/git.d.ts&#45;&gt;../../aidis&#45;command/backend/dist/types/git.d.ts -->
<g id="edge2" class="edge">
<title>../../aidis&#45;command/backend/dist/types/git.d.ts&#45;&gt;../../aidis&#45;command/backend/dist/types/git.d.ts</title>
<path fill="none" stroke="#757575" d="M1305.62,-137.66C1316.69,-135.84 1323.5,-133.12 1323.5,-129.5 1323.5,-127.12 1320.57,-125.13 1315.42,-123.53"/>
<polygon fill="#757575" stroke="#757575" points="1316.14,-120.11 1305.62,-121.34 1314.61,-126.94 1316.14,-120.11"/>
</g>
<!-- ../../aidis&#45;command/backend/dist/services/sessionDetail.d.ts -->
<g id="node3" class="node">
<title>../../aidis&#45;command/backend/dist/services/sessionDetail.d.ts</title>
<path fill="none" stroke="#cfffac" d="M919.33,-200C919.33,-200 560.67,-200 560.67,-200 556.83,-200 553,-196.17 553,-192.33 553,-192.33 553,-184.67 553,-184.67 553,-180.83 556.83,-177 560.67,-177 560.67,-177 919.33,-177 919.33,-177 923.17,-177 927,-180.83 927,-184.67 927,-184.67 927,-192.33 927,-192.33 927,-196.17 923.17,-200 919.33,-200"/>
<text text-anchor="middle" x="740" y="-184.8" font-family="Arial" font-size="14.00" fill="#cfffac">../../aidis&#45;command/backend/dist/services/sessionDetail.d.ts</text>
</g>
<!-- api/middleware/sessionTracking.ts -->
<g id="node4" class="node">
<title>api/middleware/sessionTracking.ts</title>
<path fill="none" stroke="#c6c5fe" d="M1740.33,-318C1740.33,-318 1531.67,-318 1531.67,-318 1527.83,-318 1524,-314.17 1524,-310.33 1524,-310.33 1524,-302.67 1524,-302.67 1524,-298.83 1527.83,-295 1531.67,-295 1531.67,-295 1740.33,-295 1740.33,-295 1744.17,-295 1748,-298.83 1748,-302.67 1748,-302.67 1748,-310.33 1748,-310.33 1748,-314.17 1744.17,-318 1740.33,-318"/>
<text text-anchor="middle" x="1636" y="-302.8" font-family="Arial" font-size="14.00" fill="#c6c5fe">api/middleware/sessionTracking.ts</text>
</g>
<!-- services/sessionTracker.ts -->
<g id="node5" class="node">
<title>services/sessionTracker.ts</title>
<path fill="none" stroke="#ff6c60" d="M1690.83,-200C1690.83,-200 1531.17,-200 1531.17,-200 1527.33,-200 1523.5,-196.17 1523.5,-192.33 1523.5,-192.33 1523.5,-184.67 1523.5,-184.67 1523.5,-180.83 1527.33,-177 1531.17,-177 1531.17,-177 1690.83,-177 1690.83,-177 1694.67,-177 1698.5,-180.83 1698.5,-184.67 1698.5,-184.67 1698.5,-192.33 1698.5,-192.33 1698.5,-196.17 1694.67,-200 1690.83,-200"/>
<text text-anchor="middle" x="1611" y="-184.8" font-family="Arial" font-size="14.00" fill="#ff6c60">services/sessionTracker.ts</text>
</g>
<!-- api/middleware/sessionTracking.ts&#45;&gt;services/sessionTracker.ts -->
<g id="edge3" class="edge">
<title>api/middleware/sessionTracking.ts&#45;&gt;services/sessionTracker.ts</title>
<path fill="none" stroke="#757575" d="M1633.69,-294.79C1629.54,-275.55 1620.76,-234.79 1615.42,-210.01"/>
<polygon fill="#757575" stroke="#757575" points="1618.83,-209.22 1613.3,-200.18 1611.99,-210.69 1618.83,-209.22"/>
</g>
<!-- utils/logger.ts -->
<g id="node6" class="node">
<title>utils/logger.ts</title>
<path fill="none" stroke="#cfffac" d="M392.83,-141C392.83,-141 313.17,-141 313.17,-141 309.33,-141 305.5,-137.17 305.5,-133.33 305.5,-133.33 305.5,-125.67 305.5,-125.67 305.5,-121.83 309.33,-118 313.17,-118 313.17,-118 392.83,-118 392.83,-118 396.67,-118 400.5,-121.83 400.5,-125.67 400.5,-125.67 400.5,-133.33 400.5,-133.33 400.5,-137.17 396.67,-141 392.83,-141"/>
<text text-anchor="middle" x="353" y="-125.8" font-family="Arial" font-size="14.00" fill="#cfffac">utils/logger.ts</text>
</g>
<!-- api/middleware/sessionTracking.ts&#45;&gt;utils/logger.ts -->
<g id="edge4" class="edge">
<title>api/middleware/sessionTracking.ts&#45;&gt;utils/logger.ts</title>
<path fill="none" stroke="#757575" d="M1523.76,-303.78C1346.7,-300.15 1018.05,-289.36 974,-259 940.93,-236.2 968.96,-199.95 936,-177 893.57,-147.46 549.7,-135.49 410.84,-131.83"/>
<polygon fill="#757575" stroke="#757575" points="410.89,-128.33 400.81,-131.57 410.71,-135.33 410.89,-128.33"/>
</g>
<!-- services/sessionTracker.ts&#45;&gt;utils/logger.ts -->
<g id="edge122" class="edge">
<title>services/sessionTracker.ts&#45;&gt;utils/logger.ts</title>
<path fill="none" stroke="#757575" d="M1523.04,-183.51C1281.34,-172.56 611.71,-142.22 410.75,-133.12"/>
<polygon fill="#757575" stroke="#757575" points="410.84,-129.62 400.69,-132.66 410.53,-136.61 410.84,-129.62"/>
</g>
<!-- config/database.ts -->
<g id="node7" class="node">
<title>config/database.ts</title>
<path fill="none" stroke="#cfffac" d="M2158.33,-23C2158.33,-23 2047.67,-23 2047.67,-23 2043.83,-23 2040,-19.17 2040,-15.33 2040,-15.33 2040,-7.67 2040,-7.67 2040,-3.83 2043.83,0 2047.67,0 2047.67,0 2158.33,0 2158.33,0 2162.17,0 2166,-3.83 2166,-7.67 2166,-7.67 2166,-15.33 2166,-15.33 2166,-19.17 2162.17,-23 2158.33,-23"/>
<text text-anchor="middle" x="2103" y="-7.8" font-family="Arial" font-size="14.00" fill="#cfffac">config/database.ts</text>
</g>
<!-- services/sessionTracker.ts&#45;&gt;config/database.ts -->
<g id="edge119" class="edge">
<title>services/sessionTracker.ts&#45;&gt;config/database.ts</title>
<path fill="none" stroke="#757575" d="M1628.19,-176.86C1659.19,-157.68 1721.5,-119.18 1724,-118 1825.34,-70.07 1952.52,-40.23 2030.76,-24.99"/>
<polygon fill="#757575" stroke="#757575" points="2031.83,-28.35 2040.99,-23.02 2030.51,-21.47 2031.83,-28.35"/>
</g>
<!-- handlers/project.ts -->
<g id="node11" class="node">
<title>handlers/project.ts</title>
<path fill="none" stroke="#ff6c60" d="M2491.83,-141C2491.83,-141 2380.17,-141 2380.17,-141 2376.33,-141 2372.5,-137.17 2372.5,-133.33 2372.5,-133.33 2372.5,-125.67 2372.5,-125.67 2372.5,-121.83 2376.33,-118 2380.17,-118 2380.17,-118 2491.83,-118 2491.83,-118 2495.67,-118 2499.5,-121.83 2499.5,-125.67 2499.5,-125.67 2499.5,-133.33 2499.5,-133.33 2499.5,-137.17 2495.67,-141 2491.83,-141"/>
<text text-anchor="middle" x="2436" y="-125.8" font-family="Arial" font-size="14.00" fill="#ff6c60">handlers/project.ts</text>
</g>
<!-- services/sessionTracker.ts&#45;&gt;handlers/project.ts -->
<g id="edge120" class="edge">
<title>services/sessionTracker.ts&#45;&gt;handlers/project.ts</title>
<path fill="none" stroke="#757575" d="M1698.51,-181.45C1861.78,-170.17 2210.02,-146.11 2362.23,-135.6"/>
<polygon fill="#757575" stroke="#757575" points="2362.67,-139.07 2372.41,-134.89 2362.19,-132.09 2362.67,-139.07"/>
</g>
<!-- utils/agentDetection.ts -->
<g id="node51" class="node">
<title>utils/agentDetection.ts</title>
<path fill="none" stroke="#cfffac" d="M1873.83,-141C1873.83,-141 1740.17,-141 1740.17,-141 1736.33,-141 1732.5,-137.17 1732.5,-133.33 1732.5,-133.33 1732.5,-125.67 1732.5,-125.67 1732.5,-121.83 1736.33,-118 1740.17,-118 1740.17,-118 1873.83,-118 1873.83,-118 1877.67,-118 1881.5,-121.83 1881.5,-125.67 1881.5,-125.67 1881.5,-133.33 1881.5,-133.33 1881.5,-137.17 1877.67,-141 1873.83,-141"/>
<text text-anchor="middle" x="1807" y="-125.8" font-family="Arial" font-size="14.00" fill="#cfffac">utils/agentDetection.ts</text>
</g>
<!-- services/sessionTracker.ts&#45;&gt;utils/agentDetection.ts -->
<g id="edge121" class="edge">
<title>services/sessionTracker.ts&#45;&gt;utils/agentDetection.ts</title>
<path fill="none" stroke="#757575" d="M1647.41,-176.91C1679.45,-167.59 1726.26,-153.98 1760.91,-143.9"/>
<polygon fill="#757575" stroke="#757575" points="1762.16,-147.18 1770.79,-141.03 1760.21,-140.46 1762.16,-147.18"/>
</g>
<!-- utils/sessionFormatters.ts -->
<g id="node52" class="node">
<title>utils/sessionFormatters.ts</title>
<path fill="none" stroke="#ff6c60" d="M1669.33,-141C1669.33,-141 1514.67,-141 1514.67,-141 1510.83,-141 1507,-137.17 1507,-133.33 1507,-133.33 1507,-125.67 1507,-125.67 1507,-121.83 1510.83,-118 1514.67,-118 1514.67,-118 1669.33,-118 1669.33,-118 1673.17,-118 1677,-121.83 1677,-125.67 1677,-125.67 1677,-133.33 1677,-133.33 1677,-137.17 1673.17,-141 1669.33,-141"/>
<text text-anchor="middle" x="1592" y="-125.8" font-family="Arial" font-size="14.00" fill="#ff6c60">utils/sessionFormatters.ts</text>
</g>
<!-- services/sessionTracker.ts&#45;&gt;utils/sessionFormatters.ts -->
<g id="edge123" class="edge">
<title>services/sessionTracker.ts&#45;&gt;utils/sessionFormatters.ts</title>
<path fill="none" stroke="#757575" d="M1602.01,-176.78C1598.33,-169.53 1594.7,-159.74 1592.33,-151.02"/>
<polygon fill="#757575" stroke="#757575" points="1595.73,-150.18 1590.15,-141.17 1588.9,-151.69 1595.73,-150.18"/>
</g>
<!-- config/toolDefinitions.ts -->
<g id="node8" class="node">
<title>config/toolDefinitions.ts</title>
<path fill="none" stroke="#cfffac" d="M365.83,-377C365.83,-377 226.17,-377 226.17,-377 222.33,-377 218.5,-373.17 218.5,-369.33 218.5,-369.33 218.5,-361.67 218.5,-361.67 218.5,-357.83 222.33,-354 226.17,-354 226.17,-354 365.83,-354 365.83,-354 369.67,-354 373.5,-357.83 373.5,-361.67 373.5,-361.67 373.5,-369.33 373.5,-369.33 373.5,-373.17 369.67,-377 365.83,-377"/>
<text text-anchor="middle" x="296" y="-361.8" font-family="Arial" font-size="14.00" fill="#cfffac">config/toolDefinitions.ts</text>
</g>
<!-- handlers/codeAnalysis.ts -->
<g id="node9" class="node">
<title>handlers/codeAnalysis.ts</title>
<path fill="none" stroke="#c6c5fe" d="M3151.33,-82C3151.33,-82 3000.67,-82 3000.67,-82 2996.83,-82 2993,-78.17 2993,-74.33 2993,-74.33 2993,-66.67 2993,-66.67 2993,-62.83 2996.83,-59 3000.67,-59 3000.67,-59 3151.33,-59 3151.33,-59 3155.17,-59 3159,-62.83 3159,-66.67 3159,-66.67 3159,-74.33 3159,-74.33 3159,-78.17 3155.17,-82 3151.33,-82"/>
<text text-anchor="middle" x="3076" y="-66.8" font-family="Arial" font-size="14.00" fill="#c6c5fe">handlers/codeAnalysis.ts</text>
</g>
<!-- handlers/codeAnalysis.ts&#45;&gt;config/database.ts -->
<g id="edge5" class="edge">
<title>handlers/codeAnalysis.ts&#45;&gt;config/database.ts</title>
<path fill="none" stroke="#757575" d="M2992.95,-60.21C2988.23,-59.77 2983.56,-59.37 2979,-59 2681.65,-35.03 2326.49,-20.52 2176.06,-15.02"/>
<polygon fill="#757575" stroke="#757575" points="2176.14,-11.52 2166.02,-14.66 2175.89,-18.52 2176.14,-11.52"/>
</g>
<!-- handlers/context.ts -->
<g id="node10" class="node">
<title>handlers/context.ts</title>
<path fill="none" stroke="#c6c5fe" d="M2660.33,-259C2660.33,-259 2545.67,-259 2545.67,-259 2541.83,-259 2538,-255.17 2538,-251.33 2538,-251.33 2538,-243.67 2538,-243.67 2538,-239.83 2541.83,-236 2545.67,-236 2545.67,-236 2660.33,-236 2660.33,-236 2664.17,-236 2668,-239.83 2668,-243.67 2668,-243.67 2668,-251.33 2668,-251.33 2668,-255.17 2664.17,-259 2660.33,-259"/>
<text text-anchor="middle" x="2603" y="-243.8" font-family="Arial" font-size="14.00" fill="#c6c5fe">handlers/context.ts</text>
</g>
<!-- handlers/context.ts&#45;&gt;services/sessionTracker.ts -->
<g id="edge10" class="edge">
<title>handlers/context.ts&#45;&gt;services/sessionTracker.ts</title>
<path fill="none" stroke="#757575" d="M2537.67,-241.72C2511.37,-239.85 2480.75,-237.74 2453,-236 2183.67,-219.14 1865.66,-202.45 1708.71,-194.43"/>
<polygon fill="#757575" stroke="#757575" points="1708.77,-190.93 1698.6,-193.91 1708.41,-197.92 1708.77,-190.93"/>
</g>
<!-- handlers/context.ts&#45;&gt;config/database.ts -->
<g id="edge6" class="edge">
<title>handlers/context.ts&#45;&gt;config/database.ts</title>
<path fill="none" stroke="#757575" d="M2636.13,-236C2653.06,-228.76 2672.13,-217.27 2682,-200 2687.07,-191.13 2686.52,-186.17 2682,-177 2643.84,-99.68 2608.03,-91.09 2528,-59 2465.91,-34.1 2280.56,-21.21 2176.31,-15.76"/>
<polygon fill="#757575" stroke="#757575" points="2176.34,-12.26 2166.17,-15.24 2175.98,-19.25 2176.34,-12.26"/>
</g>
<!-- handlers/context.ts&#45;&gt;handlers/project.ts -->
<g id="edge7" class="edge">
<title>handlers/context.ts&#45;&gt;handlers/project.ts</title>
<path fill="none" stroke="#757575" d="M2578.04,-235.95C2559.16,-227.46 2532.99,-214.56 2512,-200 2490.19,-184.86 2468.11,-163.9 2453.41,-148.97"/>
<polygon fill="#757575" stroke="#757575" points="2455.52,-146.12 2446.05,-141.36 2450.49,-150.98 2455.52,-146.12"/>
</g>
<!-- middleware/eventLogger.ts -->
<g id="node12" class="node">
<title>middleware/eventLogger.ts</title>
<path fill="none" stroke="#c6c5fe" d="M2184.83,-200C2184.83,-200 2021.17,-200 2021.17,-200 2017.33,-200 2013.5,-196.17 2013.5,-192.33 2013.5,-192.33 2013.5,-184.67 2013.5,-184.67 2013.5,-180.83 2017.33,-177 2021.17,-177 2021.17,-177 2184.83,-177 2184.83,-177 2188.67,-177 2192.5,-180.83 2192.5,-184.67 2192.5,-184.67 2192.5,-192.33 2192.5,-192.33 2192.5,-196.17 2188.67,-200 2184.83,-200"/>
<text text-anchor="middle" x="2103" y="-184.8" font-family="Arial" font-size="14.00" fill="#c6c5fe">middleware/eventLogger.ts</text>
</g>
<!-- handlers/context.ts&#45;&gt;middleware/eventLogger.ts -->
<g id="edge8" class="edge">
<title>handlers/context.ts&#45;&gt;middleware/eventLogger.ts</title>
<path fill="none" stroke="#757575" d="M2537.89,-239.08C2452.62,-229.36 2302.28,-212.22 2202.64,-200.86"/>
<polygon fill="#757575" stroke="#757575" points="2202.89,-197.36 2192.56,-199.71 2202.1,-204.32 2202.89,-197.36"/>
</g>
<!-- services/embedding.ts -->
<g id="node13" class="node">
<title>services/embedding.ts</title>
<path fill="none" stroke="#cfffac" d="M2665.33,-200C2665.33,-200 2528.67,-200 2528.67,-200 2524.83,-200 2521,-196.17 2521,-192.33 2521,-192.33 2521,-184.67 2521,-184.67 2521,-180.83 2524.83,-177 2528.67,-177 2528.67,-177 2665.33,-177 2665.33,-177 2669.17,-177 2673,-180.83 2673,-184.67 2673,-184.67 2673,-192.33 2673,-192.33 2673,-196.17 2669.17,-200 2665.33,-200"/>
<text text-anchor="middle" x="2597" y="-184.8" font-family="Arial" font-size="14.00" fill="#cfffac">services/embedding.ts</text>
</g>
<!-- handlers/context.ts&#45;&gt;services/embedding.ts -->
<g id="edge9" class="edge">
<title>handlers/context.ts&#45;&gt;services/embedding.ts</title>
<path fill="none" stroke="#757575" d="M2601.87,-235.78C2601.12,-228.61 2600.1,-218.95 2599.19,-210.31"/>
<polygon fill="#757575" stroke="#757575" points="2602.65,-209.75 2598.12,-200.17 2595.69,-210.48 2602.65,-209.75"/>
</g>
<!-- handlers/project.ts&#45;&gt;config/database.ts -->
<g id="edge27" class="edge">
<title>handlers/project.ts&#45;&gt;config/database.ts</title>
<path fill="none" stroke="#757575" d="M2462.82,-117.92C2492.09,-104.88 2532.24,-81.67 2512,-59 2490.08,-34.44 2287.85,-21.15 2176.21,-15.62"/>
<polygon fill="#757575" stroke="#757575" points="2176.19,-12.12 2166.03,-15.13 2175.85,-19.11 2176.19,-12.12"/>
</g>
<!-- services/projectSwitchValidator.ts -->
<g id="node21" class="node">
<title>services/projectSwitchValidator.ts</title>
<path fill="none" stroke="#ff6c60" d="M2495.33,-82C2495.33,-82 2294.67,-82 2294.67,-82 2290.83,-82 2287,-78.17 2287,-74.33 2287,-74.33 2287,-66.67 2287,-66.67 2287,-62.83 2290.83,-59 2294.67,-59 2294.67,-59 2495.33,-59 2495.33,-59 2499.17,-59 2503,-62.83 2503,-66.67 2503,-66.67 2503,-74.33 2503,-74.33 2503,-78.17 2499.17,-82 2495.33,-82"/>
<text text-anchor="middle" x="2395" y="-66.8" font-family="Arial" font-size="14.00" fill="#ff6c60">services/projectSwitchValidator.ts</text>
</g>
<!-- handlers/project.ts&#45;&gt;services/projectSwitchValidator.ts -->
<g id="edge28" class="edge">
<title>handlers/project.ts&#45;&gt;services/projectSwitchValidator.ts</title>
<path fill="none" stroke="#757575" d="M2422.88,-117.78C2416.11,-110.22 2408.33,-99.87 2402.51,-90.88"/>
<polygon fill="#757575" stroke="#757575" points="2405.43,-88.94 2397.27,-82.17 2399.43,-92.55 2405.43,-88.94"/>
</g>
<!-- middleware/eventLogger.ts&#45;&gt;config/database.ts -->
<g id="edge44" class="edge">
<title>middleware/eventLogger.ts&#45;&gt;config/database.ts</title>
<path fill="none" stroke="#757575" d="M2103,-176.82C2103,-148.44 2103,-70.78 2103,-33.29"/>
<polygon fill="#757575" stroke="#757575" points="2106.5,-33.04 2103,-23.04 2099.5,-33.04 2106.5,-33.04"/>
</g>
<!-- middleware/eventLogger.ts&#45;&gt;handlers/project.ts -->
<g id="edge45" class="edge">
<title>middleware/eventLogger.ts&#45;&gt;handlers/project.ts</title>
<path fill="none" stroke="#757575" d="M2164.47,-176.98C2221.05,-167.29 2304.98,-152.93 2364.53,-142.73"/>
<polygon fill="#757575" stroke="#757575" points="2365.35,-146.15 2374.61,-141.01 2364.16,-139.25 2365.35,-146.15"/>
</g>
<!-- handlers/decisions.ts -->
<g id="node14" class="node">
<title>handlers/decisions.ts</title>
<path fill="none" stroke="#c6c5fe" d="M2435.83,-259C2435.83,-259 2308.17,-259 2308.17,-259 2304.33,-259 2300.5,-255.17 2300.5,-251.33 2300.5,-251.33 2300.5,-243.67 2300.5,-243.67 2300.5,-239.83 2304.33,-236 2308.17,-236 2308.17,-236 2435.83,-236 2435.83,-236 2439.67,-236 2443.5,-239.83 2443.5,-243.67 2443.5,-243.67 2443.5,-251.33 2443.5,-251.33 2443.5,-255.17 2439.67,-259 2435.83,-259"/>
<text text-anchor="middle" x="2372" y="-243.8" font-family="Arial" font-size="14.00" fill="#c6c5fe">handlers/decisions.ts</text>
</g>
<!-- handlers/decisions.ts&#45;&gt;services/sessionTracker.ts -->
<g id="edge14" class="edge">
<title>handlers/decisions.ts&#45;&gt;services/sessionTracker.ts</title>
<path fill="none" stroke="#757575" d="M2300.5,-236.89C2297.63,-236.58 2294.79,-236.28 2292,-236 2084.85,-215.35 1841.31,-201.15 1708.88,-194.26"/>
<polygon fill="#757575" stroke="#757575" points="1708.93,-190.76 1698.76,-193.74 1708.57,-197.75 1708.93,-190.76"/>
</g>
<!-- handlers/decisions.ts&#45;&gt;config/database.ts -->
<g id="edge11" class="edge">
<title>handlers/decisions.ts&#45;&gt;config/database.ts</title>
<path fill="none" stroke="#757575" d="M2360.38,-235.67C2328.97,-206.49 2239.5,-124.03 2162,-59 2150.06,-48.98 2136.41,-38.18 2125.24,-29.51"/>
<polygon fill="#757575" stroke="#757575" points="2127.32,-26.69 2117.26,-23.35 2123.04,-32.23 2127.32,-26.69"/>
</g>
<!-- handlers/decisions.ts&#45;&gt;handlers/project.ts -->
<g id="edge12" class="edge">
<title>handlers/decisions.ts&#45;&gt;handlers/project.ts</title>
<path fill="none" stroke="#757575" d="M2376,-235.82C2381.38,-221.9 2391.61,-196.97 2403,-177 2408.4,-167.53 2415.27,-157.6 2421.33,-149.36"/>
<polygon fill="#757575" stroke="#757575" points="2424.27,-151.27 2427.5,-141.18 2418.68,-147.06 2424.27,-151.27"/>
</g>
<!-- handlers/decisions.ts&#45;&gt;middleware/eventLogger.ts -->
<g id="edge13" class="edge">
<title>handlers/decisions.ts&#45;&gt;middleware/eventLogger.ts</title>
<path fill="none" stroke="#757575" d="M2322.35,-235.98C2277.28,-226.43 2210.73,-212.33 2162.76,-202.16"/>
<polygon fill="#757575" stroke="#757575" points="2163.33,-198.71 2152.82,-200.06 2161.88,-205.55 2163.33,-198.71"/>
</g>
<!-- handlers/git.ts -->
<g id="node15" class="node">
<title>handlers/git.ts</title>
<path fill="none" stroke="#c6c5fe" d="M1076.83,-259C1076.83,-259 991.17,-259 991.17,-259 987.33,-259 983.5,-255.17 983.5,-251.33 983.5,-251.33 983.5,-243.67 983.5,-243.67 983.5,-239.83 987.33,-236 991.17,-236 991.17,-236 1076.83,-236 1076.83,-236 1080.67,-236 1084.5,-239.83 1084.5,-243.67 1084.5,-243.67 1084.5,-251.33 1084.5,-251.33 1084.5,-255.17 1080.67,-259 1076.83,-259"/>
<text text-anchor="middle" x="1034" y="-243.8" font-family="Arial" font-size="14.00" fill="#c6c5fe">handlers/git.ts</text>
</g>
<!-- handlers/git.ts&#45;&gt;../../aidis&#45;command/backend/dist/services/gitService.d.ts -->
<g id="edge15" class="edge">
<title>handlers/git.ts&#45;&gt;../../aidis&#45;command/backend/dist/services/gitService.d.ts</title>
<path fill="none" stroke="#757575" d="M1057.4,-235.91C1077.12,-226.99 1105.53,-214.14 1127.46,-204.22"/>
<polygon fill="#757575" stroke="#757575" points="1129.05,-207.34 1136.72,-200.03 1126.17,-200.96 1129.05,-207.34"/>
</g>
<!-- handlers/git.ts&#45;&gt;../../aidis&#45;command/backend/dist/services/sessionDetail.d.ts -->
<g id="edge16" class="edge">
<title>handlers/git.ts&#45;&gt;../../aidis&#45;command/backend/dist/services/sessionDetail.d.ts</title>
<path fill="none" stroke="#757575" d="M983.46,-236.7C933.95,-227.1 858.3,-212.44 804.48,-202"/>
<polygon fill="#757575" stroke="#757575" points="804.85,-198.51 794.36,-200.04 803.51,-205.38 804.85,-198.51"/>
</g>
<!-- handlers/git.ts&#45;&gt;services/sessionTracker.ts -->
<g id="edge19" class="edge">
<title>handlers/git.ts&#45;&gt;services/sessionTracker.ts</title>
<path fill="none" stroke="#757575" d="M1084.55,-241.31C1101.25,-239.6 1119.92,-237.71 1137,-236 1267.12,-222.99 1417.38,-208.3 1513.22,-198.98"/>
<polygon fill="#757575" stroke="#757575" points="1513.58,-202.46 1523.19,-198.01 1512.9,-195.5 1513.58,-202.46"/>
</g>
<!-- handlers/git.ts&#45;&gt;config/database.ts -->
<g id="edge17" class="edge">
<title>handlers/git.ts&#45;&gt;config/database.ts</title>
<path fill="none" stroke="#757575" d="M1084.73,-238.23C1089.55,-237.46 1094.37,-236.71 1099,-236 1153.83,-227.58 1303.93,-236.15 1346,-200 1395.7,-157.31 1337.64,-99.68 1389,-59 1438.35,-19.91 1857.32,-13.57 2029.54,-12.62"/>
<polygon fill="#757575" stroke="#757575" points="2029.8,-16.12 2039.78,-12.57 2029.76,-9.12 2029.8,-16.12"/>
</g>
<!-- handlers/git.ts&#45;&gt;middleware/eventLogger.ts -->
<g id="edge18" class="edge">
<title>handlers/git.ts&#45;&gt;middleware/eventLogger.ts</title>
<path fill="none" stroke="#757575" d="M1084.63,-243.33C1119.34,-241.19 1166.45,-238.33 1208,-236 1496.73,-219.79 1837.96,-202.61 2003.28,-194.41"/>
<polygon fill="#757575" stroke="#757575" points="2003.61,-197.9 2013.43,-193.91 2003.27,-190.9 2003.61,-197.9"/>
</g>
<!-- handlers/naming.ts -->
<g id="node16" class="node">
<title>handlers/naming.ts</title>
<path fill="none" stroke="#c6c5fe" d="M2928.83,-200C2928.83,-200 2813.17,-200 2813.17,-200 2809.33,-200 2805.5,-196.17 2805.5,-192.33 2805.5,-192.33 2805.5,-184.67 2805.5,-184.67 2805.5,-180.83 2809.33,-177 2813.17,-177 2813.17,-177 2928.83,-177 2928.83,-177 2932.67,-177 2936.5,-180.83 2936.5,-184.67 2936.5,-184.67 2936.5,-192.33 2936.5,-192.33 2936.5,-196.17 2932.67,-200 2928.83,-200"/>
<text text-anchor="middle" x="2871" y="-184.8" font-family="Arial" font-size="14.00" fill="#c6c5fe">handlers/naming.ts</text>
</g>
<!-- handlers/naming.ts&#45;&gt;config/database.ts -->
<g id="edge20" class="edge">
<title>handlers/naming.ts&#45;&gt;config/database.ts</title>
<path fill="none" stroke="#757575" d="M2865.04,-176.69C2850.13,-150.87 2808.37,-85.73 2753,-59 2702.15,-34.46 2335.39,-19.92 2176.3,-14.7"/>
<polygon fill="#757575" stroke="#757575" points="2176.24,-11.2 2166.13,-14.37 2176.01,-18.19 2176.24,-11.2"/>
</g>
<!-- handlers/naming.ts&#45;&gt;handlers/project.ts -->
<g id="edge21" class="edge">
<title>handlers/naming.ts&#45;&gt;handlers/project.ts</title>
<path fill="none" stroke="#757575" d="M2805.08,-178.85C2800.31,-178.22 2795.58,-177.6 2791,-177 2693.93,-164.27 2581.92,-149.6 2510.11,-140.2"/>
<polygon fill="#757575" stroke="#757575" points="2510.18,-136.68 2499.81,-138.85 2509.27,-143.62 2510.18,-136.68"/>
</g>
<!-- handlers/navigation.ts -->
<g id="node17" class="node">
<title>handlers/navigation.ts</title>
<path fill="none" stroke="#cfffac" d="M2673.33,-318C2673.33,-318 2540.67,-318 2540.67,-318 2536.83,-318 2533,-314.17 2533,-310.33 2533,-310.33 2533,-302.67 2533,-302.67 2533,-298.83 2536.83,-295 2540.67,-295 2540.67,-295 2673.33,-295 2673.33,-295 2677.17,-295 2681,-298.83 2681,-302.67 2681,-302.67 2681,-310.33 2681,-310.33 2681,-314.17 2677.17,-318 2673.33,-318"/>
<text text-anchor="middle" x="2607" y="-302.8" font-family="Arial" font-size="14.00" fill="#cfffac">handlers/navigation.ts</text>
</g>
<!-- handlers/patterns/patternAnalyze.ts -->
<g id="node18" class="node">
<title>handlers/patterns/patternAnalyze.ts</title>
<path fill="none" stroke="#c6c5fe" d="M2129.83,-318C2129.83,-318 1916.17,-318 1916.17,-318 1912.33,-318 1908.5,-314.17 1908.5,-310.33 1908.5,-310.33 1908.5,-302.67 1908.5,-302.67 1908.5,-298.83 1912.33,-295 1916.17,-295 1916.17,-295 2129.83,-295 2129.83,-295 2133.67,-295 2137.5,-298.83 2137.5,-302.67 2137.5,-302.67 2137.5,-310.33 2137.5,-310.33 2137.5,-314.17 2133.67,-318 2129.83,-318"/>
<text text-anchor="middle" x="2023" y="-302.8" font-family="Arial" font-size="14.00" fill="#c6c5fe">handlers/patterns/patternAnalyze.ts</text>
</g>
<!-- handlers/patterns/patternAnalyze.ts&#45;&gt;handlers/project.ts -->
<g id="edge22" class="edge">
<title>handlers/patterns/patternAnalyze.ts&#45;&gt;handlers/project.ts</title>
<path fill="none" stroke="#757575" d="M2137.62,-300.88C2257.82,-294.84 2432.2,-282.17 2453,-259 2459.83,-251.39 2454.64,-246.09 2453,-236 2450.3,-219.35 2444.3,-216.54 2441,-200 2437.79,-183.9 2436.58,-165.34 2436.15,-151.45"/>
<polygon fill="#757575" stroke="#757575" points="2439.65,-151.37 2435.95,-141.45 2432.65,-151.52 2439.65,-151.37"/>
</g>
<!-- handlers/patterns/patternAnalyze.ts&#45;&gt;middleware/eventLogger.ts -->
<g id="edge23" class="edge">
<title>handlers/patterns/patternAnalyze.ts&#45;&gt;middleware/eventLogger.ts</title>
<path fill="none" stroke="#757575" d="M2024.82,-294.79C2027.67,-280.4 2034.22,-254.48 2047,-236 2055.06,-224.36 2066.79,-214 2077.43,-206.03"/>
<polygon fill="#757575" stroke="#757575" points="2079.54,-208.83 2085.65,-200.17 2075.47,-203.13 2079.54,-208.83"/>
</g>
<!-- services/patternDetector.ts -->
<g id="node19" class="node">
<title>services/patternDetector.ts</title>
<path fill="none" stroke="#c6c5fe" d="M1537.33,-259C1537.33,-259 1376.67,-259 1376.67,-259 1372.83,-259 1369,-255.17 1369,-251.33 1369,-251.33 1369,-243.67 1369,-243.67 1369,-239.83 1372.83,-236 1376.67,-236 1376.67,-236 1537.33,-236 1537.33,-236 1541.17,-236 1545,-239.83 1545,-243.67 1545,-243.67 1545,-251.33 1545,-251.33 1545,-255.17 1541.17,-259 1537.33,-259"/>
<text text-anchor="middle" x="1457" y="-243.8" font-family="Arial" font-size="14.00" fill="#c6c5fe">services/patternDetector.ts</text>
</g>
<!-- handlers/patterns/patternAnalyze.ts&#45;&gt;services/patternDetector.ts -->
<g id="edge24" class="edge">
<title>handlers/patterns/patternAnalyze.ts&#45;&gt;services/patternDetector.ts</title>
<path fill="none" stroke="#757575" d="M1918.53,-294.98C1814.66,-284.52 1656.57,-268.6 1555.02,-258.37"/>
<polygon fill="#757575" stroke="#757575" points="1555.37,-254.89 1545.07,-257.37 1554.67,-261.85 1555.37,-254.89"/>
</g>
<!-- services/patternDetector.ts&#45;&gt;services/sessionTracker.ts -->
<g id="edge114" class="edge">
<title>services/patternDetector.ts&#45;&gt;services/sessionTracker.ts</title>
<path fill="none" stroke="#757575" d="M1485.61,-235.91C1510.24,-226.79 1545.99,-213.56 1573.02,-203.56"/>
<polygon fill="#757575" stroke="#757575" points="1574.38,-206.78 1582.55,-200.03 1571.95,-200.22 1574.38,-206.78"/>
</g>
<!-- services/patternDetector.ts&#45;&gt;config/database.ts -->
<g id="edge112" class="edge">
<title>services/patternDetector.ts&#45;&gt;config/database.ts</title>
<path fill="none" stroke="#757575" d="M1456.97,-235.94C1457.52,-211.22 1462.56,-149.33 1498,-118 1575.92,-49.13 1886.37,-23.96 2029.74,-15.88"/>
<polygon fill="#757575" stroke="#757575" points="2029.97,-19.37 2039.76,-15.33 2029.59,-12.38 2029.97,-19.37"/>
</g>
<!-- services/patternDetector.ts&#45;&gt;middleware/eventLogger.ts -->
<g id="edge113" class="edge">
<title>services/patternDetector.ts&#45;&gt;middleware/eventLogger.ts</title>
<path fill="none" stroke="#757575" d="M1545.13,-238.72C1664.81,-228.16 1878.12,-209.34 2003.44,-198.28"/>
<polygon fill="#757575" stroke="#757575" points="2003.77,-201.77 2013.42,-197.4 2003.15,-194.8 2003.77,-201.77"/>
</g>
<!-- handlers/patterns/patternInsights.ts -->
<g id="node20" class="node">
<title>handlers/patterns/patternInsights.ts</title>
<path fill="none" stroke="#c6c5fe" d="M2274.83,-259C2274.83,-259 2063.17,-259 2063.17,-259 2059.33,-259 2055.5,-255.17 2055.5,-251.33 2055.5,-251.33 2055.5,-243.67 2055.5,-243.67 2055.5,-239.83 2059.33,-236 2063.17,-236 2063.17,-236 2274.83,-236 2274.83,-236 2278.67,-236 2282.5,-239.83 2282.5,-243.67 2282.5,-243.67 2282.5,-251.33 2282.5,-251.33 2282.5,-255.17 2278.67,-259 2274.83,-259"/>
<text text-anchor="middle" x="2169" y="-243.8" font-family="Arial" font-size="14.00" fill="#c6c5fe">handlers/patterns/patternInsights.ts</text>
</g>
<!-- handlers/patterns/patternInsights.ts&#45;&gt;config/database.ts -->
<g id="edge25" class="edge">
<title>handlers/patterns/patternInsights.ts&#45;&gt;config/database.ts</title>
<path fill="none" stroke="#757575" d="M2179.61,-235.75C2187.49,-226.96 2197.61,-213.77 2202,-200 2205.1,-190.26 2204.74,-186.85 2202,-177 2185.75,-118.5 2142.5,-59.96 2118.9,-31.06"/>
<polygon fill="#757575" stroke="#757575" points="2121.35,-28.53 2112.26,-23.08 2115.97,-33 2121.35,-28.53"/>
</g>
<!-- handlers/patterns/patternInsights.ts&#45;&gt;middleware/eventLogger.ts -->
<g id="edge26" class="edge">
<title>handlers/patterns/patternInsights.ts&#45;&gt;middleware/eventLogger.ts</title>
<path fill="none" stroke="#757575" d="M2156.59,-235.78C2147.18,-227.66 2134.07,-216.33 2123.17,-206.92"/>
<polygon fill="#757575" stroke="#757575" points="2125.21,-204.06 2115.36,-200.17 2120.64,-209.36 2125.21,-204.06"/>
</g>
<!-- services/projectSwitchValidator.ts&#45;&gt;config/database.ts -->
<g id="edge115" class="edge">
<title>services/projectSwitchValidator.ts&#45;&gt;config/database.ts</title>
<path fill="none" stroke="#757575" d="M2341.1,-58.98C2291.97,-49.39 2219.33,-35.21 2167.21,-25.03"/>
<polygon fill="#757575" stroke="#757575" points="2167.56,-21.54 2157.08,-23.06 2166.22,-28.41 2167.56,-21.54"/>
</g>
<!-- services/projectSwitchValidator.ts&#45;&gt;handlers/project.ts -->
<g id="edge116" class="edge">
<title>services/projectSwitchValidator.ts&#45;&gt;handlers/project.ts</title>
<path fill="none" stroke="#757575" d="M2408.08,-82.17C2414.84,-89.72 2422.63,-100.07 2428.46,-109.06"/>
<polygon fill="#757575" stroke="#757575" points="2425.55,-111.01 2433.7,-117.78 2431.54,-107.41 2425.55,-111.01"/>
</g>
<!-- handlers/sessionAnalytics.ts -->
<g id="node22" class="node">
<title>handlers/sessionAnalytics.ts</title>
<path fill="none" stroke="#c6c5fe" d="M1953.33,-259C1953.33,-259 1782.67,-259 1782.67,-259 1778.83,-259 1775,-255.17 1775,-251.33 1775,-251.33 1775,-243.67 1775,-243.67 1775,-239.83 1778.83,-236 1782.67,-236 1782.67,-236 1953.33,-236 1953.33,-236 1957.17,-236 1961,-239.83 1961,-243.67 1961,-243.67 1961,-251.33 1961,-251.33 1961,-255.17 1957.17,-259 1953.33,-259"/>
<text text-anchor="middle" x="1868" y="-243.8" font-family="Arial" font-size="14.00" fill="#c6c5fe">handlers/sessionAnalytics.ts</text>
</g>
<!-- handlers/sessionAnalytics.ts&#45;&gt;services/sessionTracker.ts -->
<g id="edge32" class="edge">
<title>handlers/sessionAnalytics.ts&#45;&gt;services/sessionTracker.ts</title>
<path fill="none" stroke="#757575" d="M1820.56,-235.98C1777.59,-226.45 1714.19,-212.39 1668.38,-202.23"/>
<polygon fill="#757575" stroke="#757575" points="1669.12,-198.8 1658.6,-200.06 1667.6,-205.64 1669.12,-198.8"/>
</g>
<!-- handlers/sessionAnalytics.ts&#45;&gt;config/database.ts -->
<g id="edge29" class="edge">
<title>handlers/sessionAnalytics.ts&#45;&gt;config/database.ts</title>
<path fill="none" stroke="#757575" d="M1881.45,-235.79C1892.79,-226.6 1909.33,-212.84 1923,-200 1986.08,-140.78 2055.65,-65.08 2086.6,-30.81"/>
<polygon fill="#757575" stroke="#757575" points="2089.52,-32.8 2093.61,-23.03 2084.31,-28.12 2089.52,-32.8"/>
</g>
<!-- handlers/sessionAnalytics.ts&#45;&gt;handlers/project.ts -->
<g id="edge30" class="edge">
<title>handlers/sessionAnalytics.ts&#45;&gt;handlers/project.ts</title>
<path fill="none" stroke="#757575" d="M1889.48,-235.9C1908.36,-226.54 1936.57,-212.49 1961,-200 1980.65,-189.95 1983.88,-183.41 2005,-177 2126.58,-140.11 2275.23,-131.65 2362.39,-130.17"/>
<polygon fill="#757575" stroke="#757575" points="2362.49,-133.67 2372.44,-130.03 2362.39,-126.67 2362.49,-133.67"/>
</g>
<!-- handlers/sessionAnalytics.ts&#45;&gt;middleware/eventLogger.ts -->
<g id="edge31" class="edge">
<title>handlers/sessionAnalytics.ts&#45;&gt;middleware/eventLogger.ts</title>
<path fill="none" stroke="#757575" d="M1911.38,-235.98C1950.42,-226.51 2007.92,-212.56 2049.74,-202.42"/>
<polygon fill="#757575" stroke="#757575" points="2050.59,-205.81 2059.48,-200.06 2048.94,-199.01 2050.59,-205.81"/>
</g>
<!-- handlers/smartSearch.ts -->
<g id="node23" class="node">
<title>handlers/smartSearch.ts</title>
<path fill="none" stroke="#c6c5fe" d="M2993.33,-318C2993.33,-318 2844.67,-318 2844.67,-318 2840.83,-318 2837,-314.17 2837,-310.33 2837,-310.33 2837,-302.67 2837,-302.67 2837,-298.83 2840.83,-295 2844.67,-295 2844.67,-295 2993.33,-295 2993.33,-295 2997.17,-295 3001,-298.83 3001,-302.67 3001,-302.67 3001,-310.33 3001,-310.33 3001,-314.17 2997.17,-318 2993.33,-318"/>
<text text-anchor="middle" x="2919" y="-302.8" font-family="Arial" font-size="14.00" fill="#c6c5fe">handlers/smartSearch.ts</text>
</g>
<!-- handlers/smartSearch.ts&#45;&gt;config/database.ts -->
<g id="edge33" class="edge">
<title>handlers/smartSearch.ts&#45;&gt;config/database.ts</title>
<path fill="none" stroke="#757575" d="M2926.39,-294.87C2939.39,-275.09 2965,-230.88 2965,-189.5 2965,-189.5 2965,-189.5 2965,-128.5 2965,-41.91 2867.56,-77.6 2783,-59 2669.11,-33.95 2327.51,-19.91 2176.35,-14.77"/>
<polygon fill="#757575" stroke="#757575" points="2176.35,-11.27 2166.23,-14.43 2176.11,-18.27 2176.35,-11.27"/>
</g>
<!-- handlers/smartSearch.ts&#45;&gt;handlers/codeAnalysis.ts -->
<g id="edge34" class="edge">
<title>handlers/smartSearch.ts&#45;&gt;handlers/codeAnalysis.ts</title>
<path fill="none" stroke="#757575" d="M2936.43,-294.96C2949.39,-286.47 2966.86,-273.58 2979,-259 3023.62,-205.43 3055.48,-127.95 3068.92,-91.66"/>
<polygon fill="#757575" stroke="#757575" points="3072.23,-92.78 3072.35,-82.19 3065.65,-90.4 3072.23,-92.78"/>
</g>
<!-- handlers/smartSearch.ts&#45;&gt;handlers/context.ts -->
<g id="edge35" class="edge">
<title>handlers/smartSearch.ts&#45;&gt;handlers/context.ts</title>
<path fill="none" stroke="#757575" d="M2860.67,-294.98C2807.09,-285.31 2727.66,-270.99 2671.17,-260.8"/>
<polygon fill="#757575" stroke="#757575" points="2671.72,-257.34 2661.25,-259.01 2670.47,-264.23 2671.72,-257.34"/>
</g>
<!-- handlers/smartSearch.ts&#45;&gt;handlers/decisions.ts -->
<g id="edge36" class="edge">
<title>handlers/smartSearch.ts&#45;&gt;handlers/decisions.ts</title>
<path fill="none" stroke="#757575" d="M2836.81,-296.94C2733.48,-286.17 2557.16,-267.79 2453.94,-257.04"/>
<polygon fill="#757575" stroke="#757575" points="2454.19,-253.55 2443.88,-255.99 2453.46,-260.51 2454.19,-253.55"/>
</g>
<!-- handlers/smartSearch.ts&#45;&gt;handlers/naming.ts -->
<g id="edge37" class="edge">
<title>handlers/smartSearch.ts&#45;&gt;handlers/naming.ts</title>
<path fill="none" stroke="#757575" d="M2914.57,-294.79C2906.57,-275.46 2889.59,-234.42 2879.35,-209.68"/>
<polygon fill="#757575" stroke="#757575" points="2882.48,-208.08 2875.42,-200.18 2876.01,-210.76 2882.48,-208.08"/>
</g>
<!-- handlers/tasks.ts -->
<g id="node24" class="node">
<title>handlers/tasks.ts</title>
<path fill="none" stroke="#c6c5fe" d="M1749.33,-259C1749.33,-259 1646.67,-259 1646.67,-259 1642.83,-259 1639,-255.17 1639,-251.33 1639,-251.33 1639,-243.67 1639,-243.67 1639,-239.83 1642.83,-236 1646.67,-236 1646.67,-236 1749.33,-236 1749.33,-236 1753.17,-236 1757,-239.83 1757,-243.67 1757,-243.67 1757,-251.33 1757,-251.33 1757,-255.17 1753.17,-259 1749.33,-259"/>
<text text-anchor="middle" x="1698" y="-243.8" font-family="Arial" font-size="14.00" fill="#c6c5fe">handlers/tasks.ts</text>
</g>
<!-- handlers/tasks.ts&#45;&gt;services/sessionTracker.ts -->
<g id="edge39" class="edge">
<title>handlers/tasks.ts&#45;&gt;services/sessionTracker.ts</title>
<path fill="none" stroke="#757575" d="M1681.64,-235.78C1668.76,-227.34 1650.59,-215.44 1635.91,-205.82"/>
<polygon fill="#757575" stroke="#757575" points="1637.57,-202.73 1627.29,-200.17 1633.74,-208.58 1637.57,-202.73"/>
</g>
<!-- handlers/tasks.ts&#45;&gt;config/database.ts -->
<g id="edge38" class="edge">
<title>handlers/tasks.ts&#45;&gt;config/database.ts</title>
<path fill="none" stroke="#757575" d="M1718.17,-235.86C1753.47,-217.15 1828.63,-176.93 1891,-141 1959.02,-101.82 2037.72,-53.25 2077.36,-28.55"/>
<polygon fill="#757575" stroke="#757575" points="2079.48,-31.35 2086.12,-23.09 2075.78,-25.41 2079.48,-31.35"/>
</g>
<!-- main.ts -->
<g id="node25" class="node">
<title>main.ts</title>
<path fill="none" stroke="#c6c5fe" d="M1134.83,-554C1134.83,-554 1089.17,-554 1089.17,-554 1085.33,-554 1081.5,-550.17 1081.5,-546.33 1081.5,-546.33 1081.5,-538.67 1081.5,-538.67 1081.5,-534.83 1085.33,-531 1089.17,-531 1089.17,-531 1134.83,-531 1134.83,-531 1138.67,-531 1142.5,-534.83 1142.5,-538.67 1142.5,-538.67 1142.5,-546.33 1142.5,-546.33 1142.5,-550.17 1138.67,-554 1134.83,-554"/>
<text text-anchor="middle" x="1112" y="-538.8" font-family="Arial" font-size="14.00" fill="#c6c5fe">main.ts</text>
</g>
<!-- main.ts&#45;&gt;utils/logger.ts -->
<g id="edge42" class="edge">
<title>main.ts&#45;&gt;utils/logger.ts</title>
<path fill="none" stroke="#757575" d="M1081.39,-541.61C902.48,-541.83 0,-537.41 0,-425.5 0,-425.5 0,-425.5 0,-246.5 0,-199.4 37.43,-197.15 80,-177 149.14,-144.28 237.78,-134.27 294.99,-131.38"/>
<polygon fill="#757575" stroke="#757575" points="295.45,-134.86 305.29,-130.92 295.14,-127.87 295.45,-134.86"/>
</g>
<!-- server/AidisMcpServer.ts -->
<g id="node26" class="node">
<title>server/AidisMcpServer.ts</title>
<path fill="none" stroke="#c6c5fe" d="M970.83,-495C970.83,-495 819.17,-495 819.17,-495 815.33,-495 811.5,-491.17 811.5,-487.33 811.5,-487.33 811.5,-479.67 811.5,-479.67 811.5,-475.83 815.33,-472 819.17,-472 819.17,-472 970.83,-472 970.83,-472 974.67,-472 978.5,-475.83 978.5,-479.67 978.5,-479.67 978.5,-487.33 978.5,-487.33 978.5,-491.17 974.67,-495 970.83,-495"/>
<text text-anchor="middle" x="895" y="-479.8" font-family="Arial" font-size="14.00" fill="#c6c5fe">server/AidisMcpServer.ts</text>
</g>
<!-- main.ts&#45;&gt;server/AidisMcpServer.ts -->
<g id="edge40" class="edge">
<title>main.ts&#45;&gt;server/AidisMcpServer.ts</title>
<path fill="none" stroke="#757575" d="M1081.37,-533.45C1045.89,-524.14 986.94,-508.65 944.84,-497.59"/>
<polygon fill="#757575" stroke="#757575" points="945.62,-494.18 935.06,-495.02 943.84,-500.95 945.62,-494.18"/>
</g>
<!-- utils/featureFlags.ts -->
<g id="node27" class="node">
<title>utils/featureFlags.ts</title>
<path fill="none" stroke="#cfffac" d="M1343.33,-259C1343.33,-259 1224.67,-259 1224.67,-259 1220.83,-259 1217,-255.17 1217,-251.33 1217,-251.33 1217,-243.67 1217,-243.67 1217,-239.83 1220.83,-236 1224.67,-236 1224.67,-236 1343.33,-236 1343.33,-236 1347.17,-236 1351,-239.83 1351,-243.67 1351,-243.67 1351,-251.33 1351,-251.33 1351,-255.17 1347.17,-259 1343.33,-259"/>
<text text-anchor="middle" x="1284" y="-243.8" font-family="Arial" font-size="14.00" fill="#cfffac">utils/featureFlags.ts</text>
</g>
<!-- main.ts&#45;&gt;utils/featureFlags.ts -->
<g id="edge41" class="edge">
<title>main.ts&#45;&gt;utils/featureFlags.ts</title>
<path fill="none" stroke="#757575" d="M1142.53,-540.76C1208.21,-537.39 1357,-519.39 1357,-425.5 1357,-425.5 1357,-425.5 1357,-364.5 1357,-324.66 1325.77,-287.31 1304.17,-266.24"/>
<polygon fill="#757575" stroke="#757575" points="1306.4,-263.54 1296.72,-259.24 1301.61,-268.64 1306.4,-263.54"/>
</g>
<!-- utils/processLock.ts -->
<g id="node28" class="node">
<title>utils/processLock.ts</title>
<path fill="none" stroke="#cfffac" d="M1511.33,-495C1511.33,-495 1392.67,-495 1392.67,-495 1388.83,-495 1385,-491.17 1385,-487.33 1385,-487.33 1385,-479.67 1385,-479.67 1385,-475.83 1388.83,-472 1392.67,-472 1392.67,-472 1511.33,-472 1511.33,-472 1515.17,-472 1519,-475.83 1519,-479.67 1519,-479.67 1519,-487.33 1519,-487.33 1519,-491.17 1515.17,-495 1511.33,-495"/>
<text text-anchor="middle" x="1452" y="-479.8" font-family="Arial" font-size="14.00" fill="#cfffac">utils/processLock.ts</text>
</g>
<!-- main.ts&#45;&gt;utils/processLock.ts -->
<g id="edge43" class="edge">
<title>main.ts&#45;&gt;utils/processLock.ts</title>
<path fill="none" stroke="#757575" d="M1142.77,-536.34C1195.78,-527.46 1305.67,-509.03 1379.13,-496.72"/>
<polygon fill="#757575" stroke="#757575" points="1379.96,-500.13 1389.25,-495.02 1378.81,-493.22 1379.96,-500.13"/>
</g>
<!-- server/AidisMcpServer.ts&#45;&gt;services/sessionTracker.ts -->
<g id="edge91" class="edge">
<title>server/AidisMcpServer.ts&#45;&gt;services/sessionTracker.ts</title>
<path fill="none" stroke="#757575" d="M978.72,-479.02C1046.99,-474.24 1145.17,-462.9 1227,-436 1236.81,-432.77 1546.03,-265.57 1554,-259 1571.74,-244.36 1587.95,-223.53 1598.51,-208.5"/>
<polygon fill="#757575" stroke="#757575" points="1601.57,-210.23 1604.32,-200 1595.79,-206.28 1601.57,-210.23"/>
</g>
<!-- server/AidisMcpServer.ts&#45;&gt;utils/logger.ts -->
<g id="edge94" class="edge">
<title>server/AidisMcpServer.ts&#45;&gt;utils/logger.ts</title>
<path fill="none" stroke="#757575" d="M811.21,-479.55C656.8,-473.64 333.05,-458.92 223,-436 137.01,-418.1 38,-454.33 38,-366.5 38,-366.5 38,-366.5 38,-246.5 38,-192.29 204.33,-155.61 295.26,-139.61"/>
<polygon fill="#757575" stroke="#757575" points="295.9,-143.05 305.16,-137.9 294.71,-136.16 295.9,-143.05"/>
</g>
<!-- server/AidisMcpServer.ts&#45;&gt;config/database.ts -->
<g id="edge82" class="edge">
<title>server/AidisMcpServer.ts&#45;&gt;config/database.ts</title>
<path fill="none" stroke="#757575" d="M952.38,-471.97C1037.94,-454.62 1189,-416.84 1189,-366.5 1189,-366.5 1189,-366.5 1189,-305.5 1189,-273.48 1184.55,-257.81 1208,-236 1268.7,-179.55 1317.51,-238.34 1391,-200 1437.54,-175.72 1434.9,-150.65 1476,-118 1513.74,-88.02 1521.41,-74.66 1567,-59 1650.56,-30.3 1903.33,-18.62 2029.59,-14.48"/>
<polygon fill="#757575" stroke="#757575" points="2030.05,-17.97 2039.94,-14.15 2029.83,-10.97 2030.05,-17.97"/>
</g>
<!-- server/AidisMcpServer.ts&#45;&gt;config/toolDefinitions.ts -->
<g id="edge83" class="edge">
<title>server/AidisMcpServer.ts&#45;&gt;config/toolDefinitions.ts</title>
<path fill="none" stroke="#757575" d="M811.36,-481.81C656.46,-479.7 337.37,-471.09 302,-436 289.55,-423.64 289.27,-403.02 291.37,-387.44"/>
<polygon fill="#757575" stroke="#757575" points="294.89,-387.64 293.18,-377.18 287.99,-386.42 294.89,-387.64"/>
</g>
<!-- server/AidisMcpServer.ts&#45;&gt;handlers/project.ts -->
<g id="edge84" class="edge">
<title>server/AidisMcpServer.ts&#45;&gt;handlers/project.ts</title>
<path fill="none" stroke="#757575" d="M978.87,-480.9C1192.52,-476.54 1774.61,-462.97 2259,-436 2433.19,-426.3 3041,-540.96 3041,-366.5 3041,-366.5 3041,-366.5 3041,-246.5 3041,-194.19 2994.94,-195.49 2946,-177 2868.22,-147.61 2631.83,-136.34 2510.14,-132.41"/>
<polygon fill="#757575" stroke="#757575" points="2509.9,-128.9 2499.79,-132.08 2509.68,-135.89 2509.9,-128.9"/>
</g>
<!-- server/AidisMcpServer.ts&#45;&gt;utils/featureFlags.ts -->
<g id="edge93" class="edge">
<title>server/AidisMcpServer.ts&#45;&gt;utils/featureFlags.ts</title>
<path fill="none" stroke="#757575" d="M978.74,-478.88C1057.68,-473.89 1168.84,-462.32 1203,-436 1257.32,-394.15 1275.79,-308.55 1281.58,-269.16"/>
<polygon fill="#757575" stroke="#757575" points="1285.06,-269.52 1282.92,-259.15 1278.13,-268.59 1285.06,-269.52"/>
</g>
<!-- middleware/requestLogger.ts -->
<g id="node29" class="node">
<title>middleware/requestLogger.ts</title>
<path fill="none" stroke="#c6c5fe" d="M835.83,-377C835.83,-377 660.17,-377 660.17,-377 656.33,-377 652.5,-373.17 652.5,-369.33 652.5,-369.33 652.5,-361.67 652.5,-361.67 652.5,-357.83 656.33,-354 660.17,-354 660.17,-354 835.83,-354 835.83,-354 839.67,-354 843.5,-357.83 843.5,-361.67 843.5,-361.67 843.5,-369.33 843.5,-369.33 843.5,-373.17 839.67,-377 835.83,-377"/>
<text text-anchor="middle" x="748" y="-361.8" font-family="Arial" font-size="14.00" fill="#c6c5fe">middleware/requestLogger.ts</text>
</g>
<!-- server/AidisMcpServer.ts&#45;&gt;middleware/requestLogger.ts -->
<g id="edge85" class="edge">
<title>server/AidisMcpServer.ts&#45;&gt;middleware/requestLogger.ts</title>
<path fill="none" stroke="#757575" d="M895,-471.89C894.42,-456.88 891.17,-429.47 876,-413 861.68,-397.46 841.76,-387.1 821.89,-380.21"/>
<polygon fill="#757575" stroke="#757575" points="822.76,-376.81 812.17,-377.09 820.62,-383.47 822.76,-376.81"/>
</g>
<!-- middleware/validation.ts -->
<g id="node30" class="node">
<title>middleware/validation.ts</title>
<path fill="none" stroke="#cfffac" d="M464.83,-436C464.83,-436 319.17,-436 319.17,-436 315.33,-436 311.5,-432.17 311.5,-428.33 311.5,-428.33 311.5,-420.67 311.5,-420.67 311.5,-416.83 315.33,-413 319.17,-413 319.17,-413 464.83,-413 464.83,-413 468.67,-413 472.5,-416.83 472.5,-420.67 472.5,-420.67 472.5,-428.33 472.5,-428.33 472.5,-432.17 468.67,-436 464.83,-436"/>
<text text-anchor="middle" x="392" y="-420.8" font-family="Arial" font-size="14.00" fill="#cfffac">middleware/validation.ts</text>
</g>
<!-- server/AidisMcpServer.ts&#45;&gt;middleware/validation.ts -->
<g id="edge86" class="edge">
<title>server/AidisMcpServer.ts&#45;&gt;middleware/validation.ts</title>
<path fill="none" stroke="#757575" d="M811.14,-473.16C729.97,-464.09 603.15,-449.87 483.06,-436.12"/>
<polygon fill="#757575" stroke="#757575" points="483.28,-432.62 472.95,-434.96 482.49,-439.58 483.28,-432.62"/>
</g>
<!-- routes/index.ts -->
<g id="node34" class="node">
<title>routes/index.ts</title>
<path fill="none" stroke="#c6c5fe" d="M2242.33,-436C2242.33,-436 2153.67,-436 2153.67,-436 2149.83,-436 2146,-432.17 2146,-428.33 2146,-428.33 2146,-420.67 2146,-420.67 2146,-416.83 2149.83,-413 2153.67,-413 2153.67,-413 2242.33,-413 2242.33,-413 2246.17,-413 2250,-416.83 2250,-420.67 2250,-420.67 2250,-428.33 2250,-428.33 2250,-432.17 2246.17,-436 2242.33,-436"/>
<text text-anchor="middle" x="2198" y="-420.8" font-family="Arial" font-size="14.00" fill="#c6c5fe">routes/index.ts</text>
</g>
<!-- server/AidisMcpServer.ts&#45;&gt;routes/index.ts -->
<g id="edge87" class="edge">
<title>server/AidisMcpServer.ts&#45;&gt;routes/index.ts</title>
<path fill="none" stroke="#757575" d="M978.74,-478.84C1221.59,-468.21 1922.41,-437.56 2135.68,-428.23"/>
<polygon fill="#757575" stroke="#757575" points="2135.93,-431.72 2145.76,-427.79 2135.62,-424.73 2135.93,-431.72"/>
</g>
<!-- server/healthServer.ts -->
<g id="node42" class="node">
<title>server/healthServer.ts</title>
<path fill="none" stroke="#c6c5fe" d="M631.33,-436C631.33,-436 498.67,-436 498.67,-436 494.83,-436 491,-432.17 491,-428.33 491,-428.33 491,-420.67 491,-420.67 491,-416.83 494.83,-413 498.67,-413 498.67,-413 631.33,-413 631.33,-413 635.17,-413 639,-416.83 639,-420.67 639,-420.67 639,-428.33 639,-428.33 639,-432.17 635.17,-436 631.33,-436"/>
<text text-anchor="middle" x="565" y="-420.8" font-family="Arial" font-size="14.00" fill="#c6c5fe">server/healthServer.ts</text>
</g>
<!-- server/AidisMcpServer.ts&#45;&gt;server/healthServer.ts -->
<g id="edge88" class="edge">
<title>server/AidisMcpServer.ts&#45;&gt;server/healthServer.ts</title>
<path fill="none" stroke="#757575" d="M834.09,-471.98C778.02,-462.29 694.84,-447.93 635.82,-437.73"/>
<polygon fill="#757575" stroke="#757575" points="636.29,-434.26 625.84,-436.01 635.09,-441.16 636.29,-434.26"/>
</g>
<!-- services/backgroundServices.ts -->
<g id="node43" class="node">
<title>services/backgroundServices.ts</title>
<path fill="none" stroke="#c6c5fe" d="M1060.33,-377C1060.33,-377 869.67,-377 869.67,-377 865.83,-377 862,-373.17 862,-369.33 862,-369.33 862,-361.67 862,-361.67 862,-357.83 865.83,-354 869.67,-354 869.67,-354 1060.33,-354 1060.33,-354 1064.17,-354 1068,-357.83 1068,-361.67 1068,-361.67 1068,-369.33 1068,-369.33 1068,-373.17 1064.17,-377 1060.33,-377"/>
<text text-anchor="middle" x="965" y="-361.8" font-family="Arial" font-size="14.00" fill="#c6c5fe">services/backgroundServices.ts</text>
</g>
<!-- server/AidisMcpServer.ts&#45;&gt;services/backgroundServices.ts -->
<g id="edge89" class="edge">
<title>server/AidisMcpServer.ts&#45;&gt;services/backgroundServices.ts</title>
<path fill="none" stroke="#757575" d="M901.46,-471.79C913.23,-452.29 938.33,-410.69 953.22,-386.02"/>
<polygon fill="#757575" stroke="#757575" points="956.39,-387.55 958.56,-377.18 950.39,-383.93 956.39,-387.55"/>
</g>
<!-- services/databasePool.ts -->
<g id="node44" class="node">
<title>services/databasePool.ts</title>
<path fill="none" stroke="#cfffac" d="M626.83,-377C626.83,-377 475.17,-377 475.17,-377 471.33,-377 467.5,-373.17 467.5,-369.33 467.5,-369.33 467.5,-361.67 467.5,-361.67 467.5,-357.83 471.33,-354 475.17,-354 475.17,-354 626.83,-354 626.83,-354 630.67,-354 634.5,-357.83 634.5,-361.67 634.5,-361.67 634.5,-369.33 634.5,-369.33 634.5,-373.17 630.67,-377 626.83,-377"/>
<text text-anchor="middle" x="551" y="-361.8" font-family="Arial" font-size="14.00" fill="#cfffac">services/databasePool.ts</text>
</g>
<!-- server/AidisMcpServer.ts&#45;&gt;services/databasePool.ts -->
<g id="edge90" class="edge">
<title>server/AidisMcpServer.ts&#45;&gt;services/databasePool.ts</title>
<path fill="none" stroke="#757575" d="M858.35,-471.96C827.24,-462.88 781.5,-449.18 742,-436 688.23,-418.06 626.73,-395.27 588.38,-380.78"/>
<polygon fill="#757575" stroke="#757575" points="589.26,-377.37 578.67,-377.1 586.78,-383.92 589.26,-377.37"/>
</g>
<!-- utils/errorHandler.ts -->
<g id="node45" class="node">
<title>utils/errorHandler.ts</title>
<path fill="none" stroke="#c6c5fe" d="M192.33,-377C192.33,-377 73.67,-377 73.67,-377 69.83,-377 66,-373.17 66,-369.33 66,-369.33 66,-361.67 66,-361.67 66,-357.83 69.83,-354 73.67,-354 73.67,-354 192.33,-354 192.33,-354 196.17,-354 200,-357.83 200,-361.67 200,-361.67 200,-369.33 200,-369.33 200,-373.17 196.17,-377 192.33,-377"/>
<text text-anchor="middle" x="133" y="-361.8" font-family="Arial" font-size="14.00" fill="#c6c5fe">utils/errorHandler.ts</text>
</g>
<!-- server/AidisMcpServer.ts&#45;&gt;utils/errorHandler.ts -->
<g id="edge92" class="edge">
<title>server/AidisMcpServer.ts&#45;&gt;utils/errorHandler.ts</title>
<path fill="none" stroke="#757575" d="M811.36,-479.65C668.77,-474.19 384.67,-460.58 288,-436 241.06,-424.07 190.56,-398.84 160.38,-382.29"/>
<polygon fill="#757575" stroke="#757575" points="161.77,-379.06 151.33,-377.25 158.36,-385.17 161.77,-379.06"/>
</g>
<!-- utils/resilience.ts -->
<g id="node46" class="node">
<title>utils/resilience.ts</title>
<path fill="none" stroke="#cfffac" d="M859.33,-436C859.33,-436 758.67,-436 758.67,-436 754.83,-436 751,-432.17 751,-428.33 751,-428.33 751,-420.67 751,-420.67 751,-416.83 754.83,-413 758.67,-413 758.67,-413 859.33,-413 859.33,-413 863.17,-413 867,-416.83 867,-420.67 867,-420.67 867,-428.33 867,-428.33 867,-432.17 863.17,-436 859.33,-436"/>
<text text-anchor="middle" x="809" y="-420.8" font-family="Arial" font-size="14.00" fill="#cfffac">utils/resilience.ts</text>
</g>
<!-- server/AidisMcpServer.ts&#45;&gt;utils/resilience.ts -->
<g id="edge95" class="edge">
<title>server/AidisMcpServer.ts&#45;&gt;utils/resilience.ts</title>
<path fill="none" stroke="#757575" d="M878.82,-471.78C866.09,-463.34 848.13,-451.44 833.62,-441.82"/>
<polygon fill="#757575" stroke="#757575" points="835.37,-438.78 825.1,-436.17 831.51,-444.62 835.37,-438.78"/>
</g>
<!-- middleware/requestLogger.ts&#45;&gt;utils/logger.ts -->
<g id="edge46" class="edge">
<title>middleware/requestLogger.ts&#45;&gt;utils/logger.ts</title>
<path fill="none" stroke="#757575" d="M657.78,-353.98C583.08,-344.51 487,-330.22 473,-318 423.56,-274.82 469.36,-228.78 429,-177 418.63,-163.69 403.29,-153.28 389.11,-145.71"/>
<polygon fill="#757575" stroke="#757575" points="390.52,-142.51 380.02,-141.15 387.38,-148.77 390.52,-142.51"/>
</g>
<!-- routes/context.routes.ts -->
<g id="node31" class="node">
<title>routes/context.routes.ts</title>
<path fill="none" stroke="#c6c5fe" d="M1906.83,-377C1906.83,-377 1765.17,-377 1765.17,-377 1761.33,-377 1757.5,-373.17 1757.5,-369.33 1757.5,-369.33 1757.5,-361.67 1757.5,-361.67 1757.5,-357.83 1761.33,-354 1765.17,-354 1765.17,-354 1906.83,-354 1906.83,-354 1910.67,-354 1914.5,-357.83 1914.5,-361.67 1914.5,-361.67 1914.5,-369.33 1914.5,-369.33 1914.5,-373.17 1910.67,-377 1906.83,-377"/>
<text text-anchor="middle" x="1836" y="-361.8" font-family="Arial" font-size="14.00" fill="#c6c5fe">routes/context.routes.ts</text>
</g>
<!-- routes/context.routes.ts&#45;&gt;api/middleware/sessionTracking.ts -->
<g id="edge47" class="edge">
<title>routes/context.routes.ts&#45;&gt;api/middleware/sessionTracking.ts</title>
<path fill="none" stroke="#757575" d="M1798.85,-353.91C1766.01,-344.55 1717.97,-330.86 1682.58,-320.77"/>
<polygon fill="#757575" stroke="#757575" points="1683.53,-317.41 1672.95,-318.03 1681.61,-324.14 1683.53,-317.41"/>
</g>
<!-- routes/context.routes.ts&#45;&gt;handlers/context.ts -->
<g id="edge48" class="edge">
<title>routes/context.routes.ts&#45;&gt;handlers/context.ts</title>
<path fill="none" stroke="#757575" d="M1914.67,-355.04C1917.82,-354.68 1920.94,-354.34 1924,-354 2082.51,-336.55 2128.24,-363.77 2281,-318 2302.14,-311.67 2304.08,-302.02 2325,-295 2343.98,-288.63 2452.3,-271.4 2527.98,-259.8"/>
<polygon fill="#757575" stroke="#757575" points="2528.61,-263.25 2537.97,-258.27 2527.55,-256.33 2528.61,-263.25"/>
</g>
<!-- utils/mcpFormatter.ts -->
<g id="node32" class="node">
<title>utils/mcpFormatter.ts</title>
<path fill="none" stroke="#cfffac" d="M2468.83,-318C2468.83,-318 2341.17,-318 2341.17,-318 2337.33,-318 2333.5,-314.17 2333.5,-310.33 2333.5,-310.33 2333.5,-302.67 2333.5,-302.67 2333.5,-298.83 2337.33,-295 2341.17,-295 2341.17,-295 2468.83,-295 2468.83,-295 2472.67,-295 2476.5,-298.83 2476.5,-302.67 2476.5,-302.67 2476.5,-310.33 2476.5,-310.33 2476.5,-314.17 2472.67,-318 2468.83,-318"/>
<text text-anchor="middle" x="2405" y="-302.8" font-family="Arial" font-size="14.00" fill="#cfffac">utils/mcpFormatter.ts</text>
</g>
<!-- routes/context.routes.ts&#45;&gt;utils/mcpFormatter.ts -->
<g id="edge49" class="edge">
<title>routes/context.routes.ts&#45;&gt;utils/mcpFormatter.ts</title>
<path fill="none" stroke="#757575" d="M1914.67,-355C1917.82,-354.66 1920.94,-354.32 1924,-354 2099.32,-335.56 2143.71,-336.68 2319,-318 2320.3,-317.86 2321.62,-317.72 2322.94,-317.58"/>
<polygon fill="#757575" stroke="#757575" points="2323.67,-321.02 2333.22,-316.43 2322.9,-314.06 2323.67,-321.02"/>
</g>
<!-- routes/decisions.routes.ts -->
<g id="node33" class="node">
<title>routes/decisions.routes.ts</title>
<path fill="none" stroke="#c6c5fe" d="M1731.33,-377C1731.33,-377 1576.67,-377 1576.67,-377 1572.83,-377 1569,-373.17 1569,-369.33 1569,-369.33 1569,-361.67 1569,-361.67 1569,-357.83 1572.83,-354 1576.67,-354 1576.67,-354 1731.33,-354 1731.33,-354 1735.17,-354 1739,-357.83 1739,-361.67 1739,-361.67 1739,-369.33 1739,-369.33 1739,-373.17 1735.17,-377 1731.33,-377"/>
<text text-anchor="middle" x="1654" y="-361.8" font-family="Arial" font-size="14.00" fill="#c6c5fe">routes/decisions.routes.ts</text>
</g>
<!-- routes/decisions.routes.ts&#45;&gt;api/middleware/sessionTracking.ts -->
<g id="edge50" class="edge">
<title>routes/decisions.routes.ts&#45;&gt;api/middleware/sessionTracking.ts</title>
<path fill="none" stroke="#757575" d="M1650.61,-353.78C1648.3,-346.45 1645.16,-336.52 1642.39,-327.74"/>
<polygon fill="#757575" stroke="#757575" points="1645.72,-326.66 1639.37,-318.17 1639.04,-328.76 1645.72,-326.66"/>
</g>
<!-- routes/decisions.routes.ts&#45;&gt;handlers/decisions.ts -->
<g id="edge51" class="edge">
<title>routes/decisions.routes.ts&#45;&gt;handlers/decisions.ts</title>
<path fill="none" stroke="#757575" d="M1739.19,-355C1742.5,-354.66 1745.78,-354.32 1749,-354 1925.72,-336.24 1972.75,-352.4 2147,-318 2214.68,-304.64 2290.89,-278.7 2334.99,-262.56"/>
<polygon fill="#757575" stroke="#757575" points="2336.25,-265.83 2344.42,-259.08 2333.83,-259.26 2336.25,-265.83"/>
</g>
<!-- routes/decisions.routes.ts&#45;&gt;utils/mcpFormatter.ts -->
<g id="edge52" class="edge">
<title>routes/decisions.routes.ts&#45;&gt;utils/mcpFormatter.ts</title>
<path fill="none" stroke="#757575" d="M1739.18,-354.91C1742.49,-354.59 1745.78,-354.29 1749,-354 1985.05,-332.98 2044.7,-336 2281,-318 2294.61,-316.96 2309.05,-315.8 2323.09,-314.63"/>
<polygon fill="#757575" stroke="#757575" points="2323.54,-318.11 2333.22,-313.79 2322.96,-311.13 2323.54,-318.11"/>
</g>
<!-- routes/index.ts&#45;&gt;routes/context.routes.ts -->
<g id="edge53" class="edge">
<title>routes/index.ts&#45;&gt;routes/context.routes.ts</title>
<path fill="none" stroke="#757575" d="M2145.75,-415.27C2084.63,-405.65 1982.9,-389.63 1912.8,-378.59"/>
<polygon fill="#757575" stroke="#757575" points="1913.12,-375.1 1902.7,-377 1912.03,-382.01 1913.12,-375.1"/>
</g>
<!-- routes/index.ts&#45;&gt;utils/mcpFormatter.ts -->
<g id="edge62" class="edge">
<title>routes/index.ts&#45;&gt;utils/mcpFormatter.ts</title>
<path fill="none" stroke="#757575" d="M2219.31,-413C2237.68,-403.82 2264.83,-389.98 2288,-377 2305.22,-367.35 2309.05,-364.12 2326,-354 2343.2,-343.73 2362.59,-332.32 2377.85,-323.37"/>
<polygon fill="#757575" stroke="#757575" points="2379.9,-326.22 2386.76,-318.15 2376.37,-320.18 2379.9,-326.22"/>
</g>
<!-- routes/index.ts&#45;&gt;routes/decisions.routes.ts -->
<g id="edge54" class="edge">
<title>routes/index.ts&#45;&gt;routes/decisions.routes.ts</title>
<path fill="none" stroke="#757575" d="M2145.79,-418.21C2063.95,-409.89 1900.14,-393.14 1749.55,-377.05"/>
<polygon fill="#757575" stroke="#757575" points="1749.51,-373.53 1739.19,-375.94 1748.76,-380.49 1749.51,-373.53"/>
</g>
<!-- routes/naming.routes.ts -->
<g id="node35" class="node">
<title>routes/naming.routes.ts</title>
<path fill="none" stroke="#c6c5fe" d="M2485.33,-377C2485.33,-377 2342.67,-377 2342.67,-377 2338.83,-377 2335,-373.17 2335,-369.33 2335,-369.33 2335,-361.67 2335,-361.67 2335,-357.83 2338.83,-354 2342.67,-354 2342.67,-354 2485.33,-354 2485.33,-354 2489.17,-354 2493,-357.83 2493,-361.67 2493,-361.67 2493,-369.33 2493,-369.33 2493,-373.17 2489.17,-377 2485.33,-377"/>
<text text-anchor="middle" x="2414" y="-361.8" font-family="Arial" font-size="14.00" fill="#c6c5fe">routes/naming.routes.ts</text>
</g>
<!-- routes/index.ts&#45;&gt;routes/naming.routes.ts -->
<g id="edge55" class="edge">
<title>routes/index.ts&#45;&gt;routes/naming.routes.ts</title>
<path fill="none" stroke="#757575" d="M2237.87,-412.98C2273.45,-403.59 2325.72,-389.8 2364.07,-379.68"/>
<polygon fill="#757575" stroke="#757575" points="2365.22,-382.99 2374,-377.06 2363.44,-376.22 2365.22,-382.99"/>
</g>
<!-- routes/patterns.routes.ts -->
<g id="node36" class="node">
<title>routes/patterns.routes.ts</title>
<path fill="none" stroke="#c6c5fe" d="M2271.33,-377C2271.33,-377 2124.67,-377 2124.67,-377 2120.83,-377 2117,-373.17 2117,-369.33 2117,-369.33 2117,-361.67 2117,-361.67 2117,-357.83 2120.83,-354 2124.67,-354 2124.67,-354 2271.33,-354 2271.33,-354 2275.17,-354 2279,-357.83 2279,-361.67 2279,-361.67 2279,-369.33 2279,-369.33 2279,-373.17 2275.17,-377 2271.33,-377"/>
<text text-anchor="middle" x="2198" y="-361.8" font-family="Arial" font-size="14.00" fill="#c6c5fe">routes/patterns.routes.ts</text>
</g>
<!-- routes/index.ts&#45;&gt;routes/patterns.routes.ts -->
<g id="edge56" class="edge">
<title>routes/index.ts&#45;&gt;routes/patterns.routes.ts</title>
<path fill="none" stroke="#757575" d="M2198,-412.78C2198,-405.61 2198,-395.95 2198,-387.31"/>
<polygon fill="#757575" stroke="#757575" points="2201.5,-387.17 2198,-377.17 2194.5,-387.17 2201.5,-387.17"/>
</g>
<!-- routes/project.routes.ts -->
<g id="node37" class="node">
<title>routes/project.routes.ts</title>
<path fill="none" stroke="#c6c5fe" d="M2833.33,-377C2833.33,-377 2694.67,-377 2694.67,-377 2690.83,-377 2687,-373.17 2687,-369.33 2687,-369.33 2687,-361.67 2687,-361.67 2687,-357.83 2690.83,-354 2694.67,-354 2694.67,-354 2833.33,-354 2833.33,-354 2837.17,-354 2841,-357.83 2841,-361.67 2841,-361.67 2841,-369.33 2841,-369.33 2841,-373.17 2837.17,-377 2833.33,-377"/>
<text text-anchor="middle" x="2764" y="-361.8" font-family="Arial" font-size="14.00" fill="#c6c5fe">routes/project.routes.ts</text>
</g>
<!-- routes/index.ts&#45;&gt;routes/project.routes.ts -->
<g id="edge57" class="edge">
<title>routes/index.ts&#45;&gt;routes/project.routes.ts</title>
<path fill="none" stroke="#757575" d="M2250.25,-418.87C2336.67,-411.11 2515.06,-394.7 2676.54,-377.14"/>
<polygon fill="#757575" stroke="#757575" points="2677.09,-380.6 2686.66,-376.04 2676.33,-373.64 2677.09,-380.6"/>
</g>
<!-- routes/search.routes.ts -->
<g id="node38" class="node">
<title>routes/search.routes.ts</title>
<path fill="none" stroke="#c6c5fe" d="M3005.33,-377C3005.33,-377 2866.67,-377 2866.67,-377 2862.83,-377 2859,-373.17 2859,-369.33 2859,-369.33 2859,-361.67 2859,-361.67 2859,-357.83 2862.83,-354 2866.67,-354 2866.67,-354 3005.33,-354 3005.33,-354 3009.17,-354 3013,-357.83 3013,-361.67 3013,-361.67 3013,-369.33 3013,-369.33 3013,-373.17 3009.17,-377 3005.33,-377"/>
<text text-anchor="middle" x="2936" y="-361.8" font-family="Arial" font-size="14.00" fill="#c6c5fe">routes/search.routes.ts</text>
</g>
<!-- routes/index.ts&#45;&gt;routes/search.routes.ts -->
<g id="edge58" class="edge">
<title>routes/index.ts&#45;&gt;routes/search.routes.ts</title>
<path fill="none" stroke="#757575" d="M2250.05,-420.68C2359.03,-414.58 2619.42,-399 2848.47,-377.11"/>
<polygon fill="#757575" stroke="#757575" points="2849.05,-380.57 2858.66,-376.13 2848.38,-373.6 2849.05,-380.57"/>
</g>
<!-- routes/sessions.routes.ts -->
<g id="node39" class="node">
<title>routes/sessions.routes.ts</title>
<path fill="none" stroke="#c6c5fe" d="M2091.33,-377C2091.33,-377 1940.67,-377 1940.67,-377 1936.83,-377 1933,-373.17 1933,-369.33 1933,-369.33 1933,-361.67 1933,-361.67 1933,-357.83 1936.83,-354 1940.67,-354 1940.67,-354 2091.33,-354 2091.33,-354 2095.17,-354 2099,-357.83 2099,-361.67 2099,-361.67 2099,-369.33 2099,-369.33 2099,-373.17 2095.17,-377 2091.33,-377"/>
<text text-anchor="middle" x="2016" y="-361.8" font-family="Arial" font-size="14.00" fill="#c6c5fe">routes/sessions.routes.ts</text>
</g>
<!-- routes/index.ts&#45;&gt;routes/sessions.routes.ts -->
<g id="edge59" class="edge">
<title>routes/index.ts&#45;&gt;routes/sessions.routes.ts</title>
<path fill="none" stroke="#757575" d="M2164.19,-412.91C2134.57,-403.63 2091.34,-390.1 2059.21,-380.03"/>
<polygon fill="#757575" stroke="#757575" points="2060.21,-376.68 2049.63,-377.03 2058.12,-383.36 2060.21,-376.68"/>
</g>
<!-- routes/system.routes.ts -->
<g id="node40" class="node">
<title>routes/system.routes.ts</title>
<path fill="none" stroke="#c6c5fe" d="M2660.83,-377C2660.83,-377 2519.17,-377 2519.17,-377 2515.33,-377 2511.5,-373.17 2511.5,-369.33 2511.5,-369.33 2511.5,-361.67 2511.5,-361.67 2511.5,-357.83 2515.33,-354 2519.17,-354 2519.17,-354 2660.83,-354 2660.83,-354 2664.67,-354 2668.5,-357.83 2668.5,-361.67 2668.5,-361.67 2668.5,-369.33 2668.5,-369.33 2668.5,-373.17 2664.67,-377 2660.83,-377"/>
<text text-anchor="middle" x="2590" y="-361.8" font-family="Arial" font-size="14.00" fill="#c6c5fe">routes/system.routes.ts</text>
</g>
<!-- routes/index.ts&#45;&gt;routes/system.routes.ts -->
<g id="edge60" class="edge">
<title>routes/index.ts&#45;&gt;routes/system.routes.ts</title>
<path fill="none" stroke="#757575" d="M2250.05,-415.93C2315.83,-406.37 2429.8,-389.79 2507.49,-378.5"/>
<polygon fill="#757575" stroke="#757575" points="2508.33,-381.91 2517.73,-377.01 2507.33,-374.98 2508.33,-381.91"/>
</g>
<!-- routes/tasks.routes.ts -->
<g id="node41" class="node">
<title>routes/tasks.routes.ts</title>
<path fill="none" stroke="#c6c5fe" d="M1542.83,-377C1542.83,-377 1413.17,-377 1413.17,-377 1409.33,-377 1405.5,-373.17 1405.5,-369.33 1405.5,-369.33 1405.5,-361.67 1405.5,-361.67 1405.5,-357.83 1409.33,-354 1413.17,-354 1413.17,-354 1542.83,-354 1542.83,-354 1546.67,-354 1550.5,-357.83 1550.5,-361.67 1550.5,-361.67 1550.5,-369.33 1550.5,-369.33 1550.5,-373.17 1546.67,-377 1542.83,-377"/>
<text text-anchor="middle" x="1478" y="-361.8" font-family="Arial" font-size="14.00" fill="#c6c5fe">routes/tasks.routes.ts</text>
</g>
<!-- routes/index.ts&#45;&gt;routes/tasks.routes.ts -->
<g id="edge61" class="edge">
<title>routes/index.ts&#45;&gt;routes/tasks.routes.ts</title>
<path fill="none" stroke="#757575" d="M2145.82,-420.66C2038.43,-414.62 1784.71,-399.26 1560.82,-377.03"/>
<polygon fill="#757575" stroke="#757575" points="1561.15,-373.55 1550.85,-376.04 1560.46,-380.52 1561.15,-373.55"/>
</g>
<!-- routes/naming.routes.ts&#45;&gt;api/middleware/sessionTracking.ts -->
<g id="edge63" class="edge">
<title>routes/naming.routes.ts&#45;&gt;api/middleware/sessionTracking.ts</title>
<path fill="none" stroke="#757575" d="M2334.7,-357.75C2319.22,-356.47 2303.1,-355.17 2288,-354 2103.43,-339.73 1889.35,-324.76 1758.3,-315.78"/>
<polygon fill="#757575" stroke="#757575" points="1758.45,-312.29 1748.23,-315.1 1757.97,-319.27 1758.45,-312.29"/>
</g>
<!-- routes/naming.routes.ts&#45;&gt;handlers/naming.ts -->
<g id="edge64" class="edge">
<title>routes/naming.routes.ts&#45;&gt;handlers/naming.ts</title>
<path fill="none" stroke="#757575" d="M2430.71,-353.74C2460.24,-334.75 2519.03,-297.09 2524,-295 2588.42,-267.97 2610.01,-278.81 2677,-259 2732.9,-242.47 2796.23,-218.83 2834.89,-203.82"/>
<polygon fill="#757575" stroke="#757575" points="2836.6,-206.91 2844.64,-200.02 2834.05,-200.39 2836.6,-206.91"/>
</g>
<!-- routes/naming.routes.ts&#45;&gt;utils/mcpFormatter.ts -->
<g id="edge65" class="edge">
<title>routes/naming.routes.ts&#45;&gt;utils/mcpFormatter.ts</title>
<path fill="none" stroke="#757575" d="M2412.31,-353.78C2411.18,-346.61 2409.65,-336.95 2408.29,-328.31"/>
<polygon fill="#757575" stroke="#757575" points="2411.7,-327.5 2406.69,-318.17 2404.79,-328.6 2411.7,-327.5"/>
</g>
<!-- routes/patterns.routes.ts&#45;&gt;handlers/patterns/patternAnalyze.ts -->
<g id="edge66" class="edge">
<title>routes/patterns.routes.ts&#45;&gt;handlers/patterns/patternAnalyze.ts</title>
<path fill="none" stroke="#757575" d="M2165.49,-353.91C2137.13,-344.67 2095.8,-331.21 2064.95,-321.16"/>
<polygon fill="#757575" stroke="#757575" points="2065.92,-317.8 2055.33,-318.03 2063.76,-324.46 2065.92,-317.8"/>
</g>
<!-- routes/patterns.routes.ts&#45;&gt;handlers/patterns/patternInsights.ts -->
<g id="edge67" class="edge">
<title>routes/patterns.routes.ts&#45;&gt;handlers/patterns/patternInsights.ts</title>
<path fill="none" stroke="#757575" d="M2195.32,-353.79C2190.51,-334.55 2180.32,-293.79 2174.13,-269.01"/>
<polygon fill="#757575" stroke="#757575" points="2177.49,-268.03 2171.67,-259.18 2170.7,-269.73 2177.49,-268.03"/>
</g>
<!-- routes/patterns.routes.ts&#45;&gt;utils/mcpFormatter.ts -->
<g id="edge68" class="edge">
<title>routes/patterns.routes.ts&#45;&gt;utils/mcpFormatter.ts</title>
<path fill="none" stroke="#757575" d="M2236.45,-353.91C2270.44,-344.55 2320.16,-330.86 2356.79,-320.77"/>
<polygon fill="#757575" stroke="#757575" points="2358.04,-324.06 2366.76,-318.03 2356.19,-317.31 2358.04,-324.06"/>
</g>
<!-- routes/project.routes.ts&#45;&gt;handlers/project.ts -->
<g id="edge69" class="edge">
<title>routes/project.routes.ts&#45;&gt;handlers/project.ts</title>
<path fill="none" stroke="#757575" d="M2762.79,-353.95C2758.49,-321.72 2740.91,-223.93 2682,-177 2655.87,-156.19 2572.45,-143.61 2509.95,-136.87"/>
<polygon fill="#757575" stroke="#757575" points="2510.02,-133.36 2499.71,-135.8 2509.3,-140.32 2510.02,-133.36"/>
</g>
<!-- routes/project.routes.ts&#45;&gt;utils/mcpFormatter.ts -->
<g id="edge70" class="edge">
<title>routes/project.routes.ts&#45;&gt;utils/mcpFormatter.ts</title>
<path fill="none" stroke="#757575" d="M2697.74,-353.98C2636.48,-344.25 2545.5,-329.81 2481.25,-319.61"/>
<polygon fill="#757575" stroke="#757575" points="2481.61,-316.12 2471.18,-318.01 2480.51,-323.03 2481.61,-316.12"/>
</g>
<!-- routes/search.routes.ts&#45;&gt;handlers/project.ts -->
<g id="edge71" class="edge">
<title>routes/search.routes.ts&#45;&gt;handlers/project.ts</title>
<path fill="none" stroke="#757575" d="M2900.83,-353.89C2878.63,-346.14 2850.07,-334.16 2828,-318 2761.14,-269.04 2778.16,-217.75 2706,-177 2673.25,-158.51 2577.94,-145.12 2509.85,-137.58"/>
<polygon fill="#757575" stroke="#757575" points="2509.91,-134.07 2499.59,-136.47 2509.16,-141.03 2509.91,-134.07"/>
</g>
<!-- routes/search.routes.ts&#45;&gt;handlers/smartSearch.ts -->
<g id="edge72" class="edge">
<title>routes/search.routes.ts&#45;&gt;handlers/smartSearch.ts</title>
<path fill="none" stroke="#757575" d="M2932.8,-353.78C2930.64,-346.53 2927.72,-336.74 2925.12,-328.02"/>
<polygon fill="#757575" stroke="#757575" points="2928.4,-326.76 2922.18,-318.17 2921.69,-328.76 2928.4,-326.76"/>
</g>
<!-- routes/search.routes.ts&#45;&gt;utils/mcpFormatter.ts -->
<g id="edge73" class="edge">
<title>routes/search.routes.ts&#45;&gt;utils/mcpFormatter.ts</title>
<path fill="none" stroke="#757575" d="M2858.65,-354.99C2855.73,-354.65 2852.84,-354.32 2850,-354 2723.28,-339.65 2576.08,-324.58 2486.78,-315.62"/>
<polygon fill="#757575" stroke="#757575" points="2487.02,-312.12 2476.72,-314.61 2486.32,-319.09 2487.02,-312.12"/>
</g>
<!-- routes/sessions.routes.ts&#45;&gt;handlers/sessionAnalytics.ts -->
<g id="edge74" class="edge">
<title>routes/sessions.routes.ts&#45;&gt;handlers/sessionAnalytics.ts</title>
<path fill="none" stroke="#757575" d="M1967.39,-353.91C1944.65,-346.9 1918.55,-335.64 1900,-318 1886.14,-304.81 1877.74,-284.46 1873.05,-269.19"/>
<polygon fill="#757575" stroke="#757575" points="1876.31,-267.84 1870.27,-259.13 1869.56,-269.7 1876.31,-267.84"/>
</g>
<!-- routes/sessions.routes.ts&#45;&gt;utils/mcpFormatter.ts -->
<g id="edge75" class="edge">
<title>routes/sessions.routes.ts&#45;&gt;utils/mcpFormatter.ts</title>
<path fill="none" stroke="#757575" d="M2087.8,-353.98C2154.44,-344.21 2253.57,-329.69 2323.23,-319.48"/>
<polygon fill="#757575" stroke="#757575" points="2323.9,-322.92 2333.29,-318.01 2322.89,-315.99 2323.9,-322.92"/>
</g>
<!-- routes/system.routes.ts&#45;&gt;handlers/navigation.ts -->
<g id="edge76" class="edge">
<title>routes/system.routes.ts&#45;&gt;handlers/navigation.ts</title>
<path fill="none" stroke="#757575" d="M2593.2,-353.78C2595.36,-346.53 2598.28,-336.74 2600.88,-328.02"/>
<polygon fill="#757575" stroke="#757575" points="2604.31,-328.76 2603.82,-318.17 2597.6,-326.76 2604.31,-328.76"/>
</g>
<!-- routes/system.routes.ts&#45;&gt;utils/mcpFormatter.ts -->
<g id="edge77" class="edge">
<title>routes/system.routes.ts&#45;&gt;utils/mcpFormatter.ts</title>
<path fill="none" stroke="#757575" d="M2555.64,-353.91C2525.52,-344.63 2481.58,-331.1 2448.93,-321.03"/>
<polygon fill="#757575" stroke="#757575" points="2449.77,-317.63 2439.18,-318.03 2447.71,-324.32 2449.77,-317.63"/>
</g>
<!-- routes/tasks.routes.ts&#45;&gt;api/middleware/sessionTracking.ts -->
<g id="edge78" class="edge">
<title>routes/tasks.routes.ts&#45;&gt;api/middleware/sessionTracking.ts</title>
<path fill="none" stroke="#757575" d="M1507.35,-353.91C1532.73,-344.75 1569.62,-331.45 1597.4,-321.43"/>
<polygon fill="#757575" stroke="#757575" points="1598.59,-324.72 1606.81,-318.03 1596.21,-318.13 1598.59,-324.72"/>
</g>
<!-- routes/tasks.routes.ts&#45;&gt;handlers/project.ts -->
<g id="edge79" class="edge">
<title>routes/tasks.routes.ts&#45;&gt;handlers/project.ts</title>
<path fill="none" stroke="#757575" d="M1550.85,-354.92C1553.94,-354.59 1557,-354.28 1560,-354 1820.22,-329.39 1887.55,-349.68 2147,-318 2151.5,-317.45 2465.1,-262.48 2468,-259 2494.44,-227.26 2468,-176.77 2449.88,-149.49"/>
<polygon fill="#757575" stroke="#757575" points="2452.71,-147.42 2444.15,-141.18 2446.95,-151.4 2452.71,-147.42"/>
</g>
<!-- routes/tasks.routes.ts&#45;&gt;handlers/tasks.ts -->
<g id="edge80" class="edge">
<title>routes/tasks.routes.ts&#45;&gt;handlers/tasks.ts</title>
<path fill="none" stroke="#757575" d="M1480.73,-353.78C1485.21,-338.38 1495.64,-310.19 1515,-295 1547.18,-269.76 1591.46,-258.07 1628.41,-252.73"/>
<polygon fill="#757575" stroke="#757575" points="1629.16,-256.16 1638.61,-251.38 1628.24,-249.22 1629.16,-256.16"/>
</g>
<!-- routes/tasks.routes.ts&#45;&gt;utils/mcpFormatter.ts -->
<g id="edge81" class="edge">
<title>routes/tasks.routes.ts&#45;&gt;utils/mcpFormatter.ts</title>
<path fill="none" stroke="#757575" d="M1550.85,-354.87C1553.94,-354.56 1557,-354.27 1560,-354 1879.58,-325.6 1960.88,-339.54 2281,-318 2294.62,-317.08 2309.06,-315.98 2323.1,-314.84"/>
<polygon fill="#757575" stroke="#757575" points="2323.55,-318.31 2333.23,-314 2322.98,-311.34 2323.55,-318.31"/>
</g>
<!-- server/healthServer.ts&#45;&gt;utils/logger.ts -->
<g id="edge100" class="edge">
<title>server/healthServer.ts&#45;&gt;utils/logger.ts</title>
<path fill="none" stroke="#757575" d="M518.11,-413C491.88,-405.67 459.44,-394.09 434,-377 346.47,-318.19 313.58,-298.53 276,-200 272.36,-190.45 270.98,-185.9 276,-177 283.93,-162.94 298.01,-152.66 311.98,-145.39"/>
<polygon fill="#757575" stroke="#757575" points="313.57,-148.51 321.08,-141.04 310.55,-142.19 313.57,-148.51"/>
</g>
<!-- server/healthServer.ts&#45;&gt;config/toolDefinitions.ts -->
<g id="edge96" class="edge">
<title>server/healthServer.ts&#45;&gt;config/toolDefinitions.ts</title>
<path fill="none" stroke="#757575" d="M515.35,-412.98C470.28,-403.43 403.73,-389.33 355.76,-379.16"/>
<polygon fill="#757575" stroke="#757575" points="356.33,-375.71 345.82,-377.06 354.88,-382.55 356.33,-375.71"/>
</g>
<!-- server/healthServer.ts&#45;&gt;middleware/requestLogger.ts -->
<g id="edge97" class="edge">
<title>server/healthServer.ts&#45;&gt;middleware/requestLogger.ts</title>
<path fill="none" stroke="#757575" d="M598.99,-412.91C628.78,-403.63 672.24,-390.1 704.55,-380.03"/>
<polygon fill="#757575" stroke="#757575" points="705.68,-383.35 714.19,-377.03 703.6,-376.66 705.68,-383.35"/>
</g>
<!-- server/healthServer.ts&#45;&gt;services/databasePool.ts -->
<g id="edge98" class="edge">
<title>server/healthServer.ts&#45;&gt;services/databasePool.ts</title>
<path fill="none" stroke="#757575" d="M562.37,-412.78C560.59,-405.53 558.18,-395.74 556.04,-387.02"/>
<polygon fill="#757575" stroke="#757575" points="559.41,-386.05 553.62,-377.17 552.61,-387.72 559.41,-386.05"/>
</g>
<!-- server/healthServer.ts&#45;&gt;utils/errorHandler.ts -->
<g id="edge99" class="edge">
<title>server/healthServer.ts&#45;&gt;utils/errorHandler.ts</title>
<path fill="none" stroke="#757575" d="M490.66,-413.95C420.87,-404.95 313.28,-390.98 210.1,-377.14"/>
<polygon fill="#757575" stroke="#757575" points="210.51,-373.66 200.13,-375.8 209.58,-380.6 210.51,-373.66"/>
</g>
<!-- utils/portManager.ts -->
<g id="node47" class="node">
<title>utils/portManager.ts</title>
<path fill="none" stroke="#c6c5fe" d="M412.83,-200C412.83,-200 293.17,-200 293.17,-200 289.33,-200 285.5,-196.17 285.5,-192.33 285.5,-192.33 285.5,-184.67 285.5,-184.67 285.5,-180.83 289.33,-177 293.17,-177 293.17,-177 412.83,-177 412.83,-177 416.67,-177 420.5,-180.83 420.5,-184.67 420.5,-184.67 420.5,-192.33 420.5,-192.33 420.5,-196.17 416.67,-200 412.83,-200"/>
<text text-anchor="middle" x="353" y="-184.8" font-family="Arial" font-size="14.00" fill="#c6c5fe">utils/portManager.ts</text>
</g>
<!-- server/healthServer.ts&#45;&gt;utils/portManager.ts -->
<g id="edge101" class="edge">
<title>server/healthServer.ts&#45;&gt;utils/portManager.ts</title>
<path fill="none" stroke="#757575" d="M524.89,-412.95C503.15,-405.65 476.93,-394.12 458,-377 405.11,-329.17 372.66,-248.24 359.62,-210.3"/>
<polygon fill="#757575" stroke="#757575" points="362.8,-208.78 356.32,-200.4 356.16,-210.99 362.8,-208.78"/>
</g>
<!-- services/backgroundServices.ts&#45;&gt;utils/logger.ts -->
<g id="edge106" class="edge">
<title>services/backgroundServices.ts&#45;&gt;utils/logger.ts</title>
<path fill="none" stroke="#757575" d="M861.86,-354.58C729,-341.71 514.53,-320.58 511,-318 455.92,-277.65 497.34,-226.21 450,-177 436.13,-162.58 416.87,-152.08 399.17,-144.75"/>
<polygon fill="#757575" stroke="#757575" points="400.13,-141.37 389.54,-141 397.59,-147.89 400.13,-141.37"/>
</g>
<!-- services/backgroundServices.ts&#45;&gt;services/patternDetector.ts -->
<g id="edge103" class="edge">
<title>services/backgroundServices.ts&#45;&gt;services/patternDetector.ts</title>
<path fill="none" stroke="#757575" d="M1012.27,-353.98C1053.85,-344.68 1115.99,-330.66 1170,-318 1251.93,-298.79 1346.79,-275.64 1404.31,-261.5"/>
<polygon fill="#757575" stroke="#757575" points="1405.38,-264.84 1414.26,-259.06 1403.71,-258.05 1405.38,-264.84"/>
</g>
<!-- services/gitTracker.ts -->
<g id="node48" class="node">
<title>services/gitTracker.ts</title>
<path fill="none" stroke="#c6c5fe" d="M959.83,-318C959.83,-318 832.17,-318 832.17,-318 828.33,-318 824.5,-314.17 824.5,-310.33 824.5,-310.33 824.5,-302.67 824.5,-302.67 824.5,-298.83 828.33,-295 832.17,-295 832.17,-295 959.83,-295 959.83,-295 963.67,-295 967.5,-298.83 967.5,-302.67 967.5,-302.67 967.5,-310.33 967.5,-310.33 967.5,-314.17 963.67,-318 959.83,-318"/>
<text text-anchor="middle" x="896" y="-302.8" font-family="Arial" font-size="14.00" fill="#c6c5fe">services/gitTracker.ts</text>
</g>
<!-- services/backgroundServices.ts&#45;&gt;services/gitTracker.ts -->
<g id="edge102" class="edge">
<title>services/backgroundServices.ts&#45;&gt;services/gitTracker.ts</title>
<path fill="none" stroke="#757575" d="M952.02,-353.78C942.09,-345.58 928.21,-334.11 916.75,-324.64"/>
<polygon fill="#757575" stroke="#757575" points="918.86,-321.84 908.92,-318.17 914.4,-327.24 918.86,-321.84"/>
</g>
<!-- services/queueManager.ts -->
<g id="node49" class="node">
<title>services/queueManager.ts</title>
<path fill="none" stroke="#c6c5fe" d="M1152.83,-318C1152.83,-318 993.17,-318 993.17,-318 989.33,-318 985.5,-314.17 985.5,-310.33 985.5,-310.33 985.5,-302.67 985.5,-302.67 985.5,-298.83 989.33,-295 993.17,-295 993.17,-295 1152.83,-295 1152.83,-295 1156.67,-295 1160.5,-298.83 1160.5,-302.67 1160.5,-302.67 1160.5,-310.33 1160.5,-310.33 1160.5,-314.17 1156.67,-318 1152.83,-318"/>
<text text-anchor="middle" x="1073" y="-302.8" font-family="Arial" font-size="14.00" fill="#c6c5fe">services/queueManager.ts</text>
</g>
<!-- services/backgroundServices.ts&#45;&gt;services/queueManager.ts -->
<g id="edge104" class="edge">
<title>services/backgroundServices.ts&#45;&gt;services/queueManager.ts</title>
<path fill="none" stroke="#757575" d="M985.06,-353.91C1001.66,-345.15 1025.44,-332.6 1044.09,-322.76"/>
<polygon fill="#757575" stroke="#757575" points="1045.84,-325.79 1053.05,-318.03 1042.57,-319.6 1045.84,-325.79"/>
</g>
<!-- services/sessionTimeout.ts -->
<g id="node50" class="node">
<title>services/sessionTimeout.ts</title>
<path fill="none" stroke="#c6c5fe" d="M967.83,-82C967.83,-82 804.17,-82 804.17,-82 800.33,-82 796.5,-78.17 796.5,-74.33 796.5,-74.33 796.5,-66.67 796.5,-66.67 796.5,-62.83 800.33,-59 804.17,-59 804.17,-59 967.83,-59 967.83,-59 971.67,-59 975.5,-62.83 975.5,-66.67 975.5,-66.67 975.5,-74.33 975.5,-74.33 975.5,-78.17 971.67,-82 967.83,-82"/>
<text text-anchor="middle" x="886" y="-66.8" font-family="Arial" font-size="14.00" fill="#c6c5fe">services/sessionTimeout.ts</text>
</g>
<!-- services/backgroundServices.ts&#45;&gt;services/sessionTimeout.ts -->
<g id="edge105" class="edge">
<title>services/backgroundServices.ts&#45;&gt;services/sessionTimeout.ts</title>
<path fill="none" stroke="#757575" d="M899.13,-353.97C776.38,-333.43 525,-286.72 525,-248.5 525,-248.5 525,-248.5 525,-187.5 525,-132.1 681.06,-99.4 787.97,-83.5"/>
<polygon fill="#757575" stroke="#757575" points="788.76,-86.93 798.15,-82.02 787.75,-80 788.76,-86.93"/>
</g>
<!-- utils/errorHandler.ts&#45;&gt;utils/logger.ts -->
<g id="edge124" class="edge">
<title>utils/errorHandler.ts&#45;&gt;utils/logger.ts</title>
<path fill="none" stroke="#757575" d="M136.61,-353.58C147.57,-321.95 183.42,-229.26 243,-177 259.81,-162.25 281.98,-151.68 302.01,-144.38"/>
<polygon fill="#757575" stroke="#757575" points="303.33,-147.63 311.64,-141.05 301.04,-141.01 303.33,-147.63"/>
</g>
<!-- utils/portManager.ts&#45;&gt;utils/logger.ts -->
<g id="edge125" class="edge">
<title>utils/portManager.ts&#45;&gt;utils/logger.ts</title>
<path fill="none" stroke="#757575" d="M353,-176.78C353,-169.61 353,-159.95 353,-151.31"/>
<polygon fill="#757575" stroke="#757575" points="356.5,-151.17 353,-141.17 349.5,-151.17 356.5,-151.17"/>
</g>
<!-- services/gitTracker.ts&#45;&gt;../../aidis&#45;command/backend/dist/services/sessionDetail.d.ts -->
<g id="edge107" class="edge">
<title>services/gitTracker.ts&#45;&gt;../../aidis&#45;command/backend/dist/services/sessionDetail.d.ts</title>
<path fill="none" stroke="#757575" d="M881.6,-294.79C854.32,-274.51 794.92,-230.34 762.4,-206.15"/>
<polygon fill="#757575" stroke="#757575" points="764.47,-203.34 754.36,-200.18 760.3,-208.95 764.47,-203.34"/>
</g>
<!-- services/gitTracker.ts&#45;&gt;services/sessionTracker.ts -->
<g id="edge111" class="edge">
<title>services/gitTracker.ts&#45;&gt;services/sessionTracker.ts</title>
<path fill="none" stroke="#757575" d="M954.66,-295C1001.52,-286.3 1068.75,-273.11 1127,-259 1163.37,-250.19 1171.29,-243.28 1208,-236 1311.12,-215.55 1431.01,-203.14 1513.04,-196.34"/>
<polygon fill="#757575" stroke="#757575" points="1513.42,-199.82 1523.11,-195.52 1512.85,-192.85 1513.42,-199.82"/>
</g>
<!-- services/gitTracker.ts&#45;&gt;config/database.ts -->
<g id="edge108" class="edge">
<title>services/gitTracker.ts&#45;&gt;config/database.ts</title>
<path fill="none" stroke="#757575" d="M967.75,-295.39C1006.31,-288.31 1054.01,-276.84 1094,-259 1110.33,-251.72 1110.39,-242.61 1127,-236 1227.63,-195.98 1282.54,-266.52 1368,-200 1421.61,-158.28 1371.77,-98.56 1427,-59 1475.1,-24.55 1865.02,-15.53 2029.86,-13.24"/>
<polygon fill="#757575" stroke="#757575" points="2029.96,-16.74 2039.91,-13.11 2029.86,-9.74 2029.96,-16.74"/>
</g>
<!-- services/gitTracker.ts&#45;&gt;middleware/eventLogger.ts -->
<g id="edge110" class="edge">
<title>services/gitTracker.ts&#45;&gt;middleware/eventLogger.ts</title>
<path fill="none" stroke="#757575" d="M967.92,-295.73C970.65,-295.47 973.35,-295.22 976,-295 1196.27,-276.6 1756.33,-315.58 1970,-259 2011.05,-248.13 2053.74,-222.93 2079.34,-206.05"/>
<polygon fill="#757575" stroke="#757575" points="2081.62,-208.74 2087.97,-200.25 2077.71,-202.93 2081.62,-208.74"/>
</g>
<!-- services/gitTracker.ts&#45;&gt;handlers/git.ts -->
<g id="edge109" class="edge">
<title>services/gitTracker.ts&#45;&gt;handlers/git.ts</title>
<path fill="none" stroke="#757575" d="M921.63,-294.91C943.42,-285.91 974.9,-272.91 999.01,-262.95"/>
<polygon fill="#757575" stroke="#757575" points="1000.6,-266.08 1008.5,-259.03 997.93,-259.61 1000.6,-266.08"/>
</g>
<!-- services/queueManager.ts&#45;&gt;utils/featureFlags.ts -->
<g id="edge117" class="edge">
<title>services/queueManager.ts&#45;&gt;utils/featureFlags.ts</title>
<path fill="none" stroke="#757575" d="M1112.19,-294.91C1146.98,-285.51 1197.95,-271.75 1235.34,-261.65"/>
<polygon fill="#757575" stroke="#757575" points="1236.28,-265.02 1245.02,-259.03 1234.45,-258.26 1236.28,-265.02"/>
</g>
<!-- services/sessionTimeout.ts&#45;&gt;config/database.ts -->
<g id="edge118" class="edge">
<title>services/sessionTimeout.ts&#45;&gt;config/database.ts</title>
<path fill="none" stroke="#757575" d="M975.98,-65.29C1207.14,-54.46 1818.43,-25.83 2029.83,-15.93"/>
<polygon fill="#757575" stroke="#757575" points="2030.07,-19.42 2039.9,-15.46 2029.74,-12.43 2030.07,-19.42"/>
</g>
<!-- utils/sessionFormatters.ts&#45;&gt;services/sessionTracker.ts -->
<g id="edge126" class="edge">
<title>utils/sessionFormatters.ts&#45;&gt;services/sessionTracker.ts</title>
<path fill="none" stroke="#757575" d="M1600.96,-141.17C1604.65,-148.41 1608.28,-158.2 1610.65,-166.92"/>
<polygon fill="#757575" stroke="#757575" points="1607.26,-167.77 1612.84,-176.78 1614.09,-166.26 1607.26,-167.77"/>
</g>
</g>
</svg>
