<?xml version="1.0" encoding="UTF-8" standalone="no"?>
<!DOCTYPE svg PUBLIC "-//W3C//DTD SVG 1.1//EN"
 "http://www.w3.org/Graphics/SVG/1.1/DTD/svg11.dtd">
<!-- Generated by graphviz version 2.43.0 (0)
 -->
<!-- Title: G Pages: 1 -->
<svg width="207pt" height="66pt"
 viewBox="0.00 0.00 207.20 66.20" xmlns="http://www.w3.org/2000/svg" xmlns:xlink="http://www.w3.org/1999/xlink">
<g id="graph0" class="graph" transform="scale(1 1) rotate(0) translate(21.6 44.6)">
<title>G</title>
<polygon fill="#111111" stroke="transparent" points="-21.6,21.6 -21.6,-44.6 185.6,-44.6 185.6,21.6 -21.6,21.6"/>
<!-- parsers/mcp&#45;grammar.js -->
<g id="node1" class="node">
<title>parsers/mcp&#45;grammar.js</title>
<path fill="none" stroke="#cfffac" d="M156.33,-23C156.33,-23 7.67,-23 7.67,-23 3.83,-23 0,-19.17 0,-15.33 0,-15.33 0,-7.67 0,-7.67 0,-3.83 3.83,0 7.67,0 7.67,0 156.33,0 156.33,0 160.17,0 164,-3.83 164,-7.67 164,-7.67 164,-15.33 164,-15.33 164,-19.17 160.17,-23 156.33,-23"/>
<text text-anchor="middle" x="82" y="-7.8" font-family="Arial" font-size="14.00" fill="#cfffac">parsers/mcp&#45;grammar.js</text>
</g>
</g>
</svg>
