<?xml version="1.0" encoding="UTF-8" standalone="no"?>
<!DOCTYPE svg PUBLIC "-//W3C//DTD SVG 1.1//EN"
 "http://www.w3.org/Graphics/SVG/1.1/DTD/svg11.dtd">
<!-- Generated by graphviz version 2.43.0 (0)
 -->
<!-- Title: G Pages: 1 -->
<svg width="2425pt" height="1413pt"
 viewBox="0.00 0.00 2425.20 1413.25" xmlns="http://www.w3.org/2000/svg" xmlns:xlink="http://www.w3.org/1999/xlink">
<g id="graph0" class="graph" transform="scale(1 1) rotate(0) translate(21.6 1391.65)">
<title>G</title>
<polygon fill="#111111" stroke="transparent" points="-21.6,21.6 -21.6,-1391.65 2403.6,-1391.65 2403.6,21.6 -21.6,21.6"/>
<!-- ../../aidis&#45;command/backend/dist/services/gitService.d.ts -->
<g id="node1" class="node">
<title>../../aidis&#45;command/backend/dist/services/gitService.d.ts</title>
<path fill="none" stroke="#c6c5fe" d="M1622.83,-1238.48C1622.83,-1238.48 1285.17,-1238.48 1285.17,-1238.48 1281.33,-1238.48 1277.5,-1234.64 1277.5,-1230.81 1277.5,-1230.81 1277.5,-1223.14 1277.5,-1223.14 1277.5,-1219.31 1281.33,-1215.48 1285.17,-1215.48 1285.17,-1215.48 1622.83,-1215.48 1622.83,-1215.48 1626.67,-1215.48 1630.5,-1219.31 1630.5,-1223.14 1630.5,-1223.14 1630.5,-1230.81 1630.5,-1230.81 1630.5,-1234.64 1626.67,-1238.48 1622.83,-1238.48"/>
<text text-anchor="middle" x="1454" y="-1223.28" font-family="Arial" font-size="14.00" fill="#c6c5fe">../../aidis&#45;command/backend/dist/services/gitService.d.ts</text>
</g>
<!-- ../../aidis&#45;command/backend/dist/types/git.d.ts -->
<g id="node2" class="node">
<title>../../aidis&#45;command/backend/dist/types/git.d.ts</title>
<path fill="none" stroke="#ff6c60" d="M1960.33,-1238.48C1960.33,-1238.48 1684.67,-1238.48 1684.67,-1238.48 1680.83,-1238.48 1677,-1234.64 1677,-1230.81 1677,-1230.81 1677,-1223.14 1677,-1223.14 1677,-1219.31 1680.83,-1215.48 1684.67,-1215.48 1684.67,-1215.48 1960.33,-1215.48 1960.33,-1215.48 1964.17,-1215.48 1968,-1219.31 1968,-1223.14 1968,-1223.14 1968,-1230.81 1968,-1230.81 1968,-1234.64 1964.17,-1238.48 1960.33,-1238.48"/>
<text text-anchor="middle" x="1822.5" y="-1223.28" font-family="Arial" font-size="14.00" fill="#ff6c60">../../aidis&#45;command/backend/dist/types/git.d.ts</text>
</g>
<!-- ../../aidis&#45;command/backend/dist/services/gitService.d.ts&#45;&gt;../../aidis&#45;command/backend/dist/types/git.d.ts -->
<g id="edge1" class="edge">
<title>../../aidis&#45;command/backend/dist/services/gitService.d.ts&#45;&gt;../../aidis&#45;command/backend/dist/types/git.d.ts</title>
<path fill="none" stroke="#757575" d="M1630.74,-1226.98C1642.67,-1226.98 1654.65,-1226.98 1666.47,-1226.98"/>
<polygon fill="#757575" stroke="#757575" points="1666.81,-1230.48 1676.81,-1226.98 1666.81,-1223.48 1666.81,-1230.48"/>
</g>
<!-- ../../aidis&#45;command/backend/dist/types/git.d.ts&#45;&gt;../../aidis&#45;command/backend/dist/types/git.d.ts -->
<g id="edge2" class="edge">
<title>../../aidis&#45;command/backend/dist/types/git.d.ts&#45;&gt;../../aidis&#45;command/backend/dist/types/git.d.ts</title>
<path fill="none" stroke="#757575" d="M1775.47,-1238.48C1757.89,-1247.39 1773.56,-1256.48 1822.5,-1256.48 1857.67,-1256.48 1875.66,-1251.78 1876.47,-1245.84"/>
<polygon fill="#757575" stroke="#757575" points="1878.94,-1243.35 1869.53,-1238.48 1873.85,-1248.16 1878.94,-1243.35"/>
</g>
<!-- ../../aidis&#45;command/backend/dist/services/sessionDetail.d.ts -->
<g id="node3" class="node">
<title>../../aidis&#45;command/backend/dist/services/sessionDetail.d.ts</title>
<path fill="none" stroke="#cfffac" d="M1633.33,-1279.48C1633.33,-1279.48 1274.67,-1279.48 1274.67,-1279.48 1270.83,-1279.48 1267,-1275.64 1267,-1271.81 1267,-1271.81 1267,-1264.14 1267,-1264.14 1267,-1260.31 1270.83,-1256.48 1274.67,-1256.48 1274.67,-1256.48 1633.33,-1256.48 1633.33,-1256.48 1637.17,-1256.48 1641,-1260.31 1641,-1264.14 1641,-1264.14 1641,-1271.81 1641,-1271.81 1641,-1275.64 1637.17,-1279.48 1633.33,-1279.48"/>
<text text-anchor="middle" x="1454" y="-1264.28" font-family="Arial" font-size="14.00" fill="#cfffac">../../aidis&#45;command/backend/dist/services/sessionDetail.d.ts</text>
</g>
<!-- api/middleware/sessionTracking.ts -->
<g id="node4" class="node">
<title>api/middleware/sessionTracking.ts</title>
<path fill="none" stroke="#c6c5fe" d="M957.83,-614.48C957.83,-614.48 749.17,-614.48 749.17,-614.48 745.33,-614.48 741.5,-610.64 741.5,-606.81 741.5,-606.81 741.5,-599.14 741.5,-599.14 741.5,-595.31 745.33,-591.48 749.17,-591.48 749.17,-591.48 957.83,-591.48 957.83,-591.48 961.67,-591.48 965.5,-595.31 965.5,-599.14 965.5,-599.14 965.5,-606.81 965.5,-606.81 965.5,-610.64 961.67,-614.48 957.83,-614.48"/>
<text text-anchor="middle" x="853.5" y="-599.28" font-family="Arial" font-size="14.00" fill="#c6c5fe">api/middleware/sessionTracking.ts</text>
</g>
<!-- services/sessionTracker.ts -->
<g id="node5" class="node">
<title>services/sessionTracker.ts</title>
<path fill="none" stroke="#ff6c60" d="M1533.83,-730.48C1533.83,-730.48 1374.17,-730.48 1374.17,-730.48 1370.33,-730.48 1366.5,-726.64 1366.5,-722.81 1366.5,-722.81 1366.5,-715.14 1366.5,-715.14 1366.5,-711.31 1370.33,-707.48 1374.17,-707.48 1374.17,-707.48 1533.83,-707.48 1533.83,-707.48 1537.67,-707.48 1541.5,-711.31 1541.5,-715.14 1541.5,-715.14 1541.5,-722.81 1541.5,-722.81 1541.5,-726.64 1537.67,-730.48 1533.83,-730.48"/>
<text text-anchor="middle" x="1454" y="-715.28" font-family="Arial" font-size="14.00" fill="#ff6c60">services/sessionTracker.ts</text>
</g>
<!-- api/middleware/sessionTracking.ts&#45;&gt;services/sessionTracker.ts -->
<g id="edge3" class="edge">
<title>api/middleware/sessionTracking.ts&#45;&gt;services/sessionTracker.ts</title>
<path fill="none" stroke="#757575" d="M878.77,-614.5C907.86,-627.81 958.41,-649.37 1004,-660.98 1123.12,-691.3 1264.26,-706.22 1356.07,-713.24"/>
<polygon fill="#757575" stroke="#757575" points="1355.95,-716.74 1366.18,-714 1356.47,-709.76 1355.95,-716.74"/>
</g>
<!-- utils/logger.ts -->
<g id="node6" class="node">
<title>utils/logger.ts</title>
<path fill="none" stroke="#cfffac" d="M1862.33,-926.48C1862.33,-926.48 1782.67,-926.48 1782.67,-926.48 1778.83,-926.48 1775,-922.64 1775,-918.81 1775,-918.81 1775,-911.14 1775,-911.14 1775,-907.31 1778.83,-903.48 1782.67,-903.48 1782.67,-903.48 1862.33,-903.48 1862.33,-903.48 1866.17,-903.48 1870,-907.31 1870,-911.14 1870,-911.14 1870,-918.81 1870,-918.81 1870,-922.64 1866.17,-926.48 1862.33,-926.48"/>
<text text-anchor="middle" x="1822.5" y="-911.28" font-family="Arial" font-size="14.00" fill="#cfffac">utils/logger.ts</text>
</g>
<!-- api/middleware/sessionTracking.ts&#45;&gt;utils/logger.ts -->
<g id="edge4" class="edge">
<title>api/middleware/sessionTracking.ts&#45;&gt;utils/logger.ts</title>
<path fill="none" stroke="#757575" d="M860.18,-614.85C876.81,-648.07 928.99,-742.02 1004,-779.98 1130.6,-844.03 1504.24,-785.22 1641,-822.98 1699.88,-839.23 1761.94,-875.78 1795.77,-897.6"/>
<polygon fill="#757575" stroke="#757575" points="1794.25,-900.79 1804.54,-903.33 1798.09,-894.93 1794.25,-900.79"/>
</g>
<!-- services/sessionTracker.ts&#45;&gt;utils/logger.ts -->
<g id="edge122" class="edge">
<title>services/sessionTracker.ts&#45;&gt;utils/logger.ts</title>
<path fill="none" stroke="#757575" d="M1498.17,-730.51C1536.82,-741.7 1594.41,-760.57 1641,-784.98 1703.18,-817.55 1768.05,-869.4 1800.45,-896.74"/>
<polygon fill="#757575" stroke="#757575" points="1798.45,-899.63 1808.33,-903.45 1802.99,-894.3 1798.45,-899.63"/>
</g>
<!-- config/database.ts -->
<g id="node7" class="node">
<title>config/database.ts</title>
<path fill="none" stroke="#cfffac" d="M2374.33,-574.48C2374.33,-574.48 2263.67,-574.48 2263.67,-574.48 2259.83,-574.48 2256,-570.64 2256,-566.81 2256,-566.81 2256,-559.14 2256,-559.14 2256,-555.31 2259.83,-551.48 2263.67,-551.48 2263.67,-551.48 2374.33,-551.48 2374.33,-551.48 2378.17,-551.48 2382,-555.31 2382,-559.14 2382,-559.14 2382,-566.81 2382,-566.81 2382,-570.64 2378.17,-574.48 2374.33,-574.48"/>
<text text-anchor="middle" x="2319" y="-559.28" font-family="Arial" font-size="14.00" fill="#cfffac">config/database.ts</text>
</g>
<!-- services/sessionTracker.ts&#45;&gt;config/database.ts -->
<g id="edge119" class="edge">
<title>services/sessionTracker.ts&#45;&gt;config/database.ts</title>
<path fill="none" stroke="#757575" d="M1541.7,-710.98C1582.71,-707.25 1632.37,-702.8 1677,-698.98 1797.62,-688.66 2109.33,-704.05 2220,-654.98 2255.78,-639.11 2286.75,-604.54 2303.84,-582.59"/>
<polygon fill="#757575" stroke="#757575" points="2306.66,-584.67 2309.9,-574.59 2301.07,-580.45 2306.66,-584.67"/>
</g>
<!-- handlers/project.ts -->
<g id="node11" class="node">
<title>handlers/project.ts</title>
<path fill="none" stroke="#ff6c60" d="M1878.33,-416.48C1878.33,-416.48 1766.67,-416.48 1766.67,-416.48 1762.83,-416.48 1759,-412.64 1759,-408.81 1759,-408.81 1759,-401.14 1759,-401.14 1759,-397.31 1762.83,-393.48 1766.67,-393.48 1766.67,-393.48 1878.33,-393.48 1878.33,-393.48 1882.17,-393.48 1886,-397.31 1886,-401.14 1886,-401.14 1886,-408.81 1886,-408.81 1886,-412.64 1882.17,-416.48 1878.33,-416.48"/>
<text text-anchor="middle" x="1822.5" y="-401.28" font-family="Arial" font-size="14.00" fill="#ff6c60">handlers/project.ts</text>
</g>
<!-- services/sessionTracker.ts&#45;&gt;handlers/project.ts -->
<g id="edge120" class="edge">
<title>services/sessionTracker.ts&#45;&gt;handlers/project.ts</title>
<path fill="none" stroke="#757575" d="M1483.09,-707.45C1521.28,-690.96 1590.6,-658.03 1641,-616.98 1714.02,-557.5 1780.44,-465.77 1808.01,-425.32"/>
<polygon fill="#757575" stroke="#757575" points="1811.04,-427.09 1813.73,-416.84 1805.24,-423.17 1811.04,-427.09"/>
</g>
<!-- utils/agentDetection.ts -->
<g id="node51" class="node">
<title>utils/agentDetection.ts</title>
<path fill="none" stroke="#cfffac" d="M1889.33,-771.48C1889.33,-771.48 1755.67,-771.48 1755.67,-771.48 1751.83,-771.48 1748,-767.64 1748,-763.81 1748,-763.81 1748,-756.14 1748,-756.14 1748,-752.31 1751.83,-748.48 1755.67,-748.48 1755.67,-748.48 1889.33,-748.48 1889.33,-748.48 1893.17,-748.48 1897,-752.31 1897,-756.14 1897,-756.14 1897,-763.81 1897,-763.81 1897,-767.64 1893.17,-771.48 1889.33,-771.48"/>
<text text-anchor="middle" x="1822.5" y="-756.28" font-family="Arial" font-size="14.00" fill="#cfffac">utils/agentDetection.ts</text>
</g>
<!-- services/sessionTracker.ts&#45;&gt;utils/agentDetection.ts -->
<g id="edge121" class="edge">
<title>services/sessionTracker.ts&#45;&gt;utils/agentDetection.ts</title>
<path fill="none" stroke="#757575" d="M1541.86,-728.69C1601.19,-735.33 1679.36,-744.08 1737.97,-750.63"/>
<polygon fill="#757575" stroke="#757575" points="1737.61,-754.11 1747.94,-751.75 1738.39,-747.16 1737.61,-754.11"/>
</g>
<!-- utils/sessionFormatters.ts -->
<g id="node52" class="node">
<title>utils/sessionFormatters.ts</title>
<path fill="none" stroke="#ff6c60" d="M1899.83,-730.48C1899.83,-730.48 1745.17,-730.48 1745.17,-730.48 1741.33,-730.48 1737.5,-726.64 1737.5,-722.81 1737.5,-722.81 1737.5,-715.14 1737.5,-715.14 1737.5,-711.31 1741.33,-707.48 1745.17,-707.48 1745.17,-707.48 1899.83,-707.48 1899.83,-707.48 1903.67,-707.48 1907.5,-711.31 1907.5,-715.14 1907.5,-715.14 1907.5,-722.81 1907.5,-722.81 1907.5,-726.64 1903.67,-730.48 1899.83,-730.48"/>
<text text-anchor="middle" x="1822.5" y="-715.28" font-family="Arial" font-size="14.00" fill="#ff6c60">utils/sessionFormatters.ts</text>
</g>
<!-- services/sessionTracker.ts&#45;&gt;utils/sessionFormatters.ts -->
<g id="edge123" class="edge">
<title>services/sessionTracker.ts&#45;&gt;utils/sessionFormatters.ts</title>
<path fill="none" stroke="#757575" d="M1541.86,-713.14C1597.67,-711.97 1670.16,-711.93 1727.35,-712.99"/>
<polygon fill="#757575" stroke="#757575" points="1727.41,-716.5 1737.48,-713.2 1727.55,-709.5 1727.41,-716.5"/>
</g>
<!-- config/toolDefinitions.ts -->
<g id="node8" class="node">
<title>config/toolDefinitions.ts</title>
<path fill="none" stroke="#cfffac" d="M669.83,-929.48C669.83,-929.48 530.17,-929.48 530.17,-929.48 526.33,-929.48 522.5,-925.64 522.5,-921.81 522.5,-921.81 522.5,-914.14 522.5,-914.14 522.5,-910.31 526.33,-906.48 530.17,-906.48 530.17,-906.48 669.83,-906.48 669.83,-906.48 673.67,-906.48 677.5,-910.31 677.5,-914.14 677.5,-914.14 677.5,-921.81 677.5,-921.81 677.5,-925.64 673.67,-929.48 669.83,-929.48"/>
<text text-anchor="middle" x="600" y="-914.28" font-family="Arial" font-size="14.00" fill="#cfffac">config/toolDefinitions.ts</text>
</g>
<!-- handlers/codeAnalysis.ts -->
<g id="node9" class="node">
<title>handlers/codeAnalysis.ts</title>
<path fill="none" stroke="#c6c5fe" d="M2187.33,-30.48C2187.33,-30.48 2036.67,-30.48 2036.67,-30.48 2032.83,-30.48 2029,-26.64 2029,-22.81 2029,-22.81 2029,-15.14 2029,-15.14 2029,-11.31 2032.83,-7.48 2036.67,-7.48 2036.67,-7.48 2187.33,-7.48 2187.33,-7.48 2191.17,-7.48 2195,-11.31 2195,-15.14 2195,-15.14 2195,-22.81 2195,-22.81 2195,-26.64 2191.17,-30.48 2187.33,-30.48"/>
<text text-anchor="middle" x="2112" y="-15.28" font-family="Arial" font-size="14.00" fill="#c6c5fe">handlers/codeAnalysis.ts</text>
</g>
<!-- handlers/codeAnalysis.ts&#45;&gt;config/database.ts -->
<g id="edge5" class="edge">
<title>handlers/codeAnalysis.ts&#45;&gt;config/database.ts</title>
<path fill="none" stroke="#757575" d="M2195.24,-28.35C2204.51,-32.32 2213.09,-37.7 2220,-44.98 2289.82,-118.48 2312.19,-452.65 2316.95,-541.32"/>
<polygon fill="#757575" stroke="#757575" points="2313.45,-541.51 2317.46,-551.32 2320.44,-541.15 2313.45,-541.51"/>
</g>
<!-- handlers/context.ts -->
<g id="node10" class="node">
<title>handlers/context.ts</title>
<path fill="none" stroke="#c6c5fe" d="M1174.83,-493.48C1174.83,-493.48 1060.17,-493.48 1060.17,-493.48 1056.33,-493.48 1052.5,-489.64 1052.5,-485.81 1052.5,-485.81 1052.5,-478.14 1052.5,-478.14 1052.5,-474.31 1056.33,-470.48 1060.17,-470.48 1060.17,-470.48 1174.83,-470.48 1174.83,-470.48 1178.67,-470.48 1182.5,-474.31 1182.5,-478.14 1182.5,-478.14 1182.5,-485.81 1182.5,-485.81 1182.5,-489.64 1178.67,-493.48 1174.83,-493.48"/>
<text text-anchor="middle" x="1117.5" y="-478.28" font-family="Arial" font-size="14.00" fill="#c6c5fe">handlers/context.ts</text>
</g>
<!-- handlers/context.ts&#45;&gt;services/sessionTracker.ts -->
<g id="edge10" class="edge">
<title>handlers/context.ts&#45;&gt;services/sessionTracker.ts</title>
<path fill="none" stroke="#757575" d="M1135.09,-493.73C1189.6,-532.36 1363.46,-655.54 1428.3,-701.48"/>
<polygon fill="#757575" stroke="#757575" points="1426.52,-704.51 1436.71,-707.43 1430.57,-698.8 1426.52,-704.51"/>
</g>
<!-- handlers/context.ts&#45;&gt;config/database.ts -->
<g id="edge6" class="edge">
<title>handlers/context.ts&#45;&gt;config/database.ts</title>
<path fill="none" stroke="#757575" d="M1182.68,-492.25C1208.78,-496.11 1239.28,-500.23 1267,-502.98 1457.59,-521.86 2040.56,-550.04 2245.68,-559.64"/>
<polygon fill="#757575" stroke="#757575" points="2245.59,-563.14 2255.74,-560.11 2245.92,-556.15 2245.59,-563.14"/>
</g>
<!-- handlers/context.ts&#45;&gt;handlers/project.ts -->
<g id="edge7" class="edge">
<title>handlers/context.ts&#45;&gt;handlers/project.ts</title>
<path fill="none" stroke="#757575" d="M1182.77,-472.87C1208.88,-469.29 1239.36,-465.26 1267,-461.98 1439.46,-441.5 1642.62,-421.72 1748.69,-411.73"/>
<polygon fill="#757575" stroke="#757575" points="1749.02,-415.21 1758.65,-410.79 1748.36,-408.24 1749.02,-415.21"/>
</g>
<!-- middleware/eventLogger.ts -->
<g id="node12" class="node">
<title>middleware/eventLogger.ts</title>
<path fill="none" stroke="#c6c5fe" d="M1535.83,-574.48C1535.83,-574.48 1372.17,-574.48 1372.17,-574.48 1368.33,-574.48 1364.5,-570.64 1364.5,-566.81 1364.5,-566.81 1364.5,-559.14 1364.5,-559.14 1364.5,-555.31 1368.33,-551.48 1372.17,-551.48 1372.17,-551.48 1535.83,-551.48 1535.83,-551.48 1539.67,-551.48 1543.5,-555.31 1543.5,-559.14 1543.5,-559.14 1543.5,-566.81 1543.5,-566.81 1543.5,-570.64 1539.67,-574.48 1535.83,-574.48"/>
<text text-anchor="middle" x="1454" y="-559.28" font-family="Arial" font-size="14.00" fill="#c6c5fe">middleware/eventLogger.ts</text>
</g>
<!-- handlers/context.ts&#45;&gt;middleware/eventLogger.ts -->
<g id="edge8" class="edge">
<title>handlers/context.ts&#45;&gt;middleware/eventLogger.ts</title>
<path fill="none" stroke="#757575" d="M1182.69,-491.58C1198.95,-495.41 1216.04,-500.7 1231,-507.98 1249.48,-516.96 1248.14,-528.82 1267,-536.98 1294.03,-548.68 1325.15,-555.36 1354.11,-559.11"/>
<polygon fill="#757575" stroke="#757575" points="1353.9,-562.61 1364.25,-560.31 1354.73,-555.66 1353.9,-562.61"/>
</g>
<!-- services/embedding.ts -->
<g id="node13" class="node">
<title>services/embedding.ts</title>
<path fill="none" stroke="#cfffac" d="M1522.33,-494.48C1522.33,-494.48 1385.67,-494.48 1385.67,-494.48 1381.83,-494.48 1378,-490.64 1378,-486.81 1378,-486.81 1378,-479.14 1378,-479.14 1378,-475.31 1381.83,-471.48 1385.67,-471.48 1385.67,-471.48 1522.33,-471.48 1522.33,-471.48 1526.17,-471.48 1530,-475.31 1530,-479.14 1530,-479.14 1530,-486.81 1530,-486.81 1530,-490.64 1526.17,-494.48 1522.33,-494.48"/>
<text text-anchor="middle" x="1454" y="-479.28" font-family="Arial" font-size="14.00" fill="#cfffac">services/embedding.ts</text>
</g>
<!-- handlers/context.ts&#45;&gt;services/embedding.ts -->
<g id="edge9" class="edge">
<title>handlers/context.ts&#45;&gt;services/embedding.ts</title>
<path fill="none" stroke="#757575" d="M1182.6,-482.17C1235.12,-482.33 1309.91,-482.55 1367.53,-482.72"/>
<polygon fill="#757575" stroke="#757575" points="1367.7,-486.22 1377.71,-482.75 1367.73,-479.22 1367.7,-486.22"/>
</g>
<!-- handlers/project.ts&#45;&gt;config/database.ts -->
<g id="edge27" class="edge">
<title>handlers/project.ts&#45;&gt;config/database.ts</title>
<path fill="none" stroke="#757575" d="M1886.15,-416.42C1965.6,-432.05 2106,-463.44 2220,-508.98 2245.38,-519.12 2272.47,-534.43 2291.72,-546.16"/>
<polygon fill="#757575" stroke="#757575" points="2289.89,-549.14 2300.24,-551.43 2293.58,-543.19 2289.89,-549.14"/>
</g>
<!-- services/projectSwitchValidator.ts -->
<g id="node21" class="node">
<title>services/projectSwitchValidator.ts</title>
<path fill="none" stroke="#ff6c60" d="M2212.33,-416.48C2212.33,-416.48 2011.67,-416.48 2011.67,-416.48 2007.83,-416.48 2004,-412.64 2004,-408.81 2004,-408.81 2004,-401.14 2004,-401.14 2004,-397.31 2007.83,-393.48 2011.67,-393.48 2011.67,-393.48 2212.33,-393.48 2212.33,-393.48 2216.17,-393.48 2220,-397.31 2220,-401.14 2220,-401.14 2220,-408.81 2220,-408.81 2220,-412.64 2216.17,-416.48 2212.33,-416.48"/>
<text text-anchor="middle" x="2112" y="-401.28" font-family="Arial" font-size="14.00" fill="#ff6c60">services/projectSwitchValidator.ts</text>
</g>
<!-- handlers/project.ts&#45;&gt;services/projectSwitchValidator.ts -->
<g id="edge28" class="edge">
<title>handlers/project.ts&#45;&gt;services/projectSwitchValidator.ts</title>
<path fill="none" stroke="#757575" d="M1886.24,-399.29C1917.65,-398.36 1956.73,-398.04 1993.44,-398.33"/>
<polygon fill="#757575" stroke="#757575" points="1993.7,-401.83 2003.73,-398.42 1993.76,-394.83 1993.7,-401.83"/>
</g>
<!-- middleware/eventLogger.ts&#45;&gt;config/database.ts -->
<g id="edge44" class="edge">
<title>middleware/eventLogger.ts&#45;&gt;config/database.ts</title>
<path fill="none" stroke="#757575" d="M1543.7,-562.98C1715,-562.98 2088.29,-562.98 2245.7,-562.98"/>
<polygon fill="#757575" stroke="#757575" points="2245.75,-566.48 2255.75,-562.98 2245.75,-559.48 2245.75,-566.48"/>
</g>
<!-- middleware/eventLogger.ts&#45;&gt;handlers/project.ts -->
<g id="edge45" class="edge">
<title>middleware/eventLogger.ts&#45;&gt;handlers/project.ts</title>
<path fill="none" stroke="#757575" d="M1498.3,-551.48C1536.54,-540.74 1593.44,-523.35 1641,-502.98 1697.42,-478.81 1759.56,-442.84 1794.23,-421.86"/>
<polygon fill="#757575" stroke="#757575" points="1796.13,-424.81 1802.85,-416.62 1792.48,-418.83 1796.13,-424.81"/>
</g>
<!-- handlers/decisions.ts -->
<g id="node14" class="node">
<title>handlers/decisions.ts</title>
<path fill="none" stroke="#c6c5fe" d="M1181.33,-345.48C1181.33,-345.48 1053.67,-345.48 1053.67,-345.48 1049.83,-345.48 1046,-341.64 1046,-337.81 1046,-337.81 1046,-330.14 1046,-330.14 1046,-326.31 1049.83,-322.48 1053.67,-322.48 1053.67,-322.48 1181.33,-322.48 1181.33,-322.48 1185.17,-322.48 1189,-326.31 1189,-330.14 1189,-330.14 1189,-337.81 1189,-337.81 1189,-341.64 1185.17,-345.48 1181.33,-345.48"/>
<text text-anchor="middle" x="1117.5" y="-330.28" font-family="Arial" font-size="14.00" fill="#c6c5fe">handlers/decisions.ts</text>
</g>
<!-- handlers/decisions.ts&#45;&gt;services/sessionTracker.ts -->
<g id="edge14" class="edge">
<title>handlers/decisions.ts&#45;&gt;services/sessionTracker.ts</title>
<path fill="none" stroke="#757575" d="M1132.04,-345.51C1155.56,-366.27 1204.02,-412.28 1231,-460.98 1258.4,-510.43 1234.47,-536.74 1267,-582.98 1306.59,-639.24 1376.94,-681.29 1418.85,-702.83"/>
<polygon fill="#757575" stroke="#757575" points="1417.34,-705.99 1427.84,-707.36 1420.49,-699.74 1417.34,-705.99"/>
</g>
<!-- handlers/decisions.ts&#45;&gt;config/database.ts -->
<g id="edge11" class="edge">
<title>handlers/decisions.ts&#45;&gt;config/database.ts</title>
<path fill="none" stroke="#757575" d="M1189.17,-328.03C1404.92,-311.27 2050.61,-271.82 2220,-383.98 2276.43,-421.34 2303.21,-502.62 2313.17,-541.47"/>
<polygon fill="#757575" stroke="#757575" points="2309.78,-542.34 2315.55,-551.23 2316.58,-540.68 2309.78,-542.34"/>
</g>
<!-- handlers/decisions.ts&#45;&gt;handlers/project.ts -->
<g id="edge12" class="edge">
<title>handlers/decisions.ts&#45;&gt;handlers/project.ts</title>
<path fill="none" stroke="#757575" d="M1189.17,-331.12C1290.1,-328.26 1481,-327.42 1641,-352.98 1689.86,-360.78 1744.21,-377.6 1780.38,-390.01"/>
<polygon fill="#757575" stroke="#757575" points="1779.49,-393.4 1790.08,-393.38 1781.78,-386.79 1779.49,-393.4"/>
</g>
<!-- handlers/decisions.ts&#45;&gt;middleware/eventLogger.ts -->
<g id="edge13" class="edge">
<title>handlers/decisions.ts&#45;&gt;middleware/eventLogger.ts</title>
<path fill="none" stroke="#757575" d="M1128.8,-345.48C1148.68,-367.7 1193.65,-418.12 1231,-460.98 1247.15,-479.51 1246.53,-489.36 1267,-502.98 1300.57,-525.31 1343.05,-539.84 1378.93,-549"/>
<polygon fill="#757575" stroke="#757575" points="1378.32,-552.45 1388.87,-551.44 1379.99,-545.65 1378.32,-552.45"/>
</g>
<!-- handlers/git.ts -->
<g id="node15" class="node">
<title>handlers/git.ts</title>
<path fill="none" stroke="#c6c5fe" d="M1160.33,-1238.48C1160.33,-1238.48 1074.67,-1238.48 1074.67,-1238.48 1070.83,-1238.48 1067,-1234.64 1067,-1230.81 1067,-1230.81 1067,-1223.14 1067,-1223.14 1067,-1219.31 1070.83,-1215.48 1074.67,-1215.48 1074.67,-1215.48 1160.33,-1215.48 1160.33,-1215.48 1164.17,-1215.48 1168,-1219.31 1168,-1223.14 1168,-1223.14 1168,-1230.81 1168,-1230.81 1168,-1234.64 1164.17,-1238.48 1160.33,-1238.48"/>
<text text-anchor="middle" x="1117.5" y="-1223.28" font-family="Arial" font-size="14.00" fill="#c6c5fe">handlers/git.ts</text>
</g>
<!-- handlers/git.ts&#45;&gt;../../aidis&#45;command/backend/dist/services/gitService.d.ts -->
<g id="edge15" class="edge">
<title>handlers/git.ts&#45;&gt;../../aidis&#45;command/backend/dist/services/gitService.d.ts</title>
<path fill="none" stroke="#757575" d="M1168.22,-1226.98C1195.25,-1226.98 1230.57,-1226.98 1267.08,-1226.98"/>
<polygon fill="#757575" stroke="#757575" points="1267.41,-1230.48 1277.41,-1226.98 1267.41,-1223.48 1267.41,-1230.48"/>
</g>
<!-- handlers/git.ts&#45;&gt;../../aidis&#45;command/backend/dist/services/sessionDetail.d.ts -->
<g id="edge16" class="edge">
<title>handlers/git.ts&#45;&gt;../../aidis&#45;command/backend/dist/services/sessionDetail.d.ts</title>
<path fill="none" stroke="#757575" d="M1168.28,-1234.44C1197.09,-1238.65 1234.06,-1243.88 1267,-1247.98 1287.45,-1250.52 1309.19,-1253.03 1330.32,-1255.37"/>
<polygon fill="#757575" stroke="#757575" points="1329.99,-1258.86 1340.31,-1256.47 1330.75,-1251.9 1329.99,-1258.86"/>
</g>
<!-- handlers/git.ts&#45;&gt;services/sessionTracker.ts -->
<g id="edge19" class="edge">
<title>handlers/git.ts&#45;&gt;services/sessionTracker.ts</title>
<path fill="none" stroke="#757575" d="M1131.39,-1215.3C1155.21,-1192.92 1205.98,-1141.37 1231,-1086.98 1267.28,-1008.1 1225.44,-971.2 1267,-894.98 1305.96,-823.52 1384.32,-764.26 1425.8,-736.29"/>
<polygon fill="#757575" stroke="#757575" points="1427.91,-739.1 1434.3,-730.65 1424.04,-733.26 1427.91,-739.1"/>
</g>
<!-- handlers/git.ts&#45;&gt;config/database.ts -->
<g id="edge17" class="edge">
<title>handlers/git.ts&#45;&gt;config/database.ts</title>
<path fill="none" stroke="#757575" d="M1168.22,-1219.17C1197,-1214.93 1233.97,-1209.96 1267,-1206.98 1319.79,-1202.21 2180.42,-1198.22 2220,-1162.98 2308.33,-1084.32 2317.11,-683.5 2317.93,-584.91"/>
<polygon fill="#757575" stroke="#757575" points="2321.43,-584.68 2317.99,-574.66 2314.43,-584.63 2321.43,-584.68"/>
</g>
<!-- handlers/git.ts&#45;&gt;middleware/eventLogger.ts -->
<g id="edge18" class="edge">
<title>handlers/git.ts&#45;&gt;middleware/eventLogger.ts</title>
<path fill="none" stroke="#757575" d="M1128.88,-1215.47C1151.92,-1189.13 1207.18,-1121.56 1231,-1053.98 1283.71,-904.41 1188.17,-836.58 1267,-698.98 1300.81,-639.96 1371.76,-599.35 1415.59,-578.72"/>
<polygon fill="#757575" stroke="#757575" points="1417.15,-581.86 1424.78,-574.51 1414.23,-575.5 1417.15,-581.86"/>
</g>
<!-- handlers/naming.ts -->
<g id="node16" class="node">
<title>handlers/naming.ts</title>
<path fill="none" stroke="#c6c5fe" d="M1511.83,-148.48C1511.83,-148.48 1396.17,-148.48 1396.17,-148.48 1392.33,-148.48 1388.5,-144.64 1388.5,-140.81 1388.5,-140.81 1388.5,-133.14 1388.5,-133.14 1388.5,-129.31 1392.33,-125.48 1396.17,-125.48 1396.17,-125.48 1511.83,-125.48 1511.83,-125.48 1515.67,-125.48 1519.5,-129.31 1519.5,-133.14 1519.5,-133.14 1519.5,-140.81 1519.5,-140.81 1519.5,-144.64 1515.67,-148.48 1511.83,-148.48"/>
<text text-anchor="middle" x="1454" y="-133.28" font-family="Arial" font-size="14.00" fill="#c6c5fe">handlers/naming.ts</text>
</g>
<!-- handlers/naming.ts&#45;&gt;config/database.ts -->
<g id="edge20" class="edge">
<title>handlers/naming.ts&#45;&gt;config/database.ts</title>
<path fill="none" stroke="#757575" d="M1519.59,-129.63C1684.19,-112.34 2113.89,-76.78 2220,-162.98 2280.04,-211.76 2308.6,-463.87 2316,-540.72"/>
<polygon fill="#757575" stroke="#757575" points="2312.56,-541.49 2316.97,-551.12 2319.53,-540.83 2312.56,-541.49"/>
</g>
<!-- handlers/naming.ts&#45;&gt;handlers/project.ts -->
<g id="edge21" class="edge">
<title>handlers/naming.ts&#45;&gt;handlers/project.ts</title>
<path fill="none" stroke="#757575" d="M1512.15,-148.55C1550.82,-158.25 1601.81,-174.8 1641,-200.98 1717.98,-252.4 1782.77,-344.46 1809,-384.94"/>
<polygon fill="#757575" stroke="#757575" points="1806.09,-386.88 1814.42,-393.42 1811.99,-383.11 1806.09,-386.88"/>
</g>
<!-- handlers/navigation.ts -->
<g id="node17" class="node">
<title>handlers/navigation.ts</title>
<path fill="none" stroke="#cfffac" d="M919.83,-573.48C919.83,-573.48 787.17,-573.48 787.17,-573.48 783.33,-573.48 779.5,-569.64 779.5,-565.81 779.5,-565.81 779.5,-558.14 779.5,-558.14 779.5,-554.31 783.33,-550.48 787.17,-550.48 787.17,-550.48 919.83,-550.48 919.83,-550.48 923.67,-550.48 927.5,-554.31 927.5,-558.14 927.5,-558.14 927.5,-565.81 927.5,-565.81 927.5,-569.64 923.67,-573.48 919.83,-573.48"/>
<text text-anchor="middle" x="853.5" y="-558.28" font-family="Arial" font-size="14.00" fill="#cfffac">handlers/navigation.ts</text>
</g>
<!-- handlers/patterns/patternAnalyze.ts -->
<g id="node18" class="node">
<title>handlers/patterns/patternAnalyze.ts</title>
<path fill="none" stroke="#c6c5fe" d="M960.33,-493.48C960.33,-493.48 746.67,-493.48 746.67,-493.48 742.83,-493.48 739,-489.64 739,-485.81 739,-485.81 739,-478.14 739,-478.14 739,-474.31 742.83,-470.48 746.67,-470.48 746.67,-470.48 960.33,-470.48 960.33,-470.48 964.17,-470.48 968,-474.31 968,-478.14 968,-478.14 968,-485.81 968,-485.81 968,-489.64 964.17,-493.48 960.33,-493.48"/>
<text text-anchor="middle" x="853.5" y="-478.28" font-family="Arial" font-size="14.00" fill="#c6c5fe">handlers/patterns/patternAnalyze.ts</text>
</g>
<!-- handlers/patterns/patternAnalyze.ts&#45;&gt;handlers/project.ts -->
<g id="edge22" class="edge">
<title>handlers/patterns/patternAnalyze.ts&#45;&gt;handlers/project.ts</title>
<path fill="none" stroke="#757575" d="M873.98,-470.28C901.74,-454.25 954.8,-425.96 1004,-412.98 1270.87,-342.57 1604,-374.51 1748.75,-393.94"/>
<polygon fill="#757575" stroke="#757575" points="1748.46,-397.43 1758.84,-395.31 1749.41,-390.49 1748.46,-397.43"/>
</g>
<!-- handlers/patterns/patternAnalyze.ts&#45;&gt;middleware/eventLogger.ts -->
<g id="edge23" class="edge">
<title>handlers/patterns/patternAnalyze.ts&#45;&gt;middleware/eventLogger.ts</title>
<path fill="none" stroke="#757575" d="M939.61,-493.5C1050.04,-508.44 1242.17,-534.44 1357.47,-550.05"/>
<polygon fill="#757575" stroke="#757575" points="1357.32,-553.56 1367.69,-551.43 1358.25,-546.62 1357.32,-553.56"/>
</g>
<!-- services/patternDetector.ts -->
<g id="node19" class="node">
<title>services/patternDetector.ts</title>
<path fill="none" stroke="#c6c5fe" d="M1197.83,-770.48C1197.83,-770.48 1037.17,-770.48 1037.17,-770.48 1033.33,-770.48 1029.5,-766.64 1029.5,-762.81 1029.5,-762.81 1029.5,-755.14 1029.5,-755.14 1029.5,-751.31 1033.33,-747.48 1037.17,-747.48 1037.17,-747.48 1197.83,-747.48 1197.83,-747.48 1201.67,-747.48 1205.5,-751.31 1205.5,-755.14 1205.5,-755.14 1205.5,-762.81 1205.5,-762.81 1205.5,-766.64 1201.67,-770.48 1197.83,-770.48"/>
<text text-anchor="middle" x="1117.5" y="-755.28" font-family="Arial" font-size="14.00" fill="#c6c5fe">services/patternDetector.ts</text>
</g>
<!-- handlers/patterns/patternAnalyze.ts&#45;&gt;services/patternDetector.ts -->
<g id="edge24" class="edge">
<title>handlers/patterns/patternAnalyze.ts&#45;&gt;services/patternDetector.ts</title>
<path fill="none" stroke="#757575" d="M893.51,-493.48C918.14,-502.63 948.81,-517.8 968,-540.98 1003.51,-583.87 973.82,-614.18 1004,-660.98 1026.1,-695.25 1063.57,-724.43 1089.14,-741.82"/>
<polygon fill="#757575" stroke="#757575" points="1087.38,-744.85 1097.65,-747.47 1091.25,-739.02 1087.38,-744.85"/>
</g>
<!-- services/patternDetector.ts&#45;&gt;services/sessionTracker.ts -->
<g id="edge114" class="edge">
<title>services/patternDetector.ts&#45;&gt;services/sessionTracker.ts</title>
<path fill="none" stroke="#757575" d="M1205.51,-748.57C1251.78,-743.04 1308.78,-736.22 1356.41,-730.53"/>
<polygon fill="#757575" stroke="#757575" points="1356.91,-733.99 1366.42,-729.33 1356.08,-727.04 1356.91,-733.99"/>
</g>
<!-- services/patternDetector.ts&#45;&gt;config/database.ts -->
<g id="edge112" class="edge">
<title>services/patternDetector.ts&#45;&gt;config/database.ts</title>
<path fill="none" stroke="#757575" d="M1205.66,-765.72C1391.98,-779.4 1823.81,-806.99 1968,-780.98 2085.64,-759.75 2123.38,-757.36 2220,-686.98 2259.09,-658.51 2290.8,-610.48 2306.77,-583.3"/>
<polygon fill="#757575" stroke="#757575" points="2309.8,-585.04 2311.75,-574.63 2303.73,-581.56 2309.8,-585.04"/>
</g>
<!-- services/patternDetector.ts&#45;&gt;middleware/eventLogger.ts -->
<g id="edge113" class="edge">
<title>services/patternDetector.ts&#45;&gt;middleware/eventLogger.ts</title>
<path fill="none" stroke="#757575" d="M1138.42,-747.3C1195.24,-714.01 1358.25,-618.49 1424.5,-579.68"/>
<polygon fill="#757575" stroke="#757575" points="1426.32,-582.67 1433.18,-574.59 1422.78,-576.63 1426.32,-582.67"/>
</g>
<!-- handlers/patterns/patternInsights.ts -->
<g id="node20" class="node">
<title>handlers/patterns/patternInsights.ts</title>
<path fill="none" stroke="#c6c5fe" d="M1223.33,-304.48C1223.33,-304.48 1011.67,-304.48 1011.67,-304.48 1007.83,-304.48 1004,-300.64 1004,-296.81 1004,-296.81 1004,-289.14 1004,-289.14 1004,-285.31 1007.83,-281.48 1011.67,-281.48 1011.67,-281.48 1223.33,-281.48 1223.33,-281.48 1227.17,-281.48 1231,-285.31 1231,-289.14 1231,-289.14 1231,-296.81 1231,-296.81 1231,-300.64 1227.17,-304.48 1223.33,-304.48"/>
<text text-anchor="middle" x="1117.5" y="-289.28" font-family="Arial" font-size="14.00" fill="#c6c5fe">handlers/patterns/patternInsights.ts</text>
</g>
<!-- handlers/patterns/patternInsights.ts&#45;&gt;config/database.ts -->
<g id="edge25" class="edge">
<title>handlers/patterns/patternInsights.ts&#45;&gt;config/database.ts</title>
<path fill="none" stroke="#757575" d="M1152.44,-281.47C1297.69,-234.5 1875.25,-71.36 2220,-320.98 2293.57,-374.25 2312.01,-492.4 2316.55,-541.22"/>
<polygon fill="#757575" stroke="#757575" points="2313.07,-541.62 2317.38,-551.3 2320.05,-541.05 2313.07,-541.62"/>
</g>
<!-- handlers/patterns/patternInsights.ts&#45;&gt;middleware/eventLogger.ts -->
<g id="edge26" class="edge">
<title>handlers/patterns/patternInsights.ts&#45;&gt;middleware/eventLogger.ts</title>
<path fill="none" stroke="#757575" d="M1220.38,-304.55C1224.19,-306.98 1227.76,-309.77 1231,-312.98 1292.12,-373.41 1210.13,-438.53 1267,-502.98 1289.28,-528.22 1322.23,-542.91 1354.24,-551.44"/>
<polygon fill="#757575" stroke="#757575" points="1353.58,-554.88 1364.13,-553.89 1355.27,-548.09 1353.58,-554.88"/>
</g>
<!-- services/projectSwitchValidator.ts&#45;&gt;config/database.ts -->
<g id="edge115" class="edge">
<title>services/projectSwitchValidator.ts&#45;&gt;config/database.ts</title>
<path fill="none" stroke="#757575" d="M2150.8,-416.56C2172.32,-424.25 2199.07,-435.75 2220,-450.98 2255.75,-476.99 2287.5,-518.28 2304.62,-542.79"/>
<polygon fill="#757575" stroke="#757575" points="2301.91,-545.02 2310.44,-551.3 2307.68,-541.07 2301.91,-545.02"/>
</g>
<!-- services/projectSwitchValidator.ts&#45;&gt;handlers/project.ts -->
<g id="edge116" class="edge">
<title>services/projectSwitchValidator.ts&#45;&gt;handlers/project.ts</title>
<path fill="none" stroke="#757575" d="M2003.73,-411.53C1968.01,-411.92 1929.07,-411.73 1896.56,-410.94"/>
<polygon fill="#757575" stroke="#757575" points="1896.33,-407.43 1886.24,-410.67 1896.14,-414.43 1896.33,-407.43"/>
</g>
<!-- handlers/sessionAnalytics.ts -->
<g id="node22" class="node">
<title>handlers/sessionAnalytics.ts</title>
<path fill="none" stroke="#c6c5fe" d="M1202.83,-611.48C1202.83,-611.48 1032.17,-611.48 1032.17,-611.48 1028.33,-611.48 1024.5,-607.64 1024.5,-603.81 1024.5,-603.81 1024.5,-596.14 1024.5,-596.14 1024.5,-592.31 1028.33,-588.48 1032.17,-588.48 1032.17,-588.48 1202.83,-588.48 1202.83,-588.48 1206.67,-588.48 1210.5,-592.31 1210.5,-596.14 1210.5,-596.14 1210.5,-603.81 1210.5,-603.81 1210.5,-607.64 1206.67,-611.48 1202.83,-611.48"/>
<text text-anchor="middle" x="1117.5" y="-596.28" font-family="Arial" font-size="14.00" fill="#c6c5fe">handlers/sessionAnalytics.ts</text>
</g>
<!-- handlers/sessionAnalytics.ts&#45;&gt;services/sessionTracker.ts -->
<g id="edge32" class="edge">
<title>handlers/sessionAnalytics.ts&#45;&gt;services/sessionTracker.ts</title>
<path fill="none" stroke="#757575" d="M1210.29,-611.49C1217.47,-613.83 1224.47,-616.63 1231,-619.98 1250.86,-630.16 1247.99,-643.29 1267,-654.98 1305.05,-678.38 1352.78,-694.57 1390.36,-704.82"/>
<polygon fill="#757575" stroke="#757575" points="1389.62,-708.24 1400.18,-707.42 1391.41,-701.48 1389.62,-708.24"/>
</g>
<!-- handlers/sessionAnalytics.ts&#45;&gt;config/database.ts -->
<g id="edge29" class="edge">
<title>handlers/sessionAnalytics.ts&#45;&gt;config/database.ts</title>
<path fill="none" stroke="#757575" d="M1210.74,-607.16C1229.35,-608.33 1248.79,-609.37 1267,-609.98 1690.57,-624.22 1798.28,-619.04 2220,-576.98 2228.36,-576.14 2237.1,-575.12 2245.77,-574"/>
<polygon fill="#757575" stroke="#757575" points="2246.43,-577.45 2255.89,-572.66 2245.51,-570.51 2246.43,-577.45"/>
</g>
<!-- handlers/sessionAnalytics.ts&#45;&gt;handlers/project.ts -->
<g id="edge30" class="edge">
<title>handlers/sessionAnalytics.ts&#45;&gt;handlers/project.ts</title>
<path fill="none" stroke="#757575" d="M1210.54,-604.94C1339.38,-610.54 1566.15,-615.11 1641,-582.98 1719.63,-549.23 1782.93,-464.08 1808.84,-425.07"/>
<polygon fill="#757575" stroke="#757575" points="1811.81,-426.91 1814.34,-416.62 1805.95,-423.09 1811.81,-426.91"/>
</g>
<!-- handlers/sessionAnalytics.ts&#45;&gt;middleware/eventLogger.ts -->
<g id="edge31" class="edge">
<title>handlers/sessionAnalytics.ts&#45;&gt;middleware/eventLogger.ts</title>
<path fill="none" stroke="#757575" d="M1210.79,-589.77C1255.37,-584.84 1308.92,-578.91 1354.32,-573.89"/>
<polygon fill="#757575" stroke="#757575" points="1354.92,-577.35 1364.47,-572.77 1354.15,-570.39 1354.92,-577.35"/>
</g>
<!-- handlers/smartSearch.ts -->
<g id="node23" class="node">
<title>handlers/smartSearch.ts</title>
<path fill="none" stroke="#c6c5fe" d="M927.83,-165.48C927.83,-165.48 779.17,-165.48 779.17,-165.48 775.33,-165.48 771.5,-161.64 771.5,-157.81 771.5,-157.81 771.5,-150.14 771.5,-150.14 771.5,-146.31 775.33,-142.48 779.17,-142.48 779.17,-142.48 927.83,-142.48 927.83,-142.48 931.67,-142.48 935.5,-146.31 935.5,-150.14 935.5,-150.14 935.5,-157.81 935.5,-157.81 935.5,-161.64 931.67,-165.48 927.83,-165.48"/>
<text text-anchor="middle" x="853.5" y="-150.28" font-family="Arial" font-size="14.00" fill="#c6c5fe">handlers/smartSearch.ts</text>
</g>
<!-- handlers/smartSearch.ts&#45;&gt;config/database.ts -->
<g id="edge33" class="edge">
<title>handlers/smartSearch.ts&#45;&gt;config/database.ts</title>
<path fill="none" stroke="#757575" d="M911.92,-142.43C1144.9,-96.98 2016.87,59.14 2220,-106.98 2288.77,-163.22 2311.65,-458.03 2316.78,-541.15"/>
<polygon fill="#757575" stroke="#757575" points="2313.29,-541.45 2317.38,-551.22 2320.28,-541.03 2313.29,-541.45"/>
</g>
<!-- handlers/smartSearch.ts&#45;&gt;handlers/codeAnalysis.ts -->
<g id="edge34" class="edge">
<title>handlers/smartSearch.ts&#45;&gt;handlers/codeAnalysis.ts</title>
<path fill="none" stroke="#757575" d="M875.6,-142.37C903.95,-127.29 956.3,-101.2 1004,-86.98 1367,21.28 1825.83,3.31 2018.83,-10.82"/>
<polygon fill="#757575" stroke="#757575" points="2018.7,-14.32 2028.94,-11.57 2019.23,-7.33 2018.7,-14.32"/>
</g>
<!-- handlers/smartSearch.ts&#45;&gt;handlers/context.ts -->
<g id="edge35" class="edge">
<title>handlers/smartSearch.ts&#45;&gt;handlers/context.ts</title>
<path fill="none" stroke="#757575" d="M862.62,-165.49C884.61,-196.53 947.47,-284.28 1004,-353.98 1036.15,-393.61 1076.05,-437.95 1098.66,-462.66"/>
<polygon fill="#757575" stroke="#757575" points="1096.29,-465.25 1105.63,-470.25 1101.45,-460.52 1096.29,-465.25"/>
</g>
<!-- handlers/smartSearch.ts&#45;&gt;handlers/decisions.ts -->
<g id="edge36" class="edge">
<title>handlers/smartSearch.ts&#45;&gt;handlers/decisions.ts</title>
<path fill="none" stroke="#757575" d="M861.54,-165.52C880.44,-195.39 935.52,-275.53 1004,-312.98 1013.84,-318.36 1024.82,-322.39 1035.94,-325.4"/>
<polygon fill="#757575" stroke="#757575" points="1035.19,-328.82 1045.74,-327.79 1036.85,-322.02 1035.19,-328.82"/>
</g>
<!-- handlers/smartSearch.ts&#45;&gt;handlers/naming.ts -->
<g id="edge37" class="edge">
<title>handlers/smartSearch.ts&#45;&gt;handlers/naming.ts</title>
<path fill="none" stroke="#757575" d="M935.53,-151.68C1051.97,-148.37 1265,-142.32 1377.99,-139.11"/>
<polygon fill="#757575" stroke="#757575" points="1378.38,-142.6 1388.28,-138.82 1378.18,-135.6 1378.38,-142.6"/>
</g>
<!-- handlers/tasks.ts -->
<g id="node24" class="node">
<title>handlers/tasks.ts</title>
<path fill="none" stroke="#c6c5fe" d="M1168.83,-652.48C1168.83,-652.48 1066.17,-652.48 1066.17,-652.48 1062.33,-652.48 1058.5,-648.64 1058.5,-644.81 1058.5,-644.81 1058.5,-637.14 1058.5,-637.14 1058.5,-633.31 1062.33,-629.48 1066.17,-629.48 1066.17,-629.48 1168.83,-629.48 1168.83,-629.48 1172.67,-629.48 1176.5,-633.31 1176.5,-637.14 1176.5,-637.14 1176.5,-644.81 1176.5,-644.81 1176.5,-648.64 1172.67,-652.48 1168.83,-652.48"/>
<text text-anchor="middle" x="1117.5" y="-637.28" font-family="Arial" font-size="14.00" fill="#c6c5fe">handlers/tasks.ts</text>
</g>
<!-- handlers/tasks.ts&#45;&gt;services/sessionTracker.ts -->
<g id="edge39" class="edge">
<title>handlers/tasks.ts&#45;&gt;services/sessionTracker.ts</title>
<path fill="none" stroke="#757575" d="M1176.6,-649.8C1194.54,-653.73 1214.03,-659.27 1231,-666.98 1248.97,-675.14 1248.69,-685.62 1267,-692.98 1294.87,-704.18 1326.78,-710.69 1356.2,-714.43"/>
<polygon fill="#757575" stroke="#757575" points="1356.15,-717.95 1366.49,-715.64 1356.97,-710.99 1356.15,-717.95"/>
</g>
<!-- handlers/tasks.ts&#45;&gt;config/database.ts -->
<g id="edge38" class="edge">
<title>handlers/tasks.ts&#45;&gt;config/database.ts</title>
<path fill="none" stroke="#757575" d="M1176.74,-640.99C1314.43,-640.73 1670.79,-638.49 1968,-622.98 2080.24,-617.12 2110.6,-627.7 2220,-601.98 2242.47,-596.69 2266.56,-587.16 2285.24,-578.84"/>
<polygon fill="#757575" stroke="#757575" points="2286.83,-581.96 2294.48,-574.63 2283.93,-575.6 2286.83,-581.96"/>
</g>
<!-- main.ts -->
<g id="node25" class="node">
<title>main.ts</title>
<path fill="none" stroke="#c6c5fe" d="M53.33,-1064.48C53.33,-1064.48 7.67,-1064.48 7.67,-1064.48 3.83,-1064.48 0,-1060.64 0,-1056.81 0,-1056.81 0,-1049.14 0,-1049.14 0,-1045.31 3.83,-1041.48 7.67,-1041.48 7.67,-1041.48 53.33,-1041.48 53.33,-1041.48 57.17,-1041.48 61,-1045.31 61,-1049.14 61,-1049.14 61,-1056.81 61,-1056.81 61,-1060.64 57.17,-1064.48 53.33,-1064.48"/>
<text text-anchor="middle" x="30.5" y="-1049.28" font-family="Arial" font-size="14.00" fill="#c6c5fe">main.ts</text>
</g>
<!-- main.ts&#45;&gt;utils/logger.ts -->
<g id="edge42" class="edge">
<title>main.ts&#45;&gt;utils/logger.ts</title>
<path fill="none" stroke="#757575" d="M37.76,-1064.83C67.64,-1119.64 201.8,-1345.98 379.5,-1345.98 379.5,-1345.98 379.5,-1345.98 1118.5,-1345.98 1352.1,-1345.98 1452.64,-1427.15 1641,-1288.98 1673.09,-1265.44 1660.17,-1243.05 1677,-1206.98 1725.01,-1104.09 1786.57,-983.03 1810.91,-935.55"/>
<polygon fill="#757575" stroke="#757575" points="1814.07,-937.06 1815.53,-926.57 1807.84,-933.87 1814.07,-937.06"/>
</g>
<!-- server/AidisMcpServer.ts -->
<g id="node26" class="node">
<title>server/AidisMcpServer.ts</title>
<path fill="none" stroke="#c6c5fe" d="M256.33,-948.48C256.33,-948.48 104.67,-948.48 104.67,-948.48 100.83,-948.48 97,-944.64 97,-940.81 97,-940.81 97,-933.14 97,-933.14 97,-929.31 100.83,-925.48 104.67,-925.48 104.67,-925.48 256.33,-925.48 256.33,-925.48 260.17,-925.48 264,-929.31 264,-933.14 264,-933.14 264,-940.81 264,-940.81 264,-944.64 260.17,-948.48 256.33,-948.48"/>
<text text-anchor="middle" x="180.5" y="-933.28" font-family="Arial" font-size="14.00" fill="#c6c5fe">server/AidisMcpServer.ts</text>
</g>
<!-- main.ts&#45;&gt;server/AidisMcpServer.ts -->
<g id="edge40" class="edge">
<title>main.ts&#45;&gt;server/AidisMcpServer.ts</title>
<path fill="none" stroke="#757575" d="M46.23,-1041.43C72.03,-1021.21 125.56,-979.26 156.35,-955.12"/>
<polygon fill="#757575" stroke="#757575" points="158.68,-957.75 164.39,-948.82 154.36,-952.24 158.68,-957.75"/>
</g>
<!-- utils/featureFlags.ts -->
<g id="node27" class="node">
<title>utils/featureFlags.ts</title>
<path fill="none" stroke="#cfffac" d="M1176.83,-1044.48C1176.83,-1044.48 1058.17,-1044.48 1058.17,-1044.48 1054.33,-1044.48 1050.5,-1040.64 1050.5,-1036.81 1050.5,-1036.81 1050.5,-1029.14 1050.5,-1029.14 1050.5,-1025.31 1054.33,-1021.48 1058.17,-1021.48 1058.17,-1021.48 1176.83,-1021.48 1176.83,-1021.48 1180.67,-1021.48 1184.5,-1025.31 1184.5,-1029.14 1184.5,-1029.14 1184.5,-1036.81 1184.5,-1036.81 1184.5,-1040.64 1180.67,-1044.48 1176.83,-1044.48"/>
<text text-anchor="middle" x="1117.5" y="-1029.28" font-family="Arial" font-size="14.00" fill="#cfffac">utils/featureFlags.ts</text>
</g>
<!-- main.ts&#45;&gt;utils/featureFlags.ts -->
<g id="edge41" class="edge">
<title>main.ts&#45;&gt;utils/featureFlags.ts</title>
<path fill="none" stroke="#757575" d="M61.35,-1062.14C110.55,-1076.83 212,-1105.37 300,-1118.98 593.64,-1164.4 708.1,-1235.99 968,-1091.98 989.5,-1080.06 982.5,-1061.9 1004,-1049.98 1015.04,-1043.86 1027.58,-1039.73 1040.19,-1036.99"/>
<polygon fill="#757575" stroke="#757575" points="1041.11,-1040.38 1050.28,-1035.08 1039.8,-1033.5 1041.11,-1040.38"/>
</g>
<!-- utils/processLock.ts -->
<g id="node28" class="node">
<title>utils/processLock.ts</title>
<path fill="none" stroke="#cfffac" d="M239.83,-907.48C239.83,-907.48 121.17,-907.48 121.17,-907.48 117.33,-907.48 113.5,-903.64 113.5,-899.81 113.5,-899.81 113.5,-892.14 113.5,-892.14 113.5,-888.31 117.33,-884.48 121.17,-884.48 121.17,-884.48 239.83,-884.48 239.83,-884.48 243.67,-884.48 247.5,-888.31 247.5,-892.14 247.5,-892.14 247.5,-899.81 247.5,-899.81 247.5,-903.64 243.67,-907.48 239.83,-907.48"/>
<text text-anchor="middle" x="180.5" y="-892.28" font-family="Arial" font-size="14.00" fill="#cfffac">utils/processLock.ts</text>
</g>
<!-- main.ts&#45;&gt;utils/processLock.ts -->
<g id="edge43" class="edge">
<title>main.ts&#45;&gt;utils/processLock.ts</title>
<path fill="none" stroke="#757575" d="M33.62,-1041.46C39.1,-1015.15 56.23,-950.33 97,-916.98 99.31,-915.09 101.76,-913.37 104.32,-911.8"/>
<polygon fill="#757575" stroke="#757575" points="106.18,-914.78 113.42,-907.04 102.93,-908.58 106.18,-914.78"/>
</g>
<!-- server/AidisMcpServer.ts&#45;&gt;services/sessionTracker.ts -->
<g id="edge91" class="edge">
<title>server/AidisMcpServer.ts&#45;&gt;services/sessionTracker.ts</title>
<path fill="none" stroke="#757575" d="M253.33,-925.42C257.23,-923.06 260.84,-920.27 264,-916.98 320.51,-858.13 238.49,-790.57 300,-736.98 400.37,-649.52 465.87,-718.98 599,-718.98 599,-718.98 599,-718.98 854.5,-718.98 1031.44,-718.98 1237.8,-718.98 1356.15,-718.98"/>
<polygon fill="#757575" stroke="#757575" points="1356.28,-722.48 1366.28,-718.98 1356.28,-715.48 1356.28,-722.48"/>
</g>
<!-- server/AidisMcpServer.ts&#45;&gt;utils/logger.ts -->
<g id="edge94" class="edge">
<title>server/AidisMcpServer.ts&#45;&gt;utils/logger.ts</title>
<path fill="none" stroke="#757575" d="M188.57,-948.64C204.61,-973.85 246.6,-1032.92 300,-1054.98 366.14,-1082.29 389.5,-1057.91 461,-1054.98 493.86,-1053.63 1608.52,-963.15 1641,-957.98 1685.49,-950.89 1735.24,-938.71 1771.22,-929.12"/>
<polygon fill="#757575" stroke="#757575" points="1772.25,-932.47 1780.99,-926.49 1770.43,-925.71 1772.25,-932.47"/>
</g>
<!-- server/AidisMcpServer.ts&#45;&gt;config/database.ts -->
<g id="edge82" class="edge">
<title>server/AidisMcpServer.ts&#45;&gt;config/database.ts</title>
<path fill="none" stroke="#757575" d="M188.85,-948.75C213.45,-988.09 291.85,-1112.91 300,-1118.98 716.6,-1428.98 933.72,-1307.98 1453,-1307.98 1453,-1307.98 1453,-1307.98 1823.5,-1307.98 1883.82,-1307.98 2191.29,-1222.06 2220,-1188.98 2300.88,-1095.78 2315.27,-685.14 2317.59,-585.04"/>
<polygon fill="#757575" stroke="#757575" points="2321.09,-584.96 2317.8,-574.88 2314.09,-584.81 2321.09,-584.96"/>
</g>
<!-- server/AidisMcpServer.ts&#45;&gt;config/toolDefinitions.ts -->
<g id="edge83" class="edge">
<title>server/AidisMcpServer.ts&#45;&gt;config/toolDefinitions.ts</title>
<path fill="none" stroke="#757575" d="M264.23,-933.21C335.98,-929.95 439.46,-925.24 512.34,-921.92"/>
<polygon fill="#757575" stroke="#757575" points="512.58,-925.41 522.41,-921.46 512.26,-918.42 512.58,-925.41"/>
</g>
<!-- server/AidisMcpServer.ts&#45;&gt;handlers/project.ts -->
<g id="edge84" class="edge">
<title>server/AidisMcpServer.ts&#45;&gt;handlers/project.ts</title>
<path fill="none" stroke="#757575" d="M254.55,-925.39C258.05,-923.02 261.24,-920.24 264,-916.98 336.79,-830.9 257.1,-515.22 300,-410.98 377.6,-222.41 395.09,-62.98 599,-62.98 599,-62.98 599,-62.98 854.5,-62.98 1204.85,-62.98 1340.48,64.12 1641,-115.98 1745.65,-178.7 1798.84,-327.94 1815.56,-383.58"/>
<polygon fill="#757575" stroke="#757575" points="1812.26,-384.79 1818.42,-393.41 1818.98,-382.83 1812.26,-384.79"/>
</g>
<!-- server/AidisMcpServer.ts&#45;&gt;utils/featureFlags.ts -->
<g id="edge93" class="edge">
<title>server/AidisMcpServer.ts&#45;&gt;utils/featureFlags.ts</title>
<path fill="none" stroke="#757575" d="M232.62,-948.54C253.44,-952.93 277.79,-957.67 300,-960.98 570.6,-1001.32 895.28,-1021.68 1040.18,-1029.31"/>
<polygon fill="#757575" stroke="#757575" points="1040.13,-1032.81 1050.3,-1029.84 1040.5,-1025.82 1040.13,-1032.81"/>
</g>
<!-- middleware/requestLogger.ts -->
<g id="node29" class="node">
<title>middleware/requestLogger.ts</title>
<path fill="none" stroke="#c6c5fe" d="M687.83,-970.48C687.83,-970.48 512.17,-970.48 512.17,-970.48 508.33,-970.48 504.5,-966.64 504.5,-962.81 504.5,-962.81 504.5,-955.14 504.5,-955.14 504.5,-951.31 508.33,-947.48 512.17,-947.48 512.17,-947.48 687.83,-947.48 687.83,-947.48 691.67,-947.48 695.5,-951.31 695.5,-955.14 695.5,-955.14 695.5,-962.81 695.5,-962.81 695.5,-966.64 691.67,-970.48 687.83,-970.48"/>
<text text-anchor="middle" x="600" y="-955.28" font-family="Arial" font-size="14.00" fill="#c6c5fe">middleware/requestLogger.ts</text>
</g>
<!-- server/AidisMcpServer.ts&#45;&gt;middleware/requestLogger.ts -->
<g id="edge85" class="edge">
<title>server/AidisMcpServer.ts&#45;&gt;middleware/requestLogger.ts</title>
<path fill="none" stroke="#757575" d="M264.23,-941.34C330.17,-944.81 422.91,-949.7 494.06,-953.45"/>
<polygon fill="#757575" stroke="#757575" points="494.23,-956.96 504.4,-953.99 494.59,-949.97 494.23,-956.96"/>
</g>
<!-- middleware/validation.ts -->
<g id="node30" class="node">
<title>middleware/validation.ts</title>
<path fill="none" stroke="#cfffac" d="M453.33,-848.48C453.33,-848.48 307.67,-848.48 307.67,-848.48 303.83,-848.48 300,-844.64 300,-840.81 300,-840.81 300,-833.14 300,-833.14 300,-829.31 303.83,-825.48 307.67,-825.48 307.67,-825.48 453.33,-825.48 453.33,-825.48 457.17,-825.48 461,-829.31 461,-833.14 461,-833.14 461,-840.81 461,-840.81 461,-844.64 457.17,-848.48 453.33,-848.48"/>
<text text-anchor="middle" x="380.5" y="-833.28" font-family="Arial" font-size="14.00" fill="#cfffac">middleware/validation.ts</text>
</g>
<!-- server/AidisMcpServer.ts&#45;&gt;middleware/validation.ts -->
<g id="edge86" class="edge">
<title>server/AidisMcpServer.ts&#45;&gt;middleware/validation.ts</title>
<path fill="none" stroke="#757575" d="M249.24,-925.35C254.48,-923.04 259.48,-920.28 264,-916.98 288.81,-898.87 275.37,-876.34 300,-857.98 302.36,-856.22 304.86,-854.61 307.45,-853.13"/>
<polygon fill="#757575" stroke="#757575" points="309.19,-856.17 316.6,-848.61 306.08,-849.9 309.19,-856.17"/>
</g>
<!-- routes/index.ts -->
<g id="node34" class="node">
<title>routes/index.ts</title>
<path fill="none" stroke="#c6c5fe" d="M424.83,-443.48C424.83,-443.48 336.17,-443.48 336.17,-443.48 332.33,-443.48 328.5,-439.64 328.5,-435.81 328.5,-435.81 328.5,-428.14 328.5,-428.14 328.5,-424.31 332.33,-420.48 336.17,-420.48 336.17,-420.48 424.83,-420.48 424.83,-420.48 428.67,-420.48 432.5,-424.31 432.5,-428.14 432.5,-428.14 432.5,-435.81 432.5,-435.81 432.5,-439.64 428.67,-443.48 424.83,-443.48"/>
<text text-anchor="middle" x="380.5" y="-428.28" font-family="Arial" font-size="14.00" fill="#c6c5fe">routes/index.ts</text>
</g>
<!-- server/AidisMcpServer.ts&#45;&gt;routes/index.ts -->
<g id="edge87" class="edge">
<title>server/AidisMcpServer.ts&#45;&gt;routes/index.ts</title>
<path fill="none" stroke="#757575" d="M253.82,-925.3C257.54,-922.96 260.98,-920.21 264,-916.98 329.19,-847.09 278.6,-798.12 300,-704.98 321.84,-609.88 357.35,-498.89 372.4,-453.24"/>
<polygon fill="#757575" stroke="#757575" points="375.78,-454.15 375.61,-443.56 369.14,-451.95 375.78,-454.15"/>
</g>
<!-- server/healthServer.ts -->
<g id="node42" class="node">
<title>server/healthServer.ts</title>
<path fill="none" stroke="#c6c5fe" d="M446.83,-889.48C446.83,-889.48 314.17,-889.48 314.17,-889.48 310.33,-889.48 306.5,-885.64 306.5,-881.81 306.5,-881.81 306.5,-874.14 306.5,-874.14 306.5,-870.31 310.33,-866.48 314.17,-866.48 314.17,-866.48 446.83,-866.48 446.83,-866.48 450.67,-866.48 454.5,-870.31 454.5,-874.14 454.5,-874.14 454.5,-881.81 454.5,-881.81 454.5,-885.64 450.67,-889.48 446.83,-889.48"/>
<text text-anchor="middle" x="380.5" y="-874.28" font-family="Arial" font-size="14.00" fill="#c6c5fe">server/healthServer.ts</text>
</g>
<!-- server/AidisMcpServer.ts&#45;&gt;server/healthServer.ts -->
<g id="edge88" class="edge">
<title>server/AidisMcpServer.ts&#45;&gt;server/healthServer.ts</title>
<path fill="none" stroke="#757575" d="M232.78,-925.46C243.17,-922.87 253.98,-919.99 264,-916.98 280.29,-912.08 283.91,-909.51 300,-903.98 310.94,-900.21 322.77,-896.28 333.88,-892.63"/>
<polygon fill="#757575" stroke="#757575" points="334.99,-895.95 343.41,-889.52 332.82,-889.3 334.99,-895.95"/>
</g>
<!-- services/backgroundServices.ts -->
<g id="node43" class="node">
<title>services/backgroundServices.ts</title>
<path fill="none" stroke="#c6c5fe" d="M695.33,-1122.48C695.33,-1122.48 504.67,-1122.48 504.67,-1122.48 500.83,-1122.48 497,-1118.64 497,-1114.81 497,-1114.81 497,-1107.14 497,-1107.14 497,-1103.31 500.83,-1099.48 504.67,-1099.48 504.67,-1099.48 695.33,-1099.48 695.33,-1099.48 699.17,-1099.48 703,-1103.31 703,-1107.14 703,-1107.14 703,-1114.81 703,-1114.81 703,-1118.64 699.17,-1122.48 695.33,-1122.48"/>
<text text-anchor="middle" x="600" y="-1107.28" font-family="Arial" font-size="14.00" fill="#c6c5fe">services/backgroundServices.ts</text>
</g>
<!-- server/AidisMcpServer.ts&#45;&gt;services/backgroundServices.ts -->
<g id="edge89" class="edge">
<title>server/AidisMcpServer.ts&#45;&gt;services/backgroundServices.ts</title>
<path fill="none" stroke="#757575" d="M186.56,-948.73C200.01,-978.31 239.76,-1055.76 300,-1087.98 359.46,-1119.77 435.28,-1125.29 495.69,-1122.97"/>
<polygon fill="#757575" stroke="#757575" points="496.19,-1126.45 506.01,-1122.49 495.86,-1119.46 496.19,-1126.45"/>
</g>
<!-- services/databasePool.ts -->
<g id="node44" class="node">
<title>services/databasePool.ts</title>
<path fill="none" stroke="#cfffac" d="M675.83,-770.48C675.83,-770.48 524.17,-770.48 524.17,-770.48 520.33,-770.48 516.5,-766.64 516.5,-762.81 516.5,-762.81 516.5,-755.14 516.5,-755.14 516.5,-751.31 520.33,-747.48 524.17,-747.48 524.17,-747.48 675.83,-747.48 675.83,-747.48 679.67,-747.48 683.5,-751.31 683.5,-755.14 683.5,-755.14 683.5,-762.81 683.5,-762.81 683.5,-766.64 679.67,-770.48 675.83,-770.48"/>
<text text-anchor="middle" x="600" y="-755.28" font-family="Arial" font-size="14.00" fill="#cfffac">services/databasePool.ts</text>
</g>
<!-- server/AidisMcpServer.ts&#45;&gt;services/databasePool.ts -->
<g id="edge90" class="edge">
<title>server/AidisMcpServer.ts&#45;&gt;services/databasePool.ts</title>
<path fill="none" stroke="#757575" d="M252.66,-925.36C256.77,-923.02 260.61,-920.25 264,-916.98 306.54,-875.96 254.74,-826.97 300,-788.98 364.42,-734.9 466.29,-737.04 532.89,-746.03"/>
<polygon fill="#757575" stroke="#757575" points="532.46,-749.51 542.86,-747.47 533.46,-742.58 532.46,-749.51"/>
</g>
<!-- utils/errorHandler.ts -->
<g id="node45" class="node">
<title>utils/errorHandler.ts</title>
<path fill="none" stroke="#c6c5fe" d="M659.33,-811.48C659.33,-811.48 540.67,-811.48 540.67,-811.48 536.83,-811.48 533,-807.64 533,-803.81 533,-803.81 533,-796.14 533,-796.14 533,-792.31 536.83,-788.48 540.67,-788.48 540.67,-788.48 659.33,-788.48 659.33,-788.48 663.17,-788.48 667,-792.31 667,-796.14 667,-796.14 667,-803.81 667,-803.81 667,-807.64 663.17,-811.48 659.33,-811.48"/>
<text text-anchor="middle" x="600" y="-796.28" font-family="Arial" font-size="14.00" fill="#c6c5fe">utils/errorHandler.ts</text>
</g>
<!-- server/AidisMcpServer.ts&#45;&gt;utils/errorHandler.ts -->
<g id="edge92" class="edge">
<title>server/AidisMcpServer.ts&#45;&gt;utils/errorHandler.ts</title>
<path fill="none" stroke="#757575" d="M252,-925.28C256.32,-922.97 260.38,-920.23 264,-916.98 299.15,-885.42 262.14,-845.23 300,-816.98 333.95,-791.65 445.8,-791.67 522.64,-795.04"/>
<polygon fill="#757575" stroke="#757575" points="522.62,-798.54 532.77,-795.51 522.95,-791.55 522.62,-798.54"/>
</g>
<!-- utils/resilience.ts -->
<g id="node46" class="node">
<title>utils/resilience.ts</title>
<path fill="none" stroke="#cfffac" d="M430.83,-1045.48C430.83,-1045.48 330.17,-1045.48 330.17,-1045.48 326.33,-1045.48 322.5,-1041.64 322.5,-1037.81 322.5,-1037.81 322.5,-1030.14 322.5,-1030.14 322.5,-1026.31 326.33,-1022.48 330.17,-1022.48 330.17,-1022.48 430.83,-1022.48 430.83,-1022.48 434.67,-1022.48 438.5,-1026.31 438.5,-1030.14 438.5,-1030.14 438.5,-1037.81 438.5,-1037.81 438.5,-1041.64 434.67,-1045.48 430.83,-1045.48"/>
<text text-anchor="middle" x="380.5" y="-1030.28" font-family="Arial" font-size="14.00" fill="#cfffac">utils/resilience.ts</text>
</g>
<!-- server/AidisMcpServer.ts&#45;&gt;utils/resilience.ts -->
<g id="edge95" class="edge">
<title>server/AidisMcpServer.ts&#45;&gt;utils/resilience.ts</title>
<path fill="none" stroke="#757575" d="M198.11,-948.57C220.46,-963.78 261.81,-990.56 300,-1007.98 309.12,-1012.14 319.09,-1015.94 328.81,-1019.28"/>
<polygon fill="#757575" stroke="#757575" points="327.79,-1022.63 338.39,-1022.46 330,-1015.99 327.79,-1022.63"/>
</g>
<!-- middleware/requestLogger.ts&#45;&gt;utils/logger.ts -->
<g id="edge46" class="edge">
<title>middleware/requestLogger.ts&#45;&gt;utils/logger.ts</title>
<path fill="none" stroke="#757575" d="M695.78,-959.85C878.74,-960.87 1293.27,-960 1641,-935.98 1682.54,-933.11 1729.22,-927.62 1764.7,-922.97"/>
<polygon fill="#757575" stroke="#757575" points="1765.41,-926.4 1774.86,-921.62 1764.49,-919.47 1765.41,-926.4"/>
</g>
<!-- routes/context.routes.ts -->
<g id="node31" class="node">
<title>routes/context.routes.ts</title>
<path fill="none" stroke="#c6c5fe" d="M670.83,-566.48C670.83,-566.48 529.17,-566.48 529.17,-566.48 525.33,-566.48 521.5,-562.64 521.5,-558.81 521.5,-558.81 521.5,-551.14 521.5,-551.14 521.5,-547.31 525.33,-543.48 529.17,-543.48 529.17,-543.48 670.83,-543.48 670.83,-543.48 674.67,-543.48 678.5,-547.31 678.5,-551.14 678.5,-551.14 678.5,-558.81 678.5,-558.81 678.5,-562.64 674.67,-566.48 670.83,-566.48"/>
<text text-anchor="middle" x="600" y="-551.28" font-family="Arial" font-size="14.00" fill="#c6c5fe">routes/context.routes.ts</text>
</g>
<!-- routes/context.routes.ts&#45;&gt;api/middleware/sessionTracking.ts -->
<g id="edge47" class="edge">
<title>routes/context.routes.ts&#45;&gt;api/middleware/sessionTracking.ts</title>
<path fill="none" stroke="#757575" d="M659.39,-566.54C683.96,-571.37 712.86,-577 739,-581.98 752.02,-584.46 765.89,-587.06 779.3,-589.55"/>
<polygon fill="#757575" stroke="#757575" points="778.97,-593.05 789.44,-591.43 780.25,-586.16 778.97,-593.05"/>
</g>
<!-- routes/context.routes.ts&#45;&gt;handlers/context.ts -->
<g id="edge48" class="edge">
<title>routes/context.routes.ts&#45;&gt;handlers/context.ts</title>
<path fill="none" stroke="#757575" d="M678.69,-546.9C687.43,-543.76 695.78,-539.56 703,-533.98 731.63,-511.86 708.28,-480.08 739,-460.98 846.81,-393.94 1007.18,-440.18 1079.16,-466.8"/>
<polygon fill="#757575" stroke="#757575" points="1078.13,-470.15 1088.72,-470.41 1080.6,-463.6 1078.13,-470.15"/>
</g>
<!-- utils/mcpFormatter.ts -->
<g id="node32" class="node">
<title>utils/mcpFormatter.ts</title>
<path fill="none" stroke="#cfffac" d="M917.33,-375.48C917.33,-375.48 789.67,-375.48 789.67,-375.48 785.83,-375.48 782,-371.64 782,-367.81 782,-367.81 782,-360.14 782,-360.14 782,-356.31 785.83,-352.48 789.67,-352.48 789.67,-352.48 917.33,-352.48 917.33,-352.48 921.17,-352.48 925,-356.31 925,-360.14 925,-360.14 925,-367.81 925,-367.81 925,-371.64 921.17,-375.48 917.33,-375.48"/>
<text text-anchor="middle" x="853.5" y="-360.28" font-family="Arial" font-size="14.00" fill="#cfffac">utils/mcpFormatter.ts</text>
</g>
<!-- routes/context.routes.ts&#45;&gt;utils/mcpFormatter.ts -->
<g id="edge49" class="edge">
<title>routes/context.routes.ts&#45;&gt;utils/mcpFormatter.ts</title>
<path fill="none" stroke="#757575" d="M678.66,-548.08C687.56,-544.76 695.95,-540.2 703,-533.98 740.3,-501.05 707.24,-466.27 739,-427.98 757.34,-405.86 785.42,-389.94 809.06,-379.51"/>
<polygon fill="#757575" stroke="#757575" points="810.69,-382.62 818.54,-375.5 807.96,-376.17 810.69,-382.62"/>
</g>
<!-- routes/decisions.routes.ts -->
<g id="node33" class="node">
<title>routes/decisions.routes.ts</title>
<path fill="none" stroke="#c6c5fe" d="M677.33,-525.48C677.33,-525.48 522.67,-525.48 522.67,-525.48 518.83,-525.48 515,-521.64 515,-517.81 515,-517.81 515,-510.14 515,-510.14 515,-506.31 518.83,-502.48 522.67,-502.48 522.67,-502.48 677.33,-502.48 677.33,-502.48 681.17,-502.48 685,-506.31 685,-510.14 685,-510.14 685,-517.81 685,-517.81 685,-521.64 681.17,-525.48 677.33,-525.48"/>
<text text-anchor="middle" x="600" y="-510.28" font-family="Arial" font-size="14.00" fill="#c6c5fe">routes/decisions.routes.ts</text>
</g>
<!-- routes/decisions.routes.ts&#45;&gt;api/middleware/sessionTracking.ts -->
<g id="edge50" class="edge">
<title>routes/decisions.routes.ts&#45;&gt;api/middleware/sessionTracking.ts</title>
<path fill="none" stroke="#757575" d="M685.07,-525.15C691.36,-527.57 697.42,-530.48 703,-533.98 725.59,-548.15 716.34,-567.92 739,-581.98 742.21,-583.97 745.57,-585.78 749.03,-587.43"/>
<polygon fill="#757575" stroke="#757575" points="747.83,-590.72 758.4,-591.42 750.57,-584.28 747.83,-590.72"/>
</g>
<!-- routes/decisions.routes.ts&#45;&gt;handlers/decisions.ts -->
<g id="edge51" class="edge">
<title>routes/decisions.routes.ts&#45;&gt;handlers/decisions.ts</title>
<path fill="none" stroke="#757575" d="M685.02,-503.27C691.43,-500.52 697.53,-497.13 703,-492.98 730.86,-471.82 710.78,-443.65 739,-422.98 822.29,-361.97 872.06,-422.11 968,-383.98 985.87,-376.87 986.35,-367.6 1004,-359.98 1014.93,-355.26 1026.84,-351.33 1038.69,-348.08"/>
<polygon fill="#757575" stroke="#757575" points="1039.8,-351.41 1048.6,-345.51 1038.04,-344.63 1039.8,-351.41"/>
</g>
<!-- routes/decisions.routes.ts&#45;&gt;utils/mcpFormatter.ts -->
<g id="edge52" class="edge">
<title>routes/decisions.routes.ts&#45;&gt;utils/mcpFormatter.ts</title>
<path fill="none" stroke="#757575" d="M685.18,-504.3C691.64,-501.34 697.69,-497.62 703,-492.98 739.5,-461.05 702.86,-422.31 739,-389.98 748.39,-381.58 759.94,-375.72 772.04,-371.68"/>
<polygon fill="#757575" stroke="#757575" points="773.21,-374.98 781.82,-368.81 771.24,-368.26 773.21,-374.98"/>
</g>
<!-- routes/index.ts&#45;&gt;routes/context.routes.ts -->
<g id="edge53" class="edge">
<title>routes/index.ts&#45;&gt;routes/context.routes.ts</title>
<path fill="none" stroke="#757575" d="M390.93,-443.61C409.06,-465.13 451.05,-511.03 497,-533.98 501.63,-536.29 506.51,-538.35 511.51,-540.18"/>
<polygon fill="#757575" stroke="#757575" points="510.66,-543.59 521.25,-543.43 512.87,-536.95 510.66,-543.59"/>
</g>
<!-- routes/index.ts&#45;&gt;utils/mcpFormatter.ts -->
<g id="edge62" class="edge">
<title>routes/index.ts&#45;&gt;utils/mcpFormatter.ts</title>
<path fill="none" stroke="#757575" d="M389.71,-420.4C406.65,-397.63 448.04,-347.64 497,-328.98 605.59,-287.59 745.68,-325.54 812.97,-348.86"/>
<polygon fill="#757575" stroke="#757575" points="812.15,-352.28 822.75,-352.32 814.49,-345.69 812.15,-352.28"/>
</g>
<!-- routes/index.ts&#45;&gt;routes/decisions.routes.ts -->
<g id="edge54" class="edge">
<title>routes/index.ts&#45;&gt;routes/decisions.routes.ts</title>
<path fill="none" stroke="#757575" d="M399.56,-443.6C421.69,-457.33 460.71,-479.96 497,-492.98 504.3,-495.6 512.02,-497.93 519.8,-499.99"/>
<polygon fill="#757575" stroke="#757575" points="519.13,-503.43 529.68,-502.47 520.83,-496.64 519.13,-503.43"/>
</g>
<!-- routes/naming.routes.ts -->
<g id="node35" class="node">
<title>routes/naming.routes.ts</title>
<path fill="none" stroke="#c6c5fe" d="M671.33,-402.48C671.33,-402.48 528.67,-402.48 528.67,-402.48 524.83,-402.48 521,-398.64 521,-394.81 521,-394.81 521,-387.14 521,-387.14 521,-383.31 524.83,-379.48 528.67,-379.48 528.67,-379.48 671.33,-379.48 671.33,-379.48 675.17,-379.48 679,-383.31 679,-387.14 679,-387.14 679,-394.81 679,-394.81 679,-398.64 675.17,-402.48 671.33,-402.48"/>
<text text-anchor="middle" x="600" y="-387.28" font-family="Arial" font-size="14.00" fill="#c6c5fe">routes/naming.routes.ts</text>
</g>
<!-- routes/index.ts&#45;&gt;routes/naming.routes.ts -->
<g id="edge55" class="edge">
<title>routes/index.ts&#45;&gt;routes/naming.routes.ts</title>
<path fill="none" stroke="#757575" d="M432.77,-422.31C461.1,-416.97 496.74,-410.25 527.74,-404.41"/>
<polygon fill="#757575" stroke="#757575" points="528.45,-407.84 537.63,-402.55 527.15,-400.96 528.45,-407.84"/>
</g>
<!-- routes/patterns.routes.ts -->
<g id="node36" class="node">
<title>routes/patterns.routes.ts</title>
<path fill="none" stroke="#c6c5fe" d="M673.33,-361.48C673.33,-361.48 526.67,-361.48 526.67,-361.48 522.83,-361.48 519,-357.64 519,-353.81 519,-353.81 519,-346.14 519,-346.14 519,-342.31 522.83,-338.48 526.67,-338.48 526.67,-338.48 673.33,-338.48 673.33,-338.48 677.17,-338.48 681,-342.31 681,-346.14 681,-346.14 681,-353.81 681,-353.81 681,-357.64 677.17,-361.48 673.33,-361.48"/>
<text text-anchor="middle" x="600" y="-346.28" font-family="Arial" font-size="14.00" fill="#c6c5fe">routes/patterns.routes.ts</text>
</g>
<!-- routes/index.ts&#45;&gt;routes/patterns.routes.ts -->
<g id="edge56" class="edge">
<title>routes/index.ts&#45;&gt;routes/patterns.routes.ts</title>
<path fill="none" stroke="#757575" d="M399.12,-420.34C421.13,-406.34 460.35,-383.07 497,-369.98 503.22,-367.75 509.75,-365.76 516.37,-363.97"/>
<polygon fill="#757575" stroke="#757575" points="517.28,-367.35 526.11,-361.49 515.56,-360.56 517.28,-367.35"/>
</g>
<!-- routes/project.routes.ts -->
<g id="node37" class="node">
<title>routes/project.routes.ts</title>
<path fill="none" stroke="#c6c5fe" d="M669.33,-281.48C669.33,-281.48 530.67,-281.48 530.67,-281.48 526.83,-281.48 523,-277.64 523,-273.81 523,-273.81 523,-266.14 523,-266.14 523,-262.31 526.83,-258.48 530.67,-258.48 530.67,-258.48 669.33,-258.48 669.33,-258.48 673.17,-258.48 677,-262.31 677,-266.14 677,-266.14 677,-273.81 677,-273.81 677,-277.64 673.17,-281.48 669.33,-281.48"/>
<text text-anchor="middle" x="600" y="-266.28" font-family="Arial" font-size="14.00" fill="#c6c5fe">routes/project.routes.ts</text>
</g>
<!-- routes/index.ts&#45;&gt;routes/project.routes.ts -->
<g id="edge57" class="edge">
<title>routes/index.ts&#45;&gt;routes/project.routes.ts</title>
<path fill="none" stroke="#757575" d="M387.89,-420.41C403.1,-393.99 444.19,-328.95 497,-295.98 504.07,-291.56 511.87,-287.89 519.9,-284.84"/>
<polygon fill="#757575" stroke="#757575" points="521.11,-288.13 529.41,-281.55 518.82,-281.52 521.11,-288.13"/>
</g>
<!-- routes/search.routes.ts -->
<g id="node38" class="node">
<title>routes/search.routes.ts</title>
<path fill="none" stroke="#c6c5fe" d="M669.33,-234.48C669.33,-234.48 530.67,-234.48 530.67,-234.48 526.83,-234.48 523,-230.64 523,-226.81 523,-226.81 523,-219.14 523,-219.14 523,-215.31 526.83,-211.48 530.67,-211.48 530.67,-211.48 669.33,-211.48 669.33,-211.48 673.17,-211.48 677,-215.31 677,-219.14 677,-219.14 677,-226.81 677,-226.81 677,-230.64 673.17,-234.48 669.33,-234.48"/>
<text text-anchor="middle" x="600" y="-219.28" font-family="Arial" font-size="14.00" fill="#c6c5fe">routes/search.routes.ts</text>
</g>
<!-- routes/index.ts&#45;&gt;routes/search.routes.ts -->
<g id="edge58" class="edge">
<title>routes/index.ts&#45;&gt;routes/search.routes.ts</title>
<path fill="none" stroke="#757575" d="M385.33,-420.41C396.7,-387.91 433.49,-295.15 497,-248.98 502.84,-244.73 509.31,-241.17 516.08,-238.2"/>
<polygon fill="#757575" stroke="#757575" points="517.44,-241.42 525.46,-234.49 514.87,-234.91 517.44,-241.42"/>
</g>
<!-- routes/sessions.routes.ts -->
<g id="node39" class="node">
<title>routes/sessions.routes.ts</title>
<path fill="none" stroke="#c6c5fe" d="M675.33,-443.48C675.33,-443.48 524.67,-443.48 524.67,-443.48 520.83,-443.48 517,-439.64 517,-435.81 517,-435.81 517,-428.14 517,-428.14 517,-424.31 520.83,-420.48 524.67,-420.48 524.67,-420.48 675.33,-420.48 675.33,-420.48 679.17,-420.48 683,-424.31 683,-428.14 683,-428.14 683,-435.81 683,-435.81 683,-439.64 679.17,-443.48 675.33,-443.48"/>
<text text-anchor="middle" x="600" y="-428.28" font-family="Arial" font-size="14.00" fill="#c6c5fe">routes/sessions.routes.ts</text>
</g>
<!-- routes/index.ts&#45;&gt;routes/sessions.routes.ts -->
<g id="edge59" class="edge">
<title>routes/index.ts&#45;&gt;routes/sessions.routes.ts</title>
<path fill="none" stroke="#757575" d="M432.77,-431.98C454.74,-431.98 481.09,-431.98 506.28,-431.98"/>
<polygon fill="#757575" stroke="#757575" points="506.6,-435.48 516.6,-431.98 506.6,-428.48 506.6,-435.48"/>
</g>
<!-- routes/system.routes.ts -->
<g id="node40" class="node">
<title>routes/system.routes.ts</title>
<path fill="none" stroke="#c6c5fe" d="M670.83,-484.48C670.83,-484.48 529.17,-484.48 529.17,-484.48 525.33,-484.48 521.5,-480.64 521.5,-476.81 521.5,-476.81 521.5,-469.14 521.5,-469.14 521.5,-465.31 525.33,-461.48 529.17,-461.48 529.17,-461.48 670.83,-461.48 670.83,-461.48 674.67,-461.48 678.5,-465.31 678.5,-469.14 678.5,-469.14 678.5,-476.81 678.5,-476.81 678.5,-480.64 674.67,-484.48 670.83,-484.48"/>
<text text-anchor="middle" x="600" y="-469.28" font-family="Arial" font-size="14.00" fill="#c6c5fe">routes/system.routes.ts</text>
</g>
<!-- routes/index.ts&#45;&gt;routes/system.routes.ts -->
<g id="edge60" class="edge">
<title>routes/index.ts&#45;&gt;routes/system.routes.ts</title>
<path fill="none" stroke="#757575" d="M432.77,-441.64C461.1,-446.98 496.74,-453.7 527.74,-459.54"/>
<polygon fill="#757575" stroke="#757575" points="527.15,-463 537.63,-461.41 528.45,-456.12 527.15,-463"/>
</g>
<!-- routes/tasks.routes.ts -->
<g id="node41" class="node">
<title>routes/tasks.routes.ts</title>
<path fill="none" stroke="#c6c5fe" d="M664.83,-614.48C664.83,-614.48 535.17,-614.48 535.17,-614.48 531.33,-614.48 527.5,-610.64 527.5,-606.81 527.5,-606.81 527.5,-599.14 527.5,-599.14 527.5,-595.31 531.33,-591.48 535.17,-591.48 535.17,-591.48 664.83,-591.48 664.83,-591.48 668.67,-591.48 672.5,-595.31 672.5,-599.14 672.5,-599.14 672.5,-606.81 672.5,-606.81 672.5,-610.64 668.67,-614.48 664.83,-614.48"/>
<text text-anchor="middle" x="600" y="-599.28" font-family="Arial" font-size="14.00" fill="#c6c5fe">routes/tasks.routes.ts</text>
</g>
<!-- routes/index.ts&#45;&gt;routes/tasks.routes.ts -->
<g id="edge61" class="edge">
<title>routes/index.ts&#45;&gt;routes/tasks.routes.ts</title>
<path fill="none" stroke="#757575" d="M387.55,-443.67C402.33,-471.05 443.07,-539.67 497,-574.98 505.18,-580.33 514.37,-584.67 523.8,-588.19"/>
<polygon fill="#757575" stroke="#757575" points="522.68,-591.5 533.28,-591.43 524.95,-584.88 522.68,-591.5"/>
</g>
<!-- routes/naming.routes.ts&#45;&gt;api/middleware/sessionTracking.ts -->
<g id="edge63" class="edge">
<title>routes/naming.routes.ts&#45;&gt;api/middleware/sessionTracking.ts</title>
<path fill="none" stroke="#757575" d="M679.1,-396.19C687.99,-399.56 696.25,-404.33 703,-410.98 758.3,-465.51 683.41,-527.74 739,-581.98 740.28,-583.23 741.61,-584.42 742.99,-585.55"/>
<polygon fill="#757575" stroke="#757575" points="741.11,-588.51 751.3,-591.39 745.14,-582.78 741.11,-588.51"/>
</g>
<!-- routes/naming.routes.ts&#45;&gt;handlers/naming.ts -->
<g id="edge64" class="edge">
<title>routes/naming.routes.ts&#45;&gt;handlers/naming.ts</title>
<path fill="none" stroke="#757575" d="M676.3,-379.43C685.49,-376.88 694.59,-373.76 703,-369.98 721.23,-361.76 721.32,-352.32 739,-342.98 958.22,-227.17 1025.81,-220.4 1267,-162.98 1303.08,-154.39 1343.81,-148.3 1377.94,-144.18"/>
<polygon fill="#757575" stroke="#757575" points="1378.78,-147.61 1388.31,-142.97 1377.97,-140.66 1378.78,-147.61"/>
</g>
<!-- routes/naming.routes.ts&#45;&gt;utils/mcpFormatter.ts -->
<g id="edge65" class="edge">
<title>routes/naming.routes.ts&#45;&gt;utils/mcpFormatter.ts</title>
<path fill="none" stroke="#757575" d="M679.2,-382.58C708.48,-379.44 741.79,-375.86 771.33,-372.69"/>
<polygon fill="#757575" stroke="#757575" points="772.04,-376.13 781.61,-371.59 771.3,-369.17 772.04,-376.13"/>
</g>
<!-- routes/patterns.routes.ts&#45;&gt;handlers/patterns/patternAnalyze.ts -->
<g id="edge66" class="edge">
<title>routes/patterns.routes.ts&#45;&gt;handlers/patterns/patternAnalyze.ts</title>
<path fill="none" stroke="#757575" d="M679.26,-361.54C687.44,-363.86 695.5,-366.64 703,-369.98 755.37,-393.26 806.68,-437.77 833.43,-463.1"/>
<polygon fill="#757575" stroke="#757575" points="831.29,-465.9 840.92,-470.31 836.14,-460.85 831.29,-465.9"/>
</g>
<!-- routes/patterns.routes.ts&#45;&gt;handlers/patterns/patternInsights.ts -->
<g id="edge67" class="edge">
<title>routes/patterns.routes.ts&#45;&gt;handlers/patterns/patternInsights.ts</title>
<path fill="none" stroke="#757575" d="M681.26,-341.1C767.36,-331.58 904.81,-316.38 1002.19,-305.62"/>
<polygon fill="#757575" stroke="#757575" points="1002.82,-309.07 1012.37,-304.49 1002.05,-302.11 1002.82,-309.07"/>
</g>
<!-- routes/patterns.routes.ts&#45;&gt;utils/mcpFormatter.ts -->
<g id="edge68" class="edge">
<title>routes/patterns.routes.ts&#45;&gt;utils/mcpFormatter.ts</title>
<path fill="none" stroke="#757575" d="M681.27,-354.45C710.2,-356.06 742.85,-357.87 771.82,-359.49"/>
<polygon fill="#757575" stroke="#757575" points="771.72,-362.99 781.9,-360.05 772.11,-356 771.72,-362.99"/>
</g>
<!-- routes/project.routes.ts&#45;&gt;handlers/project.ts -->
<g id="edge69" class="edge">
<title>routes/project.routes.ts&#45;&gt;handlers/project.ts</title>
<path fill="none" stroke="#757575" d="M677.21,-263.01C851.63,-249.43 1291.77,-228.66 1641,-325.98 1696.12,-341.34 1756.27,-370.35 1791.35,-388.62"/>
<polygon fill="#757575" stroke="#757575" points="1790.07,-391.9 1800.55,-393.47 1793.33,-385.71 1790.07,-391.9"/>
</g>
<!-- routes/project.routes.ts&#45;&gt;utils/mcpFormatter.ts -->
<g id="edge70" class="edge">
<title>routes/project.routes.ts&#45;&gt;utils/mcpFormatter.ts</title>
<path fill="none" stroke="#757575" d="M653.68,-281.51C669.7,-285.53 687.23,-290.43 703,-295.98 744.99,-310.75 791.36,-332.79 821.15,-347.74"/>
<polygon fill="#757575" stroke="#757575" points="819.72,-350.94 830.22,-352.33 822.88,-344.69 819.72,-350.94"/>
</g>
<!-- routes/search.routes.ts&#45;&gt;handlers/project.ts -->
<g id="edge71" class="edge">
<title>routes/search.routes.ts&#45;&gt;handlers/project.ts</title>
<path fill="none" stroke="#757575" d="M667.96,-211.43C837.4,-185.13 1294.34,-132.49 1641,-260.98 1711.69,-287.18 1775.93,-352.6 1805.05,-385.47"/>
<polygon fill="#757575" stroke="#757575" points="1802.47,-387.84 1811.67,-393.08 1807.75,-383.24 1802.47,-387.84"/>
</g>
<!-- routes/search.routes.ts&#45;&gt;handlers/smartSearch.ts -->
<g id="edge72" class="edge">
<title>routes/search.routes.ts&#45;&gt;handlers/smartSearch.ts</title>
<path fill="none" stroke="#757575" d="M643.1,-211.43C686.35,-199.56 753.76,-181.07 800.36,-168.28"/>
<polygon fill="#757575" stroke="#757575" points="801.55,-171.59 810.27,-165.56 799.7,-164.83 801.55,-171.59"/>
</g>
<!-- routes/search.routes.ts&#45;&gt;utils/mcpFormatter.ts -->
<g id="edge73" class="edge">
<title>routes/search.routes.ts&#45;&gt;utils/mcpFormatter.ts</title>
<path fill="none" stroke="#757575" d="M663.11,-234.53C676.63,-238.21 690.59,-242.94 703,-248.98 755.04,-274.29 806.47,-319.45 833.34,-345"/>
<polygon fill="#757575" stroke="#757575" points="831.23,-347.83 840.86,-352.26 836.09,-342.8 831.23,-347.83"/>
</g>
<!-- routes/sessions.routes.ts&#45;&gt;handlers/sessionAnalytics.ts -->
<g id="edge74" class="edge">
<title>routes/sessions.routes.ts&#45;&gt;handlers/sessionAnalytics.ts</title>
<path fill="none" stroke="#757575" d="M683.07,-442.25C690.09,-444.83 696.85,-448.03 703,-451.98 726.05,-466.76 715.77,-487.48 739,-501.98 826.6,-556.62 868.59,-513.1 968,-540.98 1008.44,-552.32 1052.98,-570.88 1082.63,-584.15"/>
<polygon fill="#757575" stroke="#757575" points="1081.53,-587.5 1092.09,-588.44 1084.42,-581.12 1081.53,-587.5"/>
</g>
<!-- routes/sessions.routes.ts&#45;&gt;utils/mcpFormatter.ts -->
<g id="edge75" class="edge">
<title>routes/sessions.routes.ts&#45;&gt;utils/mcpFormatter.ts</title>
<path fill="none" stroke="#757575" d="M672.09,-420.45C682.62,-417.85 693.21,-414.73 703,-410.98 720.3,-404.36 721.78,-396.79 739,-389.98 750.98,-385.24 764.04,-381.25 776.89,-377.92"/>
<polygon fill="#757575" stroke="#757575" points="777.78,-381.31 786.65,-375.51 776.1,-374.51 777.78,-381.31"/>
</g>
<!-- routes/system.routes.ts&#45;&gt;handlers/navigation.ts -->
<g id="edge76" class="edge">
<title>routes/system.routes.ts&#45;&gt;handlers/navigation.ts</title>
<path fill="none" stroke="#757575" d="M678.55,-482.32C687.12,-485.04 695.47,-488.53 703,-492.98 724.46,-505.66 717.74,-522.96 739,-535.98 748.31,-541.68 758.73,-546.13 769.39,-549.6"/>
<polygon fill="#757575" stroke="#757575" points="768.64,-553.03 779.23,-552.53 770.64,-546.32 768.64,-553.03"/>
</g>
<!-- routes/system.routes.ts&#45;&gt;utils/mcpFormatter.ts -->
<g id="edge77" class="edge">
<title>routes/system.routes.ts&#45;&gt;utils/mcpFormatter.ts</title>
<path fill="none" stroke="#757575" d="M678.59,-464.33C687.3,-461.28 695.66,-457.26 703,-451.98 728.86,-433.36 713.35,-408.88 739,-389.98 748.73,-382.81 760.1,-377.57 771.82,-373.76"/>
<polygon fill="#757575" stroke="#757575" points="773.09,-377.03 781.71,-370.87 771.13,-370.31 773.09,-377.03"/>
</g>
<!-- routes/tasks.routes.ts&#45;&gt;api/middleware/sessionTracking.ts -->
<g id="edge78" class="edge">
<title>routes/tasks.routes.ts&#45;&gt;api/middleware/sessionTracking.ts</title>
<path fill="none" stroke="#757575" d="M672.73,-602.98C690.99,-602.98 711.13,-602.98 731.11,-602.98"/>
<polygon fill="#757575" stroke="#757575" points="731.22,-606.48 741.22,-602.98 731.22,-599.48 731.22,-606.48"/>
</g>
<!-- routes/tasks.routes.ts&#45;&gt;handlers/project.ts -->
<g id="edge79" class="edge">
<title>routes/tasks.routes.ts&#45;&gt;handlers/project.ts</title>
<path fill="none" stroke="#757575" d="M655.74,-614.55C746.15,-632.28 921.34,-660.41 968,-622.98 1025.53,-576.83 950.3,-511.53 1004,-460.98 1057.56,-410.56 1558.15,-405.05 1748.51,-404.8"/>
<polygon fill="#757575" stroke="#757575" points="1748.7,-408.3 1758.7,-404.79 1748.69,-401.3 1748.7,-408.3"/>
</g>
<!-- routes/tasks.routes.ts&#45;&gt;handlers/tasks.ts -->
<g id="edge80" class="edge">
<title>routes/tasks.routes.ts&#45;&gt;handlers/tasks.ts</title>
<path fill="none" stroke="#757575" d="M623.18,-614.66C649.82,-627.96 696.27,-648.92 739,-656.98 845.72,-677.11 972.3,-664.51 1048.41,-653.1"/>
<polygon fill="#757575" stroke="#757575" points="1049,-656.55 1058.35,-651.57 1047.94,-649.63 1049,-656.55"/>
</g>
<!-- routes/tasks.routes.ts&#45;&gt;utils/mcpFormatter.ts -->
<g id="edge81" class="edge">
<title>routes/tasks.routes.ts&#45;&gt;utils/mcpFormatter.ts</title>
<path fill="none" stroke="#757575" d="M672.51,-593.2C683.76,-589.04 694.47,-583.19 703,-574.98 741.28,-538.13 709.67,-505.28 739,-460.98 761.4,-427.14 798.84,-398.42 824.56,-381.2"/>
<polygon fill="#757575" stroke="#757575" points="826.67,-384.01 833.12,-375.61 822.84,-378.15 826.67,-384.01"/>
</g>
<!-- server/healthServer.ts&#45;&gt;utils/logger.ts -->
<g id="edge100" class="edge">
<title>server/healthServer.ts&#45;&gt;utils/logger.ts</title>
<path fill="none" stroke="#757575" d="M454.6,-877.6C519.77,-877.35 617.74,-877.2 703,-877.98 1119.94,-881.76 1224.9,-868.21 1641,-894.98 1682.52,-897.65 1729.2,-902.88 1764.69,-907.32"/>
<polygon fill="#757575" stroke="#757575" points="1764.49,-910.83 1774.86,-908.61 1765.38,-903.88 1764.49,-910.83"/>
</g>
<!-- server/healthServer.ts&#45;&gt;config/toolDefinitions.ts -->
<g id="edge96" class="edge">
<title>server/healthServer.ts&#45;&gt;config/toolDefinitions.ts</title>
<path fill="none" stroke="#757575" d="M444.12,-889.49C469.82,-894.22 499.75,-899.72 526.41,-904.63"/>
<polygon fill="#757575" stroke="#757575" points="525.98,-908.11 536.45,-906.47 527.25,-901.22 525.98,-908.11"/>
</g>
<!-- server/healthServer.ts&#45;&gt;middleware/requestLogger.ts -->
<g id="edge97" class="edge">
<title>server/healthServer.ts&#45;&gt;middleware/requestLogger.ts</title>
<path fill="none" stroke="#757575" d="M399.54,-889.65C421.65,-903.45 460.65,-926.13 497,-938.98 503.29,-941.2 509.88,-943.2 516.57,-944.99"/>
<polygon fill="#757575" stroke="#757575" points="515.86,-948.42 526.41,-947.47 517.57,-941.63 515.86,-948.42"/>
</g>
<!-- server/healthServer.ts&#45;&gt;services/databasePool.ts -->
<g id="edge98" class="edge">
<title>server/healthServer.ts&#45;&gt;services/databasePool.ts</title>
<path fill="none" stroke="#757575" d="M447.99,-866.3C452.65,-863.99 457.06,-861.25 461,-857.98 490.39,-833.6 467.09,-803.71 497,-779.98 500.18,-777.46 503.58,-775.22 507.14,-773.23"/>
<polygon fill="#757575" stroke="#757575" points="508.83,-776.3 516.3,-768.78 505.77,-770 508.83,-776.3"/>
</g>
<!-- server/healthServer.ts&#45;&gt;utils/errorHandler.ts -->
<g id="edge99" class="edge">
<title>server/healthServer.ts&#45;&gt;utils/errorHandler.ts</title>
<path fill="none" stroke="#757575" d="M440.87,-866.43C447.84,-864.1 454.71,-861.3 461,-857.98 479.92,-847.97 478.09,-836.02 497,-825.98 505.66,-821.38 515.16,-817.57 524.78,-814.42"/>
<polygon fill="#757575" stroke="#757575" points="525.87,-817.74 534.41,-811.48 523.82,-811.05 525.87,-817.74"/>
</g>
<!-- utils/portManager.ts -->
<g id="node47" class="node">
<title>utils/portManager.ts</title>
<path fill="none" stroke="#c6c5fe" d="M1513.83,-926.48C1513.83,-926.48 1394.17,-926.48 1394.17,-926.48 1390.33,-926.48 1386.5,-922.64 1386.5,-918.81 1386.5,-918.81 1386.5,-911.14 1386.5,-911.14 1386.5,-907.31 1390.33,-903.48 1394.17,-903.48 1394.17,-903.48 1513.83,-903.48 1513.83,-903.48 1517.67,-903.48 1521.5,-907.31 1521.5,-911.14 1521.5,-911.14 1521.5,-918.81 1521.5,-918.81 1521.5,-922.64 1517.67,-926.48 1513.83,-926.48"/>
<text text-anchor="middle" x="1454" y="-911.28" font-family="Arial" font-size="14.00" fill="#c6c5fe">utils/portManager.ts</text>
</g>
<!-- server/healthServer.ts&#45;&gt;utils/portManager.ts -->
<g id="edge101" class="edge">
<title>server/healthServer.ts&#45;&gt;utils/portManager.ts</title>
<path fill="none" stroke="#757575" d="M454.73,-880.51C649.32,-887.23 1177.93,-905.48 1376.36,-912.33"/>
<polygon fill="#757575" stroke="#757575" points="1376.29,-915.83 1386.41,-912.68 1376.54,-908.83 1376.29,-915.83"/>
</g>
<!-- services/backgroundServices.ts&#45;&gt;utils/logger.ts -->
<g id="edge106" class="edge">
<title>services/backgroundServices.ts&#45;&gt;utils/logger.ts</title>
<path fill="none" stroke="#757575" d="M703.28,-1113.97C892.77,-1116.65 1309.31,-1109.04 1641,-1006.98 1699.08,-989.11 1760.97,-953.46 1795.08,-932.17"/>
<polygon fill="#757575" stroke="#757575" points="1797.35,-934.87 1803.94,-926.57 1793.61,-928.95 1797.35,-934.87"/>
</g>
<!-- services/backgroundServices.ts&#45;&gt;services/patternDetector.ts -->
<g id="edge103" class="edge">
<title>services/backgroundServices.ts&#45;&gt;services/patternDetector.ts</title>
<path fill="none" stroke="#757575" d="M617.86,-1099.47C693.34,-1047.92 1000.52,-838.17 1091.19,-776.26"/>
<polygon fill="#757575" stroke="#757575" points="1093.23,-779.11 1099.51,-770.58 1089.28,-773.33 1093.23,-779.11"/>
</g>
<!-- services/gitTracker.ts -->
<g id="node48" class="node">
<title>services/gitTracker.ts</title>
<path fill="none" stroke="#c6c5fe" d="M917.33,-1238.48C917.33,-1238.48 789.67,-1238.48 789.67,-1238.48 785.83,-1238.48 782,-1234.64 782,-1230.81 782,-1230.81 782,-1223.14 782,-1223.14 782,-1219.31 785.83,-1215.48 789.67,-1215.48 789.67,-1215.48 917.33,-1215.48 917.33,-1215.48 921.17,-1215.48 925,-1219.31 925,-1223.14 925,-1223.14 925,-1230.81 925,-1230.81 925,-1234.64 921.17,-1238.48 917.33,-1238.48"/>
<text text-anchor="middle" x="853.5" y="-1223.28" font-family="Arial" font-size="14.00" fill="#c6c5fe">services/gitTracker.ts</text>
</g>
<!-- services/backgroundServices.ts&#45;&gt;services/gitTracker.ts -->
<g id="edge102" class="edge">
<title>services/backgroundServices.ts&#45;&gt;services/gitTracker.ts</title>
<path fill="none" stroke="#757575" d="M675.88,-1122.49C685.6,-1126.09 694.95,-1130.81 703,-1136.98 728.9,-1156.83 712.86,-1181.44 739,-1200.98 748.74,-1208.26 760.17,-1213.55 771.96,-1217.39"/>
<polygon fill="#757575" stroke="#757575" points="771.34,-1220.86 781.92,-1220.29 773.29,-1214.13 771.34,-1220.86"/>
</g>
<!-- services/queueManager.ts -->
<g id="node49" class="node">
<title>services/queueManager.ts</title>
<path fill="none" stroke="#c6c5fe" d="M933.33,-1082.48C933.33,-1082.48 773.67,-1082.48 773.67,-1082.48 769.83,-1082.48 766,-1078.64 766,-1074.81 766,-1074.81 766,-1067.14 766,-1067.14 766,-1063.31 769.83,-1059.48 773.67,-1059.48 773.67,-1059.48 933.33,-1059.48 933.33,-1059.48 937.17,-1059.48 941,-1063.31 941,-1067.14 941,-1067.14 941,-1074.81 941,-1074.81 941,-1078.64 937.17,-1082.48 933.33,-1082.48"/>
<text text-anchor="middle" x="853.5" y="-1067.28" font-family="Arial" font-size="14.00" fill="#c6c5fe">services/queueManager.ts</text>
</g>
<!-- services/backgroundServices.ts&#45;&gt;services/queueManager.ts -->
<g id="edge104" class="edge">
<title>services/backgroundServices.ts&#45;&gt;services/queueManager.ts</title>
<path fill="none" stroke="#757575" d="M673.41,-1099.46C703.65,-1094.65 738.96,-1089.04 770.18,-1084.07"/>
<polygon fill="#757575" stroke="#757575" points="770.84,-1087.51 780.17,-1082.48 769.74,-1080.6 770.84,-1087.51"/>
</g>
<!-- services/sessionTimeout.ts -->
<g id="node50" class="node">
<title>services/sessionTimeout.ts</title>
<path fill="none" stroke="#c6c5fe" d="M2193.83,-986.48C2193.83,-986.48 2030.17,-986.48 2030.17,-986.48 2026.33,-986.48 2022.5,-982.64 2022.5,-978.81 2022.5,-978.81 2022.5,-971.14 2022.5,-971.14 2022.5,-967.31 2026.33,-963.48 2030.17,-963.48 2030.17,-963.48 2193.83,-963.48 2193.83,-963.48 2197.67,-963.48 2201.5,-967.31 2201.5,-971.14 2201.5,-971.14 2201.5,-978.81 2201.5,-978.81 2201.5,-982.64 2197.67,-986.48 2193.83,-986.48"/>
<text text-anchor="middle" x="2112" y="-971.28" font-family="Arial" font-size="14.00" fill="#c6c5fe">services/sessionTimeout.ts</text>
</g>
<!-- services/backgroundServices.ts&#45;&gt;services/sessionTimeout.ts -->
<g id="edge105" class="edge">
<title>services/backgroundServices.ts&#45;&gt;services/sessionTimeout.ts</title>
<path fill="none" stroke="#757575" d="M694.05,-1122.48C709.06,-1123.93 724.44,-1125.19 739,-1125.98 840.63,-1131.48 866.26,-1128.68 968,-1125.98 1268.48,-1117.99 1343.91,-1104.7 1641,-1058.98 1783.93,-1036.98 1950.33,-1005.95 2041.83,-988.42"/>
<polygon fill="#757575" stroke="#757575" points="2042.64,-991.83 2051.8,-986.51 2041.32,-984.95 2042.64,-991.83"/>
</g>
<!-- utils/errorHandler.ts&#45;&gt;utils/logger.ts -->
<g id="edge124" class="edge">
<title>utils/errorHandler.ts&#45;&gt;utils/logger.ts</title>
<path fill="none" stroke="#757575" d="M667.28,-801.85C865.65,-807.79 1452.64,-827.74 1641,-860.98 1690.17,-869.65 1744.88,-887.18 1781.04,-899.92"/>
<polygon fill="#757575" stroke="#757575" points="1780.13,-903.31 1790.73,-903.38 1782.48,-896.72 1780.13,-903.31"/>
</g>
<!-- utils/portManager.ts&#45;&gt;utils/logger.ts -->
<g id="edge125" class="edge">
<title>utils/portManager.ts&#45;&gt;utils/logger.ts</title>
<path fill="none" stroke="#757575" d="M1521.8,-914.98C1591.37,-914.98 1699.18,-914.98 1764.77,-914.98"/>
<polygon fill="#757575" stroke="#757575" points="1764.92,-918.48 1774.92,-914.98 1764.92,-911.48 1764.92,-918.48"/>
</g>
<!-- services/gitTracker.ts&#45;&gt;../../aidis&#45;command/backend/dist/services/sessionDetail.d.ts -->
<g id="edge107" class="edge">
<title>services/gitTracker.ts&#45;&gt;../../aidis&#45;command/backend/dist/services/sessionDetail.d.ts</title>
<path fill="none" stroke="#757575" d="M925.06,-1238.29C949.95,-1241.91 978.16,-1245.59 1004,-1247.98 1086.61,-1255.6 1178.06,-1260.34 1256.75,-1263.28"/>
<polygon fill="#757575" stroke="#757575" points="1256.65,-1266.78 1266.77,-1263.65 1256.91,-1259.78 1256.65,-1266.78"/>
</g>
<!-- services/gitTracker.ts&#45;&gt;services/sessionTracker.ts -->
<g id="edge111" class="edge">
<title>services/gitTracker.ts&#45;&gt;services/sessionTracker.ts</title>
<path fill="none" stroke="#757575" d="M883.39,-1215.43C967.4,-1181.63 1207.13,-1083.42 1231,-1053.98 1276.64,-997.7 1231.13,-957.93 1267,-894.98 1307.39,-824.08 1385.47,-764.38 1426.43,-736.26"/>
<polygon fill="#757575" stroke="#757575" points="1428.5,-739.09 1434.82,-730.59 1424.58,-733.29 1428.5,-739.09"/>
</g>
<!-- services/gitTracker.ts&#45;&gt;config/database.ts -->
<g id="edge108" class="edge">
<title>services/gitTracker.ts&#45;&gt;config/database.ts</title>
<path fill="none" stroke="#757575" d="M925.08,-1217.27C1198.1,-1179.42 2172.19,-1041.65 2220,-995.98 2280.69,-938.01 2309.05,-665.29 2316.16,-585.16"/>
<polygon fill="#757575" stroke="#757575" points="2319.68,-585.05 2317.05,-574.79 2312.71,-584.45 2319.68,-585.05"/>
</g>
<!-- services/gitTracker.ts&#45;&gt;middleware/eventLogger.ts -->
<g id="edge110" class="edge">
<title>services/gitTracker.ts&#45;&gt;middleware/eventLogger.ts</title>
<path fill="none" stroke="#757575" d="M868.89,-1215.44C894.23,-1194.15 946.17,-1145.91 968,-1091.98 989.44,-1039.01 962.91,-618.68 1004,-578.98 1052.1,-532.5 1237.27,-541.12 1354.26,-551.87"/>
<polygon fill="#757575" stroke="#757575" points="1354.03,-555.36 1364.31,-552.81 1354.68,-548.39 1354.03,-555.36"/>
</g>
<!-- services/gitTracker.ts&#45;&gt;handlers/git.ts -->
<g id="edge109" class="edge">
<title>services/gitTracker.ts&#45;&gt;handlers/git.ts</title>
<path fill="none" stroke="#757575" d="M925.06,-1226.98C966.24,-1226.98 1017.63,-1226.98 1056.79,-1226.98"/>
<polygon fill="#757575" stroke="#757575" points="1056.98,-1230.48 1066.98,-1226.98 1056.98,-1223.48 1056.98,-1230.48"/>
</g>
<!-- services/queueManager.ts&#45;&gt;utils/featureFlags.ts -->
<g id="edge117" class="edge">
<title>services/queueManager.ts&#45;&gt;utils/featureFlags.ts</title>
<path fill="none" stroke="#757575" d="M933.82,-1059.47C967.53,-1054.58 1006.69,-1048.9 1040.08,-1044.06"/>
<polygon fill="#757575" stroke="#757575" points="1040.85,-1047.49 1050.24,-1042.59 1039.84,-1040.56 1040.85,-1047.49"/>
</g>
<!-- services/sessionTimeout.ts&#45;&gt;config/database.ts -->
<g id="edge118" class="edge">
<title>services/sessionTimeout.ts&#45;&gt;config/database.ts</title>
<path fill="none" stroke="#757575" d="M2121.97,-963.4C2141.63,-937.65 2189.19,-873.24 2220,-813.98 2262.36,-732.49 2297.38,-628.38 2311.41,-584.26"/>
<polygon fill="#757575" stroke="#757575" points="2314.78,-585.21 2314.44,-574.62 2308.1,-583.1 2314.78,-585.21"/>
</g>
<!-- utils/sessionFormatters.ts&#45;&gt;services/sessionTracker.ts -->
<g id="edge126" class="edge">
<title>utils/sessionFormatters.ts&#45;&gt;services/sessionTracker.ts</title>
<path fill="none" stroke="#757575" d="M1737.48,-724.76C1682.24,-725.96 1609.78,-726.04 1552.08,-725.01"/>
<polygon fill="#757575" stroke="#757575" points="1551.92,-721.51 1541.86,-724.82 1551.79,-728.51 1551.92,-721.51"/>
</g>
</g>
</svg>
