<?xml version="1.0" encoding="UTF-8" standalone="no"?>
<!DOCTYPE svg PUBLIC "-//W3C//DTD SVG 1.1//EN"
 "http://www.w3.org/Graphics/SVG/1.1/DTD/svg11.dtd">
<!-- Generated by graphviz version 2.43.0 (0)
 -->
<!-- Title: G Pages: 1 -->
<svg width="2155pt" height="1170pt"
 viewBox="0.00 0.00 2155.20 1169.57" xmlns="http://www.w3.org/2000/svg" xmlns:xlink="http://www.w3.org/1999/xlink">
<g id="graph0" class="graph" transform="scale(1 1) rotate(0) translate(21.6 1147.97)">
<title>G</title>
<polygon fill="#111111" stroke="transparent" points="-21.6,21.6 -21.6,-1147.97 2133.6,-1147.97 2133.6,21.6 -21.6,21.6"/>
<!-- ../../../aidis&#45;command/backend/dist/services/gitService.d.ts -->
<g id="node1" class="node">
<title>../../../aidis&#45;command/backend/dist/services/gitService.d.ts</title>
<path fill="none" stroke="#c6c5fe" d="M797.83,-1055.5C797.83,-1055.5 448.17,-1055.5 448.17,-1055.5 444.33,-1055.5 440.5,-1051.67 440.5,-1047.83 440.5,-1047.83 440.5,-1040.17 440.5,-1040.17 440.5,-1036.33 444.33,-1032.5 448.17,-1032.5 448.17,-1032.5 797.83,-1032.5 797.83,-1032.5 801.67,-1032.5 805.5,-1036.33 805.5,-1040.17 805.5,-1040.17 805.5,-1047.83 805.5,-1047.83 805.5,-1051.67 801.67,-1055.5 797.83,-1055.5"/>
<text text-anchor="middle" x="623" y="-1040.3" font-family="Arial" font-size="14.00" fill="#c6c5fe">../../../aidis&#45;command/backend/dist/services/gitService.d.ts</text>
</g>
<!-- ../../../aidis&#45;command/backend/dist/types/git.d.ts -->
<g id="node2" class="node">
<title>../../../aidis&#45;command/backend/dist/types/git.d.ts</title>
<path fill="none" stroke="#ff6c60" d="M1146.33,-1055.5C1146.33,-1055.5 859.67,-1055.5 859.67,-1055.5 855.83,-1055.5 852,-1051.67 852,-1047.83 852,-1047.83 852,-1040.17 852,-1040.17 852,-1036.33 855.83,-1032.5 859.67,-1032.5 859.67,-1032.5 1146.33,-1032.5 1146.33,-1032.5 1150.17,-1032.5 1154,-1036.33 1154,-1040.17 1154,-1040.17 1154,-1047.83 1154,-1047.83 1154,-1051.67 1150.17,-1055.5 1146.33,-1055.5"/>
<text text-anchor="middle" x="1003" y="-1040.3" font-family="Arial" font-size="14.00" fill="#ff6c60">../../../aidis&#45;command/backend/dist/types/git.d.ts</text>
</g>
<!-- ../../../aidis&#45;command/backend/dist/services/gitService.d.ts&#45;&gt;../../../aidis&#45;command/backend/dist/types/git.d.ts -->
<g id="edge1" class="edge">
<title>../../../aidis&#45;command/backend/dist/services/gitService.d.ts&#45;&gt;../../../aidis&#45;command/backend/dist/types/git.d.ts</title>
<path fill="none" stroke="#757575" d="M805.53,-1044C817.65,-1044 829.82,-1044 841.83,-1044"/>
<polygon fill="#757575" stroke="#757575" points="841.88,-1047.5 851.88,-1044 841.88,-1040.5 841.88,-1047.5"/>
</g>
<!-- ../../../aidis&#45;command/backend/dist/types/git.d.ts&#45;&gt;../../../aidis&#45;command/backend/dist/types/git.d.ts -->
<g id="edge2" class="edge">
<title>../../../aidis&#45;command/backend/dist/types/git.d.ts&#45;&gt;../../../aidis&#45;command/backend/dist/types/git.d.ts</title>
<path fill="none" stroke="#757575" d="M956.95,-1055.51C939.73,-1064.41 955.08,-1073.5 1003,-1073.5 1037.44,-1073.5 1055.06,-1068.81 1055.85,-1062.86"/>
<polygon fill="#757575" stroke="#757575" points="1058.41,-1060.47 1049.05,-1055.51 1053.27,-1065.22 1058.41,-1060.47"/>
</g>
<!-- ../../../aidis&#45;command/backend/dist/services/sessionDetail.d.ts -->
<g id="node3" class="node">
<title>../../../aidis&#45;command/backend/dist/services/sessionDetail.d.ts</title>
<path fill="none" stroke="#cfffac" d="M808.33,-1096.5C808.33,-1096.5 437.67,-1096.5 437.67,-1096.5 433.83,-1096.5 430,-1092.67 430,-1088.83 430,-1088.83 430,-1081.17 430,-1081.17 430,-1077.33 433.83,-1073.5 437.67,-1073.5 437.67,-1073.5 808.33,-1073.5 808.33,-1073.5 812.17,-1073.5 816,-1077.33 816,-1081.17 816,-1081.17 816,-1088.83 816,-1088.83 816,-1092.67 812.17,-1096.5 808.33,-1096.5"/>
<text text-anchor="middle" x="623" y="-1081.3" font-family="Arial" font-size="14.00" fill="#cfffac">../../../aidis&#45;command/backend/dist/services/sessionDetail.d.ts</text>
</g>
<!-- ../config/database.ts -->
<g id="node4" class="node">
<title>../config/database.ts</title>
<path fill="none" stroke="#cfffac" d="M2092.33,-743.5C2092.33,-743.5 1970.67,-743.5 1970.67,-743.5 1966.83,-743.5 1963,-739.67 1963,-735.83 1963,-735.83 1963,-728.17 1963,-728.17 1963,-724.33 1966.83,-720.5 1970.67,-720.5 1970.67,-720.5 2092.33,-720.5 2092.33,-720.5 2096.17,-720.5 2100,-724.33 2100,-728.17 2100,-728.17 2100,-735.83 2100,-735.83 2100,-739.67 2096.17,-743.5 2092.33,-743.5"/>
<text text-anchor="middle" x="2031.5" y="-728.3" font-family="Arial" font-size="14.00" fill="#cfffac">../config/database.ts</text>
</g>
<!-- ../handlers/git.ts -->
<g id="node5" class="node">
<title>../handlers/git.ts</title>
<path fill="none" stroke="#c6c5fe" d="M356.33,-899.5C356.33,-899.5 259.67,-899.5 259.67,-899.5 255.83,-899.5 252,-895.67 252,-891.83 252,-891.83 252,-884.17 252,-884.17 252,-880.33 255.83,-876.5 259.67,-876.5 259.67,-876.5 356.33,-876.5 356.33,-876.5 360.17,-876.5 364,-880.33 364,-884.17 364,-884.17 364,-891.83 364,-891.83 364,-895.67 360.17,-899.5 356.33,-899.5"/>
<text text-anchor="middle" x="308" y="-884.3" font-family="Arial" font-size="14.00" fill="#c6c5fe">../handlers/git.ts</text>
</g>
<!-- ../handlers/git.ts&#45;&gt;../../../aidis&#45;command/backend/dist/services/gitService.d.ts -->
<g id="edge3" class="edge">
<title>../handlers/git.ts&#45;&gt;../../../aidis&#45;command/backend/dist/services/gitService.d.ts</title>
<path fill="none" stroke="#757575" d="M318.15,-899.69C341.23,-928.85 401.94,-1003.46 430,-1018 438.53,-1022.42 447.56,-1026.18 456.85,-1029.37"/>
<polygon fill="#757575" stroke="#757575" points="456.03,-1032.78 466.62,-1032.49 458.16,-1026.11 456.03,-1032.78"/>
</g>
<!-- ../handlers/git.ts&#45;&gt;../../../aidis&#45;command/backend/dist/services/sessionDetail.d.ts -->
<g id="edge4" class="edge">
<title>../handlers/git.ts&#45;&gt;../../../aidis&#45;command/backend/dist/services/sessionDetail.d.ts</title>
<path fill="none" stroke="#757575" d="M319.84,-899.63C336.95,-918.35 370.64,-956.72 394,-993 413.37,-1023.08 400.58,-1044.64 430,-1065 431.65,-1066.14 433.33,-1067.25 435.04,-1068.31"/>
<polygon fill="#757575" stroke="#757575" points="433.36,-1071.38 443.78,-1073.27 436.82,-1065.29 433.36,-1071.38"/>
</g>
<!-- ../handlers/git.ts&#45;&gt;../config/database.ts -->
<g id="edge5" class="edge">
<title>../handlers/git.ts&#45;&gt;../config/database.ts</title>
<path fill="none" stroke="#757575" d="M364.31,-893.69C374.94,-896.72 385.42,-901.25 394,-908 421.81,-929.87 400.26,-959.83 430,-979 536.94,-1047.94 874.77,-1004 1002,-1004 1002,-1004 1002,-1004 1672.5,-1004 1781.96,-1004 1827.18,-1026.33 1915,-961 1985.95,-908.22 2016.32,-799.53 2026.38,-753.43"/>
<polygon fill="#757575" stroke="#757575" points="2029.82,-754.11 2028.42,-743.61 2022.96,-752.69 2029.82,-754.11"/>
</g>
<!-- ../middleware/eventLogger.ts -->
<g id="node6" class="node">
<title>../middleware/eventLogger.ts</title>
<path fill="none" stroke="#c6c5fe" d="M1372.33,-532.5C1372.33,-532.5 1197.67,-532.5 1197.67,-532.5 1193.83,-532.5 1190,-528.67 1190,-524.83 1190,-524.83 1190,-517.17 1190,-517.17 1190,-513.33 1193.83,-509.5 1197.67,-509.5 1197.67,-509.5 1372.33,-509.5 1372.33,-509.5 1376.17,-509.5 1380,-513.33 1380,-517.17 1380,-517.17 1380,-524.83 1380,-524.83 1380,-528.67 1376.17,-532.5 1372.33,-532.5"/>
<text text-anchor="middle" x="1285" y="-517.3" font-family="Arial" font-size="14.00" fill="#c6c5fe">../middleware/eventLogger.ts</text>
</g>
<!-- ../handlers/git.ts&#45;&gt;../middleware/eventLogger.ts -->
<g id="edge6" class="edge">
<title>../handlers/git.ts&#45;&gt;../middleware/eventLogger.ts</title>
<path fill="none" stroke="#757575" d="M315.32,-876.26C330.78,-848.85 373.4,-780.65 430,-750 582.39,-667.49 673.3,-793.31 816,-695 843.19,-676.26 824.65,-648.51 852,-630 964.03,-554.16 1025.27,-633.59 1154,-592 1193.01,-579.39 1233.85,-554.95 1259.11,-538.31"/>
<polygon fill="#757575" stroke="#757575" points="1261.32,-541.04 1267.68,-532.56 1257.42,-535.22 1261.32,-541.04"/>
</g>
<!-- patternDetector.ts -->
<g id="node7" class="node">
<title>patternDetector.ts</title>
<path fill="none" stroke="#c6c5fe" d="M676.83,-686.5C676.83,-686.5 569.17,-686.5 569.17,-686.5 565.33,-686.5 561.5,-682.67 561.5,-678.83 561.5,-678.83 561.5,-671.17 561.5,-671.17 561.5,-667.33 565.33,-663.5 569.17,-663.5 569.17,-663.5 676.83,-663.5 676.83,-663.5 680.67,-663.5 684.5,-667.33 684.5,-671.17 684.5,-671.17 684.5,-678.83 684.5,-678.83 684.5,-682.67 680.67,-686.5 676.83,-686.5"/>
<text text-anchor="middle" x="623" y="-671.3" font-family="Arial" font-size="14.00" fill="#c6c5fe">patternDetector.ts</text>
</g>
<!-- ../handlers/git.ts&#45;&gt;patternDetector.ts -->
<g id="edge7" class="edge">
<title>../handlers/git.ts&#45;&gt;patternDetector.ts</title>
<path fill="none" stroke="#757575" d="M318.61,-876.26C335.11,-855.81 369.43,-812 394,-772 412.52,-741.85 401.17,-721.5 430,-701 464.73,-676.31 512.1,-669.69 551.1,-669.3"/>
<polygon fill="#757575" stroke="#757575" points="551.33,-672.8 561.34,-669.33 551.35,-665.8 551.33,-672.8"/>
</g>
<!-- sessionManager.ts -->
<g id="node8" class="node">
<title>sessionManager.ts</title>
<path fill="none" stroke="#c6c5fe" d="M1060.33,-899.5C1060.33,-899.5 945.67,-899.5 945.67,-899.5 941.83,-899.5 938,-895.67 938,-891.83 938,-891.83 938,-884.17 938,-884.17 938,-880.33 941.83,-876.5 945.67,-876.5 945.67,-876.5 1060.33,-876.5 1060.33,-876.5 1064.17,-876.5 1068,-880.33 1068,-884.17 1068,-884.17 1068,-891.83 1068,-891.83 1068,-895.67 1064.17,-899.5 1060.33,-899.5"/>
<text text-anchor="middle" x="1003" y="-884.3" font-family="Arial" font-size="14.00" fill="#c6c5fe">sessionManager.ts</text>
</g>
<!-- ../handlers/git.ts&#45;&gt;sessionManager.ts -->
<g id="edge8" class="edge">
<title>../handlers/git.ts&#45;&gt;sessionManager.ts</title>
<path fill="none" stroke="#757575" d="M364.25,-888C488.05,-888 787.79,-888 927.72,-888"/>
<polygon fill="#757575" stroke="#757575" points="927.92,-891.5 937.92,-888 927.92,-884.5 927.92,-891.5"/>
</g>
<!-- ../middleware/eventLogger.ts&#45;&gt;../config/database.ts -->
<g id="edge15" class="edge">
<title>../middleware/eventLogger.ts&#45;&gt;../config/database.ts</title>
<path fill="none" stroke="#757575" d="M1326.82,-532.57C1453.52,-568.48 1839.87,-677.97 1979.48,-717.54"/>
<polygon fill="#757575" stroke="#757575" points="1978.92,-721.02 1989.49,-720.38 1980.83,-714.28 1978.92,-721.02"/>
</g>
<!-- ../handlers/project.ts -->
<g id="node9" class="node">
<title>../handlers/project.ts</title>
<path fill="none" stroke="#ff6c60" d="M1546.33,-338.5C1546.33,-338.5 1423.67,-338.5 1423.67,-338.5 1419.83,-338.5 1416,-334.67 1416,-330.83 1416,-330.83 1416,-323.17 1416,-323.17 1416,-319.33 1419.83,-315.5 1423.67,-315.5 1423.67,-315.5 1546.33,-315.5 1546.33,-315.5 1550.17,-315.5 1554,-319.33 1554,-323.17 1554,-323.17 1554,-330.83 1554,-330.83 1554,-334.67 1550.17,-338.5 1546.33,-338.5"/>
<text text-anchor="middle" x="1485" y="-323.3" font-family="Arial" font-size="14.00" fill="#ff6c60">../handlers/project.ts</text>
</g>
<!-- ../middleware/eventLogger.ts&#45;&gt;../handlers/project.ts -->
<g id="edge16" class="edge">
<title>../middleware/eventLogger.ts&#45;&gt;../handlers/project.ts</title>
<path fill="none" stroke="#757575" d="M1297.79,-509.45C1330.8,-477.11 1424.33,-385.46 1464.87,-345.74"/>
<polygon fill="#757575" stroke="#757575" points="1467.33,-348.24 1472.02,-338.74 1462.43,-343.24 1467.33,-348.24"/>
</g>
<!-- patternDetector.ts&#45;&gt;../config/database.ts -->
<g id="edge44" class="edge">
<title>patternDetector.ts&#45;&gt;../config/database.ts</title>
<path fill="none" stroke="#757575" d="M668,-686.52C708.59,-698.42 769.42,-719.56 816,-750 834.94,-762.38 831.34,-776.76 852,-786 939.77,-825.24 1187.85,-810 1284,-810 1284,-810 1284,-810 1672.5,-810 1780.8,-810 1810.56,-814.68 1915,-786 1946.14,-777.45 1979.3,-761.1 2002.07,-748.63"/>
<polygon fill="#757575" stroke="#757575" points="2003.83,-751.65 2010.85,-743.72 2000.41,-745.54 2003.83,-751.65"/>
</g>
<!-- patternDetector.ts&#45;&gt;../middleware/eventLogger.ts -->
<g id="edge45" class="edge">
<title>patternDetector.ts&#45;&gt;../middleware/eventLogger.ts</title>
<path fill="none" stroke="#757575" d="M654.92,-663.44C698.38,-647.57 780.23,-619.09 852,-602 984.21,-570.52 1020.89,-581.41 1154,-554 1180.14,-548.62 1208.94,-541.44 1232.77,-535.15"/>
<polygon fill="#757575" stroke="#757575" points="1233.89,-538.47 1242.65,-532.52 1232.09,-531.71 1233.89,-538.47"/>
</g>
<!-- patternDetector.ts&#45;&gt;sessionManager.ts -->
<g id="edge46" class="edge">
<title>patternDetector.ts&#45;&gt;sessionManager.ts</title>
<path fill="none" stroke="#757575" d="M684.75,-686.54C725.98,-697.06 779.44,-716.27 816,-750 842.88,-774.8 825.51,-798.79 852,-824 877.17,-847.95 912.68,-863.65 942.83,-873.5"/>
<polygon fill="#757575" stroke="#757575" points="941.82,-876.85 952.41,-876.49 943.91,-870.17 941.82,-876.85"/>
</g>
<!-- sessionManager.ts&#45;&gt;../config/database.ts -->
<g id="edge51" class="edge">
<title>sessionManager.ts&#45;&gt;../config/database.ts</title>
<path fill="none" stroke="#757575" d="M1068.05,-887.78C1160.08,-887.49 1335.04,-887 1484,-887 1484,-887 1484,-887 1672.5,-887 1780.85,-887 1818.57,-911.41 1915,-862 1963.73,-837.03 2001.39,-782.19 2019.2,-752.34"/>
<polygon fill="#757575" stroke="#757575" points="2022.28,-754 2024.28,-743.59 2016.23,-750.48 2022.28,-754"/>
</g>
<!-- sessionManager.ts&#45;&gt;../middleware/eventLogger.ts -->
<g id="edge52" class="edge">
<title>sessionManager.ts&#45;&gt;../middleware/eventLogger.ts</title>
<path fill="none" stroke="#757575" d="M1020.02,-876.42C1049.28,-854.69 1112.22,-805.27 1154,-753 1210.33,-682.54 1256.4,-584.49 1275.06,-542.01"/>
<polygon fill="#757575" stroke="#757575" points="1278.34,-543.25 1279.11,-532.68 1271.92,-540.46 1278.34,-543.25"/>
</g>
<!-- ../handlers/project.ts&#45;&gt;../config/database.ts -->
<g id="edge9" class="edge">
<title>../handlers/project.ts&#45;&gt;../config/database.ts</title>
<path fill="none" stroke="#757575" d="M1542.84,-338.52C1558.13,-341.46 1574.67,-344.49 1590,-347 1661.92,-358.78 1858.76,-344.64 1915,-391 2015.8,-474.09 2029,-648.78 2030.44,-710.13"/>
<polygon fill="#757575" stroke="#757575" points="2026.94,-710.28 2030.6,-720.22 2033.94,-710.17 2026.94,-710.28"/>
</g>
<!-- projectSwitchValidator.ts -->
<g id="node10" class="node">
<title>projectSwitchValidator.ts</title>
<path fill="none" stroke="#ff6c60" d="M1745.33,-338.5C1745.33,-338.5 1597.67,-338.5 1597.67,-338.5 1593.83,-338.5 1590,-334.67 1590,-330.83 1590,-330.83 1590,-323.17 1590,-323.17 1590,-319.33 1593.83,-315.5 1597.67,-315.5 1597.67,-315.5 1745.33,-315.5 1745.33,-315.5 1749.17,-315.5 1753,-319.33 1753,-323.17 1753,-323.17 1753,-330.83 1753,-330.83 1753,-334.67 1749.17,-338.5 1745.33,-338.5"/>
<text text-anchor="middle" x="1671.5" y="-323.3" font-family="Arial" font-size="14.00" fill="#ff6c60">projectSwitchValidator.ts</text>
</g>
<!-- ../handlers/project.ts&#45;&gt;projectSwitchValidator.ts -->
<g id="edge10" class="edge">
<title>../handlers/project.ts&#45;&gt;projectSwitchValidator.ts</title>
<path fill="none" stroke="#757575" d="M1554.18,-320.46C1562.51,-320.31 1571.13,-320.24 1579.74,-320.25"/>
<polygon fill="#757575" stroke="#757575" points="1579.79,-323.75 1589.81,-320.3 1579.82,-316.75 1579.79,-323.75"/>
</g>
<!-- projectSwitchValidator.ts&#45;&gt;../config/database.ts -->
<g id="edge47" class="edge">
<title>projectSwitchValidator.ts&#45;&gt;../config/database.ts</title>
<path fill="none" stroke="#757575" d="M1741.68,-315.48C1794.94,-310.68 1867.28,-313.54 1915,-353 1972.23,-400.32 2015.08,-637.42 2027.1,-710.51"/>
<polygon fill="#757575" stroke="#757575" points="2023.65,-711.11 2028.71,-720.43 2030.56,-710 2023.65,-711.11"/>
</g>
<!-- projectSwitchValidator.ts&#45;&gt;../handlers/project.ts -->
<g id="edge48" class="edge">
<title>projectSwitchValidator.ts&#45;&gt;../handlers/project.ts</title>
<path fill="none" stroke="#757575" d="M1589.81,-333.7C1581.36,-333.77 1572.78,-333.77 1564.35,-333.68"/>
<polygon fill="#757575" stroke="#757575" points="1564.22,-330.18 1554.18,-333.54 1564.13,-337.18 1564.22,-330.18"/>
</g>
<!-- sessionTracker.ts -->
<g id="node12" class="node">
<title>sessionTracker.ts</title>
<path fill="none" stroke="#ff6c60" d="M1905.33,-299.5C1905.33,-299.5 1798.67,-299.5 1798.67,-299.5 1794.83,-299.5 1791,-295.67 1791,-291.83 1791,-291.83 1791,-284.17 1791,-284.17 1791,-280.33 1794.83,-276.5 1798.67,-276.5 1798.67,-276.5 1905.33,-276.5 1905.33,-276.5 1909.17,-276.5 1913,-280.33 1913,-284.17 1913,-284.17 1913,-291.83 1913,-291.83 1913,-295.67 1909.17,-299.5 1905.33,-299.5"/>
<text text-anchor="middle" x="1852" y="-284.3" font-family="Arial" font-size="14.00" fill="#ff6c60">sessionTracker.ts</text>
</g>
<!-- projectSwitchValidator.ts&#45;&gt;sessionTracker.ts -->
<g id="edge49" class="edge">
<title>projectSwitchValidator.ts&#45;&gt;sessionTracker.ts</title>
<path fill="none" stroke="#757575" d="M1725.57,-315.4C1745.27,-311.1 1767.79,-306.18 1788.27,-301.71"/>
<polygon fill="#757575" stroke="#757575" points="1789.11,-305.1 1798.13,-299.55 1787.62,-298.27 1789.11,-305.1"/>
</g>
<!-- ../handlers/sessionAnalytics.ts -->
<g id="node11" class="node">
<title>../handlers/sessionAnalytics.ts</title>
<path fill="none" stroke="#c6c5fe" d="M1093.83,-96.5C1093.83,-96.5 912.17,-96.5 912.17,-96.5 908.33,-96.5 904.5,-92.67 904.5,-88.83 904.5,-88.83 904.5,-81.17 904.5,-81.17 904.5,-77.33 908.33,-73.5 912.17,-73.5 912.17,-73.5 1093.83,-73.5 1093.83,-73.5 1097.67,-73.5 1101.5,-77.33 1101.5,-81.17 1101.5,-81.17 1101.5,-88.83 1101.5,-88.83 1101.5,-92.67 1097.67,-96.5 1093.83,-96.5"/>
<text text-anchor="middle" x="1003" y="-81.3" font-family="Arial" font-size="14.00" fill="#c6c5fe">../handlers/sessionAnalytics.ts</text>
</g>
<!-- ../handlers/sessionAnalytics.ts&#45;&gt;../config/database.ts -->
<g id="edge11" class="edge">
<title>../handlers/sessionAnalytics.ts&#45;&gt;../config/database.ts</title>
<path fill="none" stroke="#757575" d="M1080.57,-96.53C1195.5,-113.44 1407.3,-143 1484,-143 1484,-143 1484,-143 1672.5,-143 1793.55,-143 1839.75,-172.18 1915,-267 2025.92,-406.78 2032.05,-638.82 2031.12,-710.34"/>
<polygon fill="#757575" stroke="#757575" points="2027.62,-710.34 2030.93,-720.41 2034.62,-710.48 2027.62,-710.34"/>
</g>
<!-- ../handlers/sessionAnalytics.ts&#45;&gt;../middleware/eventLogger.ts -->
<g id="edge13" class="edge">
<title>../handlers/sessionAnalytics.ts&#45;&gt;../middleware/eventLogger.ts</title>
<path fill="none" stroke="#757575" d="M1066.13,-96.58C1097.22,-105.61 1132.68,-121.46 1154,-149 1219.49,-233.59 1150.23,-287.69 1190,-387 1208.13,-432.27 1244.19,-477.06 1266,-501.67"/>
<polygon fill="#757575" stroke="#757575" points="1263.5,-504.13 1272.8,-509.22 1268.7,-499.44 1263.5,-504.13"/>
</g>
<!-- ../handlers/sessionAnalytics.ts&#45;&gt;../handlers/project.ts -->
<g id="edge12" class="edge">
<title>../handlers/sessionAnalytics.ts&#45;&gt;../handlers/project.ts</title>
<path fill="none" stroke="#757575" d="M1101.52,-85.99C1120.72,-90.31 1139.41,-97.97 1154,-111 1196.49,-148.94 1150.16,-193.29 1190,-234 1246.89,-292.14 1339.83,-314.03 1405.97,-322.21"/>
<polygon fill="#757575" stroke="#757575" points="1405.6,-325.69 1415.94,-323.37 1406.41,-318.74 1405.6,-325.69"/>
</g>
<!-- ../handlers/sessionAnalytics.ts&#45;&gt;sessionTracker.ts -->
<g id="edge14" class="edge">
<title>../handlers/sessionAnalytics.ts&#45;&gt;sessionTracker.ts</title>
<path fill="none" stroke="#757575" d="M1101.74,-91.28C1119.98,-95.34 1138.24,-101.57 1154,-111 1176.28,-124.33 1167.88,-143.4 1190,-157 1288.89,-217.79 1631.64,-263.05 1780.78,-280.33"/>
<polygon fill="#757575" stroke="#757575" points="1780.41,-283.81 1790.74,-281.48 1781.21,-276.86 1780.41,-283.81"/>
</g>
<!-- sessionTracker.ts&#45;&gt;../config/database.ts -->
<g id="edge68" class="edge">
<title>sessionTracker.ts&#45;&gt;../config/database.ts</title>
<path fill="none" stroke="#757575" d="M1893.82,-299.59C1901.72,-303.42 1909.3,-308.44 1915,-315 2019.54,-435.37 2030.13,-642.74 2030.69,-710.15"/>
<polygon fill="#757575" stroke="#757575" points="2027.19,-710.4 2030.71,-720.4 2034.19,-710.39 2027.19,-710.4"/>
</g>
<!-- sessionTracker.ts&#45;&gt;../handlers/project.ts -->
<g id="edge69" class="edge">
<title>sessionTracker.ts&#45;&gt;../handlers/project.ts</title>
<path fill="none" stroke="#757575" d="M1790.91,-289.92C1737.86,-292.14 1658.53,-296.76 1590,-306 1575.82,-307.91 1560.68,-310.6 1546.46,-313.41"/>
<polygon fill="#757575" stroke="#757575" points="1545.4,-310.05 1536.29,-315.47 1546.79,-316.91 1545.4,-310.05"/>
</g>
<!-- ../utils/agentDetection.ts -->
<g id="node13" class="node">
<title>../utils/agentDetection.ts</title>
<path fill="none" stroke="#cfffac" d="M2104.33,-299.5C2104.33,-299.5 1958.67,-299.5 1958.67,-299.5 1954.83,-299.5 1951,-295.67 1951,-291.83 1951,-291.83 1951,-284.17 1951,-284.17 1951,-280.33 1954.83,-276.5 1958.67,-276.5 1958.67,-276.5 2104.33,-276.5 2104.33,-276.5 2108.17,-276.5 2112,-280.33 2112,-284.17 2112,-284.17 2112,-291.83 2112,-291.83 2112,-295.67 2108.17,-299.5 2104.33,-299.5"/>
<text text-anchor="middle" x="2031.5" y="-284.3" font-family="Arial" font-size="14.00" fill="#cfffac">../utils/agentDetection.ts</text>
</g>
<!-- sessionTracker.ts&#45;&gt;../utils/agentDetection.ts -->
<g id="edge70" class="edge">
<title>sessionTracker.ts&#45;&gt;../utils/agentDetection.ts</title>
<path fill="none" stroke="#757575" d="M1913.09,-288C1922.03,-288 1931.4,-288 1940.79,-288"/>
<polygon fill="#757575" stroke="#757575" points="1940.96,-291.5 1950.96,-288 1940.96,-284.5 1940.96,-291.5"/>
</g>
<!-- ../utils/featureFlags.ts -->
<g id="node14" class="node">
<title>../utils/featureFlags.ts</title>
<path fill="none" stroke="#cfffac" d="M1067.83,-281.5C1067.83,-281.5 938.17,-281.5 938.17,-281.5 934.33,-281.5 930.5,-277.67 930.5,-273.83 930.5,-273.83 930.5,-266.17 930.5,-266.17 930.5,-262.33 934.33,-258.5 938.17,-258.5 938.17,-258.5 1067.83,-258.5 1067.83,-258.5 1071.67,-258.5 1075.5,-262.33 1075.5,-266.17 1075.5,-266.17 1075.5,-273.83 1075.5,-273.83 1075.5,-277.67 1071.67,-281.5 1067.83,-281.5"/>
<text text-anchor="middle" x="1003" y="-266.3" font-family="Arial" font-size="14.00" fill="#cfffac">../utils/featureFlags.ts</text>
</g>
<!-- complexityTracker.ts -->
<g id="node15" class="node">
<title>complexityTracker.ts</title>
<path fill="none" stroke="#c6c5fe" d="M685.33,-781.5C685.33,-781.5 560.67,-781.5 560.67,-781.5 556.83,-781.5 553,-777.67 553,-773.83 553,-773.83 553,-766.17 553,-766.17 553,-762.33 556.83,-758.5 560.67,-758.5 560.67,-758.5 685.33,-758.5 685.33,-758.5 689.17,-758.5 693,-762.33 693,-766.17 693,-766.17 693,-773.83 693,-773.83 693,-777.67 689.17,-781.5 685.33,-781.5"/>
<text text-anchor="middle" x="623" y="-766.3" font-family="Arial" font-size="14.00" fill="#c6c5fe">complexityTracker.ts</text>
</g>
<!-- complexityTracker.ts&#45;&gt;../config/database.ts -->
<g id="edge17" class="edge">
<title>complexityTracker.ts&#45;&gt;../config/database.ts</title>
<path fill="none" stroke="#757575" d="M693.24,-764.69C731.19,-764.53 778.07,-768.97 816,-787 836.72,-796.85 831.12,-814.49 852,-824 1027.01,-903.69 1091.7,-848 1284,-848 1284,-848 1284,-848 1672.5,-848 1780.8,-848 1814.65,-864.74 1915,-824 1955.19,-807.68 1992.72,-772.74 2013.54,-750.92"/>
<polygon fill="#757575" stroke="#757575" points="2016.16,-753.24 2020.43,-743.54 2011.05,-748.46 2016.16,-753.24"/>
</g>
<!-- complexityTracker.ts&#45;&gt;../middleware/eventLogger.ts -->
<g id="edge18" class="edge">
<title>complexityTracker.ts&#45;&gt;../middleware/eventLogger.ts</title>
<path fill="none" stroke="#757575" d="M693.14,-767.47C731.96,-763.2 779.73,-752.93 816,-729 839.16,-713.72 828.45,-692.66 852,-678 967.37,-606.17 1030.33,-686.37 1154,-630 1200.95,-608.6 1244.53,-565.44 1267.35,-540.33"/>
<polygon fill="#757575" stroke="#757575" points="1270.24,-542.35 1274.28,-532.56 1265.01,-537.7 1270.24,-542.35"/>
</g>
<!-- complexityTracker.ts&#45;&gt;sessionManager.ts -->
<g id="edge19" class="edge">
<title>complexityTracker.ts&#45;&gt;sessionManager.ts</title>
<path fill="none" stroke="#757575" d="M693.4,-764.69C732.54,-765.08 780.54,-771.58 816,-796 843.52,-814.95 824.84,-842.54 852,-862 873.72,-877.56 901.67,-884.88 927.55,-888.05"/>
<polygon fill="#757575" stroke="#757575" points="927.42,-891.56 937.73,-889.1 928.14,-884.59 927.42,-891.56"/>
</g>
<!-- databasePool.ts -->
<g id="node16" class="node">
<title>databasePool.ts</title>
<path fill="none" stroke="#cfffac" d="M671.83,-439.5C671.83,-439.5 574.17,-439.5 574.17,-439.5 570.33,-439.5 566.5,-435.67 566.5,-431.83 566.5,-431.83 566.5,-424.17 566.5,-424.17 566.5,-420.33 570.33,-416.5 574.17,-416.5 574.17,-416.5 671.83,-416.5 671.83,-416.5 675.67,-416.5 679.5,-420.33 679.5,-424.17 679.5,-424.17 679.5,-431.83 679.5,-431.83 679.5,-435.67 675.67,-439.5 671.83,-439.5"/>
<text text-anchor="middle" x="623" y="-424.3" font-family="Arial" font-size="14.00" fill="#cfffac">databasePool.ts</text>
</g>
<!-- embedding.ts -->
<g id="node17" class="node">
<title>embedding.ts</title>
<path fill="none" stroke="#cfffac" d="M134.33,-920.5C134.33,-920.5 51.67,-920.5 51.67,-920.5 47.83,-920.5 44,-916.67 44,-912.83 44,-912.83 44,-905.17 44,-905.17 44,-901.33 47.83,-897.5 51.67,-897.5 51.67,-897.5 134.33,-897.5 134.33,-897.5 138.17,-897.5 142,-901.33 142,-905.17 142,-905.17 142,-912.83 142,-912.83 142,-916.67 138.17,-920.5 134.33,-920.5"/>
<text text-anchor="middle" x="93" y="-905.3" font-family="Arial" font-size="14.00" fill="#cfffac">embedding.ts</text>
</g>
<!-- gitTracker.ts -->
<g id="node18" class="node">
<title>gitTracker.ts</title>
<path fill="none" stroke="#c6c5fe" d="M130.33,-879.5C130.33,-879.5 55.67,-879.5 55.67,-879.5 51.83,-879.5 48,-875.67 48,-871.83 48,-871.83 48,-864.17 48,-864.17 48,-860.33 51.83,-856.5 55.67,-856.5 55.67,-856.5 130.33,-856.5 130.33,-856.5 134.17,-856.5 138,-860.33 138,-864.17 138,-864.17 138,-871.83 138,-871.83 138,-875.67 134.17,-879.5 130.33,-879.5"/>
<text text-anchor="middle" x="93" y="-864.3" font-family="Arial" font-size="14.00" fill="#c6c5fe">gitTracker.ts</text>
</g>
<!-- gitTracker.ts&#45;&gt;../../../aidis&#45;command/backend/dist/services/sessionDetail.d.ts -->
<g id="edge20" class="edge">
<title>gitTracker.ts&#45;&gt;../../../aidis&#45;command/backend/dist/services/sessionDetail.d.ts</title>
<path fill="none" stroke="#757575" d="M138.22,-874.37C153.77,-877.57 171.07,-882.25 186,-889 246.92,-916.54 367.53,-1041.18 430,-1065 435.52,-1067.1 441.18,-1069.01 446.95,-1070.74"/>
<polygon fill="#757575" stroke="#757575" points="446.18,-1074.16 456.75,-1073.49 448.07,-1067.42 446.18,-1074.16"/>
</g>
<!-- gitTracker.ts&#45;&gt;../config/database.ts -->
<g id="edge21" class="edge">
<title>gitTracker.ts&#45;&gt;../config/database.ts</title>
<path fill="none" stroke="#757575" d="M138.39,-869.28C155.03,-871.86 173.04,-877.45 186,-889 221.89,-920.99 190.94,-954.31 222,-991 343.14,-1134.09 434.51,-1125 622,-1125 622,-1125 622,-1125 1672.5,-1125 1783.53,-1125 1832.99,-1139.84 1915,-1065 2009.05,-979.17 2026.52,-812.85 2029.76,-753.61"/>
<polygon fill="#757575" stroke="#757575" points="2033.26,-753.69 2030.23,-743.54 2026.27,-753.36 2033.26,-753.69"/>
</g>
<!-- gitTracker.ts&#45;&gt;../handlers/git.ts -->
<g id="edge22" class="edge">
<title>gitTracker.ts&#45;&gt;../handlers/git.ts</title>
<path fill="none" stroke="#757575" d="M138.13,-872.14C168.06,-874.95 208.13,-878.72 241.73,-881.87"/>
<polygon fill="#757575" stroke="#757575" points="241.65,-885.38 251.93,-882.83 242.3,-878.41 241.65,-885.38"/>
</g>
<!-- gitTracker.ts&#45;&gt;../middleware/eventLogger.ts -->
<g id="edge23" class="edge">
<title>gitTracker.ts&#45;&gt;../middleware/eventLogger.ts</title>
<path fill="none" stroke="#757575" d="M103.81,-856.43C124.63,-832.1 175.2,-774.21 222,-730 243.8,-709.41 402.24,-569.35 430,-558 517.12,-522.39 757.97,-526.11 852,-522 963.9,-517.11 1092.25,-517.58 1179.78,-518.83"/>
<polygon fill="#757575" stroke="#757575" points="1179.94,-522.33 1189.99,-518.98 1180.04,-515.33 1179.94,-522.33"/>
</g>
<!-- gitTracker.ts&#45;&gt;sessionManager.ts -->
<g id="edge25" class="edge">
<title>gitTracker.ts&#45;&gt;sessionManager.ts</title>
<path fill="none" stroke="#757575" d="M138.23,-867.55C196.75,-867.05 303.13,-866.51 394,-868 586.45,-871.16 813.03,-879.96 927.61,-884.76"/>
<polygon fill="#757575" stroke="#757575" points="927.54,-888.26 937.67,-885.19 927.83,-881.27 927.54,-888.26"/>
</g>
<!-- gitTracker.ts&#45;&gt;complexityTracker.ts -->
<g id="edge24" class="edge">
<title>gitTracker.ts&#45;&gt;complexityTracker.ts</title>
<path fill="none" stroke="#757575" d="M133.25,-856.47C158.45,-849.35 191.97,-840.37 222,-834 332.51,-810.55 461.82,-791.33 542.83,-780.26"/>
<polygon fill="#757575" stroke="#757575" points="543.52,-783.7 552.95,-778.89 542.57,-776.77 543.52,-783.7"/>
</g>
<!-- healthCheck.ts -->
<g id="node19" class="node">
<title>healthCheck.ts</title>
<path fill="none" stroke="#c6c5fe" d="M353.33,-401.5C353.33,-401.5 262.67,-401.5 262.67,-401.5 258.83,-401.5 255,-397.67 255,-393.83 255,-393.83 255,-386.17 255,-386.17 255,-382.33 258.83,-378.5 262.67,-378.5 262.67,-378.5 353.33,-378.5 353.33,-378.5 357.17,-378.5 361,-382.33 361,-386.17 361,-386.17 361,-393.83 361,-393.83 361,-397.67 357.17,-401.5 353.33,-401.5"/>
<text text-anchor="middle" x="308" y="-386.3" font-family="Arial" font-size="14.00" fill="#c6c5fe">healthCheck.ts</text>
</g>
<!-- healthCheck.ts&#45;&gt;databasePool.ts -->
<g id="edge26" class="edge">
<title>healthCheck.ts&#45;&gt;databasePool.ts</title>
<path fill="none" stroke="#757575" d="M361.04,-396.32C414.58,-402.82 498.14,-412.96 556.23,-420.02"/>
<polygon fill="#757575" stroke="#757575" points="556.06,-423.52 566.41,-421.25 556.9,-416.57 556.06,-423.52"/>
</g>
<!-- queueManager.ts -->
<g id="node20" class="node">
<title>queueManager.ts</title>
<path fill="none" stroke="#c6c5fe" d="M676.33,-359.5C676.33,-359.5 569.67,-359.5 569.67,-359.5 565.83,-359.5 562,-355.67 562,-351.83 562,-351.83 562,-344.17 562,-344.17 562,-340.33 565.83,-336.5 569.67,-336.5 569.67,-336.5 676.33,-336.5 676.33,-336.5 680.17,-336.5 684,-340.33 684,-344.17 684,-344.17 684,-351.83 684,-351.83 684,-355.67 680.17,-359.5 676.33,-359.5"/>
<text text-anchor="middle" x="623" y="-344.3" font-family="Arial" font-size="14.00" fill="#c6c5fe">queueManager.ts</text>
</g>
<!-- healthCheck.ts&#45;&gt;queueManager.ts -->
<g id="edge27" class="edge">
<title>healthCheck.ts&#45;&gt;queueManager.ts</title>
<path fill="none" stroke="#757575" d="M361.04,-383.02C413.19,-376.02 493.81,-365.2 551.64,-357.44"/>
<polygon fill="#757575" stroke="#757575" points="552.36,-360.88 561.8,-356.08 551.43,-353.94 552.36,-360.88"/>
</g>
<!-- queueManager.ts&#45;&gt;../utils/featureFlags.ts -->
<g id="edge50" class="edge">
<title>queueManager.ts&#45;&gt;../utils/featureFlags.ts</title>
<path fill="none" stroke="#757575" d="M684.03,-342.03C722.07,-337.71 772.19,-331.05 816,-322 864.68,-311.95 919.36,-296.1 956.76,-284.54"/>
<polygon fill="#757575" stroke="#757575" points="957.85,-287.87 966.36,-281.55 955.77,-281.18 957.85,-287.87"/>
</g>
<!-- metricsAggregator.ts -->
<g id="node21" class="node">
<title>metricsAggregator.ts</title>
<path fill="none" stroke="#c6c5fe" d="M685.83,-937.5C685.83,-937.5 560.17,-937.5 560.17,-937.5 556.33,-937.5 552.5,-933.67 552.5,-929.83 552.5,-929.83 552.5,-922.17 552.5,-922.17 552.5,-918.33 556.33,-914.5 560.17,-914.5 560.17,-914.5 685.83,-914.5 685.83,-914.5 689.67,-914.5 693.5,-918.33 693.5,-922.17 693.5,-922.17 693.5,-929.83 693.5,-929.83 693.5,-933.67 689.67,-937.5 685.83,-937.5"/>
<text text-anchor="middle" x="623" y="-922.3" font-family="Arial" font-size="14.00" fill="#c6c5fe">metricsAggregator.ts</text>
</g>
<!-- metricsAggregator.ts&#45;&gt;../config/database.ts -->
<g id="edge28" class="edge">
<title>metricsAggregator.ts&#45;&gt;../config/database.ts</title>
<path fill="none" stroke="#757575" d="M693.85,-926.35C814.3,-926.92 1068.87,-928 1284,-928 1284,-928 1284,-928 1672.5,-928 1781.53,-928 1821.88,-947.71 1915,-891 1969.64,-857.73 2006.2,-787.91 2021.85,-752.92"/>
<polygon fill="#757575" stroke="#757575" points="2025.11,-754.21 2025.87,-743.64 2018.68,-751.43 2025.11,-754.21"/>
</g>
<!-- metricsAggregator.ts&#45;&gt;../middleware/eventLogger.ts -->
<g id="edge29" class="edge">
<title>metricsAggregator.ts&#45;&gt;../middleware/eventLogger.ts</title>
<path fill="none" stroke="#757575" d="M648.39,-914.35C688.25,-894.22 767.73,-849.43 816,-791 840.83,-760.94 820.84,-734.43 852,-711 960.36,-629.53 1034.64,-732.29 1154,-668 1209.69,-638 1252.98,-574.19 1272.57,-541.4"/>
<polygon fill="#757575" stroke="#757575" points="1275.65,-543.05 1277.66,-532.65 1269.6,-539.53 1275.65,-543.05"/>
</g>
<!-- metricsAggregator.ts&#45;&gt;sessionManager.ts -->
<g id="edge30" class="edge">
<title>metricsAggregator.ts&#45;&gt;sessionManager.ts</title>
<path fill="none" stroke="#757575" d="M693.77,-918.99C760.22,-912.31 859.91,-902.28 927.79,-895.46"/>
<polygon fill="#757575" stroke="#757575" points="928.39,-898.92 937.99,-894.44 927.69,-891.95 928.39,-898.92"/>
</g>
<!-- metricsCollector.ts -->
<g id="node22" class="node">
<title>metricsCollector.ts</title>
<path fill="none" stroke="#c6c5fe" d="M364.33,-762.5C364.33,-762.5 251.67,-762.5 251.67,-762.5 247.83,-762.5 244,-758.67 244,-754.83 244,-754.83 244,-747.17 244,-747.17 244,-743.33 247.83,-739.5 251.67,-739.5 251.67,-739.5 364.33,-739.5 364.33,-739.5 368.17,-739.5 372,-743.33 372,-747.17 372,-747.17 372,-754.83 372,-754.83 372,-758.67 368.17,-762.5 364.33,-762.5"/>
<text text-anchor="middle" x="308" y="-747.3" font-family="Arial" font-size="14.00" fill="#c6c5fe">metricsCollector.ts</text>
</g>
<!-- metricsCollector.ts&#45;&gt;../config/database.ts -->
<g id="edge31" class="edge">
<title>metricsCollector.ts&#45;&gt;../config/database.ts</title>
<path fill="none" stroke="#757575" d="M318.77,-762.75C335.53,-783.24 370.22,-827.23 394,-868 413.44,-901.33 397.9,-925.59 430,-947 535.81,-1017.57 874.82,-966 1002,-966 1002,-966 1002,-966 1672.5,-966 1781.81,-966 1824.75,-986.67 1915,-925 1977.15,-882.53 2011.19,-794.58 2024.22,-753.73"/>
<polygon fill="#757575" stroke="#757575" points="2027.62,-754.56 2027.21,-743.97 2020.93,-752.51 2027.62,-754.56"/>
</g>
<!-- metricsCollector.ts&#45;&gt;../middleware/eventLogger.ts -->
<g id="edge32" class="edge">
<title>metricsCollector.ts&#45;&gt;../middleware/eventLogger.ts</title>
<path fill="none" stroke="#757575" d="M368.84,-739.45C377.92,-735.86 386.68,-731.16 394,-725 421.08,-702.23 402.2,-675.89 430,-654 581.43,-534.74 661.55,-583.65 852,-554 963.17,-536.69 1091.91,-528.34 1179.74,-524.39"/>
<polygon fill="#757575" stroke="#757575" points="1180.14,-527.88 1189.97,-523.94 1179.83,-520.89 1180.14,-527.88"/>
</g>
<!-- metricsCollector.ts&#45;&gt;patternDetector.ts -->
<g id="edge33" class="edge">
<title>metricsCollector.ts&#45;&gt;patternDetector.ts</title>
<path fill="none" stroke="#757575" d="M355.36,-739.48C368.16,-735.59 381.87,-730.75 394,-725 411.38,-716.77 412.01,-707.8 430,-701 468.54,-686.44 514.15,-679.86 551.25,-676.96"/>
<polygon fill="#757575" stroke="#757575" points="551.75,-680.43 561.47,-676.23 551.25,-673.45 551.75,-680.43"/>
</g>
<!-- metricsCollector.ts&#45;&gt;sessionManager.ts -->
<g id="edge34" class="edge">
<title>metricsCollector.ts&#45;&gt;sessionManager.ts</title>
<path fill="none" stroke="#757575" d="M338.35,-762.62C362.57,-771.73 398.01,-784.01 430,-791 598.64,-827.85 656.08,-769.01 816,-834 834.78,-841.63 833.46,-853.8 852,-862 875.58,-872.43 902.97,-878.68 927.85,-882.43"/>
<polygon fill="#757575" stroke="#757575" points="927.58,-885.93 937.97,-883.84 928.55,-879 927.58,-885.93"/>
</g>
<!-- metricsCorrelation.ts -->
<g id="node23" class="node">
<title>metricsCorrelation.ts</title>
<path fill="none" stroke="#c6c5fe" d="M1065.83,-743.5C1065.83,-743.5 940.17,-743.5 940.17,-743.5 936.33,-743.5 932.5,-739.67 932.5,-735.83 932.5,-735.83 932.5,-728.17 932.5,-728.17 932.5,-724.33 936.33,-720.5 940.17,-720.5 940.17,-720.5 1065.83,-720.5 1065.83,-720.5 1069.67,-720.5 1073.5,-724.33 1073.5,-728.17 1073.5,-728.17 1073.5,-735.83 1073.5,-735.83 1073.5,-739.67 1069.67,-743.5 1065.83,-743.5"/>
<text text-anchor="middle" x="1003" y="-728.3" font-family="Arial" font-size="14.00" fill="#c6c5fe">metricsCorrelation.ts</text>
</g>
<!-- metricsCorrelation.ts&#45;&gt;../config/database.ts -->
<g id="edge35" class="edge">
<title>metricsCorrelation.ts&#45;&gt;../config/database.ts</title>
<path fill="none" stroke="#757575" d="M1073.55,-732C1166.92,-732 1337.96,-732 1484,-732 1484,-732 1484,-732 1672.5,-732 1768.91,-732 1879.93,-732 1952.45,-732"/>
<polygon fill="#757575" stroke="#757575" points="1952.87,-735.5 1962.87,-732 1952.87,-728.5 1952.87,-735.5"/>
</g>
<!-- metricsCorrelation.ts&#45;&gt;../middleware/eventLogger.ts -->
<g id="edge36" class="edge">
<title>metricsCorrelation.ts&#45;&gt;../middleware/eventLogger.ts</title>
<path fill="none" stroke="#757575" d="M1073.77,-731.13C1100.55,-728.03 1130.34,-721 1154,-706 1217.61,-665.68 1258.89,-581.89 1275.59,-542.43"/>
<polygon fill="#757575" stroke="#757575" points="1278.91,-543.56 1279.47,-532.98 1272.43,-540.9 1278.91,-543.56"/>
</g>
<!-- metricsIntegration.ts -->
<g id="node24" class="node">
<title>metricsIntegration.ts</title>
<path fill="none" stroke="#c6c5fe" d="M154.83,-665.5C154.83,-665.5 31.17,-665.5 31.17,-665.5 27.33,-665.5 23.5,-661.67 23.5,-657.83 23.5,-657.83 23.5,-650.17 23.5,-650.17 23.5,-646.33 27.33,-642.5 31.17,-642.5 31.17,-642.5 154.83,-642.5 154.83,-642.5 158.67,-642.5 162.5,-646.33 162.5,-650.17 162.5,-650.17 162.5,-657.83 162.5,-657.83 162.5,-661.67 158.67,-665.5 154.83,-665.5"/>
<text text-anchor="middle" x="93" y="-650.3" font-family="Arial" font-size="14.00" fill="#c6c5fe">metricsIntegration.ts</text>
</g>
<!-- metricsIntegration.ts&#45;&gt;../config/database.ts -->
<g id="edge37" class="edge">
<title>metricsIntegration.ts&#45;&gt;../config/database.ts</title>
<path fill="none" stroke="#757575" d="M162.68,-644.34C322.24,-623.41 712.24,-581.32 816,-654 854.35,-680.86 814.25,-725.3 852,-753 929.48,-809.84 1187.91,-772 1284,-772 1284,-772 1284,-772 1672.5,-772 1771.2,-772 1884.27,-756.8 1956.48,-745.14"/>
<polygon fill="#757575" stroke="#757575" points="1957.09,-748.58 1966.39,-743.52 1955.96,-741.67 1957.09,-748.58"/>
</g>
<!-- metricsIntegration.ts&#45;&gt;../middleware/eventLogger.ts -->
<g id="edge38" class="edge">
<title>metricsIntegration.ts&#45;&gt;../middleware/eventLogger.ts</title>
<path fill="none" stroke="#757575" d="M118.62,-642.43C173.27,-617.3 309.42,-557.77 430,-530 587.05,-493.83 994.08,-468.02 1154,-488 1169.36,-489.92 1203.84,-498.75 1233.43,-506.79"/>
<polygon fill="#757575" stroke="#757575" points="1232.67,-510.21 1243.24,-509.48 1234.52,-503.46 1232.67,-510.21"/>
</g>
<!-- metricsIntegration.ts&#45;&gt;patternDetector.ts -->
<g id="edge40" class="edge">
<title>metricsIntegration.ts&#45;&gt;patternDetector.ts</title>
<path fill="none" stroke="#757575" d="M162.76,-656.73C263.33,-660.73 449.63,-668.14 551.3,-672.19"/>
<polygon fill="#757575" stroke="#757575" points="551.34,-675.69 561.47,-672.59 551.62,-668.7 551.34,-675.69"/>
</g>
<!-- metricsIntegration.ts&#45;&gt;metricsCollector.ts -->
<g id="edge39" class="edge">
<title>metricsIntegration.ts&#45;&gt;metricsCollector.ts</title>
<path fill="none" stroke="#757575" d="M119.27,-665.51C157.28,-682.82 229.27,-715.6 272.21,-735.16"/>
<polygon fill="#757575" stroke="#757575" points="270.88,-738.4 281.43,-739.36 273.78,-732.03 270.88,-738.4"/>
</g>
<!-- outcomeTracker.ts -->
<g id="node25" class="node">
<title>outcomeTracker.ts</title>
<path fill="none" stroke="#c6c5fe" d="M1059.33,-359.5C1059.33,-359.5 946.67,-359.5 946.67,-359.5 942.83,-359.5 939,-355.67 939,-351.83 939,-351.83 939,-344.17 939,-344.17 939,-340.33 942.83,-336.5 946.67,-336.5 946.67,-336.5 1059.33,-336.5 1059.33,-336.5 1063.17,-336.5 1067,-340.33 1067,-344.17 1067,-344.17 1067,-351.83 1067,-351.83 1067,-355.67 1063.17,-359.5 1059.33,-359.5"/>
<text text-anchor="middle" x="1003" y="-344.3" font-family="Arial" font-size="14.00" fill="#c6c5fe">outcomeTracker.ts</text>
</g>
<!-- outcomeTracker.ts&#45;&gt;../config/database.ts -->
<g id="edge41" class="edge">
<title>outcomeTracker.ts&#45;&gt;../config/database.ts</title>
<path fill="none" stroke="#757575" d="M1067.24,-341.94C1096.05,-342.31 1129.18,-347.45 1154,-365 1183.86,-386.11 1160.45,-417.45 1190,-439 1296.66,-516.76 1352.01,-481 1484,-481 1484,-481 1484,-481 1672.5,-481 1833.15,-481 1972.85,-652.54 2016.45,-712"/>
<polygon fill="#757575" stroke="#757575" points="2013.7,-714.17 2022.39,-720.23 2019.37,-710.07 2013.7,-714.17"/>
</g>
<!-- outcomeTracker.ts&#45;&gt;../middleware/eventLogger.ts -->
<g id="edge43" class="edge">
<title>outcomeTracker.ts&#45;&gt;../middleware/eventLogger.ts</title>
<path fill="none" stroke="#757575" d="M1067.07,-344.44C1096.71,-346.08 1130.59,-353.19 1154,-374 1195.94,-411.27 1149.94,-455.71 1190,-495 1193.76,-498.68 1197.99,-501.86 1202.52,-504.59"/>
<polygon fill="#757575" stroke="#757575" points="1201.08,-507.79 1211.57,-509.32 1204.32,-501.58 1201.08,-507.79"/>
</g>
<!-- outcomeTracker.ts&#45;&gt;../handlers/project.ts -->
<g id="edge42" class="edge">
<title>outcomeTracker.ts&#45;&gt;../handlers/project.ts</title>
<path fill="none" stroke="#757575" d="M1067.25,-345.23C1154.44,-341.42 1311.49,-334.55 1405.9,-330.42"/>
<polygon fill="#757575" stroke="#757575" points="1406.13,-333.91 1415.96,-329.98 1405.82,-326.92 1406.13,-333.91"/>
</g>
<!-- sessionMigrationManager.ts -->
<g id="node26" class="node">
<title>sessionMigrationManager.ts</title>
<path fill="none" stroke="#c6c5fe" d="M178.33,-163.5C178.33,-163.5 7.67,-163.5 7.67,-163.5 3.83,-163.5 0,-159.67 0,-155.83 0,-155.83 0,-148.17 0,-148.17 0,-144.33 3.83,-140.5 7.67,-140.5 7.67,-140.5 178.33,-140.5 178.33,-140.5 182.17,-140.5 186,-144.33 186,-148.17 186,-148.17 186,-155.83 186,-155.83 186,-159.67 182.17,-163.5 178.33,-163.5"/>
<text text-anchor="middle" x="93" y="-148.3" font-family="Arial" font-size="14.00" fill="#c6c5fe">sessionMigrationManager.ts</text>
</g>
<!-- sessionMigrationManager.ts&#45;&gt;../config/database.ts -->
<g id="edge53" class="edge">
<title>sessionMigrationManager.ts&#45;&gt;../config/database.ts</title>
<path fill="none" stroke="#757575" d="M107.94,-140.37C130.42,-122.28 176.75,-87.63 222,-70 390.17,-4.48 441.52,0 622,0 622,0 622,0 1672.5,0 1801.14,0 1842.8,-51.54 1915,-158 1931.07,-181.69 2008.32,-608.28 2026.61,-710.24"/>
<polygon fill="#757575" stroke="#757575" points="2023.2,-711.08 2028.41,-720.3 2030.09,-709.84 2023.2,-711.08"/>
</g>
<!-- sessionMigrationManager.ts&#45;&gt;../middleware/eventLogger.ts -->
<g id="edge55" class="edge">
<title>sessionMigrationManager.ts&#45;&gt;../middleware/eventLogger.ts</title>
<path fill="none" stroke="#757575" d="M95.97,-163.59C103.62,-204.73 135.33,-344.73 222,-410 297.07,-466.53 336.6,-437.58 430,-448 590.03,-465.85 997.64,-439.52 1154,-478 1171.18,-482.23 1173.41,-488.84 1190,-495 1201.53,-499.28 1214.09,-503.23 1226.16,-506.68"/>
<polygon fill="#757575" stroke="#757575" points="1225.58,-510.16 1236.16,-509.47 1227.46,-503.41 1225.58,-510.16"/>
</g>
<!-- sessionMigrationManager.ts&#45;&gt;../handlers/sessionAnalytics.ts -->
<g id="edge54" class="edge">
<title>sessionMigrationManager.ts&#45;&gt;../handlers/sessionAnalytics.ts</title>
<path fill="none" stroke="#757575" d="M128.3,-140.45C188.51,-120.85 317.51,-81.85 430,-68 600.27,-47.04 644.62,-60.18 816,-68 841.31,-69.15 868.49,-71.19 894.05,-73.46"/>
<polygon fill="#757575" stroke="#757575" points="893.86,-76.95 904.14,-74.37 894.49,-69.98 893.86,-76.95"/>
</g>
<!-- sessionMigrationManager.ts&#45;&gt;../utils/featureFlags.ts -->
<g id="edge56" class="edge">
<title>sessionMigrationManager.ts&#45;&gt;../utils/featureFlags.ts</title>
<path fill="none" stroke="#757575" d="M125.41,-163.58C184.21,-184.64 315.36,-228.75 430,-247 602.75,-274.5 808.34,-275.06 919.95,-272.72"/>
<polygon fill="#757575" stroke="#757575" points="920.21,-276.22 930.13,-272.5 920.05,-269.22 920.21,-276.22"/>
</g>
<!-- unifiedSessionManager.ts -->
<g id="node27" class="node">
<title>unifiedSessionManager.ts</title>
<path fill="none" stroke="#c6c5fe" d="M386.33,-163.5C386.33,-163.5 229.67,-163.5 229.67,-163.5 225.83,-163.5 222,-159.67 222,-155.83 222,-155.83 222,-148.17 222,-148.17 222,-144.33 225.83,-140.5 229.67,-140.5 229.67,-140.5 386.33,-140.5 386.33,-140.5 390.17,-140.5 394,-144.33 394,-148.17 394,-148.17 394,-155.83 394,-155.83 394,-159.67 390.17,-163.5 386.33,-163.5"/>
<text text-anchor="middle" x="308" y="-148.3" font-family="Arial" font-size="14.00" fill="#c6c5fe">unifiedSessionManager.ts</text>
</g>
<!-- sessionMigrationManager.ts&#45;&gt;unifiedSessionManager.ts -->
<g id="edge57" class="edge">
<title>sessionMigrationManager.ts&#45;&gt;unifiedSessionManager.ts</title>
<path fill="none" stroke="#757575" d="M186.19,-152C194.58,-152 203.09,-152 211.51,-152"/>
<polygon fill="#757575" stroke="#757575" points="211.72,-155.5 221.72,-152 211.72,-148.5 211.72,-155.5"/>
</g>
<!-- unifiedSessionManager.ts&#45;&gt;../config/database.ts -->
<g id="edge71" class="edge">
<title>unifiedSessionManager.ts&#45;&gt;../config/database.ts</title>
<path fill="none" stroke="#757575" d="M394.22,-144.07C406.23,-143.21 418.42,-142.48 430,-142 510.38,-138.68 1093.31,-92.2 1154,-145 1236.04,-216.37 1112.86,-310.36 1190,-387 1234.82,-431.53 1691.04,-454.61 1753,-467 1825.94,-481.59 1856.85,-462.62 1915,-509 1982.23,-562.62 2014.43,-665.99 2025.66,-710.62"/>
<polygon fill="#757575" stroke="#757575" points="2022.28,-711.5 2028.02,-720.4 2029.08,-709.86 2022.28,-711.5"/>
</g>
<!-- unifiedSessionManager.ts&#45;&gt;../middleware/eventLogger.ts -->
<g id="edge73" class="edge">
<title>unifiedSessionManager.ts&#45;&gt;../middleware/eventLogger.ts</title>
<path fill="none" stroke="#757575" d="M394.07,-149.47C597.38,-144.27 1098.74,-136.74 1154,-187 1237.69,-263.13 1135.99,-339.59 1190,-439 1205.08,-466.76 1233.51,-489.51 1255.16,-503.95"/>
<polygon fill="#757575" stroke="#757575" points="1253.38,-506.96 1263.68,-509.43 1257.17,-501.08 1253.38,-506.96"/>
</g>
<!-- unifiedSessionManager.ts&#45;&gt;../handlers/sessionAnalytics.ts -->
<g id="edge72" class="edge">
<title>unifiedSessionManager.ts&#45;&gt;../handlers/sessionAnalytics.ts</title>
<path fill="none" stroke="#757575" d="M329.18,-140.48C352.58,-127.82 392.7,-108.19 430,-100 588.59,-65.19 777.83,-68.72 893.94,-75.81"/>
<polygon fill="#757575" stroke="#757575" points="894.05,-79.33 904.25,-76.47 894.49,-72.34 894.05,-79.33"/>
</g>
<!-- unifiedSessionManager.ts&#45;&gt;../utils/featureFlags.ts -->
<g id="edge74" class="edge">
<title>unifiedSessionManager.ts&#45;&gt;../utils/featureFlags.ts</title>
<path fill="none" stroke="#757575" d="M327.02,-163.53C349.95,-177.58 391.25,-200.83 430,-212 475.92,-225.24 773.3,-251.13 920.17,-263.34"/>
<polygon fill="#757575" stroke="#757575" points="920.23,-266.85 930.48,-264.19 920.81,-259.88 920.23,-266.85"/>
</g>
<!-- sessionRouter.ts -->
<g id="node30" class="node">
<title>sessionRouter.ts</title>
<path fill="none" stroke="#c6c5fe" d="M673.33,-203.5C673.33,-203.5 572.67,-203.5 572.67,-203.5 568.83,-203.5 565,-199.67 565,-195.83 565,-195.83 565,-188.17 565,-188.17 565,-184.33 568.83,-180.5 572.67,-180.5 572.67,-180.5 673.33,-180.5 673.33,-180.5 677.17,-180.5 681,-184.33 681,-188.17 681,-188.17 681,-195.83 681,-195.83 681,-199.67 677.17,-203.5 673.33,-203.5"/>
<text text-anchor="middle" x="623" y="-188.3" font-family="Arial" font-size="14.00" fill="#c6c5fe">sessionRouter.ts</text>
</g>
<!-- unifiedSessionManager.ts&#45;&gt;sessionRouter.ts -->
<g id="edge75" class="edge">
<title>unifiedSessionManager.ts&#45;&gt;sessionRouter.ts</title>
<path fill="none" stroke="#757575" d="M394.12,-162.88C444.54,-169.32 507.55,-177.37 554.53,-183.38"/>
<polygon fill="#757575" stroke="#757575" points="554.24,-186.87 564.6,-184.66 555.12,-179.92 554.24,-186.87"/>
</g>
<!-- sessionMigrator.ts -->
<g id="node28" class="node">
<title>sessionMigrator.ts</title>
<path fill="none" stroke="#c6c5fe" d="M1340.33,-378.5C1340.33,-378.5 1229.67,-378.5 1229.67,-378.5 1225.83,-378.5 1222,-374.67 1222,-370.83 1222,-370.83 1222,-363.17 1222,-363.17 1222,-359.33 1225.83,-355.5 1229.67,-355.5 1229.67,-355.5 1340.33,-355.5 1340.33,-355.5 1344.17,-355.5 1348,-359.33 1348,-363.17 1348,-363.17 1348,-370.83 1348,-370.83 1348,-374.67 1344.17,-378.5 1340.33,-378.5"/>
<text text-anchor="middle" x="1285" y="-363.3" font-family="Arial" font-size="14.00" fill="#c6c5fe">sessionMigrator.ts</text>
</g>
<!-- sessionMigrator.ts&#45;&gt;../config/database.ts -->
<g id="edge58" class="edge">
<title>sessionMigrator.ts&#45;&gt;../config/database.ts</title>
<path fill="none" stroke="#757575" d="M1348.09,-369.44C1497.97,-375.85 1870.56,-395.04 1915,-429 2007.47,-499.65 2025.91,-653.77 2029.59,-710.49"/>
<polygon fill="#757575" stroke="#757575" points="2026.09,-710.69 2030.14,-720.48 2033.08,-710.3 2026.09,-710.69"/>
</g>
<!-- sessionMigrator.ts&#45;&gt;../handlers/project.ts -->
<g id="edge59" class="edge">
<title>sessionMigrator.ts&#45;&gt;../handlers/project.ts</title>
<path fill="none" stroke="#757575" d="M1343,-355.48C1366.1,-350.82 1392.93,-345.4 1416.95,-340.55"/>
<polygon fill="#757575" stroke="#757575" points="1417.95,-343.91 1427.06,-338.5 1416.56,-337.05 1417.95,-343.91"/>
</g>
<!-- sessionMigrator.ts&#45;&gt;projectSwitchValidator.ts -->
<g id="edge60" class="edge">
<title>sessionMigrator.ts&#45;&gt;projectSwitchValidator.ts</title>
<path fill="none" stroke="#757575" d="M1348.17,-364.05C1402.6,-361.06 1483.73,-355.63 1554,-347 1568.81,-345.18 1584.61,-342.78 1599.64,-340.28"/>
<polygon fill="#757575" stroke="#757575" points="1600.62,-343.66 1609.9,-338.53 1599.45,-336.76 1600.62,-343.66"/>
</g>
<!-- sessionMonitoring.ts -->
<g id="node29" class="node">
<title>sessionMonitoring.ts</title>
<path fill="none" stroke="#c6c5fe" d="M370.33,-321.5C370.33,-321.5 245.67,-321.5 245.67,-321.5 241.83,-321.5 238,-317.67 238,-313.83 238,-313.83 238,-306.17 238,-306.17 238,-302.33 241.83,-298.5 245.67,-298.5 245.67,-298.5 370.33,-298.5 370.33,-298.5 374.17,-298.5 378,-302.33 378,-306.17 378,-306.17 378,-313.83 378,-313.83 378,-317.67 374.17,-321.5 370.33,-321.5"/>
<text text-anchor="middle" x="308" y="-306.3" font-family="Arial" font-size="14.00" fill="#c6c5fe">sessionMonitoring.ts</text>
</g>
<!-- sessionMonitoring.ts&#45;&gt;../middleware/eventLogger.ts -->
<g id="edge61" class="edge">
<title>sessionMonitoring.ts&#45;&gt;../middleware/eventLogger.ts</title>
<path fill="none" stroke="#757575" d="M327.41,-321.63C350.41,-335.48 391.44,-358 430,-368 586.02,-408.48 1021.99,-319.51 1154,-412 1186.93,-435.07 1159.66,-468.62 1190,-495 1194.5,-498.91 1199.55,-502.24 1204.9,-505.08"/>
<polygon fill="#757575" stroke="#757575" points="1203.61,-508.34 1214.15,-509.39 1206.56,-501.99 1203.61,-508.34"/>
</g>
<!-- sessionMonitoring.ts&#45;&gt;../utils/featureFlags.ts -->
<g id="edge62" class="edge">
<title>sessionMonitoring.ts&#45;&gt;../utils/featureFlags.ts</title>
<path fill="none" stroke="#757575" d="M378.33,-306.97C475.99,-302.58 659.65,-293.89 816,-284 850.12,-281.84 887.73,-279.08 920.15,-276.58"/>
<polygon fill="#757575" stroke="#757575" points="920.78,-280.05 930.48,-275.78 920.24,-273.07 920.78,-280.05"/>
</g>
<!-- sessionMonitoring.ts&#45;&gt;sessionRouter.ts -->
<g id="edge63" class="edge">
<title>sessionMonitoring.ts&#45;&gt;sessionRouter.ts</title>
<path fill="none" stroke="#757575" d="M339.58,-298.47C396.38,-277.06 518.14,-231.15 581.62,-207.22"/>
<polygon fill="#757575" stroke="#757575" points="583.17,-210.38 591.29,-203.58 580.7,-203.83 583.17,-210.38"/>
</g>
<!-- sessionRouter.ts&#45;&gt;../middleware/eventLogger.ts -->
<g id="edge65" class="edge">
<title>sessionRouter.ts&#45;&gt;../middleware/eventLogger.ts</title>
<path fill="none" stroke="#757575" d="M681.12,-189.86C803.8,-186.54 1086.76,-186.09 1154,-249 1216.76,-307.72 1147.27,-364.43 1190,-439 1205.71,-466.41 1234.04,-489.21 1255.51,-503.76"/>
<polygon fill="#757575" stroke="#757575" points="1253.66,-506.73 1263.94,-509.29 1257.5,-500.88 1253.66,-506.73"/>
</g>
<!-- sessionRouter.ts&#45;&gt;../handlers/sessionAnalytics.ts -->
<g id="edge64" class="edge">
<title>sessionRouter.ts&#45;&gt;../handlers/sessionAnalytics.ts</title>
<path fill="none" stroke="#757575" d="M664.81,-180.45C734.42,-160.74 875.9,-120.7 951.58,-99.27"/>
<polygon fill="#757575" stroke="#757575" points="952.69,-102.6 961.36,-96.5 950.78,-95.86 952.69,-102.6"/>
</g>
<!-- sessionRouter.ts&#45;&gt;../utils/featureFlags.ts -->
<g id="edge66" class="edge">
<title>sessionRouter.ts&#45;&gt;../utils/featureFlags.ts</title>
<path fill="none" stroke="#757575" d="M681.06,-197.64C719.43,-201.94 771.03,-208.72 816,-218 864.68,-228.05 919.36,-243.9 956.76,-255.46"/>
<polygon fill="#757575" stroke="#757575" points="955.77,-258.82 966.36,-258.45 957.85,-252.13 955.77,-258.82"/>
</g>
<!-- sessionTimeout.ts -->
<g id="node31" class="node">
<title>sessionTimeout.ts</title>
<path fill="none" stroke="#c6c5fe" d="M1907.33,-1055.5C1907.33,-1055.5 1796.67,-1055.5 1796.67,-1055.5 1792.83,-1055.5 1789,-1051.67 1789,-1047.83 1789,-1047.83 1789,-1040.17 1789,-1040.17 1789,-1036.33 1792.83,-1032.5 1796.67,-1032.5 1796.67,-1032.5 1907.33,-1032.5 1907.33,-1032.5 1911.17,-1032.5 1915,-1036.33 1915,-1040.17 1915,-1040.17 1915,-1047.83 1915,-1047.83 1915,-1051.67 1911.17,-1055.5 1907.33,-1055.5"/>
<text text-anchor="middle" x="1852" y="-1040.3" font-family="Arial" font-size="14.00" fill="#c6c5fe">sessionTimeout.ts</text>
</g>
<!-- sessionTimeout.ts&#45;&gt;../config/database.ts -->
<g id="edge67" class="edge">
<title>sessionTimeout.ts&#45;&gt;../config/database.ts</title>
<path fill="none" stroke="#757575" d="M1893.58,-1032.43C1901.4,-1028.78 1909.02,-1024.06 1915,-1018 1991.39,-940.59 2019.27,-806 2027.53,-753.68"/>
<polygon fill="#757575" stroke="#757575" points="2031.03,-753.95 2029.04,-743.54 2024.1,-752.92 2031.03,-753.95"/>
</g>
</g>
</svg>
