<?xml version="1.0" encoding="UTF-8" standalone="no"?>
<!DOCTYPE svg PUBLIC "-//W3C//DTD SVG 1.1//EN"
 "http://www.w3.org/Graphics/SVG/1.1/DTD/svg11.dtd">
<!-- Generated by graphviz version 2.43.0 (0)
 -->
<!-- Title: G Pages: 1 -->
<svg width="2635pt" height="2510pt"
 viewBox="0.00 0.00 2635.20 2510.22" xmlns="http://www.w3.org/2000/svg" xmlns:xlink="http://www.w3.org/1999/xlink">
<g id="graph0" class="graph" transform="scale(1 1) rotate(0) translate(21.6 2488.62)">
<title>G</title>
<polygon fill="#111111" stroke="transparent" points="-21.6,21.6 -21.6,-2488.62 2613.6,-2488.62 2613.6,21.6 -21.6,21.6"/>
<!-- ../../../aidis&#45;command/backend/dist/services/gitService.d.ts -->
<g id="node1" class="node">
<title>../../../aidis&#45;command/backend/dist/services/gitService.d.ts</title>
<path fill="none" stroke="#c6c5fe" d="M1181.83,-2002.02C1181.83,-2002.02 832.17,-2002.02 832.17,-2002.02 828.33,-2002.02 824.5,-1998.19 824.5,-1994.36 824.5,-1994.36 824.5,-1986.69 824.5,-1986.69 824.5,-1982.86 828.33,-1979.02 832.17,-1979.02 832.17,-1979.02 1181.83,-1979.02 1181.83,-1979.02 1185.67,-1979.02 1189.5,-1982.86 1189.5,-1986.69 1189.5,-1986.69 1189.5,-1994.36 1189.5,-1994.36 1189.5,-1998.19 1185.67,-2002.02 1181.83,-2002.02"/>
<text text-anchor="middle" x="1007" y="-1986.82" font-family="Arial" font-size="14.00" fill="#c6c5fe">../../../aidis&#45;command/backend/dist/services/gitService.d.ts</text>
</g>
<!-- ../../../aidis&#45;command/backend/dist/types/git.d.ts -->
<g id="node2" class="node">
<title>../../../aidis&#45;command/backend/dist/types/git.d.ts</title>
<path fill="none" stroke="#ff6c60" d="M1530.33,-1961.02C1530.33,-1961.02 1243.67,-1961.02 1243.67,-1961.02 1239.83,-1961.02 1236,-1957.19 1236,-1953.36 1236,-1953.36 1236,-1945.69 1236,-1945.69 1236,-1941.86 1239.83,-1938.02 1243.67,-1938.02 1243.67,-1938.02 1530.33,-1938.02 1530.33,-1938.02 1534.17,-1938.02 1538,-1941.86 1538,-1945.69 1538,-1945.69 1538,-1953.36 1538,-1953.36 1538,-1957.19 1534.17,-1961.02 1530.33,-1961.02"/>
<text text-anchor="middle" x="1387" y="-1945.82" font-family="Arial" font-size="14.00" fill="#ff6c60">../../../aidis&#45;command/backend/dist/types/git.d.ts</text>
</g>
<!-- ../../../aidis&#45;command/backend/dist/services/gitService.d.ts&#45;&gt;../../../aidis&#45;command/backend/dist/types/git.d.ts -->
<g id="edge1" class="edge">
<title>../../../aidis&#45;command/backend/dist/services/gitService.d.ts&#45;&gt;../../../aidis&#45;command/backend/dist/types/git.d.ts</title>
<path fill="none" stroke="#757575" d="M1114.05,-1979.02C1162.47,-1973.77 1219.95,-1967.53 1269.57,-1962.15"/>
<polygon fill="#757575" stroke="#757575" points="1270.14,-1965.61 1279.71,-1961.05 1269.39,-1958.65 1270.14,-1965.61"/>
</g>
<!-- ../../../aidis&#45;command/backend/dist/types/git.d.ts&#45;&gt;../../../aidis&#45;command/backend/dist/types/git.d.ts -->
<g id="edge2" class="edge">
<title>../../../aidis&#45;command/backend/dist/types/git.d.ts&#45;&gt;../../../aidis&#45;command/backend/dist/types/git.d.ts</title>
<path fill="none" stroke="#757575" d="M1340.95,-1961.03C1323.73,-1969.94 1339.08,-1979.02 1387,-1979.02 1421.44,-1979.02 1439.06,-1974.33 1439.85,-1968.38"/>
<polygon fill="#757575" stroke="#757575" points="1442.41,-1965.99 1433.05,-1961.03 1437.27,-1970.75 1442.41,-1965.99"/>
</g>
<!-- ../../../aidis&#45;command/backend/dist/services/sessionDetail.d.ts -->
<g id="node3" class="node">
<title>../../../aidis&#45;command/backend/dist/services/sessionDetail.d.ts</title>
<path fill="none" stroke="#cfffac" d="M1192.33,-1961.02C1192.33,-1961.02 821.67,-1961.02 821.67,-1961.02 817.83,-1961.02 814,-1957.19 814,-1953.36 814,-1953.36 814,-1945.69 814,-1945.69 814,-1941.86 817.83,-1938.02 821.67,-1938.02 821.67,-1938.02 1192.33,-1938.02 1192.33,-1938.02 1196.17,-1938.02 1200,-1941.86 1200,-1945.69 1200,-1945.69 1200,-1953.36 1200,-1953.36 1200,-1957.19 1196.17,-1961.02 1192.33,-1961.02"/>
<text text-anchor="middle" x="1007" y="-1945.82" font-family="Arial" font-size="14.00" fill="#cfffac">../../../aidis&#45;command/backend/dist/services/sessionDetail.d.ts</text>
</g>
<!-- ../config/database.ts -->
<g id="node4" class="node">
<title>../config/database.ts</title>
<path fill="none" stroke="#cfffac" d="M2572.33,-1651.02C2572.33,-1651.02 2450.67,-1651.02 2450.67,-1651.02 2446.83,-1651.02 2443,-1647.19 2443,-1643.36 2443,-1643.36 2443,-1635.69 2443,-1635.69 2443,-1631.86 2446.83,-1628.02 2450.67,-1628.02 2450.67,-1628.02 2572.33,-1628.02 2572.33,-1628.02 2576.17,-1628.02 2580,-1631.86 2580,-1635.69 2580,-1635.69 2580,-1643.36 2580,-1643.36 2580,-1647.19 2576.17,-1651.02 2572.33,-1651.02"/>
<text text-anchor="middle" x="2511.5" y="-1635.82" font-family="Arial" font-size="14.00" fill="#cfffac">../config/database.ts</text>
</g>
<!-- ../middleware/eventLogger.ts -->
<g id="node5" class="node">
<title>../middleware/eventLogger.ts</title>
<path fill="none" stroke="#c6c5fe" d="M1756.33,-1457.02C1756.33,-1457.02 1581.67,-1457.02 1581.67,-1457.02 1577.83,-1457.02 1574,-1453.19 1574,-1449.36 1574,-1449.36 1574,-1441.69 1574,-1441.69 1574,-1437.86 1577.83,-1434.02 1581.67,-1434.02 1581.67,-1434.02 1756.33,-1434.02 1756.33,-1434.02 1760.17,-1434.02 1764,-1437.86 1764,-1441.69 1764,-1441.69 1764,-1449.36 1764,-1449.36 1764,-1453.19 1760.17,-1457.02 1756.33,-1457.02"/>
<text text-anchor="middle" x="1669" y="-1441.82" font-family="Arial" font-size="14.00" fill="#c6c5fe">../middleware/eventLogger.ts</text>
</g>
<!-- ../middleware/eventLogger.ts&#45;&gt;../config/database.ts -->
<g id="edge3" class="edge">
<title>../middleware/eventLogger.ts&#45;&gt;../config/database.ts</title>
<path fill="none" stroke="#757575" d="M1764.13,-1456.93C1904.08,-1475.45 2174.25,-1517.24 2395,-1587.52 2424.7,-1596.98 2456.92,-1611.91 2479.77,-1623.35"/>
<polygon fill="#757575" stroke="#757575" points="2478.45,-1626.6 2488.95,-1628.01 2481.62,-1620.36 2478.45,-1626.6"/>
</g>
<!-- project.ts -->
<g id="node6" class="node">
<title>project.ts</title>
<path fill="none" stroke="#ff6c60" d="M1882.83,-2101.02C1882.83,-2101.02 1827.17,-2101.02 1827.17,-2101.02 1823.33,-2101.02 1819.5,-2097.19 1819.5,-2093.36 1819.5,-2093.36 1819.5,-2085.69 1819.5,-2085.69 1819.5,-2081.86 1823.33,-2078.02 1827.17,-2078.02 1827.17,-2078.02 1882.83,-2078.02 1882.83,-2078.02 1886.67,-2078.02 1890.5,-2081.86 1890.5,-2085.69 1890.5,-2085.69 1890.5,-2093.36 1890.5,-2093.36 1890.5,-2097.19 1886.67,-2101.02 1882.83,-2101.02"/>
<text text-anchor="middle" x="1855" y="-2085.82" font-family="Arial" font-size="14.00" fill="#ff6c60">project.ts</text>
</g>
<!-- ../middleware/eventLogger.ts&#45;&gt;project.ts -->
<g id="edge4" class="edge">
<title>../middleware/eventLogger.ts&#45;&gt;project.ts</title>
<path fill="none" stroke="#757575" d="M1673.35,-1457.25C1695.32,-1534.15 1818.79,-1966.28 1847.87,-2068.05"/>
<polygon fill="#757575" stroke="#757575" points="1844.55,-2069.18 1850.66,-2077.83 1851.28,-2067.25 1844.55,-2069.18"/>
</g>
<!-- project.ts&#45;&gt;../config/database.ts -->
<g id="edge113" class="edge">
<title>project.ts&#45;&gt;../config/database.ts</title>
<path fill="none" stroke="#757575" d="M1890.83,-2080.25C1907.43,-2076.13 1927.63,-2071.53 1946,-2068.52 1995.46,-2060.42 2356.28,-2057.34 2395,-2025.52 2453.35,-1977.58 2495.43,-1735.93 2507.18,-1661.42"/>
<polygon fill="#757575" stroke="#757575" points="2510.68,-1661.74 2508.75,-1651.32 2503.76,-1660.67 2510.68,-1661.74"/>
</g>
<!-- ../services/projectSwitchValidator.ts -->
<g id="node15" class="node">
<title>../services/projectSwitchValidator.ts</title>
<path fill="none" stroke="#ff6c60" d="M2165.33,-2101.02C2165.33,-2101.02 1953.67,-2101.02 1953.67,-2101.02 1949.83,-2101.02 1946,-2097.19 1946,-2093.36 1946,-2093.36 1946,-2085.69 1946,-2085.69 1946,-2081.86 1949.83,-2078.02 1953.67,-2078.02 1953.67,-2078.02 2165.33,-2078.02 2165.33,-2078.02 2169.17,-2078.02 2173,-2081.86 2173,-2085.69 2173,-2085.69 2173,-2093.36 2173,-2093.36 2173,-2097.19 2169.17,-2101.02 2165.33,-2101.02"/>
<text text-anchor="middle" x="2059.5" y="-2085.82" font-family="Arial" font-size="14.00" fill="#ff6c60">../services/projectSwitchValidator.ts</text>
</g>
<!-- project.ts&#45;&gt;../services/projectSwitchValidator.ts -->
<g id="edge114" class="edge">
<title>project.ts&#45;&gt;../services/projectSwitchValidator.ts</title>
<path fill="none" stroke="#757575" d="M1890.81,-2084.28C1903.73,-2083.58 1919.24,-2083.13 1935.54,-2082.91"/>
<polygon fill="#757575" stroke="#757575" points="1935.81,-2086.41 1945.77,-2082.81 1935.74,-2079.41 1935.81,-2086.41"/>
</g>
<!-- ../services/complexityTracker.ts -->
<g id="node7" class="node">
<title>../services/complexityTracker.ts</title>
<path fill="none" stroke="#c6c5fe" d="M1101.83,-459.02C1101.83,-459.02 912.17,-459.02 912.17,-459.02 908.33,-459.02 904.5,-455.19 904.5,-451.36 904.5,-451.36 904.5,-443.69 904.5,-443.69 904.5,-439.86 908.33,-436.02 912.17,-436.02 912.17,-436.02 1101.83,-436.02 1101.83,-436.02 1105.67,-436.02 1109.5,-439.86 1109.5,-443.69 1109.5,-443.69 1109.5,-451.36 1109.5,-451.36 1109.5,-455.19 1105.67,-459.02 1101.83,-459.02"/>
<text text-anchor="middle" x="1007" y="-443.82" font-family="Arial" font-size="14.00" fill="#c6c5fe">../services/complexityTracker.ts</text>
</g>
<!-- ../services/complexityTracker.ts&#45;&gt;../config/database.ts -->
<g id="edge5" class="edge">
<title>../services/complexityTracker.ts&#45;&gt;../config/database.ts</title>
<path fill="none" stroke="#757575" d="M1109.76,-448.27C1239.39,-449.16 1470.34,-450.52 1668,-450.52 1668,-450.52 1668,-450.52 2060.5,-450.52 2209.65,-450.52 2288.56,-373.04 2395,-477.52 2479.69,-560.66 2506.08,-1463.82 2509.97,-1617.39"/>
<polygon fill="#757575" stroke="#757575" points="2506.48,-1617.93 2510.23,-1627.84 2513.48,-1617.75 2506.48,-1617.93"/>
</g>
<!-- ../services/complexityTracker.ts&#45;&gt;../middleware/eventLogger.ts -->
<g id="edge6" class="edge">
<title>../services/complexityTracker.ts&#45;&gt;../middleware/eventLogger.ts</title>
<path fill="none" stroke="#757575" d="M1109.9,-436.91C1141.33,-438.51 1174.38,-445.71 1200,-464.52 1233.73,-489.29 1204.59,-523.87 1236,-551.52 1340.4,-643.42 1445.02,-530.09 1538,-633.52 1647.11,-754.9 1665.02,-1307.16 1667.6,-1423.83"/>
<polygon fill="#757575" stroke="#757575" points="1664.11,-1424.08 1667.81,-1434.01 1671.1,-1423.94 1664.11,-1424.08"/>
</g>
<!-- ../services/sessionManager.ts -->
<g id="node8" class="node">
<title>../services/sessionManager.ts</title>
<path fill="none" stroke="#c6c5fe" d="M1476.33,-1057.02C1476.33,-1057.02 1297.67,-1057.02 1297.67,-1057.02 1293.83,-1057.02 1290,-1053.19 1290,-1049.36 1290,-1049.36 1290,-1041.69 1290,-1041.69 1290,-1037.86 1293.83,-1034.02 1297.67,-1034.02 1297.67,-1034.02 1476.33,-1034.02 1476.33,-1034.02 1480.17,-1034.02 1484,-1037.86 1484,-1041.69 1484,-1041.69 1484,-1049.36 1484,-1049.36 1484,-1053.19 1480.17,-1057.02 1476.33,-1057.02"/>
<text text-anchor="middle" x="1387" y="-1041.82" font-family="Arial" font-size="14.00" fill="#c6c5fe">../services/sessionManager.ts</text>
</g>
<!-- ../services/complexityTracker.ts&#45;&gt;../services/sessionManager.ts -->
<g id="edge7" class="edge">
<title>../services/complexityTracker.ts&#45;&gt;../services/sessionManager.ts</title>
<path fill="none" stroke="#757575" d="M1109.68,-439.79C1142.02,-442.52 1175.67,-451.53 1200,-473.52 1250.86,-519.49 1216.49,-557.8 1236,-623.52 1282.43,-779.95 1353.54,-963.5 1377.66,-1024.58"/>
<polygon fill="#757575" stroke="#757575" points="1374.43,-1025.92 1381.36,-1033.93 1380.94,-1023.34 1374.43,-1025.92"/>
</g>
<!-- ../services/sessionManager.ts&#45;&gt;../config/database.ts -->
<g id="edge26" class="edge">
<title>../services/sessionManager.ts&#45;&gt;../config/database.ts</title>
<path fill="none" stroke="#757575" d="M1438.37,-1057.1C1550.2,-1082.64 1812.6,-1141.52 1854,-1141.52 1854,-1141.52 1854,-1141.52 2060.5,-1141.52 2221.32,-1141.52 2285.97,-1161.3 2395,-1279.52 2488,-1380.36 2506.13,-1556.48 2509.65,-1617.77"/>
<polygon fill="#757575" stroke="#757575" points="2506.16,-1618.01 2510.16,-1627.83 2513.15,-1617.67 2506.16,-1618.01"/>
</g>
<!-- ../services/sessionManager.ts&#45;&gt;../middleware/eventLogger.ts -->
<g id="edge27" class="edge">
<title>../services/sessionManager.ts&#45;&gt;../middleware/eventLogger.ts</title>
<path fill="none" stroke="#757575" d="M1476.84,-1057.08C1498.98,-1063.6 1521.17,-1073.75 1538,-1089.52 1563.91,-1113.81 1638.59,-1350.37 1661.34,-1423.86"/>
<polygon fill="#757575" stroke="#757575" points="1658.13,-1425.31 1664.42,-1433.84 1664.82,-1423.25 1658.13,-1425.31"/>
</g>
<!-- ../services/embedding.ts -->
<g id="node9" class="node">
<title>../services/embedding.ts</title>
<path fill="none" stroke="#cfffac" d="M1742.83,-2447.02C1742.83,-2447.02 1595.17,-2447.02 1595.17,-2447.02 1591.33,-2447.02 1587.5,-2443.19 1587.5,-2439.36 1587.5,-2439.36 1587.5,-2431.69 1587.5,-2431.69 1587.5,-2427.86 1591.33,-2424.02 1595.17,-2424.02 1595.17,-2424.02 1742.83,-2424.02 1742.83,-2424.02 1746.67,-2424.02 1750.5,-2427.86 1750.5,-2431.69 1750.5,-2431.69 1750.5,-2439.36 1750.5,-2439.36 1750.5,-2443.19 1746.67,-2447.02 1742.83,-2447.02"/>
<text text-anchor="middle" x="1669" y="-2431.82" font-family="Arial" font-size="14.00" fill="#cfffac">../services/embedding.ts</text>
</g>
<!-- ../services/metricsAggregator.ts -->
<g id="node10" class="node">
<title>../services/metricsAggregator.ts</title>
<path fill="none" stroke="#c6c5fe" d="M1102.33,-695.02C1102.33,-695.02 911.67,-695.02 911.67,-695.02 907.83,-695.02 904,-691.19 904,-687.36 904,-687.36 904,-679.69 904,-679.69 904,-675.86 907.83,-672.02 911.67,-672.02 911.67,-672.02 1102.33,-672.02 1102.33,-672.02 1106.17,-672.02 1110,-675.86 1110,-679.69 1110,-679.69 1110,-687.36 1110,-687.36 1110,-691.19 1106.17,-695.02 1102.33,-695.02"/>
<text text-anchor="middle" x="1007" y="-679.82" font-family="Arial" font-size="14.00" fill="#c6c5fe">../services/metricsAggregator.ts</text>
</g>
<!-- ../services/metricsAggregator.ts&#45;&gt;../config/database.ts -->
<g id="edge8" class="edge">
<title>../services/metricsAggregator.ts&#45;&gt;../config/database.ts</title>
<path fill="none" stroke="#757575" d="M1061.96,-671.96C1197.31,-643.34 1548.87,-571.52 1668,-571.52 1668,-571.52 1668,-571.52 2060.5,-571.52 2296.29,-571.52 2477.54,-1466.78 2506.46,-1617.97"/>
<polygon fill="#757575" stroke="#757575" points="2503.04,-1618.72 2508.34,-1627.89 2509.92,-1617.42 2503.04,-1618.72"/>
</g>
<!-- ../services/metricsAggregator.ts&#45;&gt;../middleware/eventLogger.ts -->
<g id="edge9" class="edge">
<title>../services/metricsAggregator.ts&#45;&gt;../middleware/eventLogger.ts</title>
<path fill="none" stroke="#757575" d="M1110.22,-674.06C1246.24,-663.84 1476.75,-655.53 1538,-709.52 1648.69,-807.1 1665.31,-1312.23 1667.64,-1423.73"/>
<polygon fill="#757575" stroke="#757575" points="1664.14,-1423.86 1667.83,-1433.79 1671.14,-1423.72 1664.14,-1423.86"/>
</g>
<!-- ../services/metricsAggregator.ts&#45;&gt;../services/sessionManager.ts -->
<g id="edge10" class="edge">
<title>../services/metricsAggregator.ts&#45;&gt;../services/sessionManager.ts</title>
<path fill="none" stroke="#757575" d="M1020.71,-695.05C1051.68,-723.17 1133.36,-797.7 1200,-861.52 1261.96,-920.86 1333.73,-992.79 1367.11,-1026.44"/>
<polygon fill="#757575" stroke="#757575" points="1364.85,-1029.13 1374.38,-1033.76 1369.82,-1024.2 1364.85,-1029.13"/>
</g>
<!-- ../services/metricsCollector.ts -->
<g id="node11" class="node">
<title>../services/metricsCollector.ts</title>
<path fill="none" stroke="#c6c5fe" d="M734.33,-1307.02C734.33,-1307.02 557.67,-1307.02 557.67,-1307.02 553.83,-1307.02 550,-1303.19 550,-1299.36 550,-1299.36 550,-1291.69 550,-1291.69 550,-1287.86 553.83,-1284.02 557.67,-1284.02 557.67,-1284.02 734.33,-1284.02 734.33,-1284.02 738.17,-1284.02 742,-1287.86 742,-1291.69 742,-1291.69 742,-1299.36 742,-1299.36 742,-1303.19 738.17,-1307.02 734.33,-1307.02"/>
<text text-anchor="middle" x="646" y="-1291.82" font-family="Arial" font-size="14.00" fill="#c6c5fe">../services/metricsCollector.ts</text>
</g>
<!-- ../services/metricsCollector.ts&#45;&gt;../config/database.ts -->
<g id="edge11" class="edge">
<title>../services/metricsCollector.ts&#45;&gt;../config/database.ts</title>
<path fill="none" stroke="#757575" d="M742.08,-1295.1C882.78,-1294.51 1154.74,-1293.52 1386,-1293.52 1386,-1293.52 1386,-1293.52 2060.5,-1293.52 2275.54,-1293.52 2450.93,-1544.9 2498.03,-1619.12"/>
<polygon fill="#757575" stroke="#757575" points="2495.32,-1621.39 2503.59,-1628.01 2501.25,-1617.68 2495.32,-1621.39"/>
</g>
<!-- ../services/metricsCollector.ts&#45;&gt;../middleware/eventLogger.ts -->
<g id="edge12" class="edge">
<title>../services/metricsCollector.ts&#45;&gt;../middleware/eventLogger.ts</title>
<path fill="none" stroke="#757575" d="M742.34,-1302.73C940.12,-1318.21 1389.01,-1356.27 1538,-1393.52 1572.29,-1402.1 1609.57,-1417.71 1635.38,-1429.6"/>
<polygon fill="#757575" stroke="#757575" points="1634.14,-1432.88 1644.68,-1433.95 1637.11,-1426.54 1634.14,-1432.88"/>
</g>
<!-- ../services/metricsCollector.ts&#45;&gt;../services/sessionManager.ts -->
<g id="edge14" class="edge">
<title>../services/metricsCollector.ts&#45;&gt;../services/sessionManager.ts</title>
<path fill="none" stroke="#757575" d="M739.48,-1284C874.76,-1266.21 1119.31,-1230.26 1200,-1193.52 1270.63,-1161.36 1337.87,-1096.58 1368.58,-1064.47"/>
<polygon fill="#757575" stroke="#757575" points="1371.26,-1066.72 1375.58,-1057.04 1366.17,-1061.92 1371.26,-1066.72"/>
</g>
<!-- ../services/patternDetector.ts -->
<g id="node12" class="node">
<title>../services/patternDetector.ts</title>
<path fill="none" stroke="#c6c5fe" d="M1093.33,-1649.02C1093.33,-1649.02 920.67,-1649.02 920.67,-1649.02 916.83,-1649.02 913,-1645.19 913,-1641.36 913,-1641.36 913,-1633.69 913,-1633.69 913,-1629.86 916.83,-1626.02 920.67,-1626.02 920.67,-1626.02 1093.33,-1626.02 1093.33,-1626.02 1097.17,-1626.02 1101,-1629.86 1101,-1633.69 1101,-1633.69 1101,-1641.36 1101,-1641.36 1101,-1645.19 1097.17,-1649.02 1093.33,-1649.02"/>
<text text-anchor="middle" x="1007" y="-1633.82" font-family="Arial" font-size="14.00" fill="#c6c5fe">../services/patternDetector.ts</text>
</g>
<!-- ../services/metricsCollector.ts&#45;&gt;../services/patternDetector.ts -->
<g id="edge13" class="edge">
<title>../services/metricsCollector.ts&#45;&gt;../services/patternDetector.ts</title>
<path fill="none" stroke="#757575" d="M659.36,-1307.3C712.33,-1357.76 920.48,-1556.05 986.08,-1618.55"/>
<polygon fill="#757575" stroke="#757575" points="984.04,-1621.44 993.69,-1625.8 988.87,-1616.37 984.04,-1621.44"/>
</g>
<!-- ../services/patternDetector.ts&#45;&gt;../config/database.ts -->
<g id="edge20" class="edge">
<title>../services/patternDetector.ts&#45;&gt;../config/database.ts</title>
<path fill="none" stroke="#757575" d="M1101.07,-1646.72C1228.77,-1658.54 1465.53,-1677.52 1668,-1677.52 1668,-1677.52 1668,-1677.52 2060.5,-1677.52 2191.48,-1677.52 2343.15,-1661.34 2432.72,-1650.1"/>
<polygon fill="#757575" stroke="#757575" points="2433.32,-1653.55 2442.8,-1648.82 2432.44,-1646.6 2433.32,-1653.55"/>
</g>
<!-- ../services/patternDetector.ts&#45;&gt;../middleware/eventLogger.ts -->
<g id="edge21" class="edge">
<title>../services/patternDetector.ts&#45;&gt;../middleware/eventLogger.ts</title>
<path fill="none" stroke="#757575" d="M1101.41,-1633.4C1210.43,-1625.66 1394.11,-1603.43 1538,-1539.52 1581.22,-1520.33 1624.3,-1485.24 1648.41,-1463.79"/>
<polygon fill="#757575" stroke="#757575" points="1650.76,-1466.38 1655.83,-1457.08 1646.07,-1461.19 1650.76,-1466.38"/>
</g>
<!-- ../services/patternDetector.ts&#45;&gt;../services/sessionManager.ts -->
<g id="edge22" class="edge">
<title>../services/patternDetector.ts&#45;&gt;../services/sessionManager.ts</title>
<path fill="none" stroke="#757575" d="M1031.62,-1625.88C1071.44,-1605.18 1152.24,-1558.36 1200,-1497.52 1311.68,-1355.27 1366.33,-1136.58 1381.5,-1067.33"/>
<polygon fill="#757575" stroke="#757575" points="1384.99,-1067.71 1383.66,-1057.2 1378.15,-1066.24 1384.99,-1067.71"/>
</g>
<!-- ../services/metricsCorrelation.ts -->
<g id="node13" class="node">
<title>../services/metricsCorrelation.ts</title>
<path fill="none" stroke="#c6c5fe" d="M1482.33,-543.02C1482.33,-543.02 1291.67,-543.02 1291.67,-543.02 1287.83,-543.02 1284,-539.19 1284,-535.36 1284,-535.36 1284,-527.69 1284,-527.69 1284,-523.86 1287.83,-520.02 1291.67,-520.02 1291.67,-520.02 1482.33,-520.02 1482.33,-520.02 1486.17,-520.02 1490,-523.86 1490,-527.69 1490,-527.69 1490,-535.36 1490,-535.36 1490,-539.19 1486.17,-543.02 1482.33,-543.02"/>
<text text-anchor="middle" x="1387" y="-527.82" font-family="Arial" font-size="14.00" fill="#c6c5fe">../services/metricsCorrelation.ts</text>
</g>
<!-- ../services/metricsCorrelation.ts&#45;&gt;../config/database.ts -->
<g id="edge15" class="edge">
<title>../services/metricsCorrelation.ts&#45;&gt;../config/database.ts</title>
<path fill="none" stroke="#757575" d="M1490.27,-531.87C1584.69,-532.16 1728.8,-532.52 1854,-532.52 1854,-532.52 1854,-532.52 2060.5,-532.52 2135.04,-532.52 2341.46,-505.66 2395,-557.52 2474.18,-634.23 2504.99,-1470.66 2509.81,-1617.56"/>
<polygon fill="#757575" stroke="#757575" points="2506.33,-1618.07 2510.15,-1627.95 2513.32,-1617.84 2506.33,-1618.07"/>
</g>
<!-- ../services/metricsCorrelation.ts&#45;&gt;../middleware/eventLogger.ts -->
<g id="edge16" class="edge">
<title>../services/metricsCorrelation.ts&#45;&gt;../middleware/eventLogger.ts</title>
<path fill="none" stroke="#757575" d="M1450.11,-543.11C1481.2,-552.15 1516.66,-568 1538,-595.52 1642.8,-730.66 1664.14,-1304.72 1667.47,-1423.83"/>
<polygon fill="#757575" stroke="#757575" points="1663.97,-1424 1667.74,-1433.91 1670.97,-1423.82 1663.97,-1424"/>
</g>
<!-- ../services/outcomeTracker.ts -->
<g id="node14" class="node">
<title>../services/outcomeTracker.ts</title>
<path fill="none" stroke="#c6c5fe" d="M1475.83,-1843.02C1475.83,-1843.02 1298.17,-1843.02 1298.17,-1843.02 1294.33,-1843.02 1290.5,-1839.19 1290.5,-1835.36 1290.5,-1835.36 1290.5,-1827.69 1290.5,-1827.69 1290.5,-1823.86 1294.33,-1820.02 1298.17,-1820.02 1298.17,-1820.02 1475.83,-1820.02 1475.83,-1820.02 1479.67,-1820.02 1483.5,-1823.86 1483.5,-1827.69 1483.5,-1827.69 1483.5,-1835.36 1483.5,-1835.36 1483.5,-1839.19 1479.67,-1843.02 1475.83,-1843.02"/>
<text text-anchor="middle" x="1387" y="-1827.82" font-family="Arial" font-size="14.00" fill="#c6c5fe">../services/outcomeTracker.ts</text>
</g>
<!-- ../services/outcomeTracker.ts&#45;&gt;../config/database.ts -->
<g id="edge17" class="edge">
<title>../services/outcomeTracker.ts&#45;&gt;../config/database.ts</title>
<path fill="none" stroke="#757575" d="M1448.55,-1820.02C1570.06,-1797.01 1833.81,-1747.52 1854,-1747.52 1854,-1747.52 1854,-1747.52 2060.5,-1747.52 2211.24,-1747.52 2250.75,-1735.27 2395,-1691.52 2424.83,-1682.48 2457.04,-1667.51 2479.84,-1655.94"/>
<polygon fill="#757575" stroke="#757575" points="2481.72,-1658.91 2489.01,-1651.23 2478.52,-1652.69 2481.72,-1658.91"/>
</g>
<!-- ../services/outcomeTracker.ts&#45;&gt;../middleware/eventLogger.ts -->
<g id="edge18" class="edge">
<title>../services/outcomeTracker.ts&#45;&gt;../middleware/eventLogger.ts</title>
<path fill="none" stroke="#757575" d="M1483.75,-1830.1C1503.39,-1825.87 1522.71,-1818.35 1538,-1805.52 1565.54,-1782.42 1639.39,-1541.23 1661.6,-1467.08"/>
<polygon fill="#757575" stroke="#757575" points="1664.98,-1467.99 1664.49,-1457.4 1658.27,-1465.98 1664.98,-1467.99"/>
</g>
<!-- ../services/outcomeTracker.ts&#45;&gt;project.ts -->
<g id="edge19" class="edge">
<title>../services/outcomeTracker.ts&#45;&gt;project.ts</title>
<path fill="none" stroke="#757575" d="M1408.93,-1843.11C1483.6,-1884.45 1737.12,-2024.81 1824.28,-2073.07"/>
<polygon fill="#757575" stroke="#757575" points="1822.69,-2076.19 1833.13,-2077.97 1826.08,-2070.06 1822.69,-2076.19"/>
</g>
<!-- ../services/projectSwitchValidator.ts&#45;&gt;../config/database.ts -->
<g id="edge23" class="edge">
<title>../services/projectSwitchValidator.ts&#45;&gt;../config/database.ts</title>
<path fill="none" stroke="#757575" d="M2107.13,-2101.08C2177.97,-2115.65 2313.1,-2131.29 2395,-2063.52 2459.01,-2010.56 2497.7,-1740.84 2507.83,-1661.5"/>
<polygon fill="#757575" stroke="#757575" points="2511.34,-1661.58 2509.11,-1651.23 2504.4,-1660.71 2511.34,-1661.58"/>
</g>
<!-- ../services/projectSwitchValidator.ts&#45;&gt;project.ts -->
<g id="edge25" class="edge">
<title>../services/projectSwitchValidator.ts&#45;&gt;project.ts</title>
<path fill="none" stroke="#757575" d="M1945.77,-2096.23C1930.01,-2096.13 1914.62,-2095.8 1901.16,-2095.25"/>
<polygon fill="#757575" stroke="#757575" points="1900.96,-2091.74 1890.81,-2094.76 1900.64,-2098.73 1900.96,-2091.74"/>
</g>
<!-- ../services/sessionTracker.ts -->
<g id="node16" class="node">
<title>../services/sessionTracker.ts</title>
<path fill="none" stroke="#ff6c60" d="M2387.33,-2335.02C2387.33,-2335.02 2216.67,-2335.02 2216.67,-2335.02 2212.83,-2335.02 2209,-2331.19 2209,-2327.36 2209,-2327.36 2209,-2319.69 2209,-2319.69 2209,-2315.86 2212.83,-2312.02 2216.67,-2312.02 2216.67,-2312.02 2387.33,-2312.02 2387.33,-2312.02 2391.17,-2312.02 2395,-2315.86 2395,-2319.69 2395,-2319.69 2395,-2327.36 2395,-2327.36 2395,-2331.19 2391.17,-2335.02 2387.33,-2335.02"/>
<text text-anchor="middle" x="2302" y="-2319.82" font-family="Arial" font-size="14.00" fill="#ff6c60">../services/sessionTracker.ts</text>
</g>
<!-- ../services/projectSwitchValidator.ts&#45;&gt;../services/sessionTracker.ts -->
<g id="edge24" class="edge">
<title>../services/projectSwitchValidator.ts&#45;&gt;../services/sessionTracker.ts</title>
<path fill="none" stroke="#757575" d="M2072.43,-2101.13C2111.21,-2138.86 2234.01,-2258.35 2281.75,-2304.8"/>
<polygon fill="#757575" stroke="#757575" points="2279.39,-2307.38 2289,-2311.85 2284.28,-2302.37 2279.39,-2307.38"/>
</g>
<!-- ../services/sessionTracker.ts&#45;&gt;../config/database.ts -->
<g id="edge28" class="edge">
<title>../services/sessionTracker.ts&#45;&gt;../config/database.ts</title>
<path fill="none" stroke="#757575" d="M2373.71,-2311.92C2381.73,-2308.11 2389.12,-2303.1 2395,-2296.52 2481.97,-2199.28 2505.32,-1764.31 2509.67,-1661.4"/>
<polygon fill="#757575" stroke="#757575" points="2513.17,-1661.4 2510.08,-1651.26 2506.18,-1661.11 2513.17,-1661.4"/>
</g>
<!-- ../services/sessionTracker.ts&#45;&gt;project.ts -->
<g id="edge30" class="edge">
<title>../services/sessionTracker.ts&#45;&gt;project.ts</title>
<path fill="none" stroke="#757575" d="M2208.94,-2329.28C2117.89,-2333.08 1986.49,-2332.86 1946,-2303.52 1910.44,-2277.76 1926.89,-2252.05 1910,-2211.52 1895.11,-2175.79 1876.65,-2134.72 1865.62,-2110.51"/>
<polygon fill="#757575" stroke="#757575" points="1868.72,-2108.87 1861.38,-2101.23 1862.35,-2111.78 1868.72,-2108.87"/>
</g>
<!-- ../utils/agentDetection.ts -->
<g id="node17" class="node">
<title>../utils/agentDetection.ts</title>
<path fill="none" stroke="#cfffac" d="M2584.33,-2335.02C2584.33,-2335.02 2438.67,-2335.02 2438.67,-2335.02 2434.83,-2335.02 2431,-2331.19 2431,-2327.36 2431,-2327.36 2431,-2319.69 2431,-2319.69 2431,-2315.86 2434.83,-2312.02 2438.67,-2312.02 2438.67,-2312.02 2584.33,-2312.02 2584.33,-2312.02 2588.17,-2312.02 2592,-2315.86 2592,-2319.69 2592,-2319.69 2592,-2327.36 2592,-2327.36 2592,-2331.19 2588.17,-2335.02 2584.33,-2335.02"/>
<text text-anchor="middle" x="2511.5" y="-2319.82" font-family="Arial" font-size="14.00" fill="#cfffac">../utils/agentDetection.ts</text>
</g>
<!-- ../services/sessionTracker.ts&#45;&gt;../utils/agentDetection.ts -->
<g id="edge29" class="edge">
<title>../services/sessionTracker.ts&#45;&gt;../utils/agentDetection.ts</title>
<path fill="none" stroke="#757575" d="M2395.22,-2323.52C2403.69,-2323.52 2412.25,-2323.52 2420.7,-2323.52"/>
<polygon fill="#757575" stroke="#757575" points="2420.92,-2327.02 2430.92,-2323.52 2420.92,-2320.02 2420.92,-2327.02"/>
</g>
<!-- ../types/consolidated&#45;complexity.ts -->
<g id="node18" class="node">
<title>../types/consolidated&#45;complexity.ts</title>
<path fill="none" stroke="#cfffac" d="M1110.33,-539.02C1110.33,-539.02 903.67,-539.02 903.67,-539.02 899.83,-539.02 896,-535.19 896,-531.36 896,-531.36 896,-523.69 896,-523.69 896,-519.86 899.83,-516.02 903.67,-516.02 903.67,-516.02 1110.33,-516.02 1110.33,-516.02 1114.17,-516.02 1118,-519.86 1118,-523.69 1118,-523.69 1118,-531.36 1118,-531.36 1118,-535.19 1114.17,-539.02 1110.33,-539.02"/>
<text text-anchor="middle" x="1007" y="-523.82" font-family="Arial" font-size="14.00" fill="#cfffac">../types/consolidated&#45;complexity.ts</text>
</g>
<!-- _deprecated_tt009/developmentMetrics.ts -->
<g id="node19" class="node">
<title>_deprecated_tt009/developmentMetrics.ts</title>
<path fill="none" stroke="#c6c5fe" d="M470.33,-1251.02C470.33,-1251.02 216.67,-1251.02 216.67,-1251.02 212.83,-1251.02 209,-1247.19 209,-1243.36 209,-1243.36 209,-1235.69 209,-1235.69 209,-1231.86 212.83,-1228.02 216.67,-1228.02 216.67,-1228.02 470.33,-1228.02 470.33,-1228.02 474.17,-1228.02 478,-1231.86 478,-1235.69 478,-1235.69 478,-1243.36 478,-1243.36 478,-1247.19 474.17,-1251.02 470.33,-1251.02"/>
<text text-anchor="middle" x="343.5" y="-1235.82" font-family="Arial" font-size="14.00" fill="#c6c5fe">_deprecated_tt009/developmentMetrics.ts</text>
</g>
<!-- _deprecated_tt009/developmentMetrics.ts&#45;&gt;../config/database.ts -->
<g id="edge31" class="edge">
<title>_deprecated_tt009/developmentMetrics.ts&#45;&gt;../config/database.ts</title>
<path fill="none" stroke="#757575" d="M363.02,-1227.96C393.53,-1207.7 453.44,-1162.56 478,-1106.52 519.42,-1012.01 442.37,-252.8 514,-178.52 590.11,-99.6 896.36,-141.52 1006,-141.52 1006,-141.52 1006,-141.52 2060.5,-141.52 2135.11,-141.52 2342.45,-117.55 2395,-170.52 2501.66,-278.04 2509.82,-1443.57 2510.45,-1617.79"/>
<polygon fill="#757575" stroke="#757575" points="2506.95,-1617.82 2510.48,-1627.81 2513.95,-1617.8 2506.95,-1617.82"/>
</g>
<!-- _deprecated_tt009/developmentMetrics.ts&#45;&gt;../middleware/eventLogger.ts -->
<g id="edge32" class="edge">
<title>_deprecated_tt009/developmentMetrics.ts&#45;&gt;../middleware/eventLogger.ts</title>
<path fill="none" stroke="#757575" d="M364.61,-1251.02C395.6,-1268.16 457.38,-1300.05 514,-1315.52 891,-1418.58 1358.76,-1440.1 1563.65,-1444.48"/>
<polygon fill="#757575" stroke="#757575" points="1563.73,-1447.98 1573.8,-1444.69 1563.87,-1440.98 1563.73,-1447.98"/>
</g>
<!-- _deprecated_tt009/developmentMetrics.ts&#45;&gt;../services/sessionManager.ts -->
<g id="edge34" class="edge">
<title>_deprecated_tt009/developmentMetrics.ts&#45;&gt;../services/sessionManager.ts</title>
<path fill="none" stroke="#757575" d="M357.32,-1227.74C384.08,-1203.95 448.8,-1150.5 514,-1127.52 652.58,-1078.68 1078.9,-1056.85 1279.53,-1049.08"/>
<polygon fill="#757575" stroke="#757575" points="1279.93,-1052.57 1289.79,-1048.69 1279.66,-1045.58 1279.93,-1052.57"/>
</g>
<!-- _deprecated_tt009/developmentMetrics.ts&#45;&gt;../services/metricsCollector.ts -->
<g id="edge33" class="edge">
<title>_deprecated_tt009/developmentMetrics.ts&#45;&gt;../services/metricsCollector.ts</title>
<path fill="none" stroke="#757575" d="M406.4,-1251.06C454.88,-1260.09 522.4,-1272.68 573.25,-1282.15"/>
<polygon fill="#757575" stroke="#757575" points="572.71,-1285.61 583.18,-1284 573.99,-1278.73 572.71,-1285.61"/>
</g>
<!-- _deprecated_tt009/metricsAggregation.ts -->
<g id="node20" class="node">
<title>_deprecated_tt009/metricsAggregation.ts</title>
<path fill="none" stroke="#c6c5fe" d="M770.33,-772.02C770.33,-772.02 521.67,-772.02 521.67,-772.02 517.83,-772.02 514,-768.19 514,-764.36 514,-764.36 514,-756.69 514,-756.69 514,-752.86 517.83,-749.02 521.67,-749.02 521.67,-749.02 770.33,-749.02 770.33,-749.02 774.17,-749.02 778,-752.86 778,-756.69 778,-756.69 778,-764.36 778,-764.36 778,-768.19 774.17,-772.02 770.33,-772.02"/>
<text text-anchor="middle" x="646" y="-756.82" font-family="Arial" font-size="14.00" fill="#c6c5fe">_deprecated_tt009/metricsAggregation.ts</text>
</g>
<!-- _deprecated_tt009/metricsAggregation.ts&#45;&gt;../middleware/eventLogger.ts -->
<g id="edge35" class="edge">
<title>_deprecated_tt009/metricsAggregation.ts&#45;&gt;../middleware/eventLogger.ts</title>
<path fill="none" stroke="#757575" d="M767.87,-772.05C771.33,-773.41 774.72,-774.89 778,-776.52 798.56,-786.72 793.77,-802.69 814,-813.52 967.84,-895.92 1032.64,-836.07 1200,-885.52 1355.77,-931.55 1428.47,-904.58 1538,-1024.52 1647.47,-1144.4 1664.78,-1354.85 1667.5,-1423.32"/>
<polygon fill="#757575" stroke="#757575" points="1664.01,-1423.85 1667.84,-1433.73 1671.01,-1423.62 1664.01,-1423.85"/>
</g>
<!-- _deprecated_tt009/metricsAggregation.ts&#45;&gt;../services/sessionManager.ts -->
<g id="edge38" class="edge">
<title>_deprecated_tt009/metricsAggregation.ts&#45;&gt;../services/sessionManager.ts</title>
<path fill="none" stroke="#757575" d="M657.75,-772.33C682.43,-798.58 746.25,-861.62 814,-889.52 973.85,-955.36 1036.17,-882.34 1200,-937.52 1263.34,-958.86 1329.04,-1003.16 1362.83,-1027.88"/>
<polygon fill="#757575" stroke="#757575" points="1360.99,-1030.87 1371.1,-1034.01 1365.15,-1025.24 1360.99,-1030.87"/>
</g>
<!-- _deprecated_tt009/metricsAggregation.ts&#45;&gt;../services/metricsAggregator.ts -->
<g id="edge36" class="edge">
<title>_deprecated_tt009/metricsAggregation.ts&#45;&gt;../services/metricsAggregator.ts</title>
<path fill="none" stroke="#757575" d="M700.75,-749C765.35,-735.14 873.61,-711.92 942.34,-697.18"/>
<polygon fill="#757575" stroke="#757575" points="943.14,-700.59 952.18,-695.07 941.67,-693.74 943.14,-700.59"/>
</g>
<!-- _deprecated_tt009/metricsAggregation.ts&#45;&gt;../services/metricsCorrelation.ts -->
<g id="edge37" class="edge">
<title>_deprecated_tt009/metricsAggregation.ts&#45;&gt;../services/metricsCorrelation.ts</title>
<path fill="none" stroke="#757575" d="M662.7,-748.93C691.29,-728.38 754.42,-685.55 814,-662.52 977.51,-599.34 1038.37,-649.37 1200,-581.52 1217.73,-574.08 1218.14,-564.65 1236,-557.52 1248.44,-552.56 1261.84,-548.54 1275.33,-545.28"/>
<polygon fill="#757575" stroke="#757575" points="1276.18,-548.68 1285.15,-543.05 1274.62,-541.85 1276.18,-548.68"/>
</g>
<!-- _deprecated_tt009/patternAnalysis.ts -->
<g id="node21" class="node">
<title>_deprecated_tt009/patternAnalysis.ts</title>
<path fill="none" stroke="#c6c5fe" d="M757.83,-1533.02C757.83,-1533.02 534.17,-1533.02 534.17,-1533.02 530.33,-1533.02 526.5,-1529.19 526.5,-1525.36 526.5,-1525.36 526.5,-1517.69 526.5,-1517.69 526.5,-1513.86 530.33,-1510.02 534.17,-1510.02 534.17,-1510.02 757.83,-1510.02 757.83,-1510.02 761.67,-1510.02 765.5,-1513.86 765.5,-1517.69 765.5,-1517.69 765.5,-1525.36 765.5,-1525.36 765.5,-1529.19 761.67,-1533.02 757.83,-1533.02"/>
<text text-anchor="middle" x="646" y="-1517.82" font-family="Arial" font-size="14.00" fill="#c6c5fe">_deprecated_tt009/patternAnalysis.ts</text>
</g>
<!-- _deprecated_tt009/patternAnalysis.ts&#45;&gt;../config/database.ts -->
<g id="edge39" class="edge">
<title>_deprecated_tt009/patternAnalysis.ts&#45;&gt;../config/database.ts</title>
<path fill="none" stroke="#757575" d="M734.57,-1533.03C910.9,-1555.17 1321.51,-1601.52 1668,-1601.52 1668,-1601.52 1668,-1601.52 2060.5,-1601.52 2191.48,-1601.52 2343.15,-1617.71 2432.72,-1628.95"/>
<polygon fill="#757575" stroke="#757575" points="2432.44,-1632.44 2442.8,-1630.23 2433.32,-1625.5 2432.44,-1632.44"/>
</g>
<!-- _deprecated_tt009/patternAnalysis.ts&#45;&gt;../middleware/eventLogger.ts -->
<g id="edge40" class="edge">
<title>_deprecated_tt009/patternAnalysis.ts&#45;&gt;../middleware/eventLogger.ts</title>
<path fill="none" stroke="#757575" d="M765.65,-1514.7C936.52,-1504.54 1261.72,-1484 1538,-1459.52 1546.37,-1458.78 1555.04,-1457.96 1563.74,-1457.1"/>
<polygon fill="#757575" stroke="#757575" points="1564.36,-1460.56 1573.96,-1456.08 1563.66,-1453.59 1564.36,-1460.56"/>
</g>
<!-- _deprecated_tt009/patternAnalysis.ts&#45;&gt;../services/sessionManager.ts -->
<g id="edge42" class="edge">
<title>_deprecated_tt009/patternAnalysis.ts&#45;&gt;../services/sessionManager.ts</title>
<path fill="none" stroke="#757575" d="M758.99,-1510.02C879.44,-1492.57 1070.99,-1449.56 1200,-1345.52 1297.94,-1266.54 1358.42,-1121.28 1378.53,-1066.86"/>
<polygon fill="#757575" stroke="#757575" points="1381.9,-1067.83 1382.01,-1057.23 1375.32,-1065.44 1381.9,-1067.83"/>
</g>
<!-- _deprecated_tt009/patternAnalysis.ts&#45;&gt;../services/patternDetector.ts -->
<g id="edge41" class="edge">
<title>_deprecated_tt009/patternAnalysis.ts&#45;&gt;../services/patternDetector.ts</title>
<path fill="none" stroke="#757575" d="M682.73,-1533.07C748.37,-1554.28 888.02,-1599.4 960.39,-1622.79"/>
<polygon fill="#757575" stroke="#757575" points="959.55,-1626.19 970.14,-1625.94 961.7,-1619.53 959.55,-1626.19"/>
</g>
<!-- _deprecated_tt009/patternDetection.ts -->
<g id="node22" class="node">
<title>_deprecated_tt009/patternDetection.ts</title>
<path fill="none" stroke="#c6c5fe" d="M458.83,-1765.02C458.83,-1765.02 228.17,-1765.02 228.17,-1765.02 224.33,-1765.02 220.5,-1761.19 220.5,-1757.36 220.5,-1757.36 220.5,-1749.69 220.5,-1749.69 220.5,-1745.86 224.33,-1742.02 228.17,-1742.02 228.17,-1742.02 458.83,-1742.02 458.83,-1742.02 462.67,-1742.02 466.5,-1745.86 466.5,-1749.69 466.5,-1749.69 466.5,-1757.36 466.5,-1757.36 466.5,-1761.19 462.67,-1765.02 458.83,-1765.02"/>
<text text-anchor="middle" x="343.5" y="-1749.82" font-family="Arial" font-size="14.00" fill="#c6c5fe">_deprecated_tt009/patternDetection.ts</text>
</g>
<!-- _deprecated_tt009/patternDetection.ts&#45;&gt;../config/database.ts -->
<g id="edge43" class="edge">
<title>_deprecated_tt009/patternDetection.ts&#45;&gt;../config/database.ts</title>
<path fill="none" stroke="#757575" d="M466.5,-1764.16C470.45,-1765.76 474.29,-1767.54 478,-1769.52 499.68,-1781.11 495.58,-1795.24 514,-1811.52 633.87,-1917.5 660.81,-1964.33 814,-2010.52 891.06,-2033.76 1459.66,-2005.98 1538,-1987.52 1554.87,-1983.55 1557.63,-1978.22 1574,-1972.52 1696.12,-1930.03 1724.7,-1893.52 1854,-1893.52 1854,-1893.52 1854,-1893.52 2060.5,-1893.52 2135.06,-1893.52 2333.04,-1908.99 2395,-1867.52 2468.4,-1818.4 2497.48,-1707.83 2506.79,-1661.07"/>
<polygon fill="#757575" stroke="#757575" points="2510.26,-1661.59 2508.66,-1651.11 2503.38,-1660.29 2510.26,-1661.59"/>
</g>
<!-- _deprecated_tt009/patternDetection.ts&#45;&gt;../middleware/eventLogger.ts -->
<g id="edge44" class="edge">
<title>_deprecated_tt009/patternDetection.ts&#45;&gt;../middleware/eventLogger.ts</title>
<path fill="none" stroke="#757575" d="M466.62,-1749.62C752.7,-1739.6 1448.85,-1709.68 1538,-1653.52 1608.75,-1608.96 1647.45,-1510.39 1661.64,-1466.87"/>
<polygon fill="#757575" stroke="#757575" points="1665.06,-1467.65 1664.72,-1457.07 1658.39,-1465.55 1665.06,-1467.65"/>
</g>
<!-- _deprecated_tt009/patternDetection.ts&#45;&gt;../services/sessionManager.ts -->
<g id="edge46" class="edge">
<title>_deprecated_tt009/patternDetection.ts&#45;&gt;../services/sessionManager.ts</title>
<path fill="none" stroke="#757575" d="M354.88,-1741.96C378.77,-1714.98 438.59,-1645.12 478,-1579.52 497.87,-1546.45 487.4,-1528.47 514,-1500.52 617.47,-1391.82 673.69,-1398.78 814,-1345.52 979.48,-1282.71 1047.97,-1338.16 1200,-1247.52 1280.34,-1199.62 1346.8,-1106.48 1373.45,-1065.59"/>
<polygon fill="#757575" stroke="#757575" points="1376.49,-1067.34 1378.94,-1057.03 1370.6,-1063.56 1376.49,-1067.34"/>
</g>
<!-- _deprecated_tt009/patternDetection.ts&#45;&gt;../services/patternDetector.ts -->
<g id="edge45" class="edge">
<title>_deprecated_tt009/patternDetection.ts&#45;&gt;../services/patternDetector.ts</title>
<path fill="none" stroke="#757575" d="M410.35,-1741.98C533.76,-1720.33 799.2,-1673.79 929.99,-1650.85"/>
<polygon fill="#757575" stroke="#757575" points="930.69,-1654.28 939.93,-1649.11 929.48,-1647.39 930.69,-1654.28"/>
</g>
<!-- git.ts -->
<g id="node23" class="node">
<title>git.ts</title>
<path fill="none" stroke="#c6c5fe" d="M665.33,-1803.02C665.33,-1803.02 626.67,-1803.02 626.67,-1803.02 622.83,-1803.02 619,-1799.19 619,-1795.36 619,-1795.36 619,-1787.69 619,-1787.69 619,-1783.86 622.83,-1780.02 626.67,-1780.02 626.67,-1780.02 665.33,-1780.02 665.33,-1780.02 669.17,-1780.02 673,-1783.86 673,-1787.69 673,-1787.69 673,-1795.36 673,-1795.36 673,-1799.19 669.17,-1803.02 665.33,-1803.02"/>
<text text-anchor="middle" x="646" y="-1787.82" font-family="Arial" font-size="14.00" fill="#c6c5fe">git.ts</text>
</g>
<!-- _deprecated_tt009/patternDetection.ts&#45;&gt;git.ts -->
<g id="edge47" class="edge">
<title>_deprecated_tt009/patternDetection.ts&#45;&gt;git.ts</title>
<path fill="none" stroke="#757575" d="M435.48,-1765.03C493.6,-1772.38 565.82,-1781.51 608.51,-1786.91"/>
<polygon fill="#757575" stroke="#757575" points="608.34,-1790.41 618.7,-1788.2 609.21,-1783.47 608.34,-1790.41"/>
</g>
<!-- git.ts&#45;&gt;../../../aidis&#45;command/backend/dist/services/gitService.d.ts -->
<g id="edge79" class="edge">
<title>git.ts&#45;&gt;../../../aidis&#45;command/backend/dist/services/gitService.d.ts</title>
<path fill="none" stroke="#757575" d="M653.81,-1803.32C673.6,-1836.36 734.77,-1929.96 814,-1969.52 818.16,-1971.6 822.44,-1973.52 826.8,-1975.28"/>
<polygon fill="#757575" stroke="#757575" points="825.89,-1978.68 836.49,-1978.9 828.35,-1972.12 825.89,-1978.68"/>
</g>
<!-- git.ts&#45;&gt;../../../aidis&#45;command/backend/dist/services/sessionDetail.d.ts -->
<g id="edge80" class="edge">
<title>git.ts&#45;&gt;../../../aidis&#45;command/backend/dist/services/sessionDetail.d.ts</title>
<path fill="none" stroke="#757575" d="M657.35,-1803.16C681.67,-1829.67 745.63,-1894.48 814,-1923.52 825.3,-1928.32 837.28,-1932.28 849.51,-1935.54"/>
<polygon fill="#757575" stroke="#757575" points="848.82,-1938.98 859.37,-1938.01 850.52,-1932.19 848.82,-1938.98"/>
</g>
<!-- git.ts&#45;&gt;../config/database.ts -->
<g id="edge81" class="edge">
<title>git.ts&#45;&gt;../config/database.ts</title>
<path fill="none" stroke="#757575" d="M661.51,-1803.17C689.17,-1824.55 752.21,-1869.33 814,-1885.52 1125.26,-1967.11 1217.32,-1912.06 1538,-1885.52 1554.17,-1884.18 1557.91,-1881.55 1574,-1879.52 1697.92,-1863.91 1729.1,-1855.52 1854,-1855.52 1854,-1855.52 1854,-1855.52 2060.5,-1855.52 2209.55,-1855.52 2267.97,-1909.48 2395,-1831.52 2459.22,-1792.11 2492.38,-1702.43 2504.72,-1661.1"/>
<polygon fill="#757575" stroke="#757575" points="2508.15,-1661.83 2507.53,-1651.26 2501.42,-1659.91 2508.15,-1661.83"/>
</g>
<!-- git.ts&#45;&gt;../middleware/eventLogger.ts -->
<g id="edge82" class="edge">
<title>git.ts&#45;&gt;../middleware/eventLogger.ts</title>
<path fill="none" stroke="#757575" d="M673.43,-1790.44C817.34,-1784.46 1501.5,-1754.79 1538,-1729.52 1629.56,-1666.14 1657.88,-1521.7 1665.5,-1467.03"/>
<polygon fill="#757575" stroke="#757575" points="1668.98,-1467.43 1666.79,-1457.06 1662.03,-1466.53 1668.98,-1467.43"/>
</g>
<!-- git.ts&#45;&gt;../services/sessionManager.ts -->
<g id="edge84" class="edge">
<title>git.ts&#45;&gt;../services/sessionManager.ts</title>
<path fill="none" stroke="#757575" d="M673.05,-1788.63C771.77,-1777.16 1121.26,-1731.87 1200,-1657.52 1378.29,-1489.17 1387.39,-1155.9 1386.53,-1067.48"/>
<polygon fill="#757575" stroke="#757575" points="1390.03,-1067.24 1386.37,-1057.3 1383.03,-1067.35 1390.03,-1067.24"/>
</g>
<!-- git.ts&#45;&gt;../services/patternDetector.ts -->
<g id="edge83" class="edge">
<title>git.ts&#45;&gt;../services/patternDetector.ts</title>
<path fill="none" stroke="#757575" d="M673.11,-1780.32C736.26,-1753.23 897.42,-1684.1 969.82,-1653.04"/>
<polygon fill="#757575" stroke="#757575" points="971.21,-1656.26 979.02,-1649.1 968.45,-1649.82 971.21,-1656.26"/>
</g>
<!-- agents.ts -->
<g id="node24" class="node">
<title>agents.ts</title>
<path fill="none" stroke="#c6c5fe" d="M2329.83,-1983.02C2329.83,-1983.02 2274.17,-1983.02 2274.17,-1983.02 2270.33,-1983.02 2266.5,-1979.19 2266.5,-1975.36 2266.5,-1975.36 2266.5,-1967.69 2266.5,-1967.69 2266.5,-1963.86 2270.33,-1960.02 2274.17,-1960.02 2274.17,-1960.02 2329.83,-1960.02 2329.83,-1960.02 2333.67,-1960.02 2337.5,-1963.86 2337.5,-1967.69 2337.5,-1967.69 2337.5,-1975.36 2337.5,-1975.36 2337.5,-1979.19 2333.67,-1983.02 2329.83,-1983.02"/>
<text text-anchor="middle" x="2302" y="-1967.82" font-family="Arial" font-size="14.00" fill="#c6c5fe">agents.ts</text>
</g>
<!-- agents.ts&#45;&gt;../config/database.ts -->
<g id="edge48" class="edge">
<title>agents.ts&#45;&gt;../config/database.ts</title>
<path fill="none" stroke="#757575" d="M2337.71,-1969.23C2356.71,-1966.29 2379.47,-1959.78 2395,-1945.52 2480.9,-1866.67 2503.31,-1717.42 2508.81,-1661.46"/>
<polygon fill="#757575" stroke="#757575" points="2512.32,-1661.54 2509.73,-1651.27 2505.35,-1660.92 2512.32,-1661.54"/>
</g>
<!-- aiAnalytics.ts -->
<g id="node25" class="node">
<title>aiAnalytics.ts</title>
<path fill="none" stroke="#cfffac" d="M126.33,-1652.02C126.33,-1652.02 46.67,-1652.02 46.67,-1652.02 42.83,-1652.02 39,-1648.19 39,-1644.36 39,-1644.36 39,-1636.69 39,-1636.69 39,-1632.86 42.83,-1629.02 46.67,-1629.02 46.67,-1629.02 126.33,-1629.02 126.33,-1629.02 130.17,-1629.02 134,-1632.86 134,-1636.69 134,-1636.69 134,-1644.36 134,-1644.36 134,-1648.19 130.17,-1652.02 126.33,-1652.02"/>
<text text-anchor="middle" x="86.5" y="-1636.82" font-family="Arial" font-size="14.00" fill="#cfffac">aiAnalytics.ts</text>
</g>
<!-- codeAnalysis.ts -->
<g id="node26" class="node">
<title>codeAnalysis.ts</title>
<path fill="none" stroke="#c6c5fe" d="M1902.33,-2244.02C1902.33,-2244.02 1807.67,-2244.02 1807.67,-2244.02 1803.83,-2244.02 1800,-2240.19 1800,-2236.36 1800,-2236.36 1800,-2228.69 1800,-2228.69 1800,-2224.86 1803.83,-2221.02 1807.67,-2221.02 1807.67,-2221.02 1902.33,-2221.02 1902.33,-2221.02 1906.17,-2221.02 1910,-2224.86 1910,-2228.69 1910,-2228.69 1910,-2236.36 1910,-2236.36 1910,-2240.19 1906.17,-2244.02 1902.33,-2244.02"/>
<text text-anchor="middle" x="1855" y="-2228.82" font-family="Arial" font-size="14.00" fill="#c6c5fe">codeAnalysis.ts</text>
</g>
<!-- codeAnalysis.ts&#45;&gt;../config/database.ts -->
<g id="edge49" class="edge">
<title>codeAnalysis.ts&#45;&gt;../config/database.ts</title>
<path fill="none" stroke="#757575" d="M1910.49,-2229.1C2043.83,-2220.5 2377.06,-2197.5 2395,-2181.52 2474.83,-2110.42 2503.1,-1754.33 2509.17,-1661.62"/>
<polygon fill="#757575" stroke="#757575" points="2512.67,-1661.63 2509.81,-1651.43 2505.69,-1661.19 2512.67,-1661.63"/>
</g>
<!-- codeComplexity.ts -->
<g id="node27" class="node">
<title>codeComplexity.ts</title>
<path fill="none" stroke="#c6c5fe" d="M701.83,-419.02C701.83,-419.02 590.17,-419.02 590.17,-419.02 586.33,-419.02 582.5,-415.19 582.5,-411.36 582.5,-411.36 582.5,-403.69 582.5,-403.69 582.5,-399.86 586.33,-396.02 590.17,-396.02 590.17,-396.02 701.83,-396.02 701.83,-396.02 705.67,-396.02 709.5,-399.86 709.5,-403.69 709.5,-403.69 709.5,-411.36 709.5,-411.36 709.5,-415.19 705.67,-419.02 701.83,-419.02"/>
<text text-anchor="middle" x="646" y="-403.82" font-family="Arial" font-size="14.00" fill="#c6c5fe">codeComplexity.ts</text>
</g>
<!-- codeComplexity.ts&#45;&gt;../config/database.ts -->
<g id="edge50" class="edge">
<title>codeComplexity.ts&#45;&gt;../config/database.ts</title>
<path fill="none" stroke="#757575" d="M709.81,-407.34C732.66,-404.81 757.81,-398.98 778,-386.52 801.3,-372.14 790.57,-350.69 814,-336.52 1033.73,-203.7 1129.24,-255.52 1386,-255.52 1386,-255.52 1386,-255.52 2060.5,-255.52 2212.3,-255.52 2294.06,-211.15 2395,-324.52 2484.76,-425.33 2507.13,-1454.32 2510.13,-1617.71"/>
<polygon fill="#757575" stroke="#757575" points="2506.63,-1618.02 2510.31,-1627.96 2513.63,-1617.9 2506.63,-1618.02"/>
</g>
<!-- codeComplexity.ts&#45;&gt;../middleware/eventLogger.ts -->
<g id="edge51" class="edge">
<title>codeComplexity.ts&#45;&gt;../middleware/eventLogger.ts</title>
<path fill="none" stroke="#757575" d="M701.65,-419.07C728.74,-427.63 759.53,-442.18 778,-466.52 842.41,-551.39 735.85,-631.11 814,-703.52 873.17,-758.35 1477.85,-703.77 1538,-757.52 1640.54,-849.15 1663.37,-1316.23 1667.3,-1423.53"/>
<polygon fill="#757575" stroke="#757575" points="1663.81,-1423.92 1667.65,-1433.79 1670.8,-1423.67 1663.81,-1423.92"/>
</g>
<!-- codeComplexity.ts&#45;&gt;../services/complexityTracker.ts -->
<g id="edge52" class="edge">
<title>codeComplexity.ts&#45;&gt;../services/complexityTracker.ts</title>
<path fill="none" stroke="#757575" d="M709.53,-414.49C760.34,-420.15 833.3,-428.28 894.12,-435.06"/>
<polygon fill="#757575" stroke="#757575" points="893.83,-438.55 904.16,-436.18 894.61,-431.59 893.83,-438.55"/>
</g>
<!-- codeComplexity.ts&#45;&gt;../services/sessionManager.ts -->
<g id="edge53" class="edge">
<title>codeComplexity.ts&#45;&gt;../services/sessionManager.ts</title>
<path fill="none" stroke="#757575" d="M709.69,-400.81C838.13,-388.45 1125.39,-368.33 1200,-426.52 1245.59,-462.08 1219.6,-496.08 1236,-551.52 1290.18,-734.68 1358.1,-955.21 1379.34,-1023.98"/>
<polygon fill="#757575" stroke="#757575" points="1376.04,-1025.17 1382.34,-1033.69 1382.73,-1023.1 1376.04,-1025.17"/>
</g>
<!-- complexity/complexityAnalyze.ts -->
<g id="node28" class="node">
<title>complexity/complexityAnalyze.ts</title>
<path fill="none" stroke="#c6c5fe" d="M744.33,-579.02C744.33,-579.02 547.67,-579.02 547.67,-579.02 543.83,-579.02 540,-575.19 540,-571.36 540,-571.36 540,-563.69 540,-563.69 540,-559.86 543.83,-556.02 547.67,-556.02 547.67,-556.02 744.33,-556.02 744.33,-556.02 748.17,-556.02 752,-559.86 752,-563.69 752,-563.69 752,-571.36 752,-571.36 752,-575.19 748.17,-579.02 744.33,-579.02"/>
<text text-anchor="middle" x="646" y="-563.82" font-family="Arial" font-size="14.00" fill="#c6c5fe">complexity/complexityAnalyze.ts</text>
</g>
<!-- complexity/complexityAnalyze.ts&#45;&gt;../config/database.ts -->
<g id="edge54" class="edge">
<title>complexity/complexityAnalyze.ts&#45;&gt;../config/database.ts</title>
<path fill="none" stroke="#757575" d="M752.03,-572.91C889.66,-578.4 1122.61,-581.86 1200,-547.52 1220.97,-538.22 1215.06,-519.91 1236,-510.52 1411.36,-431.89 1475.81,-491.52 1668,-491.52 1668,-491.52 1668,-491.52 2060.5,-491.52 2209.8,-491.52 2288.87,-417.51 2395,-522.52 2476.04,-602.71 2505.41,-1468.88 2509.88,-1617.79"/>
<polygon fill="#757575" stroke="#757575" points="2506.38,-1618.05 2510.18,-1627.94 2513.38,-1617.84 2506.38,-1618.05"/>
</g>
<!-- complexity/complexityAnalyze.ts&#45;&gt;../middleware/eventLogger.ts -->
<g id="edge55" class="edge">
<title>complexity/complexityAnalyze.ts&#45;&gt;../middleware/eventLogger.ts</title>
<path fill="none" stroke="#757575" d="M655.48,-579.12C686.31,-621.12 791.81,-763.51 814,-775.52 889.8,-816.56 1114.96,-799.46 1200,-813.52 1352.2,-838.69 1428.84,-783.51 1538,-892.52 1615.71,-970.13 1656.6,-1331.24 1665.92,-1423.84"/>
<polygon fill="#757575" stroke="#757575" points="1662.45,-1424.38 1666.92,-1433.98 1669.42,-1423.69 1662.45,-1424.38"/>
</g>
<!-- complexity/complexityAnalyze.ts&#45;&gt;../services/complexityTracker.ts -->
<g id="edge56" class="edge">
<title>complexity/complexityAnalyze.ts&#45;&gt;../services/complexityTracker.ts</title>
<path fill="none" stroke="#757575" d="M677.31,-555.91C710.64,-543.27 765.87,-522.7 814,-506.52 861.94,-490.41 917.19,-473.62 956.08,-462.09"/>
<polygon fill="#757575" stroke="#757575" points="957.5,-465.32 966.09,-459.13 955.51,-458.6 957.5,-465.32"/>
</g>
<!-- complexity/complexityAnalyze.ts&#45;&gt;../services/sessionManager.ts -->
<g id="edge57" class="edge">
<title>complexity/complexityAnalyze.ts&#45;&gt;../services/sessionManager.ts</title>
<path fill="none" stroke="#757575" d="M657.06,-579.03C680.25,-605.88 738.45,-675.28 778,-739.52 797.17,-770.67 785.02,-791.21 814,-813.52 952.53,-920.2 1042.27,-814.08 1200,-889.52 1271.85,-923.89 1338.98,-992.53 1369.21,-1026.11"/>
<polygon fill="#757575" stroke="#757575" points="1366.82,-1028.7 1376.08,-1033.85 1372.06,-1024.05 1366.82,-1028.7"/>
</g>
<!-- complexity/complexityAnalyze.ts&#45;&gt;../types/consolidated&#45;complexity.ts -->
<g id="edge58" class="edge">
<title>complexity/complexityAnalyze.ts&#45;&gt;../types/consolidated&#45;complexity.ts</title>
<path fill="none" stroke="#757575" d="M750.36,-556.01C794.84,-551.05 846.98,-545.24 892.54,-540.17"/>
<polygon fill="#757575" stroke="#757575" points="893.2,-543.61 902.75,-539.03 892.43,-536.66 893.2,-543.61"/>
</g>
<!-- complexity/complexityInsights.ts -->
<g id="node29" class="node">
<title>complexity/complexityInsights.ts</title>
<path fill="none" stroke="#c6c5fe" d="M440.83,-499.02C440.83,-499.02 246.17,-499.02 246.17,-499.02 242.33,-499.02 238.5,-495.19 238.5,-491.36 238.5,-491.36 238.5,-483.69 238.5,-483.69 238.5,-479.86 242.33,-476.02 246.17,-476.02 246.17,-476.02 440.83,-476.02 440.83,-476.02 444.67,-476.02 448.5,-479.86 448.5,-483.69 448.5,-483.69 448.5,-491.36 448.5,-491.36 448.5,-495.19 444.67,-499.02 440.83,-499.02"/>
<text text-anchor="middle" x="343.5" y="-483.82" font-family="Arial" font-size="14.00" fill="#c6c5fe">complexity/complexityInsights.ts</text>
</g>
<!-- complexity/complexityInsights.ts&#45;&gt;../config/database.ts -->
<g id="edge59" class="edge">
<title>complexity/complexityInsights.ts&#45;&gt;../config/database.ts</title>
<path fill="none" stroke="#757575" d="M345.12,-475.81C348.78,-420.04 372.58,-180.21 514,-82.52 604.01,-20.35 896.6,-65.52 1006,-65.52 1006,-65.52 1006,-65.52 2060.5,-65.52 2135.11,-65.52 2342.56,-41.45 2395,-94.52 2507.1,-207.96 2510.62,-1437.22 2510.54,-1617.5"/>
<polygon fill="#757575" stroke="#757575" points="2507.04,-1617.63 2510.53,-1627.63 2514.04,-1617.64 2507.04,-1617.63"/>
</g>
<!-- complexity/complexityInsights.ts&#45;&gt;../middleware/eventLogger.ts -->
<g id="edge60" class="edge">
<title>complexity/complexityInsights.ts&#45;&gt;../middleware/eventLogger.ts</title>
<path fill="none" stroke="#757575" d="M346.36,-499.32C355.04,-550.61 396.29,-756.59 514,-865.52 868.83,-1193.9 1163.14,-927.22 1538,-1232.52 1603.65,-1285.99 1644.83,-1381.96 1660.64,-1424.38"/>
<polygon fill="#757575" stroke="#757575" points="1657.41,-1425.74 1664.11,-1433.95 1663.99,-1423.35 1657.41,-1425.74"/>
</g>
<!-- complexity/complexityInsights.ts&#45;&gt;../services/complexityTracker.ts -->
<g id="edge61" class="edge">
<title>complexity/complexityInsights.ts&#45;&gt;../services/complexityTracker.ts</title>
<path fill="none" stroke="#757575" d="M426.26,-475.97C454.05,-472.43 485.33,-468.85 514,-466.52 644.15,-455.97 794.15,-451.24 893.98,-449.15"/>
<polygon fill="#757575" stroke="#757575" points="894.16,-452.65 904.08,-448.94 894.01,-445.65 894.16,-452.65"/>
</g>
<!-- complexity/complexityInsights.ts&#45;&gt;../services/sessionManager.ts -->
<g id="edge62" class="edge">
<title>complexity/complexityInsights.ts&#45;&gt;../services/sessionManager.ts</title>
<path fill="none" stroke="#757575" d="M348.4,-499.2C363.28,-542.1 420.35,-693.11 514,-780.52 745.71,-996.81 892.26,-899.61 1200,-975.52 1254.58,-988.99 1315.03,-1013.67 1351.77,-1029.83"/>
<polygon fill="#757575" stroke="#757575" points="1350.47,-1033.09 1361.03,-1033.95 1353.31,-1026.69 1350.47,-1033.09"/>
</g>
<!-- complexity/complexityInsights.ts&#45;&gt;../types/consolidated&#45;complexity.ts -->
<g id="edge63" class="edge">
<title>complexity/complexityInsights.ts&#45;&gt;../types/consolidated&#45;complexity.ts</title>
<path fill="none" stroke="#757575" d="M431.04,-499.03C457.61,-502.22 486.97,-505.38 514,-507.52 640.68,-517.56 786.12,-522.68 885.83,-525.21"/>
<polygon fill="#757575" stroke="#757575" points="885.86,-528.72 895.94,-525.47 886.03,-521.72 885.86,-528.72"/>
</g>
<!-- complexity/complexityInsights.ts&#45;&gt;codeComplexity.ts -->
<g id="edge64" class="edge">
<title>complexity/complexityInsights.ts&#45;&gt;codeComplexity.ts</title>
<path fill="none" stroke="#757575" d="M376.99,-475.97C410.88,-464.2 465.7,-445.97 514,-433.52 532.83,-428.67 553.39,-424.21 572.52,-420.4"/>
<polygon fill="#757575" stroke="#757575" points="573.23,-423.82 582.37,-418.47 571.89,-416.95 573.23,-423.82"/>
</g>
<!-- complexity/complexityManage.ts -->
<g id="node30" class="node">
<title>complexity/complexityManage.ts</title>
<path fill="none" stroke="#c6c5fe" d="M744.83,-499.02C744.83,-499.02 547.17,-499.02 547.17,-499.02 543.33,-499.02 539.5,-495.19 539.5,-491.36 539.5,-491.36 539.5,-483.69 539.5,-483.69 539.5,-479.86 543.33,-476.02 547.17,-476.02 547.17,-476.02 744.83,-476.02 744.83,-476.02 748.67,-476.02 752.5,-479.86 752.5,-483.69 752.5,-483.69 752.5,-491.36 752.5,-491.36 752.5,-495.19 748.67,-499.02 744.83,-499.02"/>
<text text-anchor="middle" x="646" y="-483.82" font-family="Arial" font-size="14.00" fill="#c6c5fe">complexity/complexityManage.ts</text>
</g>
<!-- complexity/complexityManage.ts&#45;&gt;../config/database.ts -->
<g id="edge65" class="edge">
<title>complexity/complexityManage.ts&#45;&gt;../config/database.ts</title>
<path fill="none" stroke="#757575" d="M673.7,-476.02C706.26,-462.4 763.26,-439.88 814,-426.52 1063.21,-360.92 1128.3,-331.52 1386,-331.52 1386,-331.52 1386,-331.52 2060.5,-331.52 2214.23,-331.52 2295.5,-302.34 2395,-419.52 2475.77,-514.65 2505.51,-1460.21 2509.91,-1617.42"/>
<polygon fill="#757575" stroke="#757575" points="2506.42,-1617.82 2510.19,-1627.72 2513.42,-1617.63 2506.42,-1617.82"/>
</g>
<!-- complexity/complexityManage.ts&#45;&gt;../middleware/eventLogger.ts -->
<g id="edge66" class="edge">
<title>complexity/complexityManage.ts&#45;&gt;../middleware/eventLogger.ts</title>
<path fill="none" stroke="#757575" d="M700.64,-499.13C727.79,-507.74 758.94,-522.32 778,-546.52 831.44,-614.39 750.29,-679.19 814,-737.52 877.57,-795.73 1114.3,-766.36 1200,-775.52 1350.36,-791.6 1426.46,-712.42 1538,-814.52 1630.75,-899.42 1660.86,-1321.91 1666.81,-1423.52"/>
<polygon fill="#757575" stroke="#757575" points="1663.34,-1424.01 1667.4,-1433.8 1670.32,-1423.62 1663.34,-1424.01"/>
</g>
<!-- complexity/complexityManage.ts&#45;&gt;../services/complexityTracker.ts -->
<g id="edge67" class="edge">
<title>complexity/complexityManage.ts&#45;&gt;../services/complexityTracker.ts</title>
<path fill="none" stroke="#757575" d="M750.36,-476.01C795.42,-470.99 848.34,-465.09 894.3,-459.97"/>
<polygon fill="#757575" stroke="#757575" points="894.75,-463.44 904.3,-458.85 893.98,-456.48 894.75,-463.44"/>
</g>
<!-- complexity/complexityManage.ts&#45;&gt;../services/sessionManager.ts -->
<g id="edge68" class="edge">
<title>complexity/complexityManage.ts&#45;&gt;../services/sessionManager.ts</title>
<path fill="none" stroke="#757575" d="M752.6,-477.12C893.3,-465.58 1132.4,-454.77 1200,-506.52 1243.2,-539.59 1218.89,-571.88 1236,-623.52 1287.33,-778.41 1355.31,-962.95 1378.14,-1024.43"/>
<polygon fill="#757575" stroke="#757575" points="1374.87,-1025.69 1381.64,-1033.84 1381.43,-1023.25 1374.87,-1025.69"/>
</g>
<!-- complexity/complexityManage.ts&#45;&gt;../types/consolidated&#45;complexity.ts -->
<g id="edge69" class="edge">
<title>complexity/complexityManage.ts&#45;&gt;../types/consolidated&#45;complexity.ts</title>
<path fill="none" stroke="#757575" d="M750.36,-499.04C794.84,-504 846.98,-509.81 892.54,-514.88"/>
<polygon fill="#757575" stroke="#757575" points="892.43,-518.39 902.75,-516.02 893.2,-511.43 892.43,-518.39"/>
</g>
<!-- context.ts -->
<g id="node31" class="node">
<title>context.ts</title>
<path fill="none" stroke="#c6c5fe" d="M1416.33,-2350.02C1416.33,-2350.02 1357.67,-2350.02 1357.67,-2350.02 1353.83,-2350.02 1350,-2346.19 1350,-2342.36 1350,-2342.36 1350,-2334.69 1350,-2334.69 1350,-2330.86 1353.83,-2327.02 1357.67,-2327.02 1357.67,-2327.02 1416.33,-2327.02 1416.33,-2327.02 1420.17,-2327.02 1424,-2330.86 1424,-2334.69 1424,-2334.69 1424,-2342.36 1424,-2342.36 1424,-2346.19 1420.17,-2350.02 1416.33,-2350.02"/>
<text text-anchor="middle" x="1387" y="-2334.82" font-family="Arial" font-size="14.00" fill="#c6c5fe">context.ts</text>
</g>
<!-- context.ts&#45;&gt;../config/database.ts -->
<g id="edge70" class="edge">
<title>context.ts&#45;&gt;../config/database.ts</title>
<path fill="none" stroke="#757575" d="M1424.21,-2333.39C1513.04,-2320.84 1748.9,-2287.8 1946,-2262.52 2045.68,-2249.74 2321.13,-2276.67 2395,-2208.52 2477.59,-2132.34 2503.92,-1757.33 2509.35,-1661.73"/>
<polygon fill="#757575" stroke="#757575" points="2512.86,-1661.67 2509.91,-1651.5 2505.87,-1661.29 2512.86,-1661.67"/>
</g>
<!-- context.ts&#45;&gt;../middleware/eventLogger.ts -->
<g id="edge71" class="edge">
<title>context.ts&#45;&gt;../middleware/eventLogger.ts</title>
<path fill="none" stroke="#757575" d="M1400.53,-2326.97C1429.81,-2299.19 1502.93,-2225.14 1538,-2147.52 1650.71,-1898.11 1665.7,-1556.65 1667.7,-1467.52"/>
<polygon fill="#757575" stroke="#757575" points="1671.2,-1467.35 1667.89,-1457.28 1664.2,-1467.21 1671.2,-1467.35"/>
</g>
<!-- context.ts&#45;&gt;project.ts -->
<g id="edge74" class="edge">
<title>context.ts&#45;&gt;project.ts</title>
<path fill="none" stroke="#757575" d="M1424.19,-2329.43C1494.3,-2310.65 1651.61,-2262.75 1764,-2185.52 1795.11,-2164.14 1823.56,-2130.37 1839.81,-2109.11"/>
<polygon fill="#757575" stroke="#757575" points="1842.62,-2111.2 1845.82,-2101.1 1837.02,-2107 1842.62,-2111.2"/>
</g>
<!-- context.ts&#45;&gt;../services/embedding.ts -->
<g id="edge72" class="edge">
<title>context.ts&#45;&gt;../services/embedding.ts</title>
<path fill="none" stroke="#757575" d="M1415.75,-2350.06C1451.84,-2364.85 1517.02,-2390.82 1574,-2409.52 1586.56,-2413.65 1600.21,-2417.68 1613.11,-2421.28"/>
<polygon fill="#757575" stroke="#757575" points="1612.22,-2424.67 1622.8,-2423.95 1614.08,-2417.92 1612.22,-2424.67"/>
</g>
<!-- context.ts&#45;&gt;../services/sessionTracker.ts -->
<g id="edge73" class="edge">
<title>context.ts&#45;&gt;../services/sessionTracker.ts</title>
<path fill="none" stroke="#757575" d="M1400.71,-2350.21C1429.12,-2375.46 1501.06,-2434.49 1574,-2455.52 1701.09,-2492.17 2133.72,-2428.2 2173,-2413.52 2216.02,-2397.45 2258.05,-2363.35 2281.63,-2342.05"/>
<polygon fill="#757575" stroke="#757575" points="2284.19,-2344.45 2289.17,-2335.1 2279.44,-2339.3 2284.19,-2344.45"/>
</g>
<!-- decisions.ts -->
<g id="node32" class="node">
<title>decisions.ts</title>
<path fill="none" stroke="#c6c5fe" d="M1422.83,-2139.02C1422.83,-2139.02 1351.17,-2139.02 1351.17,-2139.02 1347.33,-2139.02 1343.5,-2135.19 1343.5,-2131.36 1343.5,-2131.36 1343.5,-2123.69 1343.5,-2123.69 1343.5,-2119.86 1347.33,-2116.02 1351.17,-2116.02 1351.17,-2116.02 1422.83,-2116.02 1422.83,-2116.02 1426.67,-2116.02 1430.5,-2119.86 1430.5,-2123.69 1430.5,-2123.69 1430.5,-2131.36 1430.5,-2131.36 1430.5,-2135.19 1426.67,-2139.02 1422.83,-2139.02"/>
<text text-anchor="middle" x="1387" y="-2123.82" font-family="Arial" font-size="14.00" fill="#c6c5fe">decisions.ts</text>
</g>
<!-- decisions.ts&#45;&gt;../config/database.ts -->
<g id="edge75" class="edge">
<title>decisions.ts&#45;&gt;../config/database.ts</title>
<path fill="none" stroke="#757575" d="M1414.73,-2115.98C1485.17,-2086.64 1682.25,-2011.52 1854,-2011.52 1854,-2011.52 1854,-2011.52 2060.5,-2011.52 2134.97,-2011.52 2336.02,-2036.99 2395,-1991.52 2502.16,-1908.92 2511.2,-1724.38 2511.01,-1661.21"/>
<polygon fill="#757575" stroke="#757575" points="2514.51,-1661.16 2510.9,-1651.2 2507.51,-1661.24 2514.51,-1661.16"/>
</g>
<!-- decisions.ts&#45;&gt;../middleware/eventLogger.ts -->
<g id="edge76" class="edge">
<title>decisions.ts&#45;&gt;../middleware/eventLogger.ts</title>
<path fill="none" stroke="#757575" d="M1430.63,-2121.62C1464.73,-2114.61 1511.14,-2099.54 1538,-2067.52 1578.07,-2019.77 1648.72,-1571.51 1664.72,-1467.16"/>
<polygon fill="#757575" stroke="#757575" points="1668.19,-1467.57 1666.24,-1457.16 1661.27,-1466.51 1668.19,-1467.57"/>
</g>
<!-- decisions.ts&#45;&gt;project.ts -->
<g id="edge78" class="edge">
<title>decisions.ts&#45;&gt;project.ts</title>
<path fill="none" stroke="#757575" d="M1430.65,-2125.46C1500.45,-2121.88 1643.4,-2113.72 1764,-2101.52 1778.77,-2100.03 1794.84,-2098.01 1809.27,-2096.06"/>
<polygon fill="#757575" stroke="#757575" points="1810.01,-2099.49 1819.44,-2094.65 1809.06,-2092.55 1810.01,-2099.49"/>
</g>
<!-- decisions.ts&#45;&gt;../services/sessionTracker.ts -->
<g id="edge77" class="edge">
<title>decisions.ts&#45;&gt;../services/sessionTracker.ts</title>
<path fill="none" stroke="#757575" d="M1397.02,-2139.12C1421.7,-2169.97 1493.82,-2254.47 1574,-2295.52 1813.07,-2417.93 1909.4,-2427.02 2173,-2375.52 2207.86,-2368.71 2245.22,-2352.38 2270.52,-2339.82"/>
<polygon fill="#757575" stroke="#757575" points="2272.26,-2342.87 2279.6,-2335.22 2269.1,-2336.62 2272.26,-2342.87"/>
</g>
<!-- metrics/metricsAnalyze.ts -->
<g id="node33" class="node">
<title>metrics/metricsAnalyze.ts</title>
<path fill="none" stroke="#c6c5fe" d="M723.83,-378.02C723.83,-378.02 568.17,-378.02 568.17,-378.02 564.33,-378.02 560.5,-374.19 560.5,-370.36 560.5,-370.36 560.5,-362.69 560.5,-362.69 560.5,-358.86 564.33,-355.02 568.17,-355.02 568.17,-355.02 723.83,-355.02 723.83,-355.02 727.67,-355.02 731.5,-358.86 731.5,-362.69 731.5,-362.69 731.5,-370.36 731.5,-370.36 731.5,-374.19 727.67,-378.02 723.83,-378.02"/>
<text text-anchor="middle" x="646" y="-362.82" font-family="Arial" font-size="14.00" fill="#c6c5fe">metrics/metricsAnalyze.ts</text>
</g>
<!-- metrics/metricsAnalyze.ts&#45;&gt;../config/database.ts -->
<g id="edge85" class="edge">
<title>metrics/metricsAnalyze.ts&#45;&gt;../config/database.ts</title>
<path fill="none" stroke="#757575" d="M657.71,-354.79C682.3,-328.78 745.94,-266.69 814,-242.52 1053.8,-157.38 1131.54,-217.52 1386,-217.52 1386,-217.52 1386,-217.52 2060.5,-217.52 2135.06,-217.52 2342.15,-190.93 2395,-243.52 2496.85,-344.86 2509.08,-1448.72 2510.36,-1617.84"/>
<polygon fill="#757575" stroke="#757575" points="2506.86,-1618.02 2510.43,-1627.99 2513.86,-1617.97 2506.86,-1618.02"/>
</g>
<!-- metrics/metricsAnalyze.ts&#45;&gt;../middleware/eventLogger.ts -->
<g id="edge86" class="edge">
<title>metrics/metricsAnalyze.ts&#45;&gt;../middleware/eventLogger.ts</title>
<path fill="none" stroke="#757575" d="M731.6,-364.65C748.7,-368.07 765.3,-374.67 778,-386.52 831.59,-436.56 760.59,-497.28 814,-547.52 873.34,-603.34 1480.22,-606.08 1538,-663.52 1649.34,-774.21 1665.48,-1308.73 1667.67,-1423.71"/>
<polygon fill="#757575" stroke="#757575" points="1664.17,-1423.83 1667.85,-1433.76 1671.17,-1423.71 1664.17,-1423.83"/>
</g>
<!-- metrics/metricsAnalyze.ts&#45;&gt;../services/sessionManager.ts -->
<g id="edge89" class="edge">
<title>metrics/metricsAnalyze.ts&#45;&gt;../services/sessionManager.ts</title>
<path fill="none" stroke="#757575" d="M731.62,-363.49C877.7,-359.08 1164.99,-354.32 1200,-383.52 1258.64,-432.44 1216.89,-477.59 1236,-551.52 1283.8,-736.45 1355.96,-955.81 1378.8,-1024.13"/>
<polygon fill="#757575" stroke="#757575" points="1375.54,-1025.4 1382.03,-1033.77 1382.17,-1023.18 1375.54,-1025.4"/>
</g>
<!-- metrics/metricsAnalyze.ts&#45;&gt;../services/metricsAggregator.ts -->
<g id="edge87" class="edge">
<title>metrics/metricsAnalyze.ts&#45;&gt;../services/metricsAggregator.ts</title>
<path fill="none" stroke="#757575" d="M731.53,-363.89C748.83,-367.3 765.54,-374.09 778,-386.52 852.16,-460.55 746.4,-539.46 814,-619.52 835.16,-644.58 866.41,-659.88 897.59,-669.2"/>
<polygon fill="#757575" stroke="#757575" points="896.68,-672.57 907.25,-671.9 898.56,-665.83 896.68,-672.57"/>
</g>
<!-- metrics/metricsAnalyze.ts&#45;&gt;../services/metricsCorrelation.ts -->
<g id="edge88" class="edge">
<title>metrics/metricsAnalyze.ts&#45;&gt;../services/metricsCorrelation.ts</title>
<path fill="none" stroke="#757575" d="M689.19,-354.98C784.41,-331.16 1021.57,-284.48 1200,-355.52 1280.3,-387.49 1345.91,-472.41 1372.83,-511.42"/>
<polygon fill="#757575" stroke="#757575" points="1370.04,-513.54 1378.54,-519.86 1375.84,-509.62 1370.04,-513.54"/>
</g>
<!-- metrics/metricsCollect.ts -->
<g id="node34" class="node">
<title>metrics/metricsCollect.ts</title>
<path fill="none" stroke="#c6c5fe" d="M417.83,-1098.02C417.83,-1098.02 269.17,-1098.02 269.17,-1098.02 265.33,-1098.02 261.5,-1094.19 261.5,-1090.36 261.5,-1090.36 261.5,-1082.69 261.5,-1082.69 261.5,-1078.86 265.33,-1075.02 269.17,-1075.02 269.17,-1075.02 417.83,-1075.02 417.83,-1075.02 421.67,-1075.02 425.5,-1078.86 425.5,-1082.69 425.5,-1082.69 425.5,-1090.36 425.5,-1090.36 425.5,-1094.19 421.67,-1098.02 417.83,-1098.02"/>
<text text-anchor="middle" x="343.5" y="-1082.82" font-family="Arial" font-size="14.00" fill="#c6c5fe">metrics/metricsCollect.ts</text>
</g>
<!-- metrics/metricsCollect.ts&#45;&gt;../config/database.ts -->
<g id="edge90" class="edge">
<title>metrics/metricsCollect.ts&#45;&gt;../config/database.ts</title>
<path fill="none" stroke="#757575" d="M347.81,-1074.82C364.56,-1015.15 440.6,-738.69 478,-507.52 484.79,-465.55 483.23,-155.87 514,-126.52 593.21,-50.99 896.55,-103.52 1006,-103.52 1006,-103.52 1006,-103.52 2060.5,-103.52 2135.11,-103.52 2342.51,-79.5 2395,-132.52 2504.41,-243.03 2510.23,-1440.99 2510.49,-1617.78"/>
<polygon fill="#757575" stroke="#757575" points="2506.99,-1617.93 2510.5,-1627.92 2513.99,-1617.92 2506.99,-1617.93"/>
</g>
<!-- metrics/metricsCollect.ts&#45;&gt;../middleware/eventLogger.ts -->
<g id="edge91" class="edge">
<title>metrics/metricsCollect.ts&#45;&gt;../middleware/eventLogger.ts</title>
<path fill="none" stroke="#757575" d="M425.85,-1091.86C624.6,-1107.47 1147.13,-1164.04 1538,-1345.52 1582.32,-1366.1 1625.63,-1404.02 1649.38,-1426.79"/>
<polygon fill="#757575" stroke="#757575" points="1647.05,-1429.41 1656.65,-1433.89 1651.94,-1424.4 1647.05,-1429.41"/>
</g>
<!-- metrics/metricsCollect.ts&#45;&gt;../services/sessionManager.ts -->
<g id="edge93" class="edge">
<title>metrics/metricsCollect.ts&#45;&gt;../services/sessionManager.ts</title>
<path fill="none" stroke="#757575" d="M425.83,-1078.87C519.38,-1070.44 677.62,-1057.32 814,-1051.52 976.29,-1044.63 1164.7,-1044.1 1279.6,-1044.61"/>
<polygon fill="#757575" stroke="#757575" points="1279.79,-1048.11 1289.8,-1044.66 1279.82,-1041.11 1279.79,-1048.11"/>
</g>
<!-- metrics/metricsCollect.ts&#45;&gt;../services/metricsCollector.ts -->
<g id="edge92" class="edge">
<title>metrics/metricsCollect.ts&#45;&gt;../services/metricsCollector.ts</title>
<path fill="none" stroke="#757575" d="M357.77,-1098.2C382.68,-1120.4 437.55,-1170.77 478,-1218.52 495.93,-1239.69 490.73,-1254.41 514,-1269.52 522.01,-1274.73 530.83,-1278.93 540,-1282.31"/>
<polygon fill="#757575" stroke="#757575" points="539.07,-1285.69 549.66,-1285.56 541.3,-1279.06 539.07,-1285.69"/>
</g>
<!-- metrics/metricsControl.ts -->
<g id="node35" class="node">
<title>metrics/metricsControl.ts</title>
<path fill="none" stroke="#c6c5fe" d="M419.33,-1571.02C419.33,-1571.02 267.67,-1571.02 267.67,-1571.02 263.83,-1571.02 260,-1567.19 260,-1563.36 260,-1563.36 260,-1555.69 260,-1555.69 260,-1551.86 263.83,-1548.02 267.67,-1548.02 267.67,-1548.02 419.33,-1548.02 419.33,-1548.02 423.17,-1548.02 427,-1551.86 427,-1555.69 427,-1555.69 427,-1563.36 427,-1563.36 427,-1567.19 423.17,-1571.02 419.33,-1571.02"/>
<text text-anchor="middle" x="343.5" y="-1555.82" font-family="Arial" font-size="14.00" fill="#c6c5fe">metrics/metricsControl.ts</text>
</g>
<!-- metrics/metricsControl.ts&#45;&gt;../config/database.ts -->
<g id="edge94" class="edge">
<title>metrics/metricsControl.ts&#45;&gt;../config/database.ts</title>
<path fill="none" stroke="#757575" d="M392.33,-1571.09C479.8,-1594.51 666.79,-1655.38 778,-1770.52 805.37,-1798.86 780.97,-1830.06 814,-1851.52 881.45,-1895.36 1457.67,-1855.83 1538,-1851.52 1679.05,-1843.96 1712.74,-1817.52 1854,-1817.52 1854,-1817.52 1854,-1817.52 2060.5,-1817.52 2214.23,-1817.52 2257.23,-1797.71 2395,-1729.52 2432.74,-1710.84 2470,-1678.65 2491.6,-1658.26"/>
<polygon fill="#757575" stroke="#757575" points="2494.03,-1660.78 2498.82,-1651.33 2489.18,-1655.73 2494.03,-1660.78"/>
</g>
<!-- metrics/metricsControl.ts&#45;&gt;../middleware/eventLogger.ts -->
<g id="edge95" class="edge">
<title>metrics/metricsControl.ts&#45;&gt;../middleware/eventLogger.ts</title>
<path fill="none" stroke="#757575" d="M427.23,-1556.7C514.48,-1553.57 655.96,-1548.1 778,-1541.52 1116.2,-1523.28 1205.44,-1549.68 1538,-1485.52 1568.6,-1479.62 1602.2,-1469.17 1627.58,-1460.43"/>
<polygon fill="#757575" stroke="#757575" points="1628.94,-1463.67 1637.22,-1457.06 1626.63,-1457.06 1628.94,-1463.67"/>
</g>
<!-- metrics/metricsControl.ts&#45;&gt;../services/sessionManager.ts -->
<g id="edge97" class="edge">
<title>metrics/metricsControl.ts&#45;&gt;../services/sessionManager.ts</title>
<path fill="none" stroke="#757575" d="M352.96,-1547.83C375.08,-1516.99 435.81,-1430.51 478,-1353.52 496.54,-1319.69 484.57,-1299.48 514,-1274.52 569.56,-1227.4 1198.38,-1113.99 1200,-1113.52 1252.67,-1098.53 1311.79,-1075.87 1348.96,-1060.89"/>
<polygon fill="#757575" stroke="#757575" points="1350.42,-1064.07 1358.37,-1057.07 1347.79,-1057.58 1350.42,-1064.07"/>
</g>
<!-- metrics/metricsControl.ts&#45;&gt;../services/metricsCollector.ts -->
<g id="edge96" class="edge">
<title>metrics/metricsControl.ts&#45;&gt;../services/metricsCollector.ts</title>
<path fill="none" stroke="#757575" d="M357.8,-1547.84C405.22,-1506.18 566.25,-1364.71 624.09,-1313.89"/>
<polygon fill="#757575" stroke="#757575" points="626.65,-1316.3 631.85,-1307.07 622.03,-1311.04 626.65,-1316.3"/>
</g>
<!-- naming.ts -->
<g id="node36" class="node">
<title>naming.ts</title>
<path fill="none" stroke="#c6c5fe" d="M1699.33,-2177.02C1699.33,-2177.02 1638.67,-2177.02 1638.67,-2177.02 1634.83,-2177.02 1631,-2173.19 1631,-2169.36 1631,-2169.36 1631,-2161.69 1631,-2161.69 1631,-2157.86 1634.83,-2154.02 1638.67,-2154.02 1638.67,-2154.02 1699.33,-2154.02 1699.33,-2154.02 1703.17,-2154.02 1707,-2157.86 1707,-2161.69 1707,-2161.69 1707,-2169.36 1707,-2169.36 1707,-2173.19 1703.17,-2177.02 1699.33,-2177.02"/>
<text text-anchor="middle" x="1669" y="-2161.82" font-family="Arial" font-size="14.00" fill="#c6c5fe">naming.ts</text>
</g>
<!-- naming.ts&#45;&gt;../config/database.ts -->
<g id="edge98" class="edge">
<title>naming.ts&#45;&gt;../config/database.ts</title>
<path fill="none" stroke="#757575" d="M1707.41,-2163.53C1852.13,-2155.65 2368.57,-2126.06 2395,-2103.52 2464.3,-2044.43 2499.65,-1745.78 2508.34,-1661.62"/>
<polygon fill="#757575" stroke="#757575" points="2511.85,-1661.72 2509.37,-1651.42 2504.89,-1661.02 2511.85,-1661.72"/>
</g>
<!-- naming.ts&#45;&gt;project.ts -->
<g id="edge99" class="edge">
<title>naming.ts&#45;&gt;project.ts</title>
<path fill="none" stroke="#757575" d="M1707.11,-2158.14C1724.8,-2153.9 1745.98,-2147.76 1764,-2139.52 1781.49,-2131.53 1783.3,-2125.05 1800,-2115.52 1806.01,-2112.09 1812.55,-2108.69 1818.92,-2105.53"/>
<polygon fill="#757575" stroke="#757575" points="1820.6,-2108.61 1828.08,-2101.11 1817.55,-2102.31 1820.6,-2108.61"/>
</g>
<!-- navigation.ts -->
<g id="node37" class="node">
<title>navigation.ts</title>
<path fill="none" stroke="#cfffac" d="M124.83,-1693.02C124.83,-1693.02 48.17,-1693.02 48.17,-1693.02 44.33,-1693.02 40.5,-1689.19 40.5,-1685.36 40.5,-1685.36 40.5,-1677.69 40.5,-1677.69 40.5,-1673.86 44.33,-1670.02 48.17,-1670.02 48.17,-1670.02 124.83,-1670.02 124.83,-1670.02 128.67,-1670.02 132.5,-1673.86 132.5,-1677.69 132.5,-1677.69 132.5,-1685.36 132.5,-1685.36 132.5,-1689.19 128.67,-1693.02 124.83,-1693.02"/>
<text text-anchor="middle" x="86.5" y="-1677.82" font-family="Arial" font-size="14.00" fill="#cfffac">navigation.ts</text>
</g>
<!-- outcomeTracking.ts -->
<g id="node38" class="node">
<title>outcomeTracking.ts</title>
<path fill="none" stroke="#c6c5fe" d="M1066.83,-1843.02C1066.83,-1843.02 947.17,-1843.02 947.17,-1843.02 943.33,-1843.02 939.5,-1839.19 939.5,-1835.36 939.5,-1835.36 939.5,-1827.69 939.5,-1827.69 939.5,-1823.86 943.33,-1820.02 947.17,-1820.02 947.17,-1820.02 1066.83,-1820.02 1066.83,-1820.02 1070.67,-1820.02 1074.5,-1823.86 1074.5,-1827.69 1074.5,-1827.69 1074.5,-1835.36 1074.5,-1835.36 1074.5,-1839.19 1070.67,-1843.02 1066.83,-1843.02"/>
<text text-anchor="middle" x="1007" y="-1827.82" font-family="Arial" font-size="14.00" fill="#c6c5fe">outcomeTracking.ts</text>
</g>
<!-- outcomeTracking.ts&#45;&gt;../middleware/eventLogger.ts -->
<g id="edge100" class="edge">
<title>outcomeTracking.ts&#45;&gt;../middleware/eventLogger.ts</title>
<path fill="none" stroke="#757575" d="M1074.75,-1825.28C1213.09,-1812.09 1519.8,-1781.46 1538,-1767.52 1637.59,-1691.24 1661.17,-1526.22 1666.51,-1467.12"/>
<polygon fill="#757575" stroke="#757575" points="1670,-1467.32 1667.33,-1457.07 1663.03,-1466.75 1670,-1467.32"/>
</g>
<!-- outcomeTracking.ts&#45;&gt;../services/outcomeTracker.ts -->
<g id="edge101" class="edge">
<title>outcomeTracking.ts&#45;&gt;../services/outcomeTracker.ts</title>
<path fill="none" stroke="#757575" d="M1074.71,-1831.52C1131.56,-1831.52 1214.28,-1831.52 1280.16,-1831.52"/>
<polygon fill="#757575" stroke="#757575" points="1280.17,-1835.02 1290.17,-1831.52 1280.17,-1828.02 1280.17,-1835.02"/>
</g>
<!-- patterns/patternAnalyze.ts -->
<g id="node39" class="node">
<title>patterns/patternAnalyze.ts</title>
<path fill="none" stroke="#c6c5fe" d="M165.33,-1611.02C165.33,-1611.02 7.67,-1611.02 7.67,-1611.02 3.83,-1611.02 0,-1607.19 0,-1603.36 0,-1603.36 0,-1595.69 0,-1595.69 0,-1591.86 3.83,-1588.02 7.67,-1588.02 7.67,-1588.02 165.33,-1588.02 165.33,-1588.02 169.17,-1588.02 173,-1591.86 173,-1595.69 173,-1595.69 173,-1603.36 173,-1603.36 173,-1607.19 169.17,-1611.02 165.33,-1611.02"/>
<text text-anchor="middle" x="86.5" y="-1595.82" font-family="Arial" font-size="14.00" fill="#c6c5fe">patterns/patternAnalyze.ts</text>
</g>
<!-- patterns/patternAnalyze.ts&#45;&gt;../config/database.ts -->
<g id="edge102" class="edge">
<title>patterns/patternAnalyze.ts&#45;&gt;../config/database.ts</title>
<path fill="none" stroke="#757575" d="M87.93,-1587.79C91.89,-1481.68 124.16,-686.92 209,-466.52 307.79,-209.89 370.01,-27.52 645,-27.52 645,-27.52 645,-27.52 2060.5,-27.52 2209.72,-27.52 2290.2,49.71 2395,-56.52 2509.85,-172.96 2511.02,-1434.86 2510.58,-1617.53"/>
<polygon fill="#757575" stroke="#757575" points="2507.08,-1617.76 2510.55,-1627.77 2514.08,-1617.78 2507.08,-1617.76"/>
</g>
<!-- patterns/patternAnalyze.ts&#45;&gt;../middleware/eventLogger.ts -->
<g id="edge103" class="edge">
<title>patterns/patternAnalyze.ts&#45;&gt;../middleware/eventLogger.ts</title>
<path fill="none" stroke="#757575" d="M135.12,-1611.03C157.43,-1615.98 184.44,-1621.34 209,-1624.52 646.04,-1681.09 761.24,-1698.7 1200,-1657.52 1238.06,-1653.95 1504.8,-1612.47 1538,-1593.52 1593.15,-1562.05 1636.69,-1498.38 1656.44,-1465.77"/>
<polygon fill="#757575" stroke="#757575" points="1659.5,-1467.47 1661.59,-1457.08 1653.48,-1463.9 1659.5,-1467.47"/>
</g>
<!-- patterns/patternAnalyze.ts&#45;&gt;project.ts -->
<g id="edge108" class="edge">
<title>patterns/patternAnalyze.ts&#45;&gt;project.ts</title>
<path fill="none" stroke="#757575" d="M162.19,-1611.2C166.12,-1613.54 169.77,-1616.29 173,-1619.52 222.7,-1669.23 173.04,-1713.13 209,-1773.52 331.16,-1978.71 406.2,-2087.52 645,-2087.52 645,-2087.52 645,-2087.52 1388,-2087.52 1542.59,-2087.52 1726.02,-2088.64 1809.12,-2089.2"/>
<polygon fill="#757575" stroke="#757575" points="1809.19,-2092.7 1819.22,-2089.27 1809.24,-2085.7 1809.19,-2092.7"/>
</g>
<!-- patterns/patternAnalyze.ts&#45;&gt;../services/sessionManager.ts -->
<g id="edge105" class="edge">
<title>patterns/patternAnalyze.ts&#45;&gt;../services/sessionManager.ts</title>
<path fill="none" stroke="#757575" d="M88.31,-1587.73C93.53,-1515.77 124.81,-1136.4 209,-1065.52 371.21,-928.97 1043.73,-1000.64 1292.73,-1032.7"/>
<polygon fill="#757575" stroke="#757575" points="1292.47,-1036.2 1302.84,-1034.01 1293.37,-1029.25 1292.47,-1036.2"/>
</g>
<!-- patterns/patternAnalyze.ts&#45;&gt;../services/patternDetector.ts -->
<g id="edge104" class="edge">
<title>patterns/patternAnalyze.ts&#45;&gt;../services/patternDetector.ts</title>
<path fill="none" stroke="#757575" d="M173.09,-1603.06C342.46,-1610.07 719.77,-1625.68 902.65,-1633.25"/>
<polygon fill="#757575" stroke="#757575" points="902.68,-1636.75 912.82,-1633.67 902.97,-1629.76 902.68,-1636.75"/>
</g>
<!-- patterns/patternAnalyze.ts&#45;&gt;_deprecated_tt009/patternAnalysis.ts -->
<g id="edge106" class="edge">
<title>patterns/patternAnalyze.ts&#45;&gt;_deprecated_tt009/patternAnalysis.ts</title>
<path fill="none" stroke="#757575" d="M104.67,-1587.91C127.39,-1573.27 169.23,-1548.77 209,-1538.52 310.01,-1512.5 428.49,-1509.55 516.43,-1512.39"/>
<polygon fill="#757575" stroke="#757575" points="516.34,-1515.89 526.46,-1512.74 516.59,-1508.89 516.34,-1515.89"/>
</g>
<!-- patterns/patternAnalyze.ts&#45;&gt;_deprecated_tt009/patternDetection.ts -->
<g id="edge107" class="edge">
<title>patterns/patternAnalyze.ts&#45;&gt;_deprecated_tt009/patternDetection.ts</title>
<path fill="none" stroke="#757575" d="M161.05,-1611.11C165.36,-1613.46 169.4,-1616.24 173,-1619.52 210.38,-1653.62 170.98,-1694.13 209,-1727.52 213.21,-1731.22 217.79,-1734.46 222.64,-1737.29"/>
<polygon fill="#757575" stroke="#757575" points="221.13,-1740.45 231.62,-1741.95 224.36,-1734.24 221.13,-1740.45"/>
</g>
<!-- patterns/patternInsights.ts -->
<g id="node40" class="node">
<title>patterns/patternInsights.ts</title>
<path fill="none" stroke="#c6c5fe" d="M421.83,-1345.02C421.83,-1345.02 265.17,-1345.02 265.17,-1345.02 261.33,-1345.02 257.5,-1341.19 257.5,-1337.36 257.5,-1337.36 257.5,-1329.69 257.5,-1329.69 257.5,-1325.86 261.33,-1322.02 265.17,-1322.02 265.17,-1322.02 421.83,-1322.02 421.83,-1322.02 425.67,-1322.02 429.5,-1325.86 429.5,-1329.69 429.5,-1329.69 429.5,-1337.36 429.5,-1337.36 429.5,-1341.19 425.67,-1345.02 421.83,-1345.02"/>
<text text-anchor="middle" x="343.5" y="-1329.82" font-family="Arial" font-size="14.00" fill="#c6c5fe">patterns/patternInsights.ts</text>
</g>
<!-- patterns/patternInsights.ts&#45;&gt;../config/database.ts -->
<g id="edge109" class="edge">
<title>patterns/patternInsights.ts&#45;&gt;../config/database.ts</title>
<path fill="none" stroke="#757575" d="M387.63,-1321.97C418.53,-1311.23 458.06,-1291.9 478,-1259.52 531.3,-1172.98 459.1,-431.06 514,-345.52 638.65,-151.31 775.22,-179.52 1006,-179.52 1006,-179.52 1006,-179.52 2060.5,-179.52 2135.09,-179.52 2342.33,-154.7 2395,-207.52 2499.09,-311.93 2509.43,-1444.99 2510.4,-1617.55"/>
<polygon fill="#757575" stroke="#757575" points="2506.9,-1617.72 2510.46,-1627.7 2513.9,-1617.68 2506.9,-1617.72"/>
</g>
<!-- patterns/patternInsights.ts&#45;&gt;../middleware/eventLogger.ts -->
<g id="edge110" class="edge">
<title>patterns/patternInsights.ts&#45;&gt;../middleware/eventLogger.ts</title>
<path fill="none" stroke="#757575" d="M361.29,-1345.3C390.62,-1365.12 453.83,-1404.41 514,-1419.52 710.76,-1468.93 1318.12,-1456.45 1563.53,-1449.07"/>
<polygon fill="#757575" stroke="#757575" points="1563.99,-1452.56 1573.88,-1448.75 1563.78,-1445.56 1563.99,-1452.56"/>
</g>
<!-- patterns/patternInsights.ts&#45;&gt;../services/sessionManager.ts -->
<g id="edge111" class="edge">
<title>patterns/patternInsights.ts&#45;&gt;../services/sessionManager.ts</title>
<path fill="none" stroke="#757575" d="M379.32,-1321.98C409.2,-1310.45 451.5,-1290.03 478,-1259.52 507.34,-1225.75 478.79,-1193.12 514,-1165.52 544.23,-1141.83 1162.04,-1085.37 1200,-1079.52 1238.98,-1073.52 1282.34,-1065.67 1317.38,-1059.02"/>
<polygon fill="#757575" stroke="#757575" points="1318.33,-1062.4 1327.5,-1057.09 1317.02,-1055.52 1318.33,-1062.4"/>
</g>
<!-- patterns/patternInsights.ts&#45;&gt;_deprecated_tt009/patternAnalysis.ts -->
<g id="edge112" class="edge">
<title>patterns/patternInsights.ts&#45;&gt;_deprecated_tt009/patternAnalysis.ts</title>
<path fill="none" stroke="#757575" d="M358.42,-1345.03C386.64,-1368.07 453.13,-1420.78 514,-1457.52 544.78,-1476.1 581.74,-1493.77 608.54,-1505.81"/>
<polygon fill="#757575" stroke="#757575" points="607.37,-1509.12 617.93,-1509.99 610.21,-1502.73 607.37,-1509.12"/>
</g>
<!-- sessionAnalytics.ts -->
<g id="node41" class="node">
<title>sessionAnalytics.ts</title>
<path fill="none" stroke="#c6c5fe" d="M1444.83,-2059.02C1444.83,-2059.02 1329.17,-2059.02 1329.17,-2059.02 1325.33,-2059.02 1321.5,-2055.19 1321.5,-2051.36 1321.5,-2051.36 1321.5,-2043.69 1321.5,-2043.69 1321.5,-2039.86 1325.33,-2036.02 1329.17,-2036.02 1329.17,-2036.02 1444.83,-2036.02 1444.83,-2036.02 1448.67,-2036.02 1452.5,-2039.86 1452.5,-2043.69 1452.5,-2043.69 1452.5,-2051.36 1452.5,-2051.36 1452.5,-2055.19 1448.67,-2059.02 1444.83,-2059.02"/>
<text text-anchor="middle" x="1387" y="-2043.82" font-family="Arial" font-size="14.00" fill="#c6c5fe">sessionAnalytics.ts</text>
</g>
<!-- sessionAnalytics.ts&#45;&gt;../config/database.ts -->
<g id="edge115" class="edge">
<title>sessionAnalytics.ts&#45;&gt;../config/database.ts</title>
<path fill="none" stroke="#757575" d="M1452.74,-2042.27C1479.79,-2038.56 1511.12,-2032.25 1538,-2021.52 1555.86,-2014.39 1555.93,-2004.09 1574,-1997.52 1660.25,-1966.18 2321.2,-1962.07 2395,-1907.52 2477.75,-1846.36 2501.9,-1713.56 2508.34,-1661.29"/>
<polygon fill="#757575" stroke="#757575" points="2511.84,-1661.48 2509.49,-1651.15 2504.89,-1660.69 2511.84,-1661.48"/>
</g>
<!-- sessionAnalytics.ts&#45;&gt;../middleware/eventLogger.ts -->
<g id="edge116" class="edge">
<title>sessionAnalytics.ts&#45;&gt;../middleware/eventLogger.ts</title>
<path fill="none" stroke="#757575" d="M1452.52,-2035.95C1482.51,-2027.39 1516.26,-2012.67 1538,-1987.52 1608.32,-1906.18 1654.52,-1557.62 1665.48,-1467.08"/>
<polygon fill="#757575" stroke="#757575" points="1668.96,-1467.48 1666.67,-1457.14 1662.01,-1466.65 1668.96,-1467.48"/>
</g>
<!-- sessionAnalytics.ts&#45;&gt;project.ts -->
<g id="edge118" class="edge">
<title>sessionAnalytics.ts&#45;&gt;project.ts</title>
<path fill="none" stroke="#757575" d="M1452.74,-2049.9C1527.82,-2053.13 1655.22,-2060.13 1764,-2073.52 1778.7,-2075.33 1794.65,-2077.95 1808.98,-2080.55"/>
<polygon fill="#757575" stroke="#757575" points="1808.61,-2084.04 1819.08,-2082.42 1809.89,-2077.15 1808.61,-2084.04"/>
</g>
<!-- sessionAnalytics.ts&#45;&gt;../services/sessionTracker.ts -->
<g id="edge117" class="edge">
<title>sessionAnalytics.ts&#45;&gt;../services/sessionTracker.ts</title>
<path fill="none" stroke="#757575" d="M1445.33,-2059.05C1475.97,-2067.7 1512.52,-2082.35 1538,-2106.52 1565.99,-2133.08 1546,-2158.98 1574,-2185.52 1638.45,-2246.61 1858.74,-2315.01 1946,-2331.52 2033.93,-2348.16 2136.3,-2343.36 2208.45,-2336.08"/>
<polygon fill="#757575" stroke="#757575" points="2208.84,-2339.56 2218.42,-2335.04 2208.11,-2332.59 2208.84,-2339.56"/>
</g>
<!-- smartSearch.ts -->
<g id="node42" class="node">
<title>smartSearch.ts</title>
<path fill="none" stroke="#c6c5fe" d="M1053.33,-2217.02C1053.33,-2217.02 960.67,-2217.02 960.67,-2217.02 956.83,-2217.02 953,-2213.19 953,-2209.36 953,-2209.36 953,-2201.69 953,-2201.69 953,-2197.86 956.83,-2194.02 960.67,-2194.02 960.67,-2194.02 1053.33,-2194.02 1053.33,-2194.02 1057.17,-2194.02 1061,-2197.86 1061,-2201.69 1061,-2201.69 1061,-2209.36 1061,-2209.36 1061,-2213.19 1057.17,-2217.02 1053.33,-2217.02"/>
<text text-anchor="middle" x="1007" y="-2201.82" font-family="Arial" font-size="14.00" fill="#c6c5fe">smartSearch.ts</text>
</g>
<!-- smartSearch.ts&#45;&gt;../config/database.ts -->
<g id="edge119" class="edge">
<title>smartSearch.ts&#45;&gt;../config/database.ts</title>
<path fill="none" stroke="#757575" d="M1061.22,-2206.46C1303.32,-2210.2 2293.38,-2219.92 2395,-2130.52 2467.59,-2066.66 2500.89,-1747.64 2508.67,-1661.17"/>
<polygon fill="#757575" stroke="#757575" points="2512.16,-1661.45 2509.55,-1651.18 2505.18,-1660.84 2512.16,-1661.45"/>
</g>
<!-- smartSearch.ts&#45;&gt;codeAnalysis.ts -->
<g id="edge120" class="edge">
<title>smartSearch.ts&#45;&gt;codeAnalysis.ts</title>
<path fill="none" stroke="#757575" d="M1061.41,-2209.41C1107.59,-2212.63 1176.17,-2217.06 1236,-2219.52 1437.98,-2227.84 1677.32,-2230.96 1789.68,-2232.02"/>
<polygon fill="#757575" stroke="#757575" points="1789.8,-2235.52 1799.83,-2232.12 1789.86,-2228.52 1789.8,-2235.52"/>
</g>
<!-- smartSearch.ts&#45;&gt;context.ts -->
<g id="edge121" class="edge">
<title>smartSearch.ts&#45;&gt;context.ts</title>
<path fill="none" stroke="#757575" d="M1040.88,-2217.09C1109.39,-2241.2 1267.32,-2296.77 1343.45,-2323.55"/>
<polygon fill="#757575" stroke="#757575" points="1342.6,-2326.96 1353.19,-2326.98 1344.92,-2320.36 1342.6,-2326.96"/>
</g>
<!-- smartSearch.ts&#45;&gt;decisions.ts -->
<g id="edge122" class="edge">
<title>smartSearch.ts&#45;&gt;decisions.ts</title>
<path fill="none" stroke="#757575" d="M1055.44,-2193.94C1101.45,-2182.88 1173.3,-2166.1 1236,-2153.52 1268.08,-2147.09 1304.21,-2140.8 1332.97,-2136.02"/>
<polygon fill="#757575" stroke="#757575" points="1333.92,-2139.41 1343.22,-2134.32 1332.78,-2132.5 1333.92,-2139.41"/>
</g>
<!-- smartSearch.ts&#45;&gt;naming.ts -->
<g id="edge123" class="edge">
<title>smartSearch.ts&#45;&gt;naming.ts</title>
<path fill="none" stroke="#757575" d="M1061.44,-2202.22C1107.64,-2199.37 1176.23,-2195.16 1236,-2191.52 1375.78,-2183.02 1541.01,-2173.12 1620.54,-2168.36"/>
<polygon fill="#757575" stroke="#757575" points="1620.95,-2171.84 1630.73,-2167.75 1620.54,-2164.85 1620.95,-2171.84"/>
</g>
<!-- tasks.ts -->
<g id="node43" class="node">
<title>tasks.ts</title>
<path fill="none" stroke="#c6c5fe" d="M2082.83,-2295.02C2082.83,-2295.02 2036.17,-2295.02 2036.17,-2295.02 2032.33,-2295.02 2028.5,-2291.19 2028.5,-2287.36 2028.5,-2287.36 2028.5,-2279.69 2028.5,-2279.69 2028.5,-2275.86 2032.33,-2272.02 2036.17,-2272.02 2036.17,-2272.02 2082.83,-2272.02 2082.83,-2272.02 2086.67,-2272.02 2090.5,-2275.86 2090.5,-2279.69 2090.5,-2279.69 2090.5,-2287.36 2090.5,-2287.36 2090.5,-2291.19 2086.67,-2295.02 2082.83,-2295.02"/>
<text text-anchor="middle" x="2059.5" y="-2279.82" font-family="Arial" font-size="14.00" fill="#c6c5fe">tasks.ts</text>
</g>
<!-- tasks.ts&#45;&gt;../config/database.ts -->
<g id="edge124" class="edge">
<title>tasks.ts&#45;&gt;../config/database.ts</title>
<path fill="none" stroke="#757575" d="M2090.56,-2285.64C2164.18,-2290.14 2350.74,-2297.27 2395,-2257.52 2486.29,-2175.53 2506.32,-1760.87 2509.84,-1661.12"/>
<polygon fill="#757575" stroke="#757575" points="2513.34,-1661.14 2510.18,-1651.03 2506.35,-1660.91 2513.34,-1661.14"/>
</g>
<!-- tasks.ts&#45;&gt;../services/sessionTracker.ts -->
<g id="edge125" class="edge">
<title>tasks.ts&#45;&gt;../services/sessionTracker.ts</title>
<path fill="none" stroke="#757575" d="M2090.96,-2288.59C2123.69,-2294.03 2177.03,-2302.9 2221.76,-2310.34"/>
<polygon fill="#757575" stroke="#757575" points="2221.32,-2313.82 2231.75,-2312.01 2222.46,-2306.91 2221.32,-2313.82"/>
</g>
</g>
</svg>
