<?xml version="1.0" encoding="UTF-8" standalone="no"?>
<!DOCTYPE svg PUBLIC "-//W3C//DTD SVG 1.1//EN"
 "http://www.w3.org/Graphics/SVG/1.1/DTD/svg11.dtd">
<!-- Generated by graphviz version 2.43.0 (0)
 -->
<!-- Title: G Pages: 1 -->
<svg width="2599pt" height="751pt"
 viewBox="0.00 0.00 2599.20 751.06" xmlns="http://www.w3.org/2000/svg" xmlns:xlink="http://www.w3.org/1999/xlink">
<g id="graph0" class="graph" transform="scale(1 1) rotate(0) translate(21.6 729.46)">
<title>G</title>
<polygon fill="#111111" stroke="transparent" points="-21.6,21.6 -21.6,-729.46 2577.6,-729.46 2577.6,21.6 -21.6,21.6"/>
<!-- ../../../../aidis&#45;command/backend/dist/services/gitService.d.ts -->
<g id="node1" class="node">
<title>../../../../aidis&#45;command/backend/dist/services/gitService.d.ts</title>
<path fill="none" stroke="#c6c5fe" d="M1115.83,-602.68C1115.83,-602.68 755.17,-602.68 755.17,-602.68 751.33,-602.68 747.5,-598.84 747.5,-595.01 747.5,-595.01 747.5,-587.34 747.5,-587.34 747.5,-583.51 751.33,-579.68 755.17,-579.68 755.17,-579.68 1115.83,-579.68 1115.83,-579.68 1119.67,-579.68 1123.5,-583.51 1123.5,-587.34 1123.5,-587.34 1123.5,-595.01 1123.5,-595.01 1123.5,-598.84 1119.67,-602.68 1115.83,-602.68"/>
<text text-anchor="middle" x="935.5" y="-587.48" font-family="Arial" font-size="14.00" fill="#c6c5fe">../../../../aidis&#45;command/backend/dist/services/gitService.d.ts</text>
</g>
<!-- ../../../../aidis&#45;command/backend/dist/types/git.d.ts -->
<g id="node2" class="node">
<title>../../../../aidis&#45;command/backend/dist/types/git.d.ts</title>
<path fill="none" stroke="#ff6c60" d="M1476.33,-584.68C1476.33,-584.68 1177.67,-584.68 1177.67,-584.68 1173.83,-584.68 1170,-580.84 1170,-577.01 1170,-577.01 1170,-569.34 1170,-569.34 1170,-565.51 1173.83,-561.68 1177.67,-561.68 1177.67,-561.68 1476.33,-561.68 1476.33,-561.68 1480.17,-561.68 1484,-565.51 1484,-569.34 1484,-569.34 1484,-577.01 1484,-577.01 1484,-580.84 1480.17,-584.68 1476.33,-584.68"/>
<text text-anchor="middle" x="1327" y="-569.48" font-family="Arial" font-size="14.00" fill="#ff6c60">../../../../aidis&#45;command/backend/dist/types/git.d.ts</text>
</g>
<!-- ../../../../aidis&#45;command/backend/dist/services/gitService.d.ts&#45;&gt;../../../../aidis&#45;command/backend/dist/types/git.d.ts -->
<g id="edge1" class="edge">
<title>../../../../aidis&#45;command/backend/dist/services/gitService.d.ts&#45;&gt;../../../../aidis&#45;command/backend/dist/types/git.d.ts</title>
<path fill="none" stroke="#757575" d="M1123.55,-582.53C1135.66,-581.97 1147.82,-581.41 1159.83,-580.86"/>
<polygon fill="#757575" stroke="#757575" points="1160.05,-584.35 1169.87,-580.39 1159.72,-577.36 1160.05,-584.35"/>
</g>
<!-- ../../../../aidis&#45;command/backend/dist/types/git.d.ts&#45;&gt;../../../../aidis&#45;command/backend/dist/types/git.d.ts -->
<g id="edge2" class="edge">
<title>../../../../aidis&#45;command/backend/dist/types/git.d.ts&#45;&gt;../../../../aidis&#45;command/backend/dist/types/git.d.ts</title>
<path fill="none" stroke="#757575" d="M1279.32,-584.68C1261.49,-593.59 1277.38,-602.68 1327,-602.68 1362.66,-602.68 1380.9,-597.98 1381.72,-592.04"/>
<polygon fill="#757575" stroke="#757575" points="1384.12,-589.49 1374.68,-584.68 1379.07,-594.33 1384.12,-589.49"/>
</g>
<!-- ../../../../aidis&#45;command/backend/dist/services/sessionDetail.d.ts -->
<g id="node3" class="node">
<title>../../../../aidis&#45;command/backend/dist/services/sessionDetail.d.ts</title>
<path fill="none" stroke="#cfffac" d="M1126.33,-561.68C1126.33,-561.68 744.67,-561.68 744.67,-561.68 740.83,-561.68 737,-557.84 737,-554.01 737,-554.01 737,-546.34 737,-546.34 737,-542.51 740.83,-538.68 744.67,-538.68 744.67,-538.68 1126.33,-538.68 1126.33,-538.68 1130.17,-538.68 1134,-542.51 1134,-546.34 1134,-546.34 1134,-554.01 1134,-554.01 1134,-557.84 1130.17,-561.68 1126.33,-561.68"/>
<text text-anchor="middle" x="935.5" y="-546.48" font-family="Arial" font-size="14.00" fill="#cfffac">../../../../aidis&#45;command/backend/dist/services/sessionDetail.d.ts</text>
</g>
<!-- ../../config/database.ts -->
<g id="node4" class="node">
<title>../../config/database.ts</title>
<path fill="none" stroke="#cfffac" d="M2536.83,-280.68C2536.83,-280.68 2403.17,-280.68 2403.17,-280.68 2399.33,-280.68 2395.5,-276.84 2395.5,-273.01 2395.5,-273.01 2395.5,-265.34 2395.5,-265.34 2395.5,-261.51 2399.33,-257.68 2403.17,-257.68 2403.17,-257.68 2536.83,-257.68 2536.83,-257.68 2540.67,-257.68 2544.5,-261.51 2544.5,-265.34 2544.5,-265.34 2544.5,-273.01 2544.5,-273.01 2544.5,-276.84 2540.67,-280.68 2536.83,-280.68"/>
<text text-anchor="middle" x="2470" y="-265.48" font-family="Arial" font-size="14.00" fill="#cfffac">../../config/database.ts</text>
</g>
<!-- ../../middleware/eventLogger.ts -->
<g id="node5" class="node">
<title>../../middleware/eventLogger.ts</title>
<path fill="none" stroke="#c6c5fe" d="M1713.33,-280.68C1713.33,-280.68 1527.67,-280.68 1527.67,-280.68 1523.83,-280.68 1520,-276.84 1520,-273.01 1520,-273.01 1520,-265.34 1520,-265.34 1520,-261.51 1523.83,-257.68 1527.67,-257.68 1527.67,-257.68 1713.33,-257.68 1713.33,-257.68 1717.17,-257.68 1721,-261.51 1721,-265.34 1721,-265.34 1721,-273.01 1721,-273.01 1721,-276.84 1717.17,-280.68 1713.33,-280.68"/>
<text text-anchor="middle" x="1620.5" y="-265.48" font-family="Arial" font-size="14.00" fill="#c6c5fe">../../middleware/eventLogger.ts</text>
</g>
<!-- ../../middleware/eventLogger.ts&#45;&gt;../../config/database.ts -->
<g id="edge3" class="edge">
<title>../../middleware/eventLogger.ts&#45;&gt;../../config/database.ts</title>
<path fill="none" stroke="#757575" d="M1721.21,-269.18C1889.8,-269.18 2228.12,-269.18 2385.25,-269.18"/>
<polygon fill="#757575" stroke="#757575" points="2385.33,-272.68 2395.33,-269.18 2385.33,-265.68 2385.33,-272.68"/>
</g>
<!-- ../project.ts -->
<g id="node6" class="node">
<title>../project.ts</title>
<path fill="none" stroke="#ff6c60" d="M1832.33,-147.68C1832.33,-147.68 1764.67,-147.68 1764.67,-147.68 1760.83,-147.68 1757,-143.84 1757,-140.01 1757,-140.01 1757,-132.34 1757,-132.34 1757,-128.51 1760.83,-124.68 1764.67,-124.68 1764.67,-124.68 1832.33,-124.68 1832.33,-124.68 1836.17,-124.68 1840,-128.51 1840,-132.34 1840,-132.34 1840,-140.01 1840,-140.01 1840,-143.84 1836.17,-147.68 1832.33,-147.68"/>
<text text-anchor="middle" x="1798.5" y="-132.48" font-family="Arial" font-size="14.00" fill="#ff6c60">../project.ts</text>
</g>
<!-- ../../middleware/eventLogger.ts&#45;&gt;../project.ts -->
<g id="edge4" class="edge">
<title>../../middleware/eventLogger.ts&#45;&gt;../project.ts</title>
<path fill="none" stroke="#757575" d="M1636.81,-257.61C1667.63,-234.32 1737.31,-181.66 1773.96,-153.97"/>
<polygon fill="#757575" stroke="#757575" points="1776.23,-156.64 1782.1,-147.82 1772.01,-151.05 1776.23,-156.64"/>
</g>
<!-- ../project.ts&#45;&gt;../../config/database.ts -->
<g id="edge31" class="edge">
<title>../project.ts&#45;&gt;../../config/database.ts</title>
<path fill="none" stroke="#757575" d="M1838.54,-147.69C1850.47,-150.86 1863.7,-154.01 1876,-156.18 2083.49,-192.72 2147.07,-136.79 2348,-200.18 2384.4,-211.66 2421.91,-235.21 2445.33,-251.59"/>
<polygon fill="#757575" stroke="#757575" points="2443.4,-254.52 2453.58,-257.47 2447.47,-248.82 2443.4,-254.52"/>
</g>
<!-- ../../services/projectSwitchValidator.ts -->
<g id="node9" class="node">
<title>../../services/projectSwitchValidator.ts</title>
<path fill="none" stroke="#ff6c60" d="M2107.33,-147.68C2107.33,-147.68 1883.67,-147.68 1883.67,-147.68 1879.83,-147.68 1876,-143.84 1876,-140.01 1876,-140.01 1876,-132.34 1876,-132.34 1876,-128.51 1879.83,-124.68 1883.67,-124.68 1883.67,-124.68 2107.33,-124.68 2107.33,-124.68 2111.17,-124.68 2115,-128.51 2115,-132.34 2115,-132.34 2115,-140.01 2115,-140.01 2115,-143.84 2111.17,-147.68 2107.33,-147.68"/>
<text text-anchor="middle" x="1995.5" y="-132.48" font-family="Arial" font-size="14.00" fill="#ff6c60">../../services/projectSwitchValidator.ts</text>
</g>
<!-- ../project.ts&#45;&gt;../../services/projectSwitchValidator.ts -->
<g id="edge32" class="edge">
<title>../project.ts&#45;&gt;../../services/projectSwitchValidator.ts</title>
<path fill="none" stroke="#757575" d="M1840.38,-130.56C1848.17,-130.21 1856.7,-129.94 1865.62,-129.75"/>
<polygon fill="#757575" stroke="#757575" points="1865.9,-133.24 1875.83,-129.57 1865.78,-126.25 1865.9,-133.24"/>
</g>
<!-- ../../services/patternDetector.ts -->
<g id="node7" class="node">
<title>../../services/patternDetector.ts</title>
<path fill="none" stroke="#c6c5fe" d="M1027.33,-443.68C1027.33,-443.68 843.67,-443.68 843.67,-443.68 839.83,-443.68 836,-439.84 836,-436.01 836,-436.01 836,-428.34 836,-428.34 836,-424.51 839.83,-420.68 843.67,-420.68 843.67,-420.68 1027.33,-420.68 1027.33,-420.68 1031.17,-420.68 1035,-424.51 1035,-428.34 1035,-428.34 1035,-436.01 1035,-436.01 1035,-439.84 1031.17,-443.68 1027.33,-443.68"/>
<text text-anchor="middle" x="935.5" y="-428.48" font-family="Arial" font-size="14.00" fill="#c6c5fe">../../services/patternDetector.ts</text>
</g>
<!-- ../../services/patternDetector.ts&#45;&gt;../../config/database.ts -->
<g id="edge5" class="edge">
<title>../../services/patternDetector.ts&#45;&gt;../../config/database.ts</title>
<path fill="none" stroke="#757575" d="M1035.18,-431C1167.97,-429.52 1411.54,-427.18 1619.5,-427.18 1619.5,-427.18 1619.5,-427.18 1996.5,-427.18 2173.23,-427.18 2368.85,-326.53 2440.62,-285.89"/>
<polygon fill="#757575" stroke="#757575" points="2442.58,-288.8 2449.53,-280.8 2439.11,-282.73 2442.58,-288.8"/>
</g>
<!-- ../../services/patternDetector.ts&#45;&gt;../../middleware/eventLogger.ts -->
<g id="edge6" class="edge">
<title>../../services/patternDetector.ts&#45;&gt;../../middleware/eventLogger.ts</title>
<path fill="none" stroke="#757575" d="M1035.02,-423.19C1181.32,-409.44 1443.23,-383.09 1484,-367.18 1530.65,-348.97 1575.96,-310.8 1600.55,-287.84"/>
<polygon fill="#757575" stroke="#757575" points="1603.23,-290.12 1608.06,-280.69 1598.41,-285.05 1603.23,-290.12"/>
</g>
<!-- ../../services/sessionManager.ts -->
<g id="node8" class="node">
<title>../../services/sessionManager.ts</title>
<path fill="none" stroke="#c6c5fe" d="M1422.33,-357.68C1422.33,-357.68 1231.67,-357.68 1231.67,-357.68 1227.83,-357.68 1224,-353.84 1224,-350.01 1224,-350.01 1224,-342.34 1224,-342.34 1224,-338.51 1227.83,-334.68 1231.67,-334.68 1231.67,-334.68 1422.33,-334.68 1422.33,-334.68 1426.17,-334.68 1430,-338.51 1430,-342.34 1430,-342.34 1430,-350.01 1430,-350.01 1430,-353.84 1426.17,-357.68 1422.33,-357.68"/>
<text text-anchor="middle" x="1327" y="-342.48" font-family="Arial" font-size="14.00" fill="#c6c5fe">../../services/sessionManager.ts</text>
</g>
<!-- ../../services/patternDetector.ts&#45;&gt;../../services/sessionManager.ts -->
<g id="edge7" class="edge">
<title>../../services/patternDetector.ts&#45;&gt;../../services/sessionManager.ts</title>
<path fill="none" stroke="#757575" d="M1035.24,-430.96C1067.88,-427.53 1103.6,-420.36 1134,-406.18 1153.67,-397 1150.52,-382.75 1170,-373.18 1183.66,-366.47 1198.71,-361.4 1213.91,-357.57"/>
<polygon fill="#757575" stroke="#757575" points="1214.96,-360.92 1223.9,-355.23 1213.37,-354.1 1214.96,-360.92"/>
</g>
<!-- ../../services/sessionManager.ts&#45;&gt;../../config/database.ts -->
<g id="edge11" class="edge">
<title>../../services/sessionManager.ts&#45;&gt;../../config/database.ts</title>
<path fill="none" stroke="#757575" d="M1430.12,-345.49C1525.22,-344.91 1670.95,-344.18 1797.5,-344.18 1797.5,-344.18 1797.5,-344.18 1996.5,-344.18 2150.3,-344.18 2328.81,-304.94 2415.82,-283.23"/>
<polygon fill="#757575" stroke="#757575" points="2416.88,-286.57 2425.72,-280.73 2415.17,-279.78 2416.88,-286.57"/>
</g>
<!-- ../../services/sessionManager.ts&#45;&gt;../../middleware/eventLogger.ts -->
<g id="edge12" class="edge">
<title>../../services/sessionManager.ts&#45;&gt;../../middleware/eventLogger.ts</title>
<path fill="none" stroke="#757575" d="M1371.64,-334.65C1423.48,-320.96 1509.96,-298.11 1565.84,-283.35"/>
<polygon fill="#757575" stroke="#757575" points="1566.79,-286.72 1575.56,-280.78 1565,-279.95 1566.79,-286.72"/>
</g>
<!-- ../../services/projectSwitchValidator.ts&#45;&gt;../../config/database.ts -->
<g id="edge8" class="edge">
<title>../../services/projectSwitchValidator.ts&#45;&gt;../../config/database.ts</title>
<path fill="none" stroke="#757575" d="M2115.27,-126.41C2185.55,-125.08 2274.84,-131.34 2348,-162.18 2393.27,-181.26 2433.25,-224.34 2453.98,-249.63"/>
<polygon fill="#757575" stroke="#757575" points="2451.27,-251.85 2460.25,-257.47 2456.73,-247.47 2451.27,-251.85"/>
</g>
<!-- ../../services/projectSwitchValidator.ts&#45;&gt;../project.ts -->
<g id="edge10" class="edge">
<title>../../services/projectSwitchValidator.ts&#45;&gt;../project.ts</title>
<path fill="none" stroke="#757575" d="M1875.83,-142.78C1867.06,-142.66 1858.53,-142.47 1850.54,-142.19"/>
<polygon fill="#757575" stroke="#757575" points="1850.51,-138.69 1840.38,-141.79 1850.23,-145.69 1850.51,-138.69"/>
</g>
<!-- ../../services/sessionTracker.ts -->
<g id="node10" class="node">
<title>../../services/sessionTracker.ts</title>
<path fill="none" stroke="#ff6c60" d="M2340.33,-109.68C2340.33,-109.68 2158.67,-109.68 2158.67,-109.68 2154.83,-109.68 2151,-105.84 2151,-102.01 2151,-102.01 2151,-94.34 2151,-94.34 2151,-90.51 2154.83,-86.68 2158.67,-86.68 2158.67,-86.68 2340.33,-86.68 2340.33,-86.68 2344.17,-86.68 2348,-90.51 2348,-94.34 2348,-94.34 2348,-102.01 2348,-102.01 2348,-105.84 2344.17,-109.68 2340.33,-109.68"/>
<text text-anchor="middle" x="2249.5" y="-94.48" font-family="Arial" font-size="14.00" fill="#ff6c60">../../services/sessionTracker.ts</text>
</g>
<!-- ../../services/projectSwitchValidator.ts&#45;&gt;../../services/sessionTracker.ts -->
<g id="edge9" class="edge">
<title>../../services/projectSwitchValidator.ts&#45;&gt;../../services/sessionTracker.ts</title>
<path fill="none" stroke="#757575" d="M2072.79,-124.67C2100.91,-120.43 2132.97,-115.6 2161.93,-111.23"/>
<polygon fill="#757575" stroke="#757575" points="2162.67,-114.66 2172.03,-109.71 2161.62,-107.74 2162.67,-114.66"/>
</g>
<!-- ../../services/sessionTracker.ts&#45;&gt;../../config/database.ts -->
<g id="edge13" class="edge">
<title>../../services/sessionTracker.ts&#45;&gt;../../config/database.ts</title>
<path fill="none" stroke="#757575" d="M2316.05,-109.69C2327.22,-113.29 2338.33,-118.01 2348,-124.18 2398.6,-156.47 2438.7,-216.72 2457.45,-248.44"/>
<polygon fill="#757575" stroke="#757575" points="2454.54,-250.39 2462.57,-257.3 2460.6,-246.89 2454.54,-250.39"/>
</g>
<!-- ../../services/sessionTracker.ts&#45;&gt;../project.ts -->
<g id="edge15" class="edge">
<title>../../services/sessionTracker.ts&#45;&gt;../project.ts</title>
<path fill="none" stroke="#757575" d="M2150.65,-96.73C2075.17,-97.04 1968.4,-100.57 1876,-115.18 1865.9,-116.77 1855.22,-119.21 1845.15,-121.87"/>
<polygon fill="#757575" stroke="#757575" points="1844.04,-118.54 1835.33,-124.57 1845.9,-125.29 1844.04,-118.54"/>
</g>
<!-- ../../utils/agentDetection.ts -->
<g id="node11" class="node">
<title>../../utils/agentDetection.ts</title>
<path fill="none" stroke="#cfffac" d="M2548.33,-109.68C2548.33,-109.68 2391.67,-109.68 2391.67,-109.68 2387.83,-109.68 2384,-105.84 2384,-102.01 2384,-102.01 2384,-94.34 2384,-94.34 2384,-90.51 2387.83,-86.68 2391.67,-86.68 2391.67,-86.68 2548.33,-86.68 2548.33,-86.68 2552.17,-86.68 2556,-90.51 2556,-94.34 2556,-94.34 2556,-102.01 2556,-102.01 2556,-105.84 2552.17,-109.68 2548.33,-109.68"/>
<text text-anchor="middle" x="2470" y="-94.48" font-family="Arial" font-size="14.00" fill="#cfffac">../../utils/agentDetection.ts</text>
</g>
<!-- ../../services/sessionTracker.ts&#45;&gt;../../utils/agentDetection.ts -->
<g id="edge14" class="edge">
<title>../../services/sessionTracker.ts&#45;&gt;../../utils/agentDetection.ts</title>
<path fill="none" stroke="#757575" d="M2348.25,-98.18C2356.65,-98.18 2365.14,-98.18 2373.52,-98.18"/>
<polygon fill="#757575" stroke="#757575" points="2373.68,-101.68 2383.68,-98.18 2373.68,-94.68 2373.68,-101.68"/>
</g>
<!-- ../_deprecated_tt009/patternAnalysis.ts -->
<g id="node12" class="node">
<title>../_deprecated_tt009/patternAnalysis.ts</title>
<path fill="none" stroke="#c6c5fe" d="M693.33,-232.68C693.33,-232.68 457.67,-232.68 457.67,-232.68 453.83,-232.68 450,-228.84 450,-225.01 450,-225.01 450,-217.34 450,-217.34 450,-213.51 453.83,-209.68 457.67,-209.68 457.67,-209.68 693.33,-209.68 693.33,-209.68 697.17,-209.68 701,-213.51 701,-217.34 701,-217.34 701,-225.01 701,-225.01 701,-228.84 697.17,-232.68 693.33,-232.68"/>
<text text-anchor="middle" x="575.5" y="-217.48" font-family="Arial" font-size="14.00" fill="#c6c5fe">../_deprecated_tt009/patternAnalysis.ts</text>
</g>
<!-- ../_deprecated_tt009/patternAnalysis.ts&#45;&gt;../../config/database.ts -->
<g id="edge16" class="edge">
<title>../_deprecated_tt009/patternAnalysis.ts&#45;&gt;../../config/database.ts</title>
<path fill="none" stroke="#757575" d="M617.35,-209.56C756.38,-171.07 1224.53,-50.18 1619.5,-50.18 1619.5,-50.18 1619.5,-50.18 1996.5,-50.18 2153.18,-50.18 2213.82,3.72 2348,-77.18 2365.09,-87.48 2430.88,-201.67 2457.61,-248.91"/>
<polygon fill="#757575" stroke="#757575" points="2454.59,-250.67 2462.55,-257.66 2460.68,-247.23 2454.59,-250.67"/>
</g>
<!-- ../_deprecated_tt009/patternAnalysis.ts&#45;&gt;../../middleware/eventLogger.ts -->
<g id="edge17" class="edge">
<title>../_deprecated_tt009/patternAnalysis.ts&#45;&gt;../../middleware/eventLogger.ts</title>
<path fill="none" stroke="#757575" d="M701.1,-223.43C814.12,-225.79 985.29,-230.15 1134,-237.18 1262.96,-243.28 1410.99,-253.5 1509.35,-260.75"/>
<polygon fill="#757575" stroke="#757575" points="1509.37,-264.26 1519.6,-261.51 1509.89,-257.28 1509.37,-264.26"/>
</g>
<!-- ../_deprecated_tt009/patternAnalysis.ts&#45;&gt;../../services/patternDetector.ts -->
<g id="edge18" class="edge">
<title>../_deprecated_tt009/patternAnalysis.ts&#45;&gt;../../services/patternDetector.ts</title>
<path fill="none" stroke="#757575" d="M596.26,-232.82C656.16,-268.13 835.91,-374.07 906.04,-415.41"/>
<polygon fill="#757575" stroke="#757575" points="904.41,-418.51 914.8,-420.57 907.97,-412.48 904.41,-418.51"/>
</g>
<!-- ../_deprecated_tt009/patternAnalysis.ts&#45;&gt;../../services/sessionManager.ts -->
<g id="edge19" class="edge">
<title>../_deprecated_tt009/patternAnalysis.ts&#45;&gt;../../services/sessionManager.ts</title>
<path fill="none" stroke="#757575" d="M672.58,-232.73C783.99,-246.69 972.97,-272.08 1134,-302.18 1180.29,-310.83 1232.33,-322.9 1270.54,-332.22"/>
<polygon fill="#757575" stroke="#757575" points="1269.9,-335.66 1280.44,-334.64 1271.56,-328.86 1269.9,-335.66"/>
</g>
<!-- ../_deprecated_tt009/patternDetection.ts -->
<g id="node13" class="node">
<title>../_deprecated_tt009/patternDetection.ts</title>
<path fill="none" stroke="#c6c5fe" d="M406.33,-421.68C406.33,-421.68 164.67,-421.68 164.67,-421.68 160.83,-421.68 157,-417.84 157,-414.01 157,-414.01 157,-406.34 157,-406.34 157,-402.51 160.83,-398.68 164.67,-398.68 164.67,-398.68 406.33,-398.68 406.33,-398.68 410.17,-398.68 414,-402.51 414,-406.34 414,-406.34 414,-414.01 414,-414.01 414,-417.84 410.17,-421.68 406.33,-421.68"/>
<text text-anchor="middle" x="285.5" y="-406.48" font-family="Arial" font-size="14.00" fill="#c6c5fe">../_deprecated_tt009/patternDetection.ts</text>
</g>
<!-- ../_deprecated_tt009/patternDetection.ts&#45;&gt;../../config/database.ts -->
<g id="edge20" class="edge">
<title>../_deprecated_tt009/patternDetection.ts&#45;&gt;../../config/database.ts</title>
<path fill="none" stroke="#757575" d="M299.68,-421.8C326.48,-444.98 389.87,-497.62 450,-531.18 645.5,-640.31 710.6,-669.18 934.5,-669.18 934.5,-669.18 934.5,-669.18 1996.5,-669.18 2165.16,-669.18 2230.68,-647.34 2348,-526.18 2416.59,-455.35 2451.84,-338.4 2464,-290.57"/>
<polygon fill="#757575" stroke="#757575" points="2467.44,-291.25 2466.42,-280.71 2460.64,-289.58 2467.44,-291.25"/>
</g>
<!-- ../_deprecated_tt009/patternDetection.ts&#45;&gt;../../middleware/eventLogger.ts -->
<g id="edge21" class="edge">
<title>../_deprecated_tt009/patternDetection.ts&#45;&gt;../../middleware/eventLogger.ts</title>
<path fill="none" stroke="#757575" d="M395.3,-398.67C645.33,-372.22 1258.59,-307.35 1509.64,-280.8"/>
<polygon fill="#757575" stroke="#757575" points="1510.29,-284.25 1519.87,-279.72 1509.55,-277.29 1510.29,-284.25"/>
</g>
<!-- ../_deprecated_tt009/patternDetection.ts&#45;&gt;../../services/patternDetector.ts -->
<g id="edge22" class="edge">
<title>../_deprecated_tt009/patternDetection.ts&#45;&gt;../../services/patternDetector.ts</title>
<path fill="none" stroke="#757575" d="M414.14,-414.51C534.31,-418.59 712.34,-424.64 825.87,-428.49"/>
<polygon fill="#757575" stroke="#757575" points="825.86,-431.99 835.97,-428.83 826.1,-425 825.86,-431.99"/>
</g>
<!-- ../_deprecated_tt009/patternDetection.ts&#45;&gt;../../services/sessionManager.ts -->
<g id="edge23" class="edge">
<title>../_deprecated_tt009/patternDetection.ts&#45;&gt;../../services/sessionManager.ts</title>
<path fill="none" stroke="#757575" d="M414.18,-407.37C580.28,-402.91 879.35,-392.13 1134,-368.18 1150.08,-366.67 1153.97,-365.16 1170,-363.18 1184.17,-361.42 1199.07,-359.67 1213.82,-358"/>
<polygon fill="#757575" stroke="#757575" points="1214.45,-361.45 1223.99,-356.86 1213.67,-354.5 1214.45,-361.45"/>
</g>
<!-- ../git.ts -->
<g id="node14" class="node">
<title>../git.ts</title>
<path fill="none" stroke="#c6c5fe" d="M595.83,-521.68C595.83,-521.68 555.17,-521.68 555.17,-521.68 551.33,-521.68 547.5,-517.84 547.5,-514.01 547.5,-514.01 547.5,-506.34 547.5,-506.34 547.5,-502.51 551.33,-498.68 555.17,-498.68 555.17,-498.68 595.83,-498.68 595.83,-498.68 599.67,-498.68 603.5,-502.51 603.5,-506.34 603.5,-506.34 603.5,-514.01 603.5,-514.01 603.5,-517.84 599.67,-521.68 595.83,-521.68"/>
<text text-anchor="middle" x="575.5" y="-506.48" font-family="Arial" font-size="14.00" fill="#c6c5fe">../git.ts</text>
</g>
<!-- ../_deprecated_tt009/patternDetection.ts&#45;&gt;../git.ts -->
<g id="edge24" class="edge">
<title>../_deprecated_tt009/patternDetection.ts&#45;&gt;../git.ts</title>
<path fill="none" stroke="#757575" d="M319.82,-421.75C374.15,-440.61 481.43,-477.86 537.85,-497.45"/>
<polygon fill="#757575" stroke="#757575" points="536.84,-500.81 547.44,-500.78 539.14,-494.2 536.84,-500.81"/>
</g>
<!-- ../git.ts&#45;&gt;../../../../aidis&#45;command/backend/dist/services/gitService.d.ts -->
<g id="edge25" class="edge">
<title>../git.ts&#45;&gt;../../../../aidis&#45;command/backend/dist/services/gitService.d.ts</title>
<path fill="none" stroke="#757575" d="M600.88,-521.76C631.8,-535.9 687.1,-559.39 737,-571.18 748.02,-573.78 759.47,-576.05 771.06,-578.02"/>
<polygon fill="#757575" stroke="#757575" points="770.83,-581.53 781.27,-579.68 771.96,-574.62 770.83,-581.53"/>
</g>
<!-- ../git.ts&#45;&gt;../../../../aidis&#45;command/backend/dist/services/sessionDetail.d.ts -->
<g id="edge26" class="edge">
<title>../git.ts&#45;&gt;../../../../aidis&#45;command/backend/dist/services/sessionDetail.d.ts</title>
<path fill="none" stroke="#757575" d="M603.7,-513.22C649.54,-518.34 744.64,-528.96 821.16,-537.51"/>
<polygon fill="#757575" stroke="#757575" points="821.02,-541.02 831.35,-538.65 821.8,-534.06 821.02,-541.02"/>
</g>
<!-- ../git.ts&#45;&gt;../../config/database.ts -->
<g id="edge27" class="edge">
<title>../git.ts&#45;&gt;../../config/database.ts</title>
<path fill="none" stroke="#757575" d="M589.41,-521.91C615.18,-544.46 675.8,-593.3 737,-612.18 987.28,-689.38 1064.09,-631.18 1326,-631.18 1326,-631.18 1326,-631.18 1996.5,-631.18 2222.94,-631.18 2407.92,-365.95 2456.51,-289.54"/>
<polygon fill="#757575" stroke="#757575" points="2459.64,-291.14 2461.99,-280.81 2453.71,-287.42 2459.64,-291.14"/>
</g>
<!-- ../git.ts&#45;&gt;../../middleware/eventLogger.ts -->
<g id="edge28" class="edge">
<title>../git.ts&#45;&gt;../../middleware/eventLogger.ts</title>
<path fill="none" stroke="#757575" d="M603.65,-510.94C684.7,-512.82 931.84,-515.61 1134,-487.18 1292.52,-464.88 1344.07,-479.93 1484,-402.18 1536.22,-373.16 1582.42,-318.56 1604.95,-289.15"/>
<polygon fill="#757575" stroke="#757575" points="1607.95,-290.99 1611.16,-280.89 1602.35,-286.78 1607.95,-290.99"/>
</g>
<!-- ../git.ts&#45;&gt;../../services/patternDetector.ts -->
<g id="edge29" class="edge">
<title>../git.ts&#45;&gt;../../services/patternDetector.ts</title>
<path fill="none" stroke="#757575" d="M603.61,-507C629.44,-503.3 669.03,-495.87 701,-482.18 718.68,-474.61 719,-464.94 737,-458.18 764.92,-447.69 796.45,-441.31 825.98,-437.47"/>
<polygon fill="#757575" stroke="#757575" points="826.41,-440.95 835.91,-436.27 825.56,-434 826.41,-440.95"/>
</g>
<!-- ../git.ts&#45;&gt;../../services/sessionManager.ts -->
<g id="edge30" class="edge">
<title>../git.ts&#45;&gt;../../services/sessionManager.ts</title>
<path fill="none" stroke="#757575" d="M603.84,-507.69C712.41,-497.78 1108.39,-461.24 1134,-453.18 1199.15,-432.66 1267.07,-388.52 1302.02,-363.82"/>
<polygon fill="#757575" stroke="#757575" points="1304.49,-366.37 1310.58,-357.7 1300.41,-360.67 1304.49,-366.37"/>
</g>
<!-- patternAnalyze.ts -->
<g id="node15" class="node">
<title>patternAnalyze.ts</title>
<path fill="none" stroke="#c6c5fe" d="M113.33,-327.68C113.33,-327.68 7.67,-327.68 7.67,-327.68 3.83,-327.68 0,-323.84 0,-320.01 0,-320.01 0,-312.34 0,-312.34 0,-308.51 3.83,-304.68 7.67,-304.68 7.67,-304.68 113.33,-304.68 113.33,-304.68 117.17,-304.68 121,-308.51 121,-312.34 121,-312.34 121,-320.01 121,-320.01 121,-323.84 117.17,-327.68 113.33,-327.68"/>
<text text-anchor="middle" x="60.5" y="-312.48" font-family="Arial" font-size="14.00" fill="#c6c5fe">patternAnalyze.ts</text>
</g>
<!-- patternAnalyze.ts&#45;&gt;../../config/database.ts -->
<g id="edge33" class="edge">
<title>patternAnalyze.ts&#45;&gt;../../config/database.ts</title>
<path fill="none" stroke="#757575" d="M67.54,-328.03C80.91,-353.41 115.16,-413.87 157,-453.18 315.28,-601.91 357.3,-707.18 574.5,-707.18 574.5,-707.18 574.5,-707.18 1996.5,-707.18 2159.29,-707.18 2231.76,-718.15 2348,-604.18 2439.67,-514.3 2462.24,-349.86 2467.49,-290.92"/>
<polygon fill="#757575" stroke="#757575" points="2470.98,-291.14 2468.31,-280.89 2464.01,-290.57 2470.98,-291.14"/>
</g>
<!-- patternAnalyze.ts&#45;&gt;../../middleware/eventLogger.ts -->
<g id="edge34" class="edge">
<title>patternAnalyze.ts&#45;&gt;../../middleware/eventLogger.ts</title>
<path fill="none" stroke="#757575" d="M66.04,-304.58C77.25,-277.39 108.91,-209.04 157,-172.18 265.98,-88.64 314.47,-96.24 450,-74.18 906.99,0.22 1043.48,-58.63 1484,-201.18 1523.43,-213.94 1565.61,-236.72 1592.24,-252.37"/>
<polygon fill="#757575" stroke="#757575" points="1590.6,-255.47 1600.99,-257.58 1594.19,-249.46 1590.6,-255.47"/>
</g>
<!-- patternAnalyze.ts&#45;&gt;../project.ts -->
<g id="edge39" class="edge">
<title>patternAnalyze.ts&#45;&gt;../project.ts</title>
<path fill="none" stroke="#757575" d="M62.24,-304.58C65.4,-265.29 81.38,-136.35 157,-76.18 303.9,40.7 386.78,-12.18 574.5,-12.18 574.5,-12.18 574.5,-12.18 936.5,-12.18 1247.06,-12.18 1614.26,-92.19 1746.71,-123.67"/>
<polygon fill="#757575" stroke="#757575" points="1746.04,-127.11 1756.58,-126.03 1747.67,-120.3 1746.04,-127.11"/>
</g>
<!-- patternAnalyze.ts&#45;&gt;../../services/patternDetector.ts -->
<g id="edge35" class="edge">
<title>patternAnalyze.ts&#45;&gt;../../services/patternDetector.ts</title>
<path fill="none" stroke="#757575" d="M66.83,-327.83C78.83,-352.42 110.56,-409.18 157,-431.18 215.72,-458.99 625.87,-445.53 825.64,-437.15"/>
<polygon fill="#757575" stroke="#757575" points="826.03,-440.64 835.87,-436.72 825.73,-433.65 826.03,-440.64"/>
</g>
<!-- patternAnalyze.ts&#45;&gt;../../services/sessionManager.ts -->
<g id="edge36" class="edge">
<title>patternAnalyze.ts&#45;&gt;../../services/sessionManager.ts</title>
<path fill="none" stroke="#757575" d="M121.22,-317.59C318.8,-322.28 953.54,-337.34 1213.44,-343.51"/>
<polygon fill="#757575" stroke="#757575" points="1213.57,-347.01 1223.65,-343.75 1213.74,-340.01 1213.57,-347.01"/>
</g>
<!-- patternAnalyze.ts&#45;&gt;../_deprecated_tt009/patternAnalysis.ts -->
<g id="edge37" class="edge">
<title>patternAnalyze.ts&#45;&gt;../_deprecated_tt009/patternAnalysis.ts</title>
<path fill="none" stroke="#757575" d="M121.1,-305.14C215.77,-287.61 400.21,-253.45 502.25,-234.56"/>
<polygon fill="#757575" stroke="#757575" points="502.97,-237.98 512.17,-232.72 501.7,-231.1 502.97,-237.98"/>
</g>
<!-- patternAnalyze.ts&#45;&gt;../_deprecated_tt009/patternDetection.ts -->
<g id="edge38" class="edge">
<title>patternAnalyze.ts&#45;&gt;../_deprecated_tt009/patternDetection.ts</title>
<path fill="none" stroke="#757575" d="M88.84,-327.7C128.72,-344.51 202.92,-375.79 247.6,-394.62"/>
<polygon fill="#757575" stroke="#757575" points="246.36,-397.9 256.93,-398.56 249.08,-391.45 246.36,-397.9"/>
</g>
<!-- patternInsights.ts -->
<g id="node16" class="node">
<title>patternInsights.ts</title>
<path fill="none" stroke="#c6c5fe" d="M337.33,-204.68C337.33,-204.68 233.67,-204.68 233.67,-204.68 229.83,-204.68 226,-200.84 226,-197.01 226,-197.01 226,-189.34 226,-189.34 226,-185.51 229.83,-181.68 233.67,-181.68 233.67,-181.68 337.33,-181.68 337.33,-181.68 341.17,-181.68 345,-185.51 345,-189.34 345,-189.34 345,-197.01 345,-197.01 345,-200.84 341.17,-204.68 337.33,-204.68"/>
<text text-anchor="middle" x="285.5" y="-189.48" font-family="Arial" font-size="14.00" fill="#c6c5fe">patternInsights.ts</text>
</g>
<!-- patternInsights.ts&#45;&gt;../../config/database.ts -->
<g id="edge40" class="edge">
<title>patternInsights.ts&#45;&gt;../../config/database.ts</title>
<path fill="none" stroke="#757575" d="M345.15,-192.29C376.29,-191.86 415.23,-191.39 450,-191.18 561.55,-190.5 589.45,-190.47 701,-191.18 1049.02,-193.4 1136.26,-186.97 1484,-201.18 1818.22,-214.84 2215.24,-247.18 2385.12,-261.79"/>
<polygon fill="#757575" stroke="#757575" points="2384.98,-265.29 2395.25,-262.66 2385.59,-258.32 2384.98,-265.29"/>
</g>
<!-- patternInsights.ts&#45;&gt;../../middleware/eventLogger.ts -->
<g id="edge41" class="edge">
<title>patternInsights.ts&#45;&gt;../../middleware/eventLogger.ts</title>
<path fill="none" stroke="#757575" d="M345.2,-193.66C425.53,-194.43 574.21,-196.27 701,-200.18 1049.18,-210.9 1139.32,-184.76 1484,-235.18 1513.77,-239.53 1546.5,-247.65 1572.33,-254.86"/>
<polygon fill="#757575" stroke="#757575" points="1571.66,-258.31 1582.23,-257.67 1573.57,-251.57 1571.66,-258.31"/>
</g>
<!-- patternInsights.ts&#45;&gt;../../services/sessionManager.ts -->
<g id="edge42" class="edge">
<title>patternInsights.ts&#45;&gt;../../services/sessionManager.ts</title>
<path fill="none" stroke="#757575" d="M320.92,-204.7C353.78,-215.37 404.82,-231.05 450,-241.18 720.24,-301.76 1045.72,-329.14 1213.61,-340"/>
<polygon fill="#757575" stroke="#757575" points="1213.5,-343.5 1223.7,-340.65 1213.95,-336.52 1213.5,-343.5"/>
</g>
<!-- patternInsights.ts&#45;&gt;../_deprecated_tt009/patternAnalysis.ts -->
<g id="edge43" class="edge">
<title>patternInsights.ts&#45;&gt;../_deprecated_tt009/patternAnalysis.ts</title>
<path fill="none" stroke="#757575" d="M345.13,-198.88C374.24,-201.71 410.64,-205.25 445.81,-208.67"/>
<polygon fill="#757575" stroke="#757575" points="445.89,-212.19 456.19,-209.68 446.57,-205.22 445.89,-212.19"/>
</g>
</g>
</svg>
