<?xml version="1.0" encoding="UTF-8" standalone="no"?>
<!DOCTYPE svg PUBLIC "-//W3C//DTD SVG 1.1//EN"
 "http://www.w3.org/Graphics/SVG/1.1/DTD/svg11.dtd">
<!-- Generated by graphviz version 2.43.0 (0)
 -->
<!-- Title: G Pages: 1 -->
<svg width="1979pt" height="603pt"
 viewBox="0.00 0.00 1979.20 602.67" xmlns="http://www.w3.org/2000/svg" xmlns:xlink="http://www.w3.org/1999/xlink">
<g id="graph0" class="graph" transform="scale(1 1) rotate(0) translate(21.6 581.07)">
<title>G</title>
<polygon fill="#111111" stroke="transparent" points="-21.6,21.6 -21.6,-581.07 1957.6,-581.07 1957.6,21.6 -21.6,21.6"/>
<!-- ../../config/database.ts -->
<g id="node1" class="node">
<title>../../config/database.ts</title>
<path fill="none" stroke="#cfffac" d="M1916.83,-318.87C1916.83,-318.87 1783.17,-318.87 1783.17,-318.87 1779.33,-318.87 1775.5,-315.03 1775.5,-311.2 1775.5,-311.2 1775.5,-303.53 1775.5,-303.53 1775.5,-299.7 1779.33,-295.87 1783.17,-295.87 1783.17,-295.87 1916.83,-295.87 1916.83,-295.87 1920.67,-295.87 1924.5,-299.7 1924.5,-303.53 1924.5,-303.53 1924.5,-311.2 1924.5,-311.2 1924.5,-315.03 1920.67,-318.87 1916.83,-318.87"/>
<text text-anchor="middle" x="1850" y="-303.67" font-family="Arial" font-size="14.00" fill="#cfffac">../../config/database.ts</text>
</g>
<!-- ../../middleware/eventLogger.ts -->
<g id="node2" class="node">
<title>../../middleware/eventLogger.ts</title>
<path fill="none" stroke="#c6c5fe" d="M1093.33,-317.87C1093.33,-317.87 907.67,-317.87 907.67,-317.87 903.83,-317.87 900,-314.03 900,-310.2 900,-310.2 900,-302.53 900,-302.53 900,-298.7 903.83,-294.87 907.67,-294.87 907.67,-294.87 1093.33,-294.87 1093.33,-294.87 1097.17,-294.87 1101,-298.7 1101,-302.53 1101,-302.53 1101,-310.2 1101,-310.2 1101,-314.03 1097.17,-317.87 1093.33,-317.87"/>
<text text-anchor="middle" x="1000.5" y="-302.67" font-family="Arial" font-size="14.00" fill="#c6c5fe">../../middleware/eventLogger.ts</text>
</g>
<!-- ../../middleware/eventLogger.ts&#45;&gt;../../config/database.ts -->
<g id="edge1" class="edge">
<title>../../middleware/eventLogger.ts&#45;&gt;../../config/database.ts</title>
<path fill="none" stroke="#757575" d="M1099,-317.88C1238.68,-332.51 1503.65,-353.4 1728,-331.37 1749.15,-329.29 1772.09,-325.21 1792.24,-321.01"/>
<polygon fill="#757575" stroke="#757575" points="1793.16,-324.39 1802.2,-318.87 1791.69,-317.54 1793.16,-324.39"/>
</g>
<!-- ../project.ts -->
<g id="node3" class="node">
<title>../project.ts</title>
<path fill="none" stroke="#ff6c60" d="M1212.33,-297.87C1212.33,-297.87 1144.67,-297.87 1144.67,-297.87 1140.83,-297.87 1137,-294.03 1137,-290.2 1137,-290.2 1137,-282.53 1137,-282.53 1137,-278.7 1140.83,-274.87 1144.67,-274.87 1144.67,-274.87 1212.33,-274.87 1212.33,-274.87 1216.17,-274.87 1220,-278.7 1220,-282.53 1220,-282.53 1220,-290.2 1220,-290.2 1220,-294.03 1216.17,-297.87 1212.33,-297.87"/>
<text text-anchor="middle" x="1178.5" y="-282.67" font-family="Arial" font-size="14.00" fill="#ff6c60">../project.ts</text>
</g>
<!-- ../../middleware/eventLogger.ts&#45;&gt;../project.ts -->
<g id="edge2" class="edge">
<title>../../middleware/eventLogger.ts&#45;&gt;../project.ts</title>
<path fill="none" stroke="#757575" d="M1101.07,-295.05C1109.93,-294.04 1118.63,-293.05 1126.8,-292.13"/>
<polygon fill="#757575" stroke="#757575" points="1127.31,-295.59 1136.85,-290.98 1126.52,-288.64 1127.31,-295.59"/>
</g>
<!-- ../project.ts&#45;&gt;../../config/database.ts -->
<g id="edge23" class="edge">
<title>../project.ts&#45;&gt;../../config/database.ts</title>
<path fill="none" stroke="#757575" d="M1216.5,-297.9C1228.93,-301.27 1242.95,-304.54 1256,-306.37 1463.78,-335.38 1518.25,-316.7 1728,-312.37 1739.99,-312.12 1752.64,-311.73 1765.07,-311.28"/>
<polygon fill="#757575" stroke="#757575" points="1765.57,-314.77 1775.43,-310.89 1765.3,-307.77 1765.57,-314.77"/>
</g>
<!-- ../../services/projectSwitchValidator.ts -->
<g id="node9" class="node">
<title>../../services/projectSwitchValidator.ts</title>
<path fill="none" stroke="#ff6c60" d="M1487.33,-297.87C1487.33,-297.87 1263.67,-297.87 1263.67,-297.87 1259.83,-297.87 1256,-294.03 1256,-290.2 1256,-290.2 1256,-282.53 1256,-282.53 1256,-278.7 1259.83,-274.87 1263.67,-274.87 1263.67,-274.87 1487.33,-274.87 1487.33,-274.87 1491.17,-274.87 1495,-278.7 1495,-282.53 1495,-282.53 1495,-290.2 1495,-290.2 1495,-294.03 1491.17,-297.87 1487.33,-297.87"/>
<text text-anchor="middle" x="1375.5" y="-282.67" font-family="Arial" font-size="14.00" fill="#ff6c60">../../services/projectSwitchValidator.ts</text>
</g>
<!-- ../project.ts&#45;&gt;../../services/projectSwitchValidator.ts -->
<g id="edge24" class="edge">
<title>../project.ts&#45;&gt;../../services/projectSwitchValidator.ts</title>
<path fill="none" stroke="#757575" d="M1220.38,-280.75C1228.17,-280.4 1236.7,-280.12 1245.62,-279.94"/>
<polygon fill="#757575" stroke="#757575" points="1245.9,-283.43 1255.83,-279.76 1245.78,-276.43 1245.9,-283.43"/>
</g>
<!-- ../../services/metricsAggregator.ts -->
<g id="node4" class="node">
<title>../../services/metricsAggregator.ts</title>
<path fill="none" stroke="#c6c5fe" d="M603.33,-377.87C603.33,-377.87 401.67,-377.87 401.67,-377.87 397.83,-377.87 394,-374.03 394,-370.2 394,-370.2 394,-362.53 394,-362.53 394,-358.7 397.83,-354.87 401.67,-354.87 401.67,-354.87 603.33,-354.87 603.33,-354.87 607.17,-354.87 611,-358.7 611,-362.53 611,-362.53 611,-370.2 611,-370.2 611,-374.03 607.17,-377.87 603.33,-377.87"/>
<text text-anchor="middle" x="502.5" y="-362.67" font-family="Arial" font-size="14.00" fill="#c6c5fe">../../services/metricsAggregator.ts</text>
</g>
<!-- ../../services/metricsAggregator.ts&#45;&gt;../../config/database.ts -->
<g id="edge3" class="edge">
<title>../../services/metricsAggregator.ts&#45;&gt;../../config/database.ts</title>
<path fill="none" stroke="#757575" d="M603.57,-377.9C703.64,-388.43 862.01,-402.37 999.5,-402.37 999.5,-402.37 999.5,-402.37 1376.5,-402.37 1534.42,-402.37 1574.76,-388.54 1728,-350.37 1756.71,-343.21 1788.17,-331.92 1811.82,-322.7"/>
<polygon fill="#757575" stroke="#757575" points="1813.1,-325.96 1821.12,-319.03 1810.53,-319.45 1813.1,-325.96"/>
</g>
<!-- ../../services/metricsAggregator.ts&#45;&gt;../../middleware/eventLogger.ts -->
<g id="edge4" class="edge">
<title>../../services/metricsAggregator.ts&#45;&gt;../../middleware/eventLogger.ts</title>
<path fill="none" stroke="#757575" d="M598.84,-354.83C683.38,-344.61 806.65,-329.69 894.1,-319.12"/>
<polygon fill="#757575" stroke="#757575" points="894.54,-322.59 904.05,-317.91 893.7,-315.64 894.54,-322.59"/>
</g>
<!-- ../../services/sessionManager.ts -->
<g id="node5" class="node">
<title>../../services/sessionManager.ts</title>
<path fill="none" stroke="#c6c5fe" d="M850.83,-297.87C850.83,-297.87 660.17,-297.87 660.17,-297.87 656.33,-297.87 652.5,-294.03 652.5,-290.2 652.5,-290.2 652.5,-282.53 652.5,-282.53 652.5,-278.7 656.33,-274.87 660.17,-274.87 660.17,-274.87 850.83,-274.87 850.83,-274.87 854.67,-274.87 858.5,-278.7 858.5,-282.53 858.5,-282.53 858.5,-290.2 858.5,-290.2 858.5,-294.03 854.67,-297.87 850.83,-297.87"/>
<text text-anchor="middle" x="755.5" y="-282.67" font-family="Arial" font-size="14.00" fill="#c6c5fe">../../services/sessionManager.ts</text>
</g>
<!-- ../../services/metricsAggregator.ts&#45;&gt;../../services/sessionManager.ts -->
<g id="edge5" class="edge">
<title>../../services/metricsAggregator.ts&#45;&gt;../../services/sessionManager.ts</title>
<path fill="none" stroke="#757575" d="M570.4,-354.83C584.21,-351.18 598.37,-346.45 611,-340.37 629.26,-331.56 628.74,-321.17 647,-312.37 656.67,-307.71 667.24,-303.84 677.86,-300.65"/>
<polygon fill="#757575" stroke="#757575" points="678.92,-303.98 687.6,-297.9 677.02,-297.25 678.92,-303.98"/>
</g>
<!-- ../../services/sessionManager.ts&#45;&gt;../../config/database.ts -->
<g id="edge18" class="edge">
<title>../../services/sessionManager.ts&#45;&gt;../../config/database.ts</title>
<path fill="none" stroke="#757575" d="M793.24,-274.86C865.88,-253.16 1033.29,-208.37 1177.5,-208.37 1177.5,-208.37 1177.5,-208.37 1376.5,-208.37 1532.95,-208.37 1587.27,-159.02 1728,-227.37 1749.81,-237.96 1744.55,-253.88 1764,-268.37 1776.59,-277.74 1791.79,-285.6 1805.84,-291.75"/>
<polygon fill="#757575" stroke="#757575" points="1804.76,-295.09 1815.34,-295.73 1807.47,-288.63 1804.76,-295.09"/>
</g>
<!-- ../../services/sessionManager.ts&#45;&gt;../../middleware/eventLogger.ts -->
<g id="edge19" class="edge">
<title>../../services/sessionManager.ts&#45;&gt;../../middleware/eventLogger.ts</title>
<path fill="none" stroke="#757575" d="M858.85,-294.79C869.06,-295.63 879.46,-296.49 889.75,-297.33"/>
<polygon fill="#757575" stroke="#757575" points="889.73,-300.84 899.99,-298.17 890.31,-293.87 889.73,-300.84"/>
</g>
<!-- ../../services/metricsCollector.ts -->
<g id="node6" class="node">
<title>../../services/metricsCollector.ts</title>
<path fill="none" stroke="#c6c5fe" d="M350.33,-165.87C350.33,-165.87 162.67,-165.87 162.67,-165.87 158.83,-165.87 155,-162.03 155,-158.2 155,-158.2 155,-150.53 155,-150.53 155,-146.7 158.83,-142.87 162.67,-142.87 162.67,-142.87 350.33,-142.87 350.33,-142.87 354.17,-142.87 358,-146.7 358,-150.53 358,-150.53 358,-158.2 358,-158.2 358,-162.03 354.17,-165.87 350.33,-165.87"/>
<text text-anchor="middle" x="256.5" y="-150.67" font-family="Arial" font-size="14.00" fill="#c6c5fe">../../services/metricsCollector.ts</text>
</g>
<!-- ../../services/metricsCollector.ts&#45;&gt;../../config/database.ts -->
<g id="edge6" class="edge">
<title>../../services/metricsCollector.ts&#45;&gt;../../config/database.ts</title>
<path fill="none" stroke="#757575" d="M288.16,-142.85C315.5,-133.14 356.82,-119.83 394,-113.37 552.07,-85.87 594.06,-94.37 754.5,-94.37 754.5,-94.37 754.5,-94.37 1376.5,-94.37 1533.15,-94.37 1608.49,-19.09 1728,-120.37 1779.65,-164.13 1720.93,-216.14 1764,-268.37 1772.23,-278.35 1783.58,-285.89 1795.3,-291.55"/>
<polygon fill="#757575" stroke="#757575" points="1794.16,-294.88 1804.73,-295.7 1796.98,-288.47 1794.16,-294.88"/>
</g>
<!-- ../../services/metricsCollector.ts&#45;&gt;../../middleware/eventLogger.ts -->
<g id="edge7" class="edge">
<title>../../services/metricsCollector.ts&#45;&gt;../../middleware/eventLogger.ts</title>
<path fill="none" stroke="#757575" d="M358.41,-156.82C446.69,-160.28 567.43,-168.57 611,-188.37 631.04,-197.47 627.44,-212.28 647,-222.37 734.38,-267.44 768.61,-241.54 864,-265.37 894.66,-273.02 928.7,-283.33 954.99,-291.69"/>
<polygon fill="#757575" stroke="#757575" points="954.08,-295.08 964.67,-294.8 956.21,-288.41 954.08,-295.08"/>
</g>
<!-- ../../services/metricsCollector.ts&#45;&gt;../../services/sessionManager.ts -->
<g id="edge9" class="edge">
<title>../../services/metricsCollector.ts&#45;&gt;../../services/sessionManager.ts</title>
<path fill="none" stroke="#757575" d="M302.62,-165.92C329.18,-172.64 363.45,-181.18 394,-188.37 490.15,-210.97 520.13,-197.64 611,-236.37 628.69,-243.9 629.38,-252.65 647,-260.37 657.72,-265.06 669.43,-268.99 681.04,-272.26"/>
<polygon fill="#757575" stroke="#757575" points="680.19,-275.65 690.76,-274.85 682,-268.89 680.19,-275.65"/>
</g>
<!-- ../../services/patternDetector.ts -->
<g id="node7" class="node">
<title>../../services/patternDetector.ts</title>
<path fill="none" stroke="#c6c5fe" d="M594.33,-145.87C594.33,-145.87 410.67,-145.87 410.67,-145.87 406.83,-145.87 403,-142.03 403,-138.2 403,-138.2 403,-130.53 403,-130.53 403,-126.7 406.83,-122.87 410.67,-122.87 410.67,-122.87 594.33,-122.87 594.33,-122.87 598.17,-122.87 602,-126.7 602,-130.53 602,-130.53 602,-138.2 602,-138.2 602,-142.03 598.17,-145.87 594.33,-145.87"/>
<text text-anchor="middle" x="502.5" y="-130.67" font-family="Arial" font-size="14.00" fill="#c6c5fe">../../services/patternDetector.ts</text>
</g>
<!-- ../../services/metricsCollector.ts&#45;&gt;../../services/patternDetector.ts -->
<g id="edge8" class="edge">
<title>../../services/metricsCollector.ts&#45;&gt;../../services/patternDetector.ts</title>
<path fill="none" stroke="#757575" d="M358.15,-146.11C369.52,-145.18 381.15,-144.23 392.62,-143.29"/>
<polygon fill="#757575" stroke="#757575" points="392.97,-146.77 402.65,-142.47 392.4,-139.8 392.97,-146.77"/>
</g>
<!-- ../../services/patternDetector.ts&#45;&gt;../../config/database.ts -->
<g id="edge12" class="edge">
<title>../../services/patternDetector.ts&#45;&gt;../../config/database.ts</title>
<path fill="none" stroke="#757575" d="M602.31,-133.73C702.42,-133.15 861.72,-132.37 999.5,-132.37 999.5,-132.37 999.5,-132.37 1376.5,-132.37 1534.62,-132.37 1602.49,-91.18 1728,-187.37 1759.27,-211.33 1736.31,-240.34 1764,-268.37 1773.92,-278.4 1786.9,-286.12 1799.72,-291.93"/>
<polygon fill="#757575" stroke="#757575" points="1798.4,-295.18 1808.98,-295.84 1801.12,-288.73 1798.4,-295.18"/>
</g>
<!-- ../../services/patternDetector.ts&#45;&gt;../../middleware/eventLogger.ts -->
<g id="edge13" class="edge">
<title>../../services/patternDetector.ts&#45;&gt;../../middleware/eventLogger.ts</title>
<path fill="none" stroke="#757575" d="M567.24,-145.88C581.94,-149.6 597.28,-154.36 611,-160.37 628.62,-168.08 629.31,-176.83 647,-184.37 737.87,-223.09 771.51,-197.68 864,-232.37 903.96,-247.35 946.63,-272.32 973.18,-289.06"/>
<polygon fill="#757575" stroke="#757575" points="971.56,-292.18 981.87,-294.61 975.32,-286.28 971.56,-292.18"/>
</g>
<!-- ../../services/patternDetector.ts&#45;&gt;../../services/sessionManager.ts -->
<g id="edge14" class="edge">
<title>../../services/patternDetector.ts&#45;&gt;../../services/sessionManager.ts</title>
<path fill="none" stroke="#757575" d="M523.9,-146.09C545.66,-158.7 581.05,-179.48 611,-198.37 627.27,-208.62 630.73,-212.11 647,-222.37 673.21,-238.89 703.58,-256.86 725.34,-269.55"/>
<polygon fill="#757575" stroke="#757575" points="723.7,-272.64 734.1,-274.64 727.22,-266.59 723.7,-272.64"/>
</g>
<!-- ../../services/metricsCorrelation.ts -->
<g id="node8" class="node">
<title>../../services/metricsCorrelation.ts</title>
<path fill="none" stroke="#c6c5fe" d="M856.33,-453.87C856.33,-453.87 654.67,-453.87 654.67,-453.87 650.83,-453.87 647,-450.03 647,-446.2 647,-446.2 647,-438.53 647,-438.53 647,-434.7 650.83,-430.87 654.67,-430.87 654.67,-430.87 856.33,-430.87 856.33,-430.87 860.17,-430.87 864,-434.7 864,-438.53 864,-438.53 864,-446.2 864,-446.2 864,-450.03 860.17,-453.87 856.33,-453.87"/>
<text text-anchor="middle" x="755.5" y="-438.67" font-family="Arial" font-size="14.00" fill="#c6c5fe">../../services/metricsCorrelation.ts</text>
</g>
<!-- ../../services/metricsCorrelation.ts&#45;&gt;../../config/database.ts -->
<g id="edge10" class="edge">
<title>../../services/metricsCorrelation.ts&#45;&gt;../../config/database.ts</title>
<path fill="none" stroke="#757575" d="M864.22,-441.97C949.28,-441.69 1070.97,-441.37 1177.5,-441.37 1177.5,-441.37 1177.5,-441.37 1376.5,-441.37 1533.12,-441.37 1583.88,-477.66 1728,-416.37 1773.82,-396.88 1813.85,-352.63 1834.38,-326.9"/>
<polygon fill="#757575" stroke="#757575" points="1837.19,-328.99 1840.58,-318.95 1831.67,-324.68 1837.19,-328.99"/>
</g>
<!-- ../../services/metricsCorrelation.ts&#45;&gt;../../middleware/eventLogger.ts -->
<g id="edge11" class="edge">
<title>../../services/metricsCorrelation.ts&#45;&gt;../../middleware/eventLogger.ts</title>
<path fill="none" stroke="#757575" d="M777.22,-430.77C820.35,-406.63 919.91,-350.91 969.83,-322.97"/>
<polygon fill="#757575" stroke="#757575" points="971.82,-325.87 978.83,-317.93 968.4,-319.76 971.82,-325.87"/>
</g>
<!-- ../../services/projectSwitchValidator.ts&#45;&gt;../../config/database.ts -->
<g id="edge15" class="edge">
<title>../../services/projectSwitchValidator.ts&#45;&gt;../../config/database.ts</title>
<path fill="none" stroke="#757575" d="M1495.12,-291.64C1579.19,-295.37 1689.94,-300.3 1764.99,-303.63"/>
<polygon fill="#757575" stroke="#757575" points="1765.19,-307.14 1775.34,-304.09 1765.5,-300.15 1765.19,-307.14"/>
</g>
<!-- ../../services/projectSwitchValidator.ts&#45;&gt;../project.ts -->
<g id="edge17" class="edge">
<title>../../services/projectSwitchValidator.ts&#45;&gt;../project.ts</title>
<path fill="none" stroke="#757575" d="M1255.83,-292.97C1247.06,-292.85 1238.53,-292.65 1230.54,-292.38"/>
<polygon fill="#757575" stroke="#757575" points="1230.51,-288.88 1220.38,-291.98 1230.23,-295.87 1230.51,-288.88"/>
</g>
<!-- ../../services/sessionTracker.ts -->
<g id="node10" class="node">
<title>../../services/sessionTracker.ts</title>
<path fill="none" stroke="#ff6c60" d="M1720.33,-259.87C1720.33,-259.87 1538.67,-259.87 1538.67,-259.87 1534.83,-259.87 1531,-256.03 1531,-252.2 1531,-252.2 1531,-244.53 1531,-244.53 1531,-240.7 1534.83,-236.87 1538.67,-236.87 1538.67,-236.87 1720.33,-236.87 1720.33,-236.87 1724.17,-236.87 1728,-240.7 1728,-244.53 1728,-244.53 1728,-252.2 1728,-252.2 1728,-256.03 1724.17,-259.87 1720.33,-259.87"/>
<text text-anchor="middle" x="1629.5" y="-244.67" font-family="Arial" font-size="14.00" fill="#ff6c60">../../services/sessionTracker.ts</text>
</g>
<!-- ../../services/projectSwitchValidator.ts&#45;&gt;../../services/sessionTracker.ts -->
<g id="edge16" class="edge">
<title>../../services/projectSwitchValidator.ts&#45;&gt;../../services/sessionTracker.ts</title>
<path fill="none" stroke="#757575" d="M1452.79,-274.86C1480.91,-270.62 1512.97,-265.79 1541.93,-261.42"/>
<polygon fill="#757575" stroke="#757575" points="1542.67,-264.85 1552.03,-259.9 1541.62,-257.93 1542.67,-264.85"/>
</g>
<!-- ../../services/sessionTracker.ts&#45;&gt;../../config/database.ts -->
<g id="edge20" class="edge">
<title>../../services/sessionTracker.ts&#45;&gt;../../config/database.ts</title>
<path fill="none" stroke="#757575" d="M1674.2,-259.96C1691.02,-264.44 1710.41,-269.62 1728,-274.37 1750.69,-280.48 1775.75,-287.31 1797.15,-293.15"/>
<polygon fill="#757575" stroke="#757575" points="1796.45,-296.59 1807.02,-295.85 1798.29,-289.84 1796.45,-296.59"/>
</g>
<!-- ../../services/sessionTracker.ts&#45;&gt;../project.ts -->
<g id="edge22" class="edge">
<title>../../services/sessionTracker.ts&#45;&gt;../project.ts</title>
<path fill="none" stroke="#757575" d="M1530.65,-246.92C1455.17,-247.23 1348.4,-250.76 1256,-265.37 1245.9,-266.96 1235.22,-269.4 1225.15,-272.05"/>
<polygon fill="#757575" stroke="#757575" points="1224.04,-268.73 1215.33,-274.76 1225.9,-275.48 1224.04,-268.73"/>
</g>
<!-- ../../utils/agentDetection.ts -->
<g id="node11" class="node">
<title>../../utils/agentDetection.ts</title>
<path fill="none" stroke="#cfffac" d="M1928.33,-259.87C1928.33,-259.87 1771.67,-259.87 1771.67,-259.87 1767.83,-259.87 1764,-256.03 1764,-252.2 1764,-252.2 1764,-244.53 1764,-244.53 1764,-240.7 1767.83,-236.87 1771.67,-236.87 1771.67,-236.87 1928.33,-236.87 1928.33,-236.87 1932.17,-236.87 1936,-240.7 1936,-244.53 1936,-244.53 1936,-252.2 1936,-252.2 1936,-256.03 1932.17,-259.87 1928.33,-259.87"/>
<text text-anchor="middle" x="1850" y="-244.67" font-family="Arial" font-size="14.00" fill="#cfffac">../../utils/agentDetection.ts</text>
</g>
<!-- ../../services/sessionTracker.ts&#45;&gt;../../utils/agentDetection.ts -->
<g id="edge21" class="edge">
<title>../../services/sessionTracker.ts&#45;&gt;../../utils/agentDetection.ts</title>
<path fill="none" stroke="#757575" d="M1728.25,-248.37C1736.65,-248.37 1745.14,-248.37 1753.52,-248.37"/>
<polygon fill="#757575" stroke="#757575" points="1753.68,-251.87 1763.68,-248.37 1753.68,-244.87 1753.68,-251.87"/>
</g>
<!-- metricsAnalyze.ts -->
<g id="node12" class="node">
<title>metricsAnalyze.ts</title>
<path fill="none" stroke="#c6c5fe" d="M310.33,-417.87C310.33,-417.87 202.67,-417.87 202.67,-417.87 198.83,-417.87 195,-414.03 195,-410.2 195,-410.2 195,-402.53 195,-402.53 195,-398.7 198.83,-394.87 202.67,-394.87 202.67,-394.87 310.33,-394.87 310.33,-394.87 314.17,-394.87 318,-398.7 318,-402.53 318,-402.53 318,-410.2 318,-410.2 318,-414.03 314.17,-417.87 310.33,-417.87"/>
<text text-anchor="middle" x="256.5" y="-402.67" font-family="Arial" font-size="14.00" fill="#c6c5fe">metricsAnalyze.ts</text>
</g>
<!-- metricsAnalyze.ts&#45;&gt;../../config/database.ts -->
<g id="edge25" class="edge">
<title>metricsAnalyze.ts&#45;&gt;../../config/database.ts</title>
<path fill="none" stroke="#757575" d="M295.11,-417.89C322.34,-425.83 360.15,-436.06 394,-442.37 552.48,-471.89 593.29,-482.37 754.5,-482.37 754.5,-482.37 754.5,-482.37 1376.5,-482.37 1533.45,-482.37 1588.71,-520.7 1728,-448.37 1780.66,-421.01 1820.12,-360.16 1838.16,-328.08"/>
<polygon fill="#757575" stroke="#757575" points="1841.33,-329.57 1843.06,-319.11 1835.19,-326.21 1841.33,-329.57"/>
</g>
<!-- metricsAnalyze.ts&#45;&gt;../../middleware/eventLogger.ts -->
<g id="edge26" class="edge">
<title>metricsAnalyze.ts&#45;&gt;../../middleware/eventLogger.ts</title>
<path fill="none" stroke="#757575" d="M318.19,-406.17C428.36,-404.62 668.01,-395.77 864,-350.37 896.58,-342.82 932.55,-330.97 959.24,-321.46"/>
<polygon fill="#757575" stroke="#757575" points="960.76,-324.63 968.98,-317.95 958.39,-318.05 960.76,-324.63"/>
</g>
<!-- metricsAnalyze.ts&#45;&gt;../../services/metricsAggregator.ts -->
<g id="edge27" class="edge">
<title>metricsAnalyze.ts&#45;&gt;../../services/metricsAggregator.ts</title>
<path fill="none" stroke="#757575" d="M318.13,-396.43C349.21,-391.33 387.48,-385.06 421,-379.56"/>
<polygon fill="#757575" stroke="#757575" points="421.94,-382.96 431.24,-377.88 420.8,-376.05 421.94,-382.96"/>
</g>
<!-- metricsAnalyze.ts&#45;&gt;../../services/sessionManager.ts -->
<g id="edge29" class="edge">
<title>metricsAnalyze.ts&#45;&gt;../../services/sessionManager.ts</title>
<path fill="none" stroke="#757575" d="M279.05,-394.63C305.41,-380.78 351.73,-358.04 394,-345.37 442.09,-330.95 568.57,-311.8 658.09,-299.28"/>
<polygon fill="#757575" stroke="#757575" points="658.58,-302.75 668,-297.91 657.61,-295.82 658.58,-302.75"/>
</g>
<!-- metricsAnalyze.ts&#45;&gt;../../services/metricsCorrelation.ts -->
<g id="edge28" class="edge">
<title>metricsAnalyze.ts&#45;&gt;../../services/metricsCorrelation.ts</title>
<path fill="none" stroke="#757575" d="M318.27,-413.14C341.89,-415.63 369.19,-418.34 394,-420.37 474.86,-426.98 566.07,-432.52 636.52,-436.4"/>
<polygon fill="#757575" stroke="#757575" points="636.58,-439.9 646.76,-436.95 636.96,-432.91 636.58,-439.9"/>
</g>
<!-- metricsCollect.ts -->
<g id="node13" class="node">
<title>metricsCollect.ts</title>
<path fill="none" stroke="#c6c5fe" d="M109.83,-116.87C109.83,-116.87 9.17,-116.87 9.17,-116.87 5.33,-116.87 1.5,-113.03 1.5,-109.2 1.5,-109.2 1.5,-101.53 1.5,-101.53 1.5,-97.7 5.33,-93.87 9.17,-93.87 9.17,-93.87 109.83,-93.87 109.83,-93.87 113.67,-93.87 117.5,-97.7 117.5,-101.53 117.5,-101.53 117.5,-109.2 117.5,-109.2 117.5,-113.03 113.67,-116.87 109.83,-116.87"/>
<text text-anchor="middle" x="59.5" y="-101.67" font-family="Arial" font-size="14.00" fill="#c6c5fe">metricsCollect.ts</text>
</g>
<!-- metricsCollect.ts&#45;&gt;../../config/database.ts -->
<g id="edge30" class="edge">
<title>metricsCollect.ts&#45;&gt;../../config/database.ts</title>
<path fill="none" stroke="#757575" d="M94.92,-93.81C168.58,-70.15 347.37,-18.37 501.5,-18.37 501.5,-18.37 501.5,-18.37 1376.5,-18.37 1534.05,-18.37 1614.14,44.53 1728,-64.37 1794.54,-128 1707.72,-195.5 1764,-268.37 1771.75,-278.4 1782.69,-285.95 1794.14,-291.58"/>
<polygon fill="#757575" stroke="#757575" points="1792.83,-294.83 1803.39,-295.71 1795.68,-288.44 1792.83,-294.83"/>
</g>
<!-- metricsCollect.ts&#45;&gt;../../middleware/eventLogger.ts -->
<g id="edge31" class="edge">
<title>metricsCollect.ts&#45;&gt;../../middleware/eventLogger.ts</title>
<path fill="none" stroke="#757575" d="M117.51,-96.47C255.55,-77.86 614.74,-47.12 864,-184.37 913.51,-211.62 959.86,-260.2 983.39,-287.1"/>
<polygon fill="#757575" stroke="#757575" points="980.75,-289.41 989.93,-294.7 986.06,-284.84 980.75,-289.41"/>
</g>
<!-- metricsCollect.ts&#45;&gt;../../services/sessionManager.ts -->
<g id="edge33" class="edge">
<title>metricsCollect.ts&#45;&gt;../../services/sessionManager.ts</title>
<path fill="none" stroke="#757575" d="M72.86,-117.07C89.95,-132.59 122.39,-159.71 155,-174.37 314.57,-246.09 517.89,-271.89 642.02,-281.16"/>
<polygon fill="#757575" stroke="#757575" points="642.07,-284.67 652.3,-281.91 642.58,-277.69 642.07,-284.67"/>
</g>
<!-- metricsCollect.ts&#45;&gt;../../services/metricsCollector.ts -->
<g id="edge32" class="edge">
<title>metricsCollect.ts&#45;&gt;../../services/metricsCollector.ts</title>
<path fill="none" stroke="#757575" d="M106.71,-116.98C134.64,-124 170.42,-132.99 199.89,-140.39"/>
<polygon fill="#757575" stroke="#757575" points="199.07,-143.79 209.62,-142.84 200.77,-137 199.07,-143.79"/>
</g>
<!-- metricsControl.ts -->
<g id="node14" class="node">
<title>metricsControl.ts</title>
<path fill="none" stroke="#c6c5fe" d="M111.33,-415.87C111.33,-415.87 7.67,-415.87 7.67,-415.87 3.83,-415.87 0,-412.03 0,-408.2 0,-408.2 0,-400.53 0,-400.53 0,-396.7 3.83,-392.87 7.67,-392.87 7.67,-392.87 111.33,-392.87 111.33,-392.87 115.17,-392.87 119,-396.7 119,-400.53 119,-400.53 119,-408.2 119,-408.2 119,-412.03 115.17,-415.87 111.33,-415.87"/>
<text text-anchor="middle" x="59.5" y="-400.67" font-family="Arial" font-size="14.00" fill="#c6c5fe">metricsControl.ts</text>
</g>
<!-- metricsControl.ts&#45;&gt;../../config/database.ts -->
<g id="edge34" class="edge">
<title>metricsControl.ts&#45;&gt;../../config/database.ts</title>
<path fill="none" stroke="#757575" d="M71.52,-416.13C88.01,-433.02 120.87,-463.9 155,-480.37 297.18,-548.94 343.65,-558.37 501.5,-558.37 501.5,-558.37 501.5,-558.37 1376.5,-558.37 1536.06,-558.37 1595.35,-574.04 1728,-485.37 1787.06,-445.88 1825.14,-366.87 1840.82,-328.82"/>
<polygon fill="#757575" stroke="#757575" points="1844.19,-329.82 1844.65,-319.24 1837.69,-327.22 1844.19,-329.82"/>
</g>
<!-- metricsControl.ts&#45;&gt;../../middleware/eventLogger.ts -->
<g id="edge35" class="edge">
<title>metricsControl.ts&#45;&gt;../../middleware/eventLogger.ts</title>
<path fill="none" stroke="#757575" d="M89.27,-415.9C197.2,-457.26 585.95,-589.15 864,-462.37 925.76,-434.21 970.25,-362.45 989.25,-326.93"/>
<polygon fill="#757575" stroke="#757575" points="992.42,-328.42 993.93,-317.94 986.21,-325.19 992.42,-328.42"/>
</g>
<!-- metricsControl.ts&#45;&gt;../../services/sessionManager.ts -->
<g id="edge37" class="edge">
<title>metricsControl.ts&#45;&gt;../../services/sessionManager.ts</title>
<path fill="none" stroke="#757575" d="M89.8,-392.8C147.14,-370.77 278.64,-323.24 394,-303.37 476.25,-289.2 570.5,-285.17 642,-284.57"/>
<polygon fill="#757575" stroke="#757575" points="642.4,-288.06 652.38,-284.5 642.36,-281.06 642.4,-288.06"/>
</g>
<!-- metricsControl.ts&#45;&gt;../../services/metricsCollector.ts -->
<g id="edge36" class="edge">
<title>metricsControl.ts&#45;&gt;../../services/metricsCollector.ts</title>
<path fill="none" stroke="#757575" d="M68.58,-392.69C84.6,-369.69 121.69,-317.03 155,-274.37 183.3,-238.12 218.1,-197.36 238.44,-173.89"/>
<polygon fill="#757575" stroke="#757575" points="241.32,-175.91 245.24,-166.07 236.04,-171.32 241.32,-175.91"/>
</g>
</g>
</svg>
