<?xml version="1.0" encoding="UTF-8" standalone="no"?>
<!DOCTYPE svg PUBLIC "-//W3C//DTD SVG 1.1//EN"
 "http://www.w3.org/Graphics/SVG/1.1/DTD/svg11.dtd">
<!-- Generated by graphviz version 2.43.0 (0)
 -->
<!-- Title: G Pages: 1 -->
<svg width="1949pt" height="546pt"
 viewBox="0.00 0.00 1949.20 545.82" xmlns="http://www.w3.org/2000/svg" xmlns:xlink="http://www.w3.org/1999/xlink">
<g id="graph0" class="graph" transform="scale(1 1) rotate(0) translate(21.6 524.22)">
<title>G</title>
<polygon fill="#111111" stroke="transparent" points="-21.6,21.6 -21.6,-524.22 1927.6,-524.22 1927.6,21.6 -21.6,21.6"/>
<!-- ../../config/database.ts -->
<g id="node1" class="node">
<title>../../config/database.ts</title>
<path fill="none" stroke="#cfffac" d="M1886.83,-243.12C1886.83,-243.12 1753.17,-243.12 1753.17,-243.12 1749.33,-243.12 1745.5,-239.29 1745.5,-235.45 1745.5,-235.45 1745.5,-227.79 1745.5,-227.79 1745.5,-223.95 1749.33,-220.12 1753.17,-220.12 1753.17,-220.12 1886.83,-220.12 1886.83,-220.12 1890.67,-220.12 1894.5,-223.95 1894.5,-227.79 1894.5,-227.79 1894.5,-235.45 1894.5,-235.45 1894.5,-239.29 1890.67,-243.12 1886.83,-243.12"/>
<text text-anchor="middle" x="1820" y="-227.92" font-family="Arial" font-size="14.00" fill="#cfffac">../../config/database.ts</text>
</g>
<!-- ../../middleware/eventLogger.ts -->
<g id="node2" class="node">
<title>../../middleware/eventLogger.ts</title>
<path fill="none" stroke="#c6c5fe" d="M1063.33,-262.12C1063.33,-262.12 877.67,-262.12 877.67,-262.12 873.83,-262.12 870,-258.29 870,-254.45 870,-254.45 870,-246.79 870,-246.79 870,-242.95 873.83,-239.12 877.67,-239.12 877.67,-239.12 1063.33,-239.12 1063.33,-239.12 1067.17,-239.12 1071,-242.95 1071,-246.79 1071,-246.79 1071,-254.45 1071,-254.45 1071,-258.29 1067.17,-262.12 1063.33,-262.12"/>
<text text-anchor="middle" x="970.5" y="-246.92" font-family="Arial" font-size="14.00" fill="#c6c5fe">../../middleware/eventLogger.ts</text>
</g>
<!-- ../../middleware/eventLogger.ts&#45;&gt;../../config/database.ts -->
<g id="edge1" class="edge">
<title>../../middleware/eventLogger.ts&#45;&gt;../../config/database.ts</title>
<path fill="none" stroke="#757575" d="M1071.21,-248.39C1239.8,-244.61 1578.12,-237.02 1735.25,-233.5"/>
<polygon fill="#757575" stroke="#757575" points="1735.41,-237 1745.33,-233.27 1735.26,-230 1735.41,-237"/>
</g>
<!-- ../project.ts -->
<g id="node3" class="node">
<title>../project.ts</title>
<path fill="none" stroke="#ff6c60" d="M1182.33,-146.12C1182.33,-146.12 1114.67,-146.12 1114.67,-146.12 1110.83,-146.12 1107,-142.29 1107,-138.45 1107,-138.45 1107,-130.79 1107,-130.79 1107,-126.95 1110.83,-123.12 1114.67,-123.12 1114.67,-123.12 1182.33,-123.12 1182.33,-123.12 1186.17,-123.12 1190,-126.95 1190,-130.79 1190,-130.79 1190,-138.45 1190,-138.45 1190,-142.29 1186.17,-146.12 1182.33,-146.12"/>
<text text-anchor="middle" x="1148.5" y="-130.92" font-family="Arial" font-size="14.00" fill="#ff6c60">../project.ts</text>
</g>
<!-- ../../middleware/eventLogger.ts&#45;&gt;../project.ts -->
<g id="edge2" class="edge">
<title>../../middleware/eventLogger.ts&#45;&gt;../project.ts</title>
<path fill="none" stroke="#757575" d="M989.02,-239.07C1020.04,-218.63 1084.78,-175.96 1121.18,-151.97"/>
<polygon fill="#757575" stroke="#757575" points="1123.37,-154.72 1129.79,-146.29 1119.51,-148.87 1123.37,-154.72"/>
</g>
<!-- ../project.ts&#45;&gt;../../config/database.ts -->
<g id="edge18" class="edge">
<title>../project.ts&#45;&gt;../../config/database.ts</title>
<path fill="none" stroke="#757575" d="M1186.55,-146.21C1198.98,-149.72 1212.99,-153.26 1226,-155.62 1433.27,-193.2 1490.7,-161.21 1698,-198.62 1723.29,-203.19 1750.98,-210.56 1773.49,-217.18"/>
<polygon fill="#757575" stroke="#757575" points="1772.53,-220.54 1783.11,-220.05 1774.53,-213.83 1772.53,-220.54"/>
</g>
<!-- ../../services/projectSwitchValidator.ts -->
<g id="node6" class="node">
<title>../../services/projectSwitchValidator.ts</title>
<path fill="none" stroke="#ff6c60" d="M1457.33,-146.12C1457.33,-146.12 1233.67,-146.12 1233.67,-146.12 1229.83,-146.12 1226,-142.29 1226,-138.45 1226,-138.45 1226,-130.79 1226,-130.79 1226,-126.95 1229.83,-123.12 1233.67,-123.12 1233.67,-123.12 1457.33,-123.12 1457.33,-123.12 1461.17,-123.12 1465,-126.95 1465,-130.79 1465,-130.79 1465,-138.45 1465,-138.45 1465,-142.29 1461.17,-146.12 1457.33,-146.12"/>
<text text-anchor="middle" x="1345.5" y="-130.92" font-family="Arial" font-size="14.00" fill="#ff6c60">../../services/projectSwitchValidator.ts</text>
</g>
<!-- ../project.ts&#45;&gt;../../services/projectSwitchValidator.ts -->
<g id="edge19" class="edge">
<title>../project.ts&#45;&gt;../../services/projectSwitchValidator.ts</title>
<path fill="none" stroke="#757575" d="M1190.38,-129.01C1198.17,-128.65 1206.7,-128.38 1215.62,-128.19"/>
<polygon fill="#757575" stroke="#757575" points="1215.9,-131.69 1225.83,-128.01 1215.78,-124.69 1215.9,-131.69"/>
</g>
<!-- ../../services/complexityTracker.ts -->
<g id="node4" class="node">
<title>../../services/complexityTracker.ts</title>
<path fill="none" stroke="#c6c5fe" d="M575.83,-242.12C575.83,-242.12 375.17,-242.12 375.17,-242.12 371.33,-242.12 367.5,-238.29 367.5,-234.45 367.5,-234.45 367.5,-226.79 367.5,-226.79 367.5,-222.95 371.33,-219.12 375.17,-219.12 375.17,-219.12 575.83,-219.12 575.83,-219.12 579.67,-219.12 583.5,-222.95 583.5,-226.79 583.5,-226.79 583.5,-234.45 583.5,-234.45 583.5,-238.29 579.67,-242.12 575.83,-242.12"/>
<text text-anchor="middle" x="475.5" y="-226.92" font-family="Arial" font-size="14.00" fill="#c6c5fe">../../services/complexityTracker.ts</text>
</g>
<!-- ../../services/complexityTracker.ts&#45;&gt;../../config/database.ts -->
<g id="edge3" class="edge">
<title>../../services/complexityTracker.ts&#45;&gt;../../config/database.ts</title>
<path fill="none" stroke="#757575" d="M505.13,-242.17C580.06,-271.34 788.67,-345.62 969.5,-345.62 969.5,-345.62 969.5,-345.62 1346.5,-345.62 1512.8,-345.62 1703.07,-278.06 1781.85,-246.96"/>
<polygon fill="#757575" stroke="#757575" points="1783.35,-250.13 1791.34,-243.18 1780.75,-243.63 1783.35,-250.13"/>
</g>
<!-- ../../services/complexityTracker.ts&#45;&gt;../../middleware/eventLogger.ts -->
<g id="edge4" class="edge">
<title>../../services/complexityTracker.ts&#45;&gt;../../middleware/eventLogger.ts</title>
<path fill="none" stroke="#757575" d="M583.78,-234.97C665.49,-238.29 777.57,-242.83 859.86,-246.17"/>
<polygon fill="#757575" stroke="#757575" points="859.86,-249.68 869.99,-246.58 860.14,-242.68 859.86,-249.68"/>
</g>
<!-- ../../services/sessionManager.ts -->
<g id="node5" class="node">
<title>../../services/sessionManager.ts</title>
<path fill="none" stroke="#c6c5fe" d="M826.33,-203.12C826.33,-203.12 635.67,-203.12 635.67,-203.12 631.83,-203.12 628,-199.29 628,-195.45 628,-195.45 628,-187.79 628,-187.79 628,-183.95 631.83,-180.12 635.67,-180.12 635.67,-180.12 826.33,-180.12 826.33,-180.12 830.17,-180.12 834,-183.95 834,-187.79 834,-187.79 834,-195.45 834,-195.45 834,-199.29 830.17,-203.12 826.33,-203.12"/>
<text text-anchor="middle" x="731" y="-187.92" font-family="Arial" font-size="14.00" fill="#c6c5fe">../../services/sessionManager.ts</text>
</g>
<!-- ../../services/complexityTracker.ts&#45;&gt;../../services/sessionManager.ts -->
<g id="edge5" class="edge">
<title>../../services/complexityTracker.ts&#45;&gt;../../services/sessionManager.ts</title>
<path fill="none" stroke="#757575" d="M551.53,-219.08C580.91,-214.56 614.77,-209.35 645.04,-204.69"/>
<polygon fill="#757575" stroke="#757575" points="645.81,-208.11 655.16,-203.13 644.75,-201.2 645.81,-208.11"/>
</g>
<!-- ../../services/sessionManager.ts&#45;&gt;../../config/database.ts -->
<g id="edge9" class="edge">
<title>../../services/sessionManager.ts&#45;&gt;../../config/database.ts</title>
<path fill="none" stroke="#757575" d="M834.26,-195.38C1047.92,-203.25 1538.1,-221.28 1734.93,-228.53"/>
<polygon fill="#757575" stroke="#757575" points="1735.09,-232.04 1745.21,-228.91 1735.34,-225.04 1735.09,-232.04"/>
</g>
<!-- ../../services/sessionManager.ts&#45;&gt;../../middleware/eventLogger.ts -->
<g id="edge10" class="edge">
<title>../../services/sessionManager.ts&#45;&gt;../../middleware/eventLogger.ts</title>
<path fill="none" stroke="#757575" d="M778.36,-203.14C816.89,-212.71 871.88,-226.37 912.99,-236.58"/>
<polygon fill="#757575" stroke="#757575" points="912.31,-240.02 922.86,-239.03 913.99,-233.23 912.31,-240.02"/>
</g>
<!-- ../../services/projectSwitchValidator.ts&#45;&gt;../../config/database.ts -->
<g id="edge6" class="edge">
<title>../../services/projectSwitchValidator.ts&#45;&gt;../../config/database.ts</title>
<path fill="none" stroke="#757575" d="M1465.36,-130.13C1534.66,-130.76 1622.93,-137.22 1698,-160.62 1735.11,-172.19 1772.98,-196.93 1796.24,-213.93"/>
<polygon fill="#757575" stroke="#757575" points="1794.3,-216.84 1804.41,-220.01 1798.48,-211.23 1794.3,-216.84"/>
</g>
<!-- ../../services/projectSwitchValidator.ts&#45;&gt;../project.ts -->
<g id="edge8" class="edge">
<title>../../services/projectSwitchValidator.ts&#45;&gt;../project.ts</title>
<path fill="none" stroke="#757575" d="M1225.83,-141.23C1217.06,-141.11 1208.53,-140.91 1200.54,-140.64"/>
<polygon fill="#757575" stroke="#757575" points="1200.51,-137.13 1190.38,-140.24 1200.23,-144.13 1200.51,-137.13"/>
</g>
<!-- ../../services/sessionTracker.ts -->
<g id="node7" class="node">
<title>../../services/sessionTracker.ts</title>
<path fill="none" stroke="#ff6c60" d="M1690.33,-108.12C1690.33,-108.12 1508.67,-108.12 1508.67,-108.12 1504.83,-108.12 1501,-104.29 1501,-100.45 1501,-100.45 1501,-92.79 1501,-92.79 1501,-88.95 1504.83,-85.12 1508.67,-85.12 1508.67,-85.12 1690.33,-85.12 1690.33,-85.12 1694.17,-85.12 1698,-88.95 1698,-92.79 1698,-92.79 1698,-100.45 1698,-100.45 1698,-104.29 1694.17,-108.12 1690.33,-108.12"/>
<text text-anchor="middle" x="1599.5" y="-92.92" font-family="Arial" font-size="14.00" fill="#ff6c60">../../services/sessionTracker.ts</text>
</g>
<!-- ../../services/projectSwitchValidator.ts&#45;&gt;../../services/sessionTracker.ts -->
<g id="edge7" class="edge">
<title>../../services/projectSwitchValidator.ts&#45;&gt;../../services/sessionTracker.ts</title>
<path fill="none" stroke="#757575" d="M1422.79,-123.12C1450.91,-118.88 1482.97,-114.04 1511.93,-109.68"/>
<polygon fill="#757575" stroke="#757575" points="1512.67,-113.1 1522.03,-108.15 1511.62,-106.18 1512.67,-113.1"/>
</g>
<!-- ../../services/sessionTracker.ts&#45;&gt;../../config/database.ts -->
<g id="edge11" class="edge">
<title>../../services/sessionTracker.ts&#45;&gt;../../config/database.ts</title>
<path fill="none" stroke="#757575" d="M1661.5,-108.14C1674,-111.79 1686.76,-116.52 1698,-122.62 1741.1,-145.99 1781.32,-187.71 1802.8,-212.2"/>
<polygon fill="#757575" stroke="#757575" points="1800.16,-214.5 1809.34,-219.79 1805.46,-209.93 1800.16,-214.5"/>
</g>
<!-- ../../services/sessionTracker.ts&#45;&gt;../project.ts -->
<g id="edge13" class="edge">
<title>../../services/sessionTracker.ts&#45;&gt;../project.ts</title>
<path fill="none" stroke="#757575" d="M1500.65,-95.18C1425.17,-95.48 1318.4,-99.02 1226,-113.62 1215.9,-115.22 1205.22,-117.65 1195.15,-120.31"/>
<polygon fill="#757575" stroke="#757575" points="1194.04,-116.99 1185.33,-123.02 1195.9,-123.73 1194.04,-116.99"/>
</g>
<!-- ../../utils/agentDetection.ts -->
<g id="node8" class="node">
<title>../../utils/agentDetection.ts</title>
<path fill="none" stroke="#cfffac" d="M1898.33,-108.12C1898.33,-108.12 1741.67,-108.12 1741.67,-108.12 1737.83,-108.12 1734,-104.29 1734,-100.45 1734,-100.45 1734,-92.79 1734,-92.79 1734,-88.95 1737.83,-85.12 1741.67,-85.12 1741.67,-85.12 1898.33,-85.12 1898.33,-85.12 1902.17,-85.12 1906,-88.95 1906,-92.79 1906,-92.79 1906,-100.45 1906,-100.45 1906,-104.29 1902.17,-108.12 1898.33,-108.12"/>
<text text-anchor="middle" x="1820" y="-92.92" font-family="Arial" font-size="14.00" fill="#cfffac">../../utils/agentDetection.ts</text>
</g>
<!-- ../../services/sessionTracker.ts&#45;&gt;../../utils/agentDetection.ts -->
<g id="edge12" class="edge">
<title>../../services/sessionTracker.ts&#45;&gt;../../utils/agentDetection.ts</title>
<path fill="none" stroke="#757575" d="M1698.25,-96.62C1706.65,-96.62 1715.14,-96.62 1723.52,-96.62"/>
<polygon fill="#757575" stroke="#757575" points="1723.68,-100.12 1733.68,-96.62 1723.68,-93.12 1723.68,-100.12"/>
</g>
<!-- ../../types/consolidated&#45;complexity.ts -->
<g id="node9" class="node">
<title>../../types/consolidated&#45;complexity.ts</title>
<path fill="none" stroke="#cfffac" d="M584.33,-360.12C584.33,-360.12 366.67,-360.12 366.67,-360.12 362.83,-360.12 359,-356.29 359,-352.45 359,-352.45 359,-344.79 359,-344.79 359,-340.95 362.83,-337.12 366.67,-337.12 366.67,-337.12 584.33,-337.12 584.33,-337.12 588.17,-337.12 592,-340.95 592,-344.79 592,-344.79 592,-352.45 592,-352.45 592,-356.29 588.17,-360.12 584.33,-360.12"/>
<text text-anchor="middle" x="475.5" y="-344.92" font-family="Arial" font-size="14.00" fill="#cfffac">../../types/consolidated&#45;complexity.ts</text>
</g>
<!-- ../codeComplexity.ts -->
<g id="node10" class="node">
<title>../codeComplexity.ts</title>
<path fill="none" stroke="#c6c5fe" d="M311.83,-124.12C311.83,-124.12 189.17,-124.12 189.17,-124.12 185.33,-124.12 181.5,-120.29 181.5,-116.45 181.5,-116.45 181.5,-108.79 181.5,-108.79 181.5,-104.95 185.33,-101.12 189.17,-101.12 189.17,-101.12 311.83,-101.12 311.83,-101.12 315.67,-101.12 319.5,-104.95 319.5,-108.79 319.5,-108.79 319.5,-116.45 319.5,-116.45 319.5,-120.29 315.67,-124.12 311.83,-124.12"/>
<text text-anchor="middle" x="250.5" y="-108.92" font-family="Arial" font-size="14.00" fill="#c6c5fe">../codeComplexity.ts</text>
</g>
<!-- ../codeComplexity.ts&#45;&gt;../../config/database.ts -->
<g id="edge14" class="edge">
<title>../codeComplexity.ts&#45;&gt;../../config/database.ts</title>
<path fill="none" stroke="#757575" d="M294.84,-101.06C406.03,-72.44 710.87,-0.62 969.5,-0.62 969.5,-0.62 969.5,-0.62 1346.5,-0.62 1506.24,-0.62 1562.72,9.32 1698,-75.62 1712.24,-84.56 1775.7,-171.4 1804.59,-211.5"/>
<polygon fill="#757575" stroke="#757575" points="1801.84,-213.67 1810.52,-219.75 1807.52,-209.58 1801.84,-213.67"/>
</g>
<!-- ../codeComplexity.ts&#45;&gt;../../middleware/eventLogger.ts -->
<g id="edge15" class="edge">
<title>../codeComplexity.ts&#45;&gt;../../middleware/eventLogger.ts</title>
<path fill="none" stroke="#757575" d="M319.74,-110.43C332.77,-110.09 346.31,-109.8 359,-109.62 571.88,-106.65 637.03,-90.81 834,-171.62 874.79,-188.36 918.18,-215.52 944.57,-233.23"/>
<polygon fill="#757575" stroke="#757575" points="942.93,-236.35 953.17,-239.07 946.86,-230.56 942.93,-236.35"/>
</g>
<!-- ../codeComplexity.ts&#45;&gt;../../services/complexityTracker.ts -->
<g id="edge16" class="edge">
<title>../codeComplexity.ts&#45;&gt;../../services/complexityTracker.ts</title>
<path fill="none" stroke="#757575" d="M273.29,-124.15C313.17,-145.26 398.02,-190.15 443.75,-214.35"/>
<polygon fill="#757575" stroke="#757575" points="442.15,-217.46 452.62,-219.05 445.42,-211.27 442.15,-217.46"/>
</g>
<!-- ../codeComplexity.ts&#45;&gt;../../services/sessionManager.ts -->
<g id="edge17" class="edge">
<title>../codeComplexity.ts&#45;&gt;../../services/sessionManager.ts</title>
<path fill="none" stroke="#757575" d="M319.55,-112.05C388.9,-112.81 499.17,-117.72 592,-138.62 629.18,-146.99 669.66,-163.48 697.1,-175.86"/>
<polygon fill="#757575" stroke="#757575" points="695.69,-179.06 706.23,-180.04 698.6,-172.7 695.69,-179.06"/>
</g>
<!-- complexityAnalyze.ts -->
<g id="node11" class="node">
<title>complexityAnalyze.ts</title>
<path fill="none" stroke="#c6c5fe" d="M314.33,-282.12C314.33,-282.12 186.67,-282.12 186.67,-282.12 182.83,-282.12 179,-278.29 179,-274.45 179,-274.45 179,-266.79 179,-266.79 179,-262.95 182.83,-259.12 186.67,-259.12 186.67,-259.12 314.33,-259.12 314.33,-259.12 318.17,-259.12 322,-262.95 322,-266.79 322,-266.79 322,-274.45 322,-274.45 322,-278.29 318.17,-282.12 314.33,-282.12"/>
<text text-anchor="middle" x="250.5" y="-266.92" font-family="Arial" font-size="14.00" fill="#c6c5fe">complexityAnalyze.ts</text>
</g>
<!-- complexityAnalyze.ts&#45;&gt;../../config/database.ts -->
<g id="edge20" class="edge">
<title>complexityAnalyze.ts&#45;&gt;../../config/database.ts</title>
<path fill="none" stroke="#757575" d="M320.83,-282.13C494.58,-310.89 937.11,-383.62 969.5,-383.62 969.5,-383.62 969.5,-383.62 1346.5,-383.62 1505.45,-383.62 1551.7,-379.78 1698,-317.62 1737.29,-300.93 1776.4,-269.83 1799.11,-249.96"/>
<polygon fill="#757575" stroke="#757575" points="1801.56,-252.46 1806.7,-243.19 1796.91,-247.23 1801.56,-252.46"/>
</g>
<!-- complexityAnalyze.ts&#45;&gt;../../middleware/eventLogger.ts -->
<g id="edge21" class="edge">
<title>complexityAnalyze.ts&#45;&gt;../../middleware/eventLogger.ts</title>
<path fill="none" stroke="#757575" d="M322.34,-268.72C431.99,-265.77 649.45,-259.88 834,-254.62 842.37,-254.38 851.03,-254.13 859.74,-253.88"/>
<polygon fill="#757575" stroke="#757575" points="860.08,-257.37 869.97,-253.58 859.87,-250.38 860.08,-257.37"/>
</g>
<!-- complexityAnalyze.ts&#45;&gt;../../services/complexityTracker.ts -->
<g id="edge22" class="edge">
<title>complexityAnalyze.ts&#45;&gt;../../services/complexityTracker.ts</title>
<path fill="none" stroke="#757575" d="M315.7,-259.11C342.17,-254.36 373.01,-248.83 400.43,-243.91"/>
<polygon fill="#757575" stroke="#757575" points="401.14,-247.34 410.37,-242.13 399.9,-240.45 401.14,-247.34"/>
</g>
<!-- complexityAnalyze.ts&#45;&gt;../../services/sessionManager.ts -->
<g id="edge23" class="edge">
<title>complexityAnalyze.ts&#45;&gt;../../services/sessionManager.ts</title>
<path fill="none" stroke="#757575" d="M266.87,-259.01C286.86,-244.65 323.47,-220.84 359,-210.62 443.35,-186.35 542.88,-182.52 617.59,-184.25"/>
<polygon fill="#757575" stroke="#757575" points="617.88,-187.76 627.97,-184.53 618.07,-180.76 617.88,-187.76"/>
</g>
<!-- complexityAnalyze.ts&#45;&gt;../../types/consolidated&#45;complexity.ts -->
<g id="edge24" class="edge">
<title>complexityAnalyze.ts&#45;&gt;../../types/consolidated&#45;complexity.ts</title>
<path fill="none" stroke="#757575" d="M271.91,-282.24C293.09,-293.89 327.49,-311.62 359,-322.62 372.48,-327.33 387.15,-331.4 401.37,-334.82"/>
<polygon fill="#757575" stroke="#757575" points="400.59,-338.24 411.12,-337.09 402.18,-331.42 400.59,-338.24"/>
</g>
<!-- complexityInsights.ts -->
<g id="node12" class="node">
<title>complexityInsights.ts</title>
<path fill="none" stroke="#c6c5fe" d="M134.33,-203.12C134.33,-203.12 7.67,-203.12 7.67,-203.12 3.83,-203.12 0,-199.29 0,-195.45 0,-195.45 0,-187.79 0,-187.79 0,-183.95 3.83,-180.12 7.67,-180.12 7.67,-180.12 134.33,-180.12 134.33,-180.12 138.17,-180.12 142,-183.95 142,-187.79 142,-187.79 142,-195.45 142,-195.45 142,-199.29 138.17,-203.12 134.33,-203.12"/>
<text text-anchor="middle" x="71" y="-187.92" font-family="Arial" font-size="14.00" fill="#c6c5fe">complexityInsights.ts</text>
</g>
<!-- complexityInsights.ts&#45;&gt;../../config/database.ts -->
<g id="edge25" class="edge">
<title>complexityInsights.ts&#45;&gt;../../config/database.ts</title>
<path fill="none" stroke="#757575" d="M74.27,-203.31C81.94,-239.58 110.24,-351.26 178,-409.62 282.64,-499.76 336.39,-502.62 474.5,-502.62 474.5,-502.62 474.5,-502.62 1346.5,-502.62 1416.99,-502.62 1678.66,-433.53 1698,-419.62 1758.46,-376.14 1796.26,-292.24 1811.4,-252.93"/>
<polygon fill="#757575" stroke="#757575" points="1814.7,-254.11 1814.92,-243.52 1808.14,-251.66 1814.7,-254.11"/>
</g>
<!-- complexityInsights.ts&#45;&gt;../../middleware/eventLogger.ts -->
<g id="edge26" class="edge">
<title>complexityInsights.ts&#45;&gt;../../middleware/eventLogger.ts</title>
<path fill="none" stroke="#757575" d="M79.61,-180.05C95.03,-157.83 132.39,-109.74 178,-91.62 297.12,-44.3 516.8,33.43 834,-108.62 891.74,-134.48 937,-197.53 957.51,-230.21"/>
<polygon fill="#757575" stroke="#757575" points="954.65,-232.24 962.85,-238.94 960.62,-228.58 954.65,-232.24"/>
</g>
<!-- complexityInsights.ts&#45;&gt;../../services/complexityTracker.ts -->
<g id="edge27" class="edge">
<title>complexityInsights.ts&#45;&gt;../../services/complexityTracker.ts</title>
<path fill="none" stroke="#757575" d="M142.11,-198.41C201.36,-204.16 287.47,-212.5 357.2,-219.26"/>
<polygon fill="#757575" stroke="#757575" points="357.07,-222.76 367.36,-220.24 357.75,-215.79 357.07,-222.76"/>
</g>
<!-- complexityInsights.ts&#45;&gt;../../services/sessionManager.ts -->
<g id="edge28" class="edge">
<title>complexityInsights.ts&#45;&gt;../../services/sessionManager.ts</title>
<path fill="none" stroke="#757575" d="M142.26,-187.04C242.21,-181.2 431.19,-172.64 592,-179.62 600.38,-179.98 609.03,-180.47 617.73,-181.04"/>
<polygon fill="#757575" stroke="#757575" points="617.73,-184.55 627.95,-181.75 618.21,-177.57 617.73,-184.55"/>
</g>
<!-- complexityInsights.ts&#45;&gt;../../types/consolidated&#45;complexity.ts -->
<g id="edge29" class="edge">
<title>complexityInsights.ts&#45;&gt;../../types/consolidated&#45;complexity.ts</title>
<path fill="none" stroke="#757575" d="M80.71,-203.43C97.15,-224.77 134.99,-269.6 178,-291.62 230.38,-318.43 293.84,-332.69 348.59,-340.25"/>
<polygon fill="#757575" stroke="#757575" points="348.33,-343.75 358.7,-341.59 349.25,-336.81 348.33,-343.75"/>
</g>
<!-- complexityInsights.ts&#45;&gt;../codeComplexity.ts -->
<g id="edge30" class="edge">
<title>complexityInsights.ts&#45;&gt;../codeComplexity.ts</title>
<path fill="none" stroke="#757575" d="M93.58,-179.91C114.76,-168.64 148.14,-151.47 178,-138.62 186.92,-134.79 196.6,-131.01 205.89,-127.58"/>
<polygon fill="#757575" stroke="#757575" points="207.16,-130.84 215.36,-124.13 204.77,-124.26 207.16,-130.84"/>
</g>
<!-- complexityManage.ts -->
<g id="node13" class="node">
<title>complexityManage.ts</title>
<path fill="none" stroke="#c6c5fe" d="M315.33,-400.12C315.33,-400.12 185.67,-400.12 185.67,-400.12 181.83,-400.12 178,-396.29 178,-392.45 178,-392.45 178,-384.79 178,-384.79 178,-380.95 181.83,-377.12 185.67,-377.12 185.67,-377.12 315.33,-377.12 315.33,-377.12 319.17,-377.12 323,-380.95 323,-384.79 323,-384.79 323,-392.45 323,-392.45 323,-396.29 319.17,-400.12 315.33,-400.12"/>
<text text-anchor="middle" x="250.5" y="-384.92" font-family="Arial" font-size="14.00" fill="#c6c5fe">complexityManage.ts</text>
</g>
<!-- complexityManage.ts&#45;&gt;../../config/database.ts -->
<g id="edge31" class="edge">
<title>complexityManage.ts&#45;&gt;../../config/database.ts</title>
<path fill="none" stroke="#757575" d="M294.68,-400.16C378.13,-421.42 567.66,-464.62 730,-464.62 730,-464.62 730,-464.62 1346.5,-464.62 1509.42,-464.62 1559.33,-446.13 1698,-360.62 1744.93,-331.68 1785.56,-279.87 1805.63,-251.51"/>
<polygon fill="#757575" stroke="#757575" points="1808.58,-253.4 1811.41,-243.19 1802.83,-249.41 1808.58,-253.4"/>
</g>
<!-- complexityManage.ts&#45;&gt;../../middleware/eventLogger.ts -->
<g id="edge32" class="edge">
<title>complexityManage.ts&#45;&gt;../../middleware/eventLogger.ts</title>
<path fill="none" stroke="#757575" d="M323.27,-398.47C392.65,-406.04 500.44,-412.6 592,-395.62 726.93,-370.6 875.89,-299.25 938.79,-266.91"/>
<polygon fill="#757575" stroke="#757575" points="940.52,-269.96 947.79,-262.25 937.3,-263.75 940.52,-269.96"/>
</g>
<!-- complexityManage.ts&#45;&gt;../../services/complexityTracker.ts -->
<g id="edge33" class="edge">
<title>complexityManage.ts&#45;&gt;../../services/complexityTracker.ts</title>
<path fill="none" stroke="#757575" d="M267.9,-377C306.64,-349.55 404.02,-280.56 449.88,-248.06"/>
<polygon fill="#757575" stroke="#757575" points="451.94,-250.89 458.08,-242.26 447.9,-245.18 451.94,-250.89"/>
</g>
<!-- complexityManage.ts&#45;&gt;../../services/sessionManager.ts -->
<g id="edge34" class="edge">
<title>complexityManage.ts&#45;&gt;../../services/sessionManager.ts</title>
<path fill="none" stroke="#757575" d="M323.02,-392.97C409.76,-396.84 549.63,-398.12 592,-369.62 623.01,-348.76 606.47,-324.17 628,-293.62 651.15,-260.77 685.37,-229.02 707.67,-209.9"/>
<polygon fill="#757575" stroke="#757575" points="710.21,-212.34 715.59,-203.22 705.69,-206.99 710.21,-212.34"/>
</g>
<!-- complexityManage.ts&#45;&gt;../../types/consolidated&#45;complexity.ts -->
<g id="edge35" class="edge">
<title>complexityManage.ts&#45;&gt;../../types/consolidated&#45;complexity.ts</title>
<path fill="none" stroke="#757575" d="M315.7,-377.11C342.17,-372.36 373.01,-366.83 400.43,-361.91"/>
<polygon fill="#757575" stroke="#757575" points="401.14,-365.34 410.37,-360.13 399.9,-358.45 401.14,-365.34"/>
</g>
</g>
</svg>
